<?xml version="1.0" encoding="UTF-8" standalone="no"?>
<!-- Created with Inkscape (http://www.inkscape.org/) -->

<svg
   width="10.004883pt"
   height="10.004883pt"
   viewBox="0 0 3.5295004 3.5295003"
   version="1.1"
   id="svg1"
   xml:space="preserve"
   xmlns="http://www.w3.org/2000/svg"
   xmlns:svg="http://www.w3.org/2000/svg"><defs
     id="defs1" /><g
     id="layer1"
     transform="translate(-745.40619,-2.4685831)"><g
       id="circle164"><path
         id="path174"
         style="color:#000000;fill:#da8bc3;-inkscape-stroke:none"
         d="m 747.1699,2.4685832 c -0.97208,0 -1.76371,0.7916389 -1.76371,1.7637166 0,0.9720778 0.79163,1.7657837 1.76371,1.7657837 0.97208,0 1.76579,-0.7937059 1.76579,-1.7657837 0,-0.9720777 -0.79371,-1.7637166 -1.76579,-1.7637166 z m 0,0.3534668 c 0.78143,0 1.41232,0.6288271 1.41232,1.4102498 0,0.7814228 -0.63089,1.4123169 -1.41232,1.4123169 -0.78142,0 -1.41025,-0.6308941 -1.41025,-1.4123169 0,-0.7814227 0.62883,-1.4102498 1.41025,-1.4102498 z m -0.85834,0.4914429 v 1.839681 h 0.37207 V 4.4787964 c 0,-0.060207 -0.003,-0.130453 -0.008,-0.2113566 -0.006,-0.082785 -0.0128,-0.1650763 -0.0222,-0.2459798 -0.008,-0.082785 -0.0152,-0.1542499 -0.0227,-0.2144572 h 0.0114 l 0.14366,0.4857585 0.25632,0.7027994 h 0.24288 l 0.25993,-0.7027994 0.14934,-0.4857585 h 0.0114 c -0.008,0.060207 -0.0159,0.1316721 -0.0253,0.2144572 -0.008,0.080903 -0.0152,0.1631948 -0.0227,0.2459798 -0.005,0.080904 -0.008,0.1511493 -0.008,0.2113566 v 0.6743775 h 0.38138 v -1.839681 h -0.46302 l -0.28784,0.8180379 c -0.0188,0.054563 -0.0356,0.1104703 -0.0507,0.1669149 -0.0151,0.054563 -0.0311,0.1118752 -0.048,0.1720825 h -0.0114 c -0.0169,-0.060208 -0.0337,-0.1175199 -0.0507,-0.1720825 -0.0151,-0.056445 -0.0324,-0.1123523 -0.0512,-0.1669149 l -0.29352,-0.8180379 z" /></g></g></svg>
