<?xml version="1.0" encoding="UTF-8" standalone="no"?>
<!-- Created with Inkscape (http://www.inkscape.org/) -->

<svg
   width="10.003418pt"
   height="10.004883pt"
   viewBox="0 0 3.5289836 3.5295003"
   version="1.1"
   id="svg1"
   xml:space="preserve"
   xmlns="http://www.w3.org/2000/svg"
   xmlns:svg="http://www.w3.org/2000/svg"><defs
     id="defs1" /><g
     id="layer1"
     transform="translate(-736.93951,-2.4685831)"><g
       id="circle162"><path
         id="path176"
         style="color:#000000;fill:#ccb974;-inkscape-stroke:none"
         d="m 738.7053,2.4685832 c -0.97208,0 -1.76578,0.7916389 -1.76578,1.7637166 0,0.9720778 0.7937,1.7657837 1.76578,1.7657837 0.97208,0 1.7632,-0.7937059 1.7632,-1.7657837 0,-0.9720777 -0.79112,-1.7637166 -1.7632,-1.7637166 z m 0,0.3534668 c 0.78142,0 1.40974,0.6288271 1.40974,1.4102498 0,0.7814228 -0.62832,1.4123169 -1.40974,1.4123169 -0.78143,0 -1.41231,-0.6308941 -1.41231,-1.4123169 0,-0.7814227 0.63088,-1.4102498 1.41231,-1.4102498 z m -0.80563,0.4914429 0.54467,1.839681 h 0.49971 l 0.56431,-1.839681 h -0.42323 l -0.22841,0.8578287 -0.0507,0.197404 c -0.0169,0.065852 -0.033,0.1308502 -0.0481,0.1948202 -0.0151,0.06397 -0.0311,0.1296707 -0.0481,0.1974039 h -0.0114 c -0.0188,-0.067733 -0.0368,-0.1334333 -0.0537,-0.1974039 -0.0151,-0.06397 -0.0311,-0.1289682 -0.0481,-0.1948202 -0.0151,-0.065851 -0.0311,-0.131552 -0.0481,-0.197404 l -0.20877,-0.8578287 z" /></g></g></svg>
