<?xml version="1.0" encoding="UTF-8" standalone="no"?>
<!-- Created with Inkscape (http://www.inkscape.org/) -->

<svg
   width="9.9975586pt"
   height="10.004883pt"
   viewBox="0 0 3.5269166 3.5295003"
   version="1.1"
   id="svg1"
   xml:space="preserve"
   xmlns="http://www.w3.org/2000/svg"
   xmlns:svg="http://www.w3.org/2000/svg"><defs
     id="defs1" /><g
     id="layer1"
     transform="translate(-732.70722,-2.4685831)"><g
       id="circle537"><path
         style="color:#000000;fill:#e0f4fa;-inkscape-stroke:none"
         d="m 736.05833,4.2333336 a 1.5874999,1.5874999 0 0 1 -1.5875,1.5874998 1.5874999,1.5874999 0 0 1 -1.5875,-1.5874998 1.5874999,1.5874999 0 0 1 1.5875,-1.5874999 1.5874999,1.5874999 0 0 1 1.5875,1.5874999 z"
         id="path542" /><path
         id="path543"
         style="color:#000000;fill:#64b5cd;-inkscape-stroke:none"
         d="m 734.47094,2.4685832 c -0.97208,0 -1.76372,0.7916389 -1.76372,1.7637166 0,0.9720778 0.79164,1.7657837 1.76372,1.7657837 0.97208,0 1.7632,-0.7937059 1.7632,-1.7657837 0,-0.9720777 -0.79112,-1.7637166 -1.7632,-1.7637166 z m 0,0.3534668 c 0.78143,0 1.4118,0.6288271 1.4118,1.4102498 0,0.7814228 -0.63037,1.4123169 -1.4118,1.4123169 -0.78142,0 -1.41025,-0.6308941 -1.41025,-1.4123169 0,-0.7814227 0.62883,-1.4102498 1.41025,-1.4102498 z m -0.17519,0.7338053 v 0.5079794 h -0.49092 v 0.3389974 h 0.49092 v 0.5079793 h 0.34985 V 4.4028321 h 0.49145 V 4.0638347 H 734.6456 V 3.5558553 Z" /></g></g></svg>
