<?xml version="1.0" encoding="UTF-8" standalone="no"?>
<!-- Created with Inkscape (http://www.inkscape.org/) -->

<svg
   width="10.000488pt"
   height="10.000496pt"
   viewBox="0 0 3.5279501 3.5279527"
   version="1.1"
   id="svg1"
   xml:space="preserve"
   xmlns="http://www.w3.org/2000/svg"
   xmlns:svg="http://www.w3.org/2000/svg"><defs
     id="defs1" /><g
     id="layer1"
     transform="translate(-754.29443,-2.3610938)"><path
       d="m 756.05825,2.3610962 c -0.084,3.83e-5 -0.16797,0.00608 -0.25115,0.018087 -0.0832,0.011863 -0.16536,0.02965 -0.24598,0.053227 -0.0805,0.023639 -0.15928,0.052998 -0.23564,0.08785 -0.0763,0.035003 -0.15008,0.075414 -0.22066,0.1209229 -0.0707,0.045433 -0.13804,0.095861 -0.20154,0.1508952 -0.0636,0.054933 -0.12316,0.1143407 -0.17828,0.1777669 -0.055,0.063499 -0.10546,0.1308507 -0.1509,0.2015381 -0.0453,0.070595 -0.0856,0.1443361 -0.1204,0.2206583 -0.0349,0.076525 -0.0642,0.1554478 -0.0879,0.2361613 -0.0238,0.080608 -0.0417,0.1628116 -0.0538,0.2459799 -0.0118,0.083019 -0.0177,0.1667762 -0.0176,0.2506307 -1.3e-4,0.084027 0.006,0.1679575 0.0176,0.2511474 0.012,0.083168 0.03,0.1653719 0.0538,0.2459798 0.0236,0.080538 0.053,0.1592871 0.0879,0.2356446 0.0348,0.076499 0.075,0.1504133 0.1204,0.2211751 0.009,0.011995 0.0174,0.023882 0.0264,0.035657 l -0.30541,0.3054078 0.12402,0.1255737 0.12403,0.1245402 0.28577,-0.2857707 0.001,0.00103 0.36897,-0.3689698 v -0.00155 l 0.37259,-0.3725871 0.19688,-0.1968872 0.24185,-0.2408121 v -5.168e-4 l 0.14521,-0.1452108 0.76223,-0.7617106 v -5.168e-4 l 0.40308,-0.4025594 0.28267,-0.2826701 -0.12506,-0.1250569 -0.12454,-0.125057 -0.30489,0.304891 c -0.004,-0.0026 -0.007,-0.00518 -0.0109,-0.00775 -0.0239,-0.015922 -0.0482,-0.031257 -0.0729,-0.045992 -0.0248,-0.014914 -0.0499,-0.029215 -0.0754,-0.042892 -0.0255,-0.013552 -0.0514,-0.026475 -0.0775,-0.038757 -0.0261,-0.012358 -0.0524,-0.024075 -0.0791,-0.03514 -0.0266,-0.010992 -0.0535,-0.02133 -0.0806,-0.031006 -0.0272,-0.0098 -0.0546,-0.018933 -0.0822,-0.027388 -0.0277,-0.00844 -0.0556,-0.016192 -0.0837,-0.023254 -0.0279,-0.00689 -0.056,-0.01309 -0.0842,-0.018603 -0.0283,-0.00569 -0.0567,-0.010689 -0.0853,-0.014986 -0.0285,-0.00432 -0.0571,-0.00794 -0.0858,-0.010852 -0.0289,-0.00278 -0.0578,-0.00485 -0.0868,-0.0062 -0.0287,-0.00139 -0.0575,-0.00208 -0.0863,-0.00207 z m 1.48415,0.81132 -0.62477,0.6242513 v 1.2485026 h -0.38086 V 4.3702759 c 0,-0.030102 6.6e-4,-0.062392 0.002,-0.097668 10e-4,-0.03191 0.003,-0.066692 0.006,-0.1028361 l -0.1695,0.1689819 -0.20258,0.5482869 h -0.24287 l -0.0274,-0.075448 -0.79737,0.7973674 c 0.0706,0.04533 0.14434,0.085571 0.22066,0.1204061 0.0764,0.034851 0.15511,0.064212 0.23564,0.08785 0.0806,0.02375 0.16282,0.041712 0.24598,0.053743 0.0832,0.012004 0.16711,0.018048 0.25115,0.018087 0.084,-3.83e-5 0.16797,-0.00608 0.25115,-0.018087 0.0832,-0.012032 0.16537,-0.029993 0.24598,-0.053743 0.0805,-0.023638 0.15929,-0.052999 0.23564,-0.08785 0.0763,-0.034835 0.15007,-0.075076 0.22066,-0.1204061 0.0707,-0.045432 0.13804,-0.095863 0.20154,-0.1508952 0.0636,-0.054931 0.12317,-0.1143431 0.17828,-0.1777669 0.0549,-0.063513 0.10511,-0.1308699 0.15038,-0.2015381 0.0455,-0.070744 0.0859,-0.144664 0.12092,-0.2211751 0.0349,-0.076355 0.0642,-0.1551098 0.0879,-0.2356446 0.0238,-0.080605 0.0417,-0.1628146 0.0538,-0.2459798 0.0118,-0.083187 0.0177,-0.1671237 0.0176,-0.2511474 1e-5,-0.028778 -6.8e-4,-0.057556 -0.002,-0.0863 -10e-4,-0.028812 -0.003,-0.057589 -0.006,-0.0863 -0.003,-0.028677 -0.007,-0.057283 -0.0109,-0.085783 -0.004,-0.028708 -0.009,-0.057313 -0.0145,-0.085783 -0.006,-0.028228 -0.0121,-0.056317 -0.0191,-0.084233 -0.007,-0.027917 -0.0148,-0.055661 -0.0233,-0.083199 -0.008,-0.027776 -0.0172,-0.055348 -0.0269,-0.082682 -0.01,-0.027124 -0.0204,-0.054007 -0.0315,-0.080615 -0.0109,-0.026632 -0.0224,-0.052997 -0.0346,-0.079065 -0.0124,-0.026156 -0.0255,-0.052004 -0.0393,-0.077515 -0.0135,-0.025317 -0.0276,-0.050304 -0.0424,-0.074931 -0.009,-0.015478 -0.0191,-0.030811 -0.0289,-0.045992 z m -2.34353,0.032556 h 0.46302 l 0.22376,0.6242513 -0.24495,0.2449463 -0.11162,-0.3751709 h -0.0114 c 0.008,0.060207 0.0152,0.1316723 0.0227,0.2144571 0.005,0.040452 0.009,0.081034 0.0124,0.1219564 0.004,0.038698 0.007,0.077671 0.01,0.1167888 l -0.3638,0.3638021 z"
       style="fill:#da8bc3;stroke-width:0.352778"
       id="path185" /></g></svg>
