<?xml version="1.0" encoding="UTF-8" standalone="no"?>
<!-- Created with Inkscape (http://www.inkscape.org/) -->

<svg
   width="9.9990234pt"
   height="10.004883pt"
   viewBox="0 0 3.5274333 3.5295003"
   version="1.1"
   id="svg1"
   xml:space="preserve"
   xmlns="http://www.w3.org/2000/svg"
   xmlns:svg="http://www.w3.org/2000/svg"><defs
     id="defs1" /><g
     id="layer1"
     transform="translate(-741.17389,-2.4685831)"><path
       id="text163"
       style="font-weight:bold;font-size:2.82222px;line-height:1.3;font-family:'Source Sans 3';-inkscape-font-specification:'Source Sans 3 Bold';text-align:center;text-anchor:middle;fill:#c44e52;stroke-width:0.246944"
       d="m 742.9376,2.4685832 c -0.97208,0 -1.76371,0.7916389 -1.76371,1.7637166 0,0.9720778 0.79163,1.7657837 1.76371,1.7657837 0.97208,0 1.76372,-0.7937059 1.76372,-1.7657837 0,-0.9720777 -0.79164,-1.7637166 -1.76372,-1.7637166 z m 0,0.3534668 c 0.78142,0 1.41025,0.6288271 1.41025,1.4102498 0,0.7814228 -0.62883,1.4123169 -1.41025,1.4123169 -0.78142,0 -1.41231,-0.6308941 -1.41231,-1.4123169 0,-0.7814227 0.63089,-1.4102498 1.41231,-1.4102498 z m 0.0408,0.4573364 c -0.12794,0 -0.24186,0.025681 -0.34158,0.076481 -0.0978,0.048919 -0.17505,0.114619 -0.23151,0.197404 -0.0545,0.080904 -0.0816,0.1722853 -0.0816,0.2738851 0,0.090311 0.0168,0.1682423 0.0506,0.2340942 0.0357,0.06397 0.082,0.118659 0.13849,0.1638143 0.0584,0.043274 0.11829,0.078748 0.18035,0.1069703 l 0.23978,0.098702 c 0.0545,0.022578 0.10206,0.043197 0.1416,0.062012 0.0395,0.018815 0.0693,0.040653 0.0899,0.065112 0.0226,0.022577 0.0341,0.053506 0.0341,0.093018 0,0.054563 -0.0218,0.097723 -0.0651,0.1297079 -0.0414,0.031985 -0.10518,0.048059 -0.19172,0.048059 -0.0809,0 -0.1639,-0.016074 -0.24857,-0.048059 -0.0828,-0.031985 -0.15685,-0.075847 -0.22272,-0.1322917 L 742.25028,4.91908 c 0.0941,0.090311 0.20031,0.1579331 0.31884,0.2030884 0.11853,0.043274 0.23893,0.065112 0.36122,0.065112 0.14675,0 0.27168,-0.026384 0.37517,-0.079065 0.10351,-0.052681 0.18266,-0.1222248 0.23719,-0.2087728 0.0545,-0.086548 0.0816,-0.1805535 0.0816,-0.2821533 0,-0.086548 -0.0148,-0.1611536 -0.045,-0.2232422 -0.0301,-0.06397 -0.0725,-0.1181423 -0.12712,-0.1632976 -0.0527,-0.045155 -0.11646,-0.083067 -0.19172,-0.1131713 L 743.02339,4.02146 c -0.0508,-0.022578 -0.0978,-0.041978 -0.14108,-0.058911 -0.0433,-0.018815 -0.0773,-0.040653 -0.1018,-0.065112 -0.0245,-0.026341 -0.0367,-0.05727 -0.0367,-0.093018 0,-0.052682 0.0211,-0.093218 0.0625,-0.1214396 0.0433,-0.030103 0.10058,-0.044958 0.17208,-0.044958 0.0621,0 0.12397,0.012231 0.18603,0.03669 0.064,0.024459 0.12636,0.059231 0.18655,0.1043864 l 0.22015,-0.2682007 c -0.0771,-0.075259 -0.16782,-0.1325712 -0.2713,-0.1720825 -0.10348,-0.039511 -0.21043,-0.059428 -0.32143,-0.059428 z" /></g></svg>
