<?xml version="1.0" encoding="UTF-8" standalone="no"?>
<!-- Created with Inkscape (http://www.inkscape.org/) -->

<svg
   width="10.000488pt"
   height="9.9990234pt"
   viewBox="0 0 3.5279501 3.5274333"
   version="1.1"
   id="svg1"
   xml:space="preserve"
   xmlns="http://www.w3.org/2000/svg"
   xmlns:svg="http://www.w3.org/2000/svg"><defs
     id="defs1" /><g
     id="layer1"
     transform="translate(-749.64002,-2.4696167)"><path
       id="circle166"
       style="fill:#4c72b0;stroke:none;stroke-width:0.352778"
       d="m 751.40427,2.4696167 a 1.7638889,1.7638889 0 0 0 -1.76423,1.7637167 1.7638889,1.7638889 0 0 0 1.76423,1.7637166 1.7638889,1.7638889 0 0 0 1.76372,-1.7637166 1.7638889,1.7638889 0 0 0 -1.76372,-1.7637167 z m -0.85938,0.8438762 h 0.46251 l 0.29352,0.8180379 c 0.0188,0.054563 0.0361,0.1104703 0.0512,0.1669149 0.0169,0.054563 0.0337,0.111875 0.0506,0.1720825 h 0.0114 c 0.0169,-0.060207 0.033,-0.1175196 0.0481,-0.1720825 0.0151,-0.056445 0.0318,-0.1123523 0.0506,-0.1669149 l 0.28784,-0.8180379 h 0.46302 v 1.839681 h -0.38137 V 4.4787964 c 0,-0.060207 0.003,-0.130453 0.008,-0.2113566 0.008,-0.082785 0.0152,-0.1650763 0.0227,-0.2459798 0.009,-0.082785 0.0178,-0.1542499 0.0253,-0.2144572 h -0.0114 l -0.14935,0.4857585 -0.25993,0.7027994 h -0.24288 L 751.01876,4.2927613 750.8751,3.8070028 h -0.0114 c 0.008,0.060207 0.0152,0.1316721 0.0227,0.2144572 0.009,0.080903 0.0166,0.1631948 0.0222,0.2459798 0.005,0.080904 0.008,0.1511493 0.008,0.2113566 v 0.6743775 h -0.37207 z" /></g></svg>
