<?xml version="1.0" encoding="UTF-8" standalone="no"?>
<!-- Created with Inkscape (http://www.inkscape.org/) -->

<svg
   width="9.9990234pt"
   height="9.9990234pt"
   viewBox="0 0 3.5274333 3.5274333"
   version="1.1"
   id="svg1"
   xml:space="preserve"
   xmlns="http://www.w3.org/2000/svg"
   xmlns:svg="http://www.w3.org/2000/svg"><defs
     id="defs1" /><g
     id="layer1"
     transform="translate(-762.76172,-2.3610962)"><g
       id="rect186"><path
         style="color:#000000;fill:#e0f4fa;-inkscape-stroke:none"
         d="m 762.9375,2.5374997 h 3.175 v 3.1749999 h -3.175 z"
         id="path189" /><path
         id="path190"
         style="color:#000000;fill:#64b5cd;-inkscape-stroke:none"
         d="m 762.76172,2.3610962 v 0.1762166 3.3512167 h 3.52743 V 2.3610962 Z m 0.3514,0.3539836 h 2.82256 v 2.8199829 h -2.82256 z m 0.77618,0.4898926 v 1.8401977 h 0.41496 V 4.3816447 h 0.22892 l 0.35244,0.6635254 h 0.4656 l -0.41651,-0.7369059 c 0.0948,-0.043109 0.1719,-0.1050983 0.23048,-0.1860352 0.064,-0.088429 0.0956,-0.2030541 0.0956,-0.344165 0,-0.1448738 -0.0316,-0.2587962 -0.0956,-0.3415812 -0.064,-0.084666 -0.14959,-0.1439003 -0.25683,-0.177767 -0.10725,-0.035748 -0.22572,-0.053743 -0.35554,-0.053743 z m 0.41496,0.3302124 h 0.21446 c 0.1091,0 0.19209,0.017996 0.24856,0.053743 0.0583,0.035748 0.0873,0.098825 0.0873,0.1891357 0,0.090311 -0.029,0.1586349 -0.0873,0.2056722 -0.0565,0.045155 -0.13944,0.067696 -0.24856,0.067696 h -0.21446 z" /></g></g></svg>
