<?xml version="1.0" encoding="UTF-8" standalone="no"?>
<!-- Created with Inkscape (http://www.inkscape.org/) -->

<svg
   width="6.0009155pt"
   height="6.0005951pt"
   viewBox="0 0 2.1169897 2.1168766"
   version="1.1"
   id="svg1"
   xml:space="preserve"
   inkscape:version="1.3 (0e150ed6c4, 2023-07-21)"
   sodipodi:docname="custom.svg.2025_08_24_12_52_29.0.svg"
   xmlns:inkscape="http://www.inkscape.org/namespaces/inkscape"
   xmlns:sodipodi="http://sodipodi.sourceforge.net/DTD/sodipodi-0.dtd"
   xmlns="http://www.w3.org/2000/svg"
   xmlns:svg="http://www.w3.org/2000/svg"><sodipodi:namedview
     id="namedview1"
     pagecolor="#fae9e0"
     bordercolor="#eeeeee"
     borderopacity="1"
     inkscape:showpageshadow="0"
     inkscape:pageopacity="0"
     inkscape:pagecheckerboard="0"
     inkscape:deskcolor="#d1d1d1"
     inkscape:document-units="pt"
     inkscape:zoom="11.313709"
     inkscape:cx="3012.4959"
     inkscape:cy="121.3572"
     inkscape:window-width="2400"
     inkscape:window-height="1511"
     inkscape:window-x="-9"
     inkscape:window-y="-9"
     inkscape:window-maximized="1"
     inkscape:current-layer="layer1"
     showgrid="true"
     showguides="false"
     inkscape:lockguides="true"><inkscape:grid
       id="grid1"
       units="in"
       originx="-3034.6208"
       originy="-108.66545"
       spacingx="1"
       spacingy="1"
       empcolor="#0099e5"
       empopacity="0.30196078"
       color="#0099e5"
       opacity="0.14901961"
       empspacing="5"
       dotted="true"
       gridanglex="30"
       gridanglez="30"
       visible="true"
       enabled="false" /><sodipodi:guide
       position="73.5,84.977927"
       orientation="1,0"
       id="guide23"
       inkscape:locked="true" /><sodipodi:guide
       position="81.167449,88.900003"
       orientation="0,-1"
       id="guide24"
       inkscape:locked="true" /><sodipodi:guide
       position="76.5,85.900003"
       orientation="0,1"
       id="guide25"
       inkscape:locked="true"
       inkscape:label=""
       inkscape:color="rgb(0,134,229)" /><sodipodi:guide
       position="137,88.900003"
       orientation="336,0"
       id="guide26"
       inkscape:locked="true" /><sodipodi:guide
       position="137,3.0000021"
       orientation="0,1"
       id="guide27"
       inkscape:locked="true"
       inkscape:label=""
       inkscape:color="rgb(0,134,229)" /><sodipodi:guide
       position="76.5,2.0000001e-06"
       orientation="-1,0"
       id="guide28"
       inkscape:locked="true"
       inkscape:label=""
       inkscape:color="rgb(0,134,229)" /><sodipodi:guide
       position="137,2.0426322e-06"
       orientation="0,1"
       id="guide29"
       inkscape:label=""
       inkscape:locked="true"
       inkscape:color="rgb(0,134,229)" /><sodipodi:guide
       position="134,88.900003"
       orientation="-1,0"
       id="guide30"
       inkscape:label=""
       inkscape:locked="true"
       inkscape:color="rgb(0,134,229)" /><sodipodi:guide
       position="69.5,78.900003"
       orientation="0,1"
       id="guide35"
       inkscape:label=""
       inkscape:locked="true"
       inkscape:color="rgb(0,134,229)" /><inkscape:grid
       id="grid143"
       units="pt"
       originx="-3034.445"
       originy="-108.48907"
       spacingx="0.35277778"
       spacingy="0.35277778"
       empcolor="#0099e5"
       empopacity="0.30196078"
       color="#0099e5"
       opacity="0.14901961"
       empspacing="5"
       dotted="true"
       gridanglex="30"
       gridanglez="30"
       visible="true"
       enabled="false" /><inkscape:page
       x="3.0879812e-06"
       y="2.9511311e-08"
       width="2.1169896"
       height="2.1168766"
       id="page4"
       margin="0"
       bleed="0" /></sodipodi:namedview><defs
     id="defs1" /><g
     inkscape:label="Layer 1"
     inkscape:groupmode="layer"
     id="layer1"
     transform="translate(-802.91007,-28.751068)"><path
       d="m 803.9685,28.751217 c -0.0556,1.17e-4 -0.11102,0.0046 -0.16588,0.01344 -0.0547,0.0087 -0.10858,0.02164 -0.16123,0.03876 -0.0527,0.01713 -0.10406,0.03839 -0.15348,0.06356 -0.0494,0.02502 -0.0967,0.05387 -0.14159,0.0863 -0.045,0.03262 -0.0873,0.06874 -0.12661,0.108003 -0.0391,0.03932 -0.075,0.08166 -0.10748,0.126608 -0.0326,0.04485 -0.0616,0.0922 -0.0868,0.141593 -0.0251,0.04925 -0.0464,0.100393 -0.0636,0.152962 -0.0171,0.05282 -0.0301,0.106899 -0.0388,0.161748 -0.009,0.0547 -0.013,0.10999 -0.0129,0.165364 -5e-5,0.05555 0.004,0.111013 0.0129,0.165882 0.009,0.05467 0.0216,0.108584 0.0388,0.16123 0.0171,0.05274 0.0384,0.104064 0.0636,0.153479 0.0252,0.0494 0.0542,0.09674 0.0868,0.141593 0.0325,0.04477 0.0684,0.08694 0.10748,0.126091 0.0393,0.03927 0.0816,0.07538 0.12661,0.108004 0.0448,0.0326 0.0922,0.06163 0.14159,0.08682 0.0494,0.02518 0.10074,0.04643 0.15348,0.06356 0.0526,0.01712 0.10656,0.03008 0.16123,0.03876 0.0184,0.0019 0.0368,0.0032 0.0553,0.0041 v -0.177767 c -0.009,0.0018 -0.0174,0.0038 -0.0258,0.0052 -0.0135,0.0022 -0.0265,0.0036 -0.0393,0.0047 -0.0128,0.0011 -0.0256,0.0021 -0.0377,0.0021 -0.0121,-2e-6 -0.0237,-9.75e-4 -0.0351,-0.0021 -0.0114,-0.0011 -0.0228,-0.0025 -0.0336,-0.0047 -0.0108,-0.0022 -0.0209,-0.005 -0.031,-0.0083 -0.0101,-0.0033 -0.02,-0.007 -0.0294,-0.01137 -0.009,-0.0044 -0.0187,-0.0095 -0.0274,-0.01499 -0.009,-0.0055 -0.0168,-0.01103 -0.0248,-0.01757 -0.008,-0.0065 -0.0159,-0.01407 -0.0233,-0.0217 -0.007,-0.0076 -0.0145,-0.01556 -0.0212,-0.02429 -0.007,-0.0087 -0.0131,-0.01809 -0.0191,-0.02791 -0.006,-0.0098 -0.0112,-0.0201 -0.0165,-0.03101 -0.005,-0.01091 -0.0104,-0.02263 -0.015,-0.03462 -0.005,-0.012 -0.009,-0.02412 -0.0129,-0.03721 -0.004,-0.01309 -0.008,-0.02664 -0.0109,-0.04083 0.0142,-0.0033 0.0278,-0.0061 0.0413,-0.0083 0.0135,-0.0022 0.027,-0.0041 0.0398,-0.0052 0.0128,-0.0011 0.0251,-0.0016 0.0372,-0.0015 0.0121,2e-6 0.0237,4.59e-4 0.0351,0.0015 0.0114,0.0011 0.0228,0.003 0.0336,0.0052 0.0108,0.0022 0.0214,0.005 0.0315,0.0083 0.0101,0.0033 0.0195,0.007 0.0289,0.01137 0.009,0.0044 0.0187,0.009 0.0274,0.01447 0.009,0.0055 0.0168,0.01154 0.0248,0.01809 0.008,0.0065 0.0159,0.01355 0.0233,0.02119 0.007,0.0076 0.0145,0.01608 0.0212,0.0248 0.007,0.0087 0.0131,0.01757 0.0191,0.02739 0.006,0.0098 0.0112,0.02062 0.0165,0.03152 0.005,0.01091 0.0104,0.02211 0.015,0.03411 0.003,0.0077 0.006,0.01612 0.008,0.02429 v -0.293522 c -0.0108,-0.0017 -0.0214,-0.0035 -0.032,-0.0057 -0.0115,-0.0023 -0.0228,-0.0054 -0.0341,-0.0083 -0.0113,-0.0029 -0.0225,-0.0059 -0.0336,-0.0093 -0.0111,-0.0034 -0.0217,-0.0074 -0.0326,-0.01137 -0.0108,-0.004 -0.0215,-0.0079 -0.032,-0.0124 -0.0106,-0.0045 -0.0213,-0.009 -0.0315,-0.01395 -0.0103,-0.005 -0.0205,-0.01007 -0.0305,-0.0155 -0.02,-0.01086 -0.0391,-0.02298 -0.0579,-0.03566 -0.0188,-0.01268 -0.0368,-0.02593 -0.0543,-0.04031 -0.0174,-0.01438 -0.0342,-0.03003 -0.0501,-0.04599 -0.016,-0.01596 -0.0311,-0.0327 -0.0455,-0.05013 -0.0144,-0.01742 -0.0281,-0.03549 -0.0408,-0.05426 -0.0127,-0.01877 -0.0243,-0.03788 -0.0351,-0.05788 -0.005,-0.01 -0.0105,-0.02021 -0.0155,-0.03049 -0.005,-0.01028 -0.01,-0.02097 -0.0145,-0.03152 -0.004,-0.01055 -0.008,-0.02123 -0.0124,-0.03204 -0.004,-0.01081 -0.008,-0.02151 -0.0114,-0.03256 -0.003,-0.01105 -0.006,-0.02232 -0.009,-0.03359 -0.003,-0.01127 -0.005,-0.02262 -0.008,-0.03411 -0.002,-0.01148 -0.004,-0.02294 -0.006,-0.03462 -0.002,-0.01168 -0.003,-0.02328 -0.005,-0.03514 -10e-4,-0.01186 -0.002,-0.02415 -0.003,-0.03617 -6.1e-4,-0.01202 -0.001,-0.024 -0.001,-0.03617 0,-0.01218 4.3e-4,-0.02415 0.001,-0.03617 6.1e-4,-0.01202 10e-4,-0.02431 0.003,-0.03617 0.001,-0.01186 0.003,-0.02346 0.005,-0.03514 0.002,-0.01168 0.004,-0.02314 0.006,-0.03462 0.002,-0.01148 0.005,-0.02283 0.008,-0.03411 0.003,-0.01127 0.006,-0.02254 0.009,-0.03359 0.003,-0.01105 0.007,-0.02175 0.0114,-0.03256 0.004,-0.01081 0.008,-0.02149 0.0124,-0.03204 0.004,-0.01055 0.01,-0.02124 0.0145,-0.03152 0.005,-0.01028 0.0101,-0.02049 0.0155,-0.03049 0.0109,-0.01999 0.0225,-0.03911 0.0351,-0.05788 0.0127,-0.01877 0.0264,-0.03684 0.0408,-0.05426 0.0144,-0.01742 0.0295,-0.03417 0.0455,-0.05013 0.016,-0.01596 0.0327,-0.03161 0.0501,-0.04599 0.0174,-0.01438 0.0355,-0.02763 0.0543,-0.04031 0.0188,-0.01268 0.0379,-0.02479 0.0579,-0.03566 0.01,-0.0054 0.0202,-0.01055 0.0305,-0.0155 0.0103,-0.005 0.021,-0.0095 0.0315,-0.01395 0.0106,-0.0045 0.0212,-0.0084 0.032,-0.0124 0.0108,-0.004 0.0215,-0.0079 0.0326,-0.01137 0.011,-0.0034 0.0223,-0.0064 0.0336,-0.0093 0.0113,-0.0029 0.0226,-0.0059 0.0341,-0.0083 0.0115,-0.0023 0.0229,-0.0044 0.0346,-0.0062 0.0117,-0.0018 0.0238,-0.0029 0.0357,-0.0041 0.0119,-0.0012 0.0236,-0.0025 0.0357,-0.0031 0.012,-6.1e-4 0.024,-5.17e-4 0.0362,-5.17e-4 0.0122,0 0.0247,-9.2e-5 0.0367,5.17e-4 0.012,6.1e-4 0.0238,0.0019 0.0357,0.0031 0.0119,0.0012 0.0235,0.0023 0.0351,0.0041 0.0117,0.0018 0.0231,0.0039 0.0346,0.0062 0.0115,0.0023 0.0228,0.0054 0.0341,0.0083 0.0113,0.0029 0.0226,0.0059 0.0336,0.0093 0.0111,0.0034 0.0223,0.0074 0.0331,0.01137 0.0108,0.004 0.0215,0.0079 0.032,0.0124 0.0105,0.0045 0.0207,0.009 0.031,0.01395 0.0103,0.005 0.0205,0.01007 0.0305,0.0155 0.02,0.01086 0.0396,0.02298 0.0584,0.03566 0.0188,0.01268 0.0368,0.02593 0.0543,0.04031 0.0174,0.01438 0.0342,0.03003 0.0501,0.04599 0.0109,0.01087 0.0209,0.02255 0.031,0.03411 -0.0136,-0.0088 -0.0276,-0.01755 -0.0419,-0.02532 -0.0175,-0.0095 -0.0353,-0.01803 -0.0537,-0.02584 -0.0185,-0.0078 -0.0375,-0.01517 -0.0569,-0.02119 -0.0193,-0.006 -0.0388,-0.01087 -0.0589,-0.01499 -0.0201,-0.0041 -0.0407,-0.0072 -0.0615,-0.0093 -0.0208,-0.0021 -0.0417,-0.0031 -0.063,-0.0031 -0.0213,0 -0.0423,4.76e-4 -0.063,0.0021 -0.0208,0.0016 -0.0414,0.0041 -0.0615,0.0072 -0.0201,0.0031 -0.0396,0.0072 -0.0589,0.01188 -0.0193,0.0047 -0.0384,0.0099 -0.0568,0.01602 -0.0185,0.0062 -0.0368,0.01306 -0.0543,0.02067 -0.0175,0.0076 -0.0342,0.01629 -0.0507,0.02532 -0.0164,0.009 -0.0323,0.01853 -0.0475,0.02894 -0.0153,0.01041 -0.03,0.02131 -0.0439,0.03307 -0.014,0.01176 -0.0272,0.02413 -0.0398,0.03721 -0.0126,0.01307 -0.0246,0.02699 -0.0357,0.04134 -0.0111,0.01436 -0.0215,0.02936 -0.031,0.04496 -0.01,0.0156 -0.018,0.03177 -0.0258,0.04858 -0.008,0.01681 -0.0147,0.03421 -0.0207,0.05219 -0.006,0.01799 -0.0114,0.03668 -0.0155,0.05581 -0.004,0.01913 -0.007,0.03867 -0.009,0.05891 -0.002,0.02024 -0.003,0.04122 -0.003,0.06253 0,0.02131 9.9e-4,0.04177 0.003,0.06201 0.002,0.02024 0.005,0.0403 0.009,0.05943 0.004,0.01913 0.009,0.03782 0.0155,0.05581 0.006,0.01799 0.0129,0.03538 0.0207,0.05219 0.008,0.01681 0.0163,0.03298 0.0258,0.04858 0.01,0.0156 0.0199,0.0306 0.031,0.04496 0.0111,0.01435 0.0231,0.02775 0.0357,0.04082 0.0126,0.01307 0.0258,0.02545 0.0398,0.03721 0.014,0.01176 0.0287,0.02318 0.0439,0.03359 0.0152,0.01041 0.0311,0.01991 0.0475,0.02894 0.0164,0.009 0.0331,0.0172 0.0507,0.02481 0.0175,0.0076 0.0358,0.01451 0.0543,0.02067 0.0185,0.0062 0.0375,0.01187 0.0568,0.01654 0.0193,0.0047 0.0388,0.0087 0.0589,0.01188 0.0201,0.0031 0.0407,0.0051 0.0615,0.0067 0.002,1.44e-4 0.004,-1.3e-4 0.006,0 v 0.165365 5.17e-4 0.0987 c 0.006,-0.01008 0.012,-0.02054 0.0181,-0.02997 0.01,-0.01543 0.0199,-0.0297 0.0305,-0.04341 0.0106,-0.01371 0.0218,-0.02678 0.0331,-0.03876 0.004,-0.0047 0.009,-0.0085 0.0134,-0.01292 0.007,-0.0069 0.0139,-0.01389 0.0212,-0.02015 0.0119,-0.01026 0.0242,-0.01989 0.0367,-0.02842 0.0125,-0.0085 0.0251,-0.01644 0.0382,-0.02325 0.0132,-0.0068 0.0265,-0.01248 0.0403,-0.01757 0.0138,-0.0051 0.0279,-0.0096 0.0424,-0.01292 0.005,-0.0012 0.0107,-0.0016 0.016,-0.0026 0.009,-0.0018 0.0188,-0.0036 0.0284,-0.0047 0.0151,-0.0016 0.0303,-0.0027 0.046,-0.0026 0.0157,8.5e-5 0.0317,0.0013 0.0481,0.0031 0.006,7.08e-4 0.0131,0.0021 0.0196,0.0031 0.0101,0.0015 0.0202,0.0025 0.0305,0.0047 0.017,0.0035 0.0341,0.0082 0.0517,0.01344 0.0176,0.0053 0.0355,0.01111 0.0537,0.01809 0.0182,0.007 0.0369,0.01507 0.0558,0.02377 -0.009,0.01888 -0.0175,0.03659 -0.0269,0.05374 -0.009,0.01716 -0.019,0.03366 -0.0289,0.04909 -0.01,0.01543 -0.0204,0.03022 -0.031,0.04393 -0.0106,0.01371 -0.0218,0.02626 -0.0331,0.03824 -0.0113,0.01198 -0.0227,0.02333 -0.0346,0.03359 -0.0119,0.01026 -0.0242,0.01937 -0.0367,0.02791 -0.0125,0.0085 -0.0251,0.01645 -0.0382,0.02326 -0.0131,0.0068 -0.0265,0.01248 -0.0403,0.01757 -0.0138,0.0051 -0.0279,0.0096 -0.0424,0.01292 -0.0144,0.0034 -0.0294,0.0056 -0.0444,0.0072 -0.0151,0.0016 -0.0303,0.0027 -0.046,0.0026 -0.0157,-8.6e-5 -0.0317,-0.0013 -0.048,-0.0031 -0.0163,-0.0018 -0.0332,-0.0042 -0.0501,-0.0078 -0.017,-0.0035 -0.0341,-0.0082 -0.0517,-0.01344 -0.0176,-0.0053 -0.0355,-0.01111 -0.0537,-0.01809 -0.006,-0.0022 -0.0118,-0.0049 -0.0176,-0.0072 v 0.343131 c 0.01,-5.56e-4 0.0193,-0.0012 0.0289,-0.0021 0.0547,-0.0087 0.10858,-0.02164 0.16123,-0.03876 0.0527,-0.01713 0.10406,-0.03839 0.15348,-0.06356 0.0494,-0.02518 0.0967,-0.05421 0.14159,-0.08682 0.045,-0.03262 0.0873,-0.06874 0.12661,-0.108004 0.0391,-0.03916 0.075,-0.08132 0.10749,-0.126091 0.0326,-0.04485 0.0616,-0.09219 0.0868,-0.141593 0.0252,-0.04941 0.0464,-0.100734 0.0636,-0.153479 0.0171,-0.05265 0.0301,-0.106557 0.0388,-0.16123 0.009,-0.05485 0.0133,-0.110322 0.0134,-0.165882 -4e-5,-0.01844 -5.5e-4,-0.03688 -0.002,-0.05529 -10e-4,-0.01847 -0.003,-0.03691 -0.005,-0.05529 -0.002,-0.01832 -0.004,-0.03658 -0.007,-0.05478 -0.003,-0.01817 -0.006,-0.03626 -0.01,-0.05426 -0.004,-0.0182 -0.008,-0.03629 -0.0129,-0.05426 -0.005,-0.01788 -0.0102,-0.03563 -0.016,-0.05323 -0.006,-0.01755 -0.0116,-0.03496 -0.0181,-0.05219 -0.007,-0.01724 -0.014,-0.0343 -0.0217,-0.05116 -0.007,-0.01674 -0.0154,-0.03328 -0.0238,-0.04961 -0.008,-0.01659 -0.0171,-0.03296 -0.0263,-0.04909 -0.009,-0.01592 -0.0189,-0.03161 -0.0289,-0.04703 -0.0101,-0.01543 -0.0206,-0.03059 -0.0315,-0.04547 -0.0108,-0.01511 -0.022,-0.02993 -0.0336,-0.04444 -0.0117,-0.01426 -0.0238,-0.02822 -0.0362,-0.04186 -0.0122,-0.01376 -0.0248,-0.0272 -0.0377,-0.04031 -0.0131,-0.0131 -0.0265,-0.02585 -0.0403,-0.03824 -0.0138,-0.01225 -0.0279,-0.02414 -0.0424,-0.03566 -0.0143,-0.01175 -0.029,-0.02312 -0.0439,-0.03411 -0.0149,-0.01073 -0.03,-0.02107 -0.0455,-0.03101 -0.0154,-0.01005 -0.0311,-0.0197 -0.047,-0.02894 -0.0161,-0.0092 -0.0325,-0.018 -0.0491,-0.02635 -0.0163,-0.0085 -0.0329,-0.01663 -0.0496,-0.02429 -0.017,-0.0075 -0.0343,-0.01458 -0.0517,-0.02119 -0.0172,-0.0065 -0.0346,-0.01251 -0.0522,-0.01809 -0.0174,-0.0058 -0.035,-0.01114 -0.0527,-0.01602 -0.018,-0.0048 -0.0361,-0.0091 -0.0543,-0.01292 -0.018,-0.0037 -0.0361,-0.007 -0.0543,-0.0098 -0.0182,-0.0029 -0.0365,-0.0053 -0.0548,-0.0072 -0.0184,-0.002 -0.0368,-0.0036 -0.0553,-0.0047 -0.0184,-9.98e-4 -0.0369,-0.0015 -0.0553,-0.0015 z"
       style="fill:#dd8452;stroke-width:0.352778"
       id="path734" /><path
       d="m 803.96799,28.92795 c -0.0122,0 -0.0241,-9.3e-5 -0.0362,5.17e-4 -0.012,6.1e-4 -0.0238,0.0019 -0.0357,0.0031 -0.0119,0.0012 -0.024,0.0023 -0.0357,0.0041 -0.0117,0.0018 -0.0231,0.0039 -0.0346,0.0062 -0.0115,0.0023 -0.0228,0.0054 -0.0341,0.0083 -0.0113,0.0029 -0.0225,0.0059 -0.0336,0.0093 -0.0111,0.0034 -0.0217,0.0074 -0.0326,0.01137 -0.0108,0.004 -0.0215,0.0079 -0.032,0.0124 -0.0106,0.0045 -0.0213,0.009 -0.0315,0.01395 -0.0103,0.005 -0.0205,0.01007 -0.0305,0.0155 -0.02,0.01086 -0.0391,0.02298 -0.0579,0.03566 -0.0188,0.01268 -0.0368,0.02593 -0.0543,0.04031 -0.0174,0.01438 -0.0342,0.03003 -0.0501,0.04599 -0.016,0.01596 -0.0311,0.0327 -0.0455,0.05013 -0.0144,0.01742 -0.0281,0.03549 -0.0408,0.05426 -0.0127,0.01877 -0.0243,0.03788 -0.0351,0.05788 -0.005,0.01 -0.0105,0.02021 -0.0155,0.03049 -0.005,0.01028 -0.01,0.02097 -0.0145,0.03152 -0.004,0.01055 -0.008,0.02123 -0.0124,0.03204 -0.004,0.01081 -0.008,0.02151 -0.0114,0.03256 -0.003,0.01105 -0.006,0.02232 -0.009,0.03359 -0.003,0.01127 -0.005,0.02262 -0.008,0.03411 -0.002,0.01148 -0.004,0.02294 -0.006,0.03462 -0.002,0.01168 -0.003,0.02328 -0.005,0.03514 -10e-4,0.01186 -0.002,0.02415 -0.003,0.03617 -6.1e-4,0.01203 -10e-4,0.024 -10e-4,0.03617 0,0.01218 4.3e-4,0.02415 10e-4,0.03617 6.1e-4,0.01203 0.001,0.02431 0.003,0.03617 10e-4,0.01186 0.003,0.02346 0.005,0.03514 0.002,0.01168 0.004,0.02314 0.006,0.03462 0.002,0.01148 0.005,0.02283 0.008,0.03411 0.003,0.01127 0.006,0.02254 0.009,0.03359 0.003,0.01105 0.007,0.02175 0.0114,0.03256 0.004,0.01081 0.008,0.02149 0.0124,0.03204 0.004,0.01055 0.01,0.02124 0.0145,0.03152 0.005,0.01028 0.0101,0.02049 0.0155,0.03049 0.0109,0.01999 0.0225,0.03911 0.0351,0.05788 0.0127,0.01877 0.0264,0.03684 0.0408,0.05426 0.0144,0.01742 0.0295,0.03417 0.0455,0.05013 0.016,0.01596 0.0327,0.03161 0.0501,0.04599 0.0174,0.01438 0.0355,0.02763 0.0543,0.04031 0.0188,0.01268 0.0379,0.0248 0.0579,0.03566 0.01,0.0054 0.0202,0.01055 0.0305,0.0155 0.0103,0.005 0.021,0.0095 0.0315,0.01395 0.0106,0.0045 0.0212,0.0084 0.032,0.0124 0.0108,0.004 0.0215,0.0079 0.0326,0.01137 0.011,0.0034 0.0223,0.0064 0.0336,0.0093 0.0113,0.0029 0.0226,0.0059 0.0341,0.0083 0.0106,0.0022 0.0213,0.004 0.032,0.0057 v 0.293522 c -0.003,-0.0082 -0.005,-0.01657 -0.008,-0.02429 -0.005,-0.012 -0.01,-0.0232 -0.015,-0.03411 -0.005,-0.01091 -0.0105,-0.02171 -0.0165,-0.03152 -0.006,-0.0098 -0.0124,-0.01866 -0.0191,-0.02739 -0.007,-0.0087 -0.0138,-0.01717 -0.0212,-0.0248 -0.007,-0.0076 -0.0152,-0.01464 -0.0233,-0.02119 -0.008,-0.0065 -0.0161,-0.01263 -0.0248,-0.01809 -0.009,-0.0055 -0.018,-0.01011 -0.0274,-0.01447 -0.009,-0.0044 -0.0188,-0.0081 -0.0289,-0.01137 -0.0101,-0.0033 -0.0208,-0.0061 -0.0315,-0.0083 -0.0108,-0.0022 -0.0221,-0.0041 -0.0336,-0.0052 -0.0115,-0.0011 -0.023,-0.0015 -0.0351,-0.0015 -0.0121,-2e-6 -0.0244,4.62e-4 -0.0372,0.0015 -0.0128,0.0011 -0.0263,0.003 -0.0398,0.0052 -0.0135,0.0022 -0.0272,0.005 -0.0413,0.0083 0.003,0.01418 0.007,0.02774 0.0109,0.04083 0.004,0.01309 0.008,0.02521 0.0129,0.03721 0.005,0.012 0.01,0.02372 0.015,0.03462 0.005,0.01091 0.0105,0.02119 0.0165,0.03101 0.006,0.0098 0.0124,0.01918 0.0191,0.02791 0.007,0.0087 0.0138,0.01665 0.0212,0.02429 0.007,0.0076 0.0152,0.01516 0.0233,0.0217 0.008,0.0065 0.0161,0.01212 0.0248,0.01757 0.009,0.0055 0.018,0.01062 0.0274,0.01499 0.009,0.0044 0.0194,0.0081 0.0294,0.01137 0.0101,0.0033 0.0202,0.0061 0.031,0.0083 0.0108,0.0022 0.0221,0.0036 0.0336,0.0047 0.0115,0.0011 0.023,0.0021 0.0351,0.0021 0.0121,2e-6 0.0249,-9.79e-4 0.0377,-0.0021 0.0128,-0.0011 0.0258,-0.0025 0.0393,-0.0047 0.008,-0.0014 0.0171,-0.0034 0.0258,-0.0052 v 0.177767 c 0.0367,0.0049 0.0736,0.0078 0.11058,0.0088 0.0457,-6.71e-4 0.0912,-0.0043 0.13643,-0.01085 V 30.5139 c 0.006,0.0024 0.0119,0.005 0.0176,0.0072 0.0182,0.007 0.0361,0.01283 0.0537,0.01809 0.0176,0.0053 0.0347,0.0099 0.0517,0.01344 0.017,0.0035 0.0338,0.0059 0.0501,0.0078 0.0163,0.0018 0.0324,0.003 0.048,0.0031 0.0157,8.6e-5 0.0309,-9.46e-4 0.046,-0.0026 0.0151,-0.0016 0.03,-0.0039 0.0444,-0.0072 0.0144,-0.0034 0.0286,-0.0078 0.0424,-0.01292 0.0138,-0.0051 0.0272,-0.01076 0.0403,-0.01757 0.0132,-0.0068 0.0257,-0.01472 0.0382,-0.02326 0.0125,-0.0085 0.0248,-0.01765 0.0367,-0.02791 0.0119,-0.01026 0.0234,-0.02161 0.0346,-0.03359 0.0112,-0.01198 0.0225,-0.02453 0.0331,-0.03824 0.0106,-0.01371 0.021,-0.02849 0.031,-0.04393 0.01,-0.01543 0.0196,-0.03194 0.0289,-0.04909 0.009,-0.01715 0.0182,-0.03486 0.0269,-0.05374 -0.0189,-0.0087 -0.0376,-0.01679 -0.0558,-0.02377 -0.0182,-0.007 -0.0361,-0.01283 -0.0537,-0.01809 -0.0176,-0.0053 -0.0347,-0.0099 -0.0517,-0.01344 -0.0103,-0.0021 -0.0204,-0.0031 -0.0305,-0.0047 -0.006,-9.74e-4 -0.0132,-0.0024 -0.0196,-0.0031 -0.0163,-0.0018 -0.0324,-0.003 -0.0481,-0.0031 -0.004,-2.1e-5 -0.008,-1.1e-4 -0.0119,0 -0.0116,3.31e-4 -0.0228,0.0014 -0.0341,0.0026 -0.01,0.001 -0.019,0.0029 -0.0284,0.0047 -0.005,9.88e-4 -0.0108,0.0014 -0.016,0.0026 -0.0144,0.0034 -0.0286,0.0078 -0.0424,0.01292 -0.0138,0.0051 -0.0272,0.01076 -0.0403,0.01757 -0.0131,0.0068 -0.0257,0.01472 -0.0382,0.02325 -0.0125,0.0085 -0.0248,0.01816 -0.0367,0.02842 -0.007,0.0063 -0.0142,0.01325 -0.0212,0.02015 -0.004,0.0044 -0.009,0.0083 -0.0134,0.01292 -0.0113,0.01198 -0.0225,0.02505 -0.0331,0.03876 -0.0106,0.0137 -0.0205,0.02798 -0.0305,0.04341 -0.006,0.0094 -0.0122,0.01989 -0.0181,0.02997 v -0.0987 -5.17e-4 -0.165365 c -0.002,-1.3e-4 -0.004,1.44e-4 -0.006,0 -0.0208,-0.0016 -0.0414,-0.0036 -0.0615,-0.0067 -0.0201,-0.0031 -0.0396,-0.0072 -0.0589,-0.01188 -0.0193,-0.0047 -0.0384,-0.01038 -0.0568,-0.01654 -0.0185,-0.0062 -0.0368,-0.01306 -0.0543,-0.02067 -0.0175,-0.0076 -0.0342,-0.01578 -0.0507,-0.02481 -0.0164,-0.009 -0.0323,-0.01853 -0.0475,-0.02894 -0.0153,-0.01041 -0.03,-0.02183 -0.0439,-0.03359 -0.014,-0.01176 -0.0272,-0.02413 -0.0398,-0.03721 -0.0126,-0.01307 -0.0246,-0.02647 -0.0357,-0.04082 -0.0111,-0.01436 -0.0215,-0.02936 -0.031,-0.04496 -0.01,-0.0156 -0.018,-0.03177 -0.0258,-0.04858 -0.008,-0.01681 -0.0147,-0.03421 -0.0207,-0.05219 -0.006,-0.01799 -0.0114,-0.03668 -0.0155,-0.05581 -0.004,-0.01913 -0.007,-0.03919 -0.009,-0.05943 -0.002,-0.02024 -0.003,-0.0407 -0.003,-0.06201 0,-0.02131 9.9e-4,-0.04229 0.003,-0.06253 0.002,-0.02024 0.005,-0.03978 0.009,-0.05891 0.004,-0.01913 0.009,-0.03782 0.0155,-0.05581 0.006,-0.01799 0.0129,-0.03538 0.0207,-0.05219 0.008,-0.01681 0.0163,-0.03298 0.0258,-0.04858 0.01,-0.0156 0.0199,-0.0306 0.031,-0.04496 0.0111,-0.01435 0.0231,-0.02827 0.0357,-0.04134 0.0126,-0.01308 0.0258,-0.02545 0.0398,-0.03721 0.014,-0.01176 0.0287,-0.02266 0.0439,-0.03307 0.0152,-0.01041 0.0311,-0.01991 0.0475,-0.02894 0.0164,-0.009 0.0331,-0.01771 0.0507,-0.02532 0.0175,-0.0076 0.0358,-0.01451 0.0543,-0.02067 0.0185,-0.0062 0.0375,-0.01135 0.0568,-0.01602 0.0193,-0.0047 0.0388,-0.0087 0.0589,-0.01188 0.0201,-0.0031 0.0407,-0.0056 0.0615,-0.0072 0.0208,-0.0016 0.0417,-0.0021 0.063,-0.0021 0.0213,0 0.0423,9.93e-4 0.063,0.0031 0.0208,0.0021 0.0414,0.0052 0.0615,0.0093 0.0201,0.0041 0.0396,0.009 0.0589,0.01499 0.0193,0.006 0.0384,0.01338 0.0569,0.02119 0.0185,0.0078 0.0362,0.01633 0.0537,0.02584 0.0143,0.0078 0.0283,0.01648 0.0419,0.02532 -0.0102,-0.01156 -0.0201,-0.02324 -0.031,-0.03411 -0.016,-0.01596 -0.0327,-0.03161 -0.0501,-0.04599 -0.0174,-0.01438 -0.0355,-0.02763 -0.0543,-0.04031 -0.0188,-0.01268 -0.0384,-0.02479 -0.0584,-0.03566 -0.01,-0.0054 -0.0202,-0.01055 -0.0305,-0.0155 -0.0103,-0.005 -0.0204,-0.0095 -0.031,-0.01395 -0.0106,-0.0045 -0.0212,-0.0084 -0.032,-0.0124 -0.0108,-0.004 -0.022,-0.0079 -0.0331,-0.01137 -0.011,-0.0034 -0.0223,-0.0064 -0.0336,-0.0093 -0.0113,-0.0029 -0.0226,-0.0059 -0.0341,-0.0083 -0.0115,-0.0023 -0.023,-0.0044 -0.0346,-0.0062 -0.0117,-0.0018 -0.0233,-0.0029 -0.0351,-0.0041 -0.0119,-0.0012 -0.0236,-0.0025 -0.0357,-0.0031 -0.012,-6.09e-4 -0.0245,-5.17e-4 -0.0367,-5.17e-4 z"
       style="fill:#fae9e0;stroke-width:0.999996;stroke-linecap:round;stroke-linejoin:round"
       id="path733" /></g></svg>
