<?xml version="1.0" encoding="UTF-8" standalone="no"?>
<!-- Created with Inkscape (http://www.inkscape.org/) -->

<svg
   width="6.0247197pt"
   height="5.1310387pt"
   viewBox="0 0 2.1253873 1.8101164"
   version="1.1"
   id="svg1"
   xml:space="preserve"
   xmlns="http://www.w3.org/2000/svg"
   xmlns:svg="http://www.w3.org/2000/svg"><defs
     id="defs1" /><g
     id="layer1"
     transform="translate(-767.66107,-66.103959)"><path
       d="m 767.81307,66.104142 c -0.005,0 -0.0104,3.71e-4 -0.0155,8.55e-4 -0.005,5.13e-4 -0.0101,0.0012 -0.015,0.0022 -0.01,0.002 -0.0192,0.005 -0.0283,0.0088 -0.009,0.0038 -0.0176,0.0083 -0.0256,0.0137 -0.008,0.0054 -0.0157,0.01174 -0.0225,0.01856 -0.007,0.0068 -0.0127,0.01408 -0.0181,0.0221 -0.005,0.008 -0.0104,0.0166 -0.0141,0.02563 -0.003,0.009 -0.007,0.01844 -0.009,0.02828 -8.5e-4,0.005 -0.002,0.0099 -0.003,0.01502 -5.2e-4,0.005 -8.6e-4,0.01025 -8.6e-4,0.01547 0,0.0052 3.8e-4,0.01038 8.6e-4,0.01547 5.1e-4,0.005 8.5e-4,0.01011 0.003,0.01502 0.002,0.0098 0.005,0.01925 0.009,0.02828 0.003,0.009 0.009,0.01761 0.0141,0.02563 0.005,0.008 0.0113,0.01573 0.0181,0.02254 0.007,0.0068 0.0145,0.01315 0.0225,0.01856 0.008,0.0054 0.0166,0.0099 0.0256,0.0137 0.009,0.0038 0.0185,0.0068 0.0283,0.0088 0.005,0.001 0.01,0.0017 0.015,0.0022 0.005,5.13e-4 0.0103,8.55e-4 0.0155,8.55e-4 h 0.0115 c 8.6e-4,6.6e-5 0.003,3.14e-4 0.004,4.42e-4 0.005,5.13e-4 0.0101,0.0016 0.0151,0.0027 0.01,0.002 0.0192,0.0046 0.0283,0.0084 0.009,0.0038 0.0176,0.0087 0.0257,0.01414 0.008,0.0054 0.0153,0.0113 0.0221,0.01812 0.007,0.0068 0.0132,0.01451 0.0186,0.02253 0.005,0.008 0.01,0.0166 0.0137,0.02563 0.003,0.009 0.007,0.01844 0.009,0.02828 8.6e-4,0.005 0.002,0.0099 0.003,0.01502 5.1e-4,0.005 8.5e-4,0.01024 8.5e-4,0.01547 v 0.150685 0.151127 0.301371 c 0,0.0052 3.8e-4,0.01038 8.6e-4,0.01547 5.1e-4,0.005 8.5e-4,0.01011 0.003,0.01502 0.002,0.0098 0.005,0.01925 0.009,0.02828 0.003,0.009 0.009,0.01761 0.0137,0.02563 0.005,0.008 0.0117,0.01572 0.0186,0.02253 0.007,0.0068 0.0141,0.01315 0.0221,0.01856 0.008,0.0054 0.0166,0.0099 0.0256,0.0137 0.009,0.0038 0.0185,0.0068 0.0283,0.0088 0.005,0.001 0.01,0.0017 0.015,0.0022 0.005,5.13e-4 0.0103,8.55e-4 0.0155,8.55e-4 0.005,0 0.0103,-3.71e-4 0.0155,-8.55e-4 0.005,-5.13e-4 0.0101,-0.0012 0.015,-0.0022 0.01,-0.002 0.0192,-0.005 0.0283,-0.0088 0.009,-0.0038 0.0176,-0.0083 0.0256,-0.0137 0.008,-0.0054 0.0157,-0.01174 0.0226,-0.01856 0.007,-0.0068 0.0132,-0.01451 0.0186,-0.02253 0.005,-0.008 0.01,-0.0166 0.0137,-0.02563 0.003,-0.009 0.007,-0.01844 0.009,-0.02828 8.6e-4,-0.005 0.002,-0.0099 0.003,-0.01502 5.1e-4,-0.005 8.5e-4,-0.01024 8.5e-4,-0.01547 v -0.301334 -0.01149 c 7e-5,-0.0013 3.2e-4,-0.0027 4.5e-4,-0.004 5.1e-4,-0.005 0.002,-0.01011 0.003,-0.01502 0.002,-0.0098 0.004,-0.01926 0.009,-0.02828 0.003,-0.009 0.009,-0.01761 0.0141,-0.02563 0.005,-0.008 0.0113,-0.01573 0.0181,-0.02254 0.007,-0.0068 0.0145,-0.01315 0.0226,-0.01856 0.008,-0.0054 0.0166,-0.0099 0.0257,-0.0137 0.009,-0.0038 0.0185,-0.0068 0.0283,-0.0088 0.005,-0.001 0.01,-0.0017 0.0151,-0.0022 0.003,-3.84e-4 0.008,-7.55e-4 0.0115,-8.55e-4 h 0.004 0.004 c 0.004,1.29e-4 0.008,4.99e-4 0.0115,8.55e-4 0.005,5.14e-4 0.0101,0.0012 0.0151,0.0022 0.01,0.002 0.0192,0.005 0.0283,0.0088 0.009,0.0038 0.0176,0.0083 0.0257,0.0137 0.008,0.0054 0.0157,0.01174 0.0226,0.01856 0.007,0.0068 0.0127,0.01451 0.0181,0.02254 0.005,0.008 0.0104,0.0166 0.0141,0.02563 0.003,0.009 0.006,0.01844 0.009,0.02828 8.6e-4,0.005 0.002,0.0099 0.003,0.01502 1.3e-4,0.0013 3.8e-4,0.0027 4.4e-4,0.004 v 0.01149 c 0,0.0052 3.7e-4,0.01038 8.6e-4,0.01547 5.1e-4,0.005 8.5e-4,0.01011 0.003,0.01502 0.002,0.0098 0.005,0.01925 0.009,0.02828 0.003,0.009 0.009,0.01761 0.0137,0.02563 0.005,0.008 0.0117,0.01528 0.0186,0.0221 0.007,0.0068 0.0145,0.01315 0.0226,0.01856 0.008,0.0054 0.0166,0.0099 0.0257,0.0137 0.009,0.0038 0.0185,0.0068 0.0283,0.0088 0.005,10e-4 0.01,0.0017 0.015,0.0022 0.005,5.13e-4 0.0103,8.55e-4 0.0155,8.55e-4 0.005,0 0.0104,-3.71e-4 0.0155,-8.55e-4 0.005,-5.13e-4 0.0101,-0.0012 0.015,-0.0022 0.01,-0.002 0.0192,-0.005 0.0283,-0.0088 0.009,-0.0038 0.0176,-0.0083 0.0257,-0.0137 0.008,-0.0054 0.0153,-0.01174 0.0221,-0.01856 0.007,-0.0068 0.0132,-0.01408 0.0186,-0.0221 0.005,-0.008 0.01,-0.0166 0.0137,-0.02563 0.003,-0.009 0.007,-0.01844 0.009,-0.02828 8.6e-4,-0.005 0.002,-0.0099 0.003,-0.01502 5.1e-4,-0.005 8.5e-4,-0.01024 8.5e-4,-0.01547 v -0.151127 c 0,-0.0052 3.7e-4,-0.01038 8.6e-4,-0.01547 5.1e-4,-0.005 8.5e-4,-0.01011 0.003,-0.01502 0.002,-0.0098 0.005,-0.01926 0.009,-0.02828 0.003,-0.009 0.009,-0.01761 0.0137,-0.02563 0.005,-0.008 0.0117,-0.01528 0.0186,-0.0221 0.007,-0.0068 0.0141,-0.01315 0.0221,-0.01856 0.008,-0.0054 0.0166,-0.0099 0.0257,-0.0137 0.009,-0.0038 0.0185,-0.0068 0.0283,-0.0088 0.005,-0.001 0.01,-0.0017 0.015,-0.0022 0.005,-5.13e-4 0.0103,-8.55e-4 0.0155,-8.55e-4 0.005,0 0.0104,3.7e-4 0.0155,8.55e-4 0.005,5.13e-4 0.0101,0.0012 0.0151,0.0022 0.01,0.002 0.0192,0.005 0.0283,0.0088 0.009,0.0038 0.0176,0.0083 0.0257,0.0137 0.008,0.0054 0.0157,0.01174 0.0225,0.01856 0.007,0.0068 0.0132,0.01408 0.0186,0.0221 0.005,0.008 0.01,0.0166 0.0137,0.02563 0.003,0.009 0.007,0.01844 0.009,0.02828 8.5e-4,0.005 0.002,0.0099 0.003,0.01502 5.2e-4,0.005 8.6e-4,0.01024 8.6e-4,0.01547 v 0.301813 0.754311 c 3e-5,0.01972 0.004,0.03923 0.0115,0.05745 0.008,0.01834 0.0186,0.03501 0.0327,0.04905 0.0137,0.01372 0.0299,0.02467 0.0477,0.03225 h 4.4e-4 l 4.5e-4,4.42e-4 c 4.3e-4,1.5e-4 8.5e-4,2.97e-4 0.002,4.42e-4 0.018,0.0073 0.0372,0.01103 0.0565,0.01105 0.005,-3e-5 0.0104,-3.25e-4 0.0155,-8.55e-4 5.9e-4,-1.43e-4 8.5e-4,-2.9e-4 0.002,-4.41e-4 8.5e-4,8e-6 0.002,8e-6 0.003,0 8.6e-4,-2.8e-4 0.003,-5.75e-4 0.003,-8.55e-4 0.004,-5.88e-4 0.008,-0.0013 0.0115,-0.0022 0.008,-0.0019 0.0157,-0.004 0.023,-0.0071 2.9e-4,-1.46e-4 5.9e-4,-2.93e-4 8.5e-4,-4.42e-4 0.008,-0.0031 0.0141,-0.0069 0.0208,-0.01105 0.003,-0.002 0.006,-0.004 0.009,-0.0062 8.6e-4,-7.23e-4 0.002,-0.0015 0.003,-0.0022 0.003,-0.0022 0.005,-0.0046 0.008,-0.0071 0.003,-0.0019 0.004,-0.0038 0.007,-0.0057 0.002,-0.0023 0.004,-0.0046 0.006,-0.0071 0.003,-0.0038 0.006,-0.0074 0.009,-0.01149 0.002,-0.0026 0.003,-0.0052 0.005,-0.008 0.003,-0.0042 0.005,-0.0084 0.008,-0.01282 0.002,-0.0032 0.003,-0.0064 0.004,-0.0097 7.9e-4,-0.0022 0.002,-0.0044 0.003,-0.0067 0.003,-0.0066 0.005,-0.01295 0.006,-0.01988 v -4.42e-4 c 1.5e-4,-5.88e-4 3e-4,-0.0012 4.4e-4,-0.0018 6.9e-4,-0.0031 8.6e-4,-0.0062 0.002,-0.0093 0,-5.89e-4 0,-0.0012 0,-0.0018 6.4e-4,-0.0059 8.6e-4,-0.01178 8.6e-4,-0.01768 3e-5,-0.0018 3e-5,-0.0035 0,-0.0053 2e-5,-0.0016 2e-5,-0.0032 0,-0.0049 v -0.894834 -0.151127 -0.150686 c 0,-0.0052 3.7e-4,-0.01038 8.5e-4,-0.01547 5.2e-4,-0.005 8.6e-4,-0.01011 0.003,-0.01502 0.002,-0.0098 0.005,-0.01925 0.009,-0.02828 0.003,-0.009 0.009,-0.01761 0.0141,-0.02563 0.005,-0.008 0.0113,-0.01572 0.0181,-0.02253 0.007,-0.0068 0.0145,-0.01271 0.0225,-0.01812 0.008,-0.0054 0.0166,-0.01034 0.0257,-0.01414 0.009,-0.0038 0.0185,-0.0064 0.0283,-0.0084 0.005,-0.001 0.01,-0.0021 0.015,-0.0027 8.6e-4,-1.28e-4 0.003,-3.76e-4 0.004,-4.42e-4 h 0.0115 c 0.005,0 0.0104,-3.7e-4 0.0155,-8.55e-4 0.005,-5.13e-4 0.0101,-0.0012 0.015,-0.0022 0.01,-0.002 0.0192,-0.005 0.0283,-0.0088 0.009,-0.0038 0.0176,-0.0083 0.0257,-0.0137 0.008,-0.0054 0.0153,-0.01174 0.0221,-0.01856 0.007,-0.0068 0.0132,-0.01451 0.0186,-0.02254 0.005,-0.008 0.01,-0.0166 0.0137,-0.02563 0.003,-0.009 0.007,-0.01844 0.009,-0.02828 8.5e-4,-0.005 0.002,-0.0099 0.003,-0.01502 5.2e-4,-0.005 8.6e-4,-0.01024 8.6e-4,-0.01547 0,-0.0052 -3.7e-4,-0.01038 -8.6e-4,-0.01547 -5.1e-4,-0.005 -8.5e-4,-0.01011 -0.003,-0.01502 -0.002,-0.0098 -0.005,-0.01925 -0.009,-0.02828 -0.003,-0.009 -0.009,-0.01761 -0.0137,-0.02563 -0.005,-0.008 -0.0117,-0.01528 -0.0186,-0.0221 -0.007,-0.0068 -0.014,-0.01315 -0.0221,-0.01856 -0.008,-0.0054 -0.0166,-0.0099 -0.0257,-0.0137 -0.009,-0.0038 -0.0185,-0.0068 -0.0283,-0.0088 -0.005,-10e-4 -0.01,-0.0017 -0.015,-0.0022 -0.005,-5.13e-4 -0.0103,-8.55e-4 -0.0155,-8.55e-4 h -0.19002 c -0.005,0 -0.0104,3.71e-4 -0.0155,8.55e-4 -0.005,5.13e-4 -0.0101,0.0012 -0.015,0.0022 -0.01,0.002 -0.0192,0.005 -0.0283,0.0088 -0.009,0.0038 -0.0176,0.0083 -0.0257,0.0137 -0.008,0.0054 -0.0153,0.01174 -0.0221,0.01856 -0.007,0.0068 -0.0132,0.01408 -0.0186,0.0221 -0.002,0.0023 -0.003,0.005 -0.004,0.0075 h -0.005 c -0.006,0.01182 -0.0133,0.02281 -0.0221,0.0327 -0.014,0.01402 -0.0307,0.02513 -0.0491,0.0327 -0.0182,0.0075 -0.0377,0.01145 -0.0575,0.01149 -0.0198,2e-5 -0.0395,-0.0038 -0.0579,-0.01149 -0.0183,-0.0075 -0.035,-0.01868 -0.0491,-0.0327 -0.009,-0.0099 -0.0162,-0.02088 -0.0221,-0.0327 h -0.004 c -0.002,-0.0024 -0.003,-0.0052 -0.004,-0.0075 -0.005,-0.008 -0.0113,-0.01528 -0.0181,-0.0221 -0.007,-0.0068 -0.0145,-0.01315 -0.0226,-0.01856 -0.008,-0.0054 -0.0166,-0.0099 -0.0256,-0.0137 -0.009,-0.0038 -0.0185,-0.0068 -0.0283,-0.0088 -0.005,-10e-4 -0.01,-0.0017 -0.015,-0.0022 -0.005,-5.13e-4 -0.0103,-8.55e-4 -0.0155,-8.55e-4 h -0.19046 c -0.005,0 -0.0103,3.71e-4 -0.0155,8.55e-4 -0.005,5.13e-4 -0.0101,0.0012 -0.0151,0.0022 -0.01,0.002 -0.0192,0.005 -0.0283,0.0088 -0.009,0.0038 -0.0176,0.0083 -0.0257,0.0137 -0.008,0.0054 -0.0157,0.01174 -0.0226,0.01856 -0.007,0.0068 -0.0132,0.01408 -0.0186,0.0221 -0.005,0.008 -0.01,0.0166 -0.0137,0.02563 -0.003,0.009 -0.007,0.01844 -0.009,0.02828 -8.6e-4,0.005 -0.002,0.0099 -0.003,0.01502 -5.1e-4,0.005 -8.5e-4,0.01024 -8.5e-4,0.01547 0,0.0012 -3e-5,0.0023 0,0.0035 10e-6,0.0012 10e-6,0.0024 0,0.0035 1.9e-4,0.0027 3.4e-4,0.0053 4.3e-4,0.008 -1.3e-4,8.55e-4 -2.8e-4,0.0018 -4.3e-4,0.0027 v 0.0084 c -8.4e-4,0.02004 -0.004,0.04008 -0.0106,0.05922 -0.008,0.02247 -0.0183,0.04364 -0.0322,0.06275 -8.6e-4,0.001 -0.002,0.0021 -0.003,0.0031 -0.0132,0.01798 -0.029,0.03391 -0.0469,0.04728 -0.0192,0.01385 -0.0406,0.02459 -0.0632,0.03182 -0.0226,0.0074 -0.0461,0.01105 -0.0698,0.01105 -0.0239,4.5e-5 -0.0476,-0.0037 -0.0703,-0.01105 -0.0122,-0.0049 -0.0238,-0.01078 -0.0349,-0.01767 -0.01,-0.0041 -0.0189,-0.0088 -0.0279,-0.01414 -0.0134,-0.01066 -0.0256,-0.02282 -0.0363,-0.03623 -0.003,-0.0036 -0.008,-0.0073 -0.011,-0.01105 -8.5e-4,-0.001 -0.002,-0.0021 -0.003,-0.0031 -0.0139,-0.01913 -0.0245,-0.0403 -0.0318,-0.06275 -0.005,-0.01786 -0.008,-0.03626 -0.009,-0.0548 -8.6e-4,-0.0043 -0.002,-0.0086 -0.003,-0.01282 -1.4e-4,-8.55e-4 -2.9e-4,-0.0018 -4.3e-4,-0.0027 1.4e-4,-5.9e-4 2.9e-4,-0.0012 4.3e-4,-0.0018 0,-2.95e-4 0,-5.9e-4 0,-8.56e-4 -2.4e-4,-0.0031 -7.1e-4,-0.0062 -8.5e-4,-0.0093 v 0.0084 c -7e-5,0.0013 -3.2e-4,0.0027 -4.5e-4,0.004 4.2e-4,-0.0041 4.5e-4,-0.0082 4.5e-4,-0.01237 0,-0.001 0,-0.0021 0,-0.0031 0,-0.0052 7e-5,-0.01038 -4.5e-4,-0.01547 -5.1e-4,-0.005 -0.002,-0.01011 -0.003,-0.01502 -0.002,-0.0098 -0.004,-0.01926 -0.009,-0.02828 -0.003,-0.009 -0.009,-0.01761 -0.0141,-0.02563 -0.005,-0.008 -0.0113,-0.01528 -0.0181,-0.0221 -0.007,-0.0068 -0.0145,-0.01315 -0.0225,-0.01856 -0.008,-0.0054 -0.0166,-0.0099 -0.0257,-0.0137 -0.009,-0.0038 -0.0185,-0.0068 -0.0283,-0.0088 -0.005,-0.001 -0.01,-0.0017 -0.015,-0.0022 -0.005,-5.13e-4 -0.0103,-8.55e-4 -0.0155,-8.55e-4 z m 0.90455,1.0411 -0.13257,0.244367 h 8.6e-4 c -0.006,0.011 -0.0109,0.02273 -0.0141,0.03491 -0.003,0.01212 -0.005,0.02459 -0.005,0.03712 -3e-5,0.01986 0.004,0.03954 0.0115,0.05789 0.008,0.01818 0.0187,0.0347 0.0327,0.0486 0.014,0.01402 0.0307,0.02513 0.0491,0.0327 0.0184,0.0076 0.038,0.01151 0.0579,0.01149 0.007,-2.2e-5 0.013,-4.65e-4 0.0194,-0.0013 0.007,-7.52e-4 0.0131,-0.002 0.0194,-0.0035 0.006,-0.0018 0.0125,-0.004 0.0186,-0.0067 0.006,-0.0024 0.012,-0.0052 0.0177,-0.0084 0.006,-0.0033 0.0115,-0.007 0.0168,-0.01105 0.005,-0.0041 0.01,-0.0086 0.0146,-0.01325 0.005,-0.0045 0.009,-0.0094 0.0132,-0.01458 0.004,-0.0052 0.008,-0.01068 0.0106,-0.01635 0.003,-0.0057 0.006,-0.01159 0.009,-0.01767 0.003,-0.0062 0.004,-0.01254 0.006,-0.019 0.002,-0.0062 0.003,-0.01259 0.004,-0.019 8.5e-4,-0.0066 0.002,-0.01324 0.002,-0.01988 2e-5,-0.0016 2e-5,-0.0032 0,-0.0049 -1.2e-4,-0.0018 -2.7e-4,-0.0035 -4.5e-4,-0.0053 -1.2e-4,-0.0016 -2.6e-4,-0.0032 -4.4e-4,-0.0049 -1.2e-4,-0.0016 -2.7e-4,-0.0032 -4.4e-4,-0.0049 -2.7e-4,-0.0016 -5.6e-4,-0.0032 -8.5e-4,-0.0049 -2.7e-4,-0.0016 -5.6e-4,-0.0032 -8.6e-4,-0.0049 -2.6e-4,-0.0016 -5.6e-4,-0.0032 -8.5e-4,-0.0049 -4.2e-4,-0.0016 -8.6e-4,-0.0032 -0.002,-0.0049 -4.2e-4,-0.0016 -8.6e-4,-0.0032 -0.002,-0.0049 -4.2e-4,-0.0016 -8.6e-4,-0.0032 -0.002,-0.0049 -5.7e-4,-0.0016 -8.6e-4,-0.0032 -0.002,-0.0049 -5.6e-4,-0.0015 -8.5e-4,-0.003 -0.002,-0.0044 -7e-4,-0.0015 -0.002,-0.003 -0.003,-0.0044 -7.1e-4,-0.0016 -0.002,-0.0032 -0.003,-0.0049 -7.1e-4,-0.0015 -0.002,-0.003 -0.003,-0.0044 -8.5e-4,-0.002 -0.002,-0.0038 -0.003,-0.0057 z"
       style="opacity:1;fill:#4c72b0;stroke-width:0.176389;stroke-linecap:round"
       id="path420" /></g></svg>
