<?xml version="1.0" encoding="UTF-8" standalone="no"?>
<!-- Created with Inkscape (http://www.inkscape.org/) -->

<svg
   width="6.0000005pt"
   height="6.0000005pt"
   viewBox="0 0 2.1166669 2.1166668"
   version="1.1"
   id="svg1"
   xml:space="preserve"
   inkscape:version="1.3 (0e150ed6c4, 2023-07-21)"
   sodipodi:docname="custom.svg.2025_08_24_12_52_29.0.svg"
   xmlns:inkscape="http://www.inkscape.org/namespaces/inkscape"
   xmlns:sodipodi="http://sodipodi.sourceforge.net/DTD/sodipodi-0.dtd"
   xmlns="http://www.w3.org/2000/svg"
   xmlns:svg="http://www.w3.org/2000/svg"><sodipodi:namedview
     id="namedview1"
     pagecolor="#ffffff"
     bordercolor="#eeeeee"
     borderopacity="1"
     inkscape:showpageshadow="0"
     inkscape:pageopacity="0"
     inkscape:pagecheckerboard="0"
     inkscape:deskcolor="#d1d1d1"
     inkscape:document-units="pt"
     inkscape:zoom="11.313709"
     inkscape:cx="3012.4959"
     inkscape:cy="121.3572"
     inkscape:window-width="2400"
     inkscape:window-height="1511"
     inkscape:window-x="-9"
     inkscape:window-y="-9"
     inkscape:window-maximized="1"
     inkscape:current-layer="layer1"
     showgrid="true"
     showguides="false"
     inkscape:lockguides="true"><inkscape:grid
       id="grid1"
       units="in"
       originx="-3034.6192"
       originy="-90"
       spacingx="1"
       spacingy="1"
       empcolor="#0099e5"
       empopacity="0.30196078"
       color="#0099e5"
       opacity="0.14901961"
       empspacing="5"
       dotted="true"
       gridanglex="30"
       gridanglez="30"
       visible="true"
       enabled="false" /><sodipodi:guide
       position="73.5,84.977927"
       orientation="1,0"
       id="guide23"
       inkscape:locked="true" /><sodipodi:guide
       position="81.167449,88.900003"
       orientation="0,-1"
       id="guide24"
       inkscape:locked="true" /><sodipodi:guide
       position="76.5,85.900003"
       orientation="0,1"
       id="guide25"
       inkscape:locked="true"
       inkscape:label=""
       inkscape:color="rgb(0,134,229)" /><sodipodi:guide
       position="137,88.900003"
       orientation="336,0"
       id="guide26"
       inkscape:locked="true" /><sodipodi:guide
       position="137,3.0000021"
       orientation="0,1"
       id="guide27"
       inkscape:locked="true"
       inkscape:label=""
       inkscape:color="rgb(0,134,229)" /><sodipodi:guide
       position="76.5,2.0000001e-06"
       orientation="-1,0"
       id="guide28"
       inkscape:locked="true"
       inkscape:label=""
       inkscape:color="rgb(0,134,229)" /><sodipodi:guide
       position="137,2.0426322e-06"
       orientation="0,1"
       id="guide29"
       inkscape:label=""
       inkscape:locked="true"
       inkscape:color="rgb(0,134,229)" /><sodipodi:guide
       position="134,88.900003"
       orientation="-1,0"
       id="guide30"
       inkscape:label=""
       inkscape:locked="true"
       inkscape:color="rgb(0,134,229)" /><sodipodi:guide
       position="69.5,78.900003"
       orientation="0,1"
       id="guide35"
       inkscape:label=""
       inkscape:locked="true"
       inkscape:color="rgb(0,134,229)" /><inkscape:grid
       id="grid143"
       units="pt"
       originx="-3034.4434"
       originy="-89.823611"
       spacingx="0.35277778"
       spacingy="0.35277778"
       empcolor="#0099e5"
       empopacity="0.30196078"
       color="#0099e5"
       opacity="0.14901961"
       empspacing="5"
       dotted="true"
       gridanglex="30"
       gridanglez="30"
       visible="true"
       enabled="false" /><inkscape:page
       x="-7.2492239e-06"
       y="1.338671e-06"
       width="2.1166668"
       height="2.1166668"
       id="page4"
       margin="0"
       bleed="0" /></sodipodi:namedview><defs
     id="defs1" /><g
     inkscape:label="Layer 1"
     inkscape:groupmode="layer"
     id="layer1"
     transform="translate(-802.90965,-23.8125)"><path
       id="path722"
       style="fill:#cccccc;stroke-width:0.352778"
       d="m 804.13077,23.824903 0.0186,0.201021 c 0.01,0.0039 0.0191,0.0079 0.0284,0.0124 0.0111,0.0053 0.0223,0.01098 0.0331,0.01705 0.0108,0.0061 0.0215,0.0123 0.032,0.01912 0.0105,0.0068 0.0207,0.01417 0.031,0.0217 0.0103,0.0075 0.0205,0.01556 0.0305,0.02377 0.01,0.0082 0.0198,0.01646 0.0295,0.02532 0.01,0.0089 0.0196,0.01843 0.0289,0.02791 0.009,0.0095 0.0183,0.01888 0.0274,0.02894 0.009,0.01006 0.0182,0.02039 0.0269,0.03101 0.009,0.01061 0.017,0.02194 0.0253,0.03307 0.008,0.01114 0.0168,0.02248 0.0248,0.03411 0.008,0.01163 0.0157,0.02305 0.0233,0.03514 0.008,0.01209 0.015,0.02469 0.0222,0.03721 0.007,0.01252 0.0139,0.02533 0.0207,0.03824 0.007,0.01291 0.0133,0.02599 0.0196,0.03927 0.006,0.01328 0.0127,0.02669 0.0186,0.04031 0.006,0.01362 0.0116,0.02742 0.0171,0.04134 0.005,0.01392 0.0105,0.02767 0.0155,0.04186 0.005,0.01419 0.009,0.02846 0.014,0.04289 0.004,0.01443 0.009,0.02929 0.0129,0.04392 0.004,0.01464 0.007,0.02911 0.0109,0.04393 0.003,0.01482 0.007,0.03 0.0103,0.04496 0.003,0.01496 0.005,0.02988 0.008,0.04496 0.002,0.01508 0.004,0.03032 0.006,0.04548 0.002,0.01516 0.003,0.03026 0.004,0.04547 0.001,0.01521 0.002,0.03025 0.003,0.04547 6.1e-4,0.01523 5.2e-4,0.03077 5.2e-4,0.04599 0,0.01522 9e-5,0.03013 -5.2e-4,0.04496 -6.1e-4,0.01483 -0.002,0.0295 -0.003,0.04392 -10e-4,0.01444 -0.002,0.02886 -0.004,0.04289 -0.002,0.01404 -0.004,0.02771 -0.006,0.04134 -0.002,0.01363 -0.005,0.02709 -0.008,0.04031 -0.003,0.01322 -0.006,0.02596 -0.0103,0.03876 -0.003,0.0128 -0.007,0.02535 -0.0109,0.03772 -0.004,0.01238 -0.008,0.02474 -0.0129,0.03669 -0.004,0.01195 -0.009,0.02362 -0.014,0.03514 -0.005,0.01151 -0.0101,0.02303 -0.0155,0.03411 -0.005,0.01107 -0.0112,0.02193 -0.0171,0.03256 -0.006,0.01063 -0.0123,0.02083 -0.0186,0.03101 -0.006,0.01018 -0.0129,0.02025 -0.0196,0.02997 -0.007,0.0097 -0.0135,0.01916 -0.0207,0.02842 -0.007,0.0093 -0.0146,0.01859 -0.0222,0.02739 -0.008,0.0088 -0.0153,0.017 -0.0233,0.02532 -0.008,0.0083 -0.0164,0.01645 -0.0248,0.02429 -0.008,0.0078 -0.0166,0.01538 -0.0253,0.02274 -0.009,0.0074 -0.0178,0.01483 -0.0269,0.0217 -0.009,0.0069 -0.018,0.01326 -0.0274,0.01964 -0.009,0.0064 -0.0192,0.01273 -0.0289,0.0186 -0.01,0.0059 -0.0195,0.01117 -0.0295,0.01654 -0.01,0.0054 -0.0202,0.01065 -0.0305,0.0155 -0.0103,0.0049 -0.0204,0.0096 -0.031,0.01395 -0.0106,0.0043 -0.0212,0.0081 -0.032,0.01189 -0.0108,0.0038 -0.022,0.0076 -0.0331,0.01085 -0.011,0.0033 -0.0223,0.006 -0.0336,0.0088 -0.0113,0.0028 -0.0226,0.0055 -0.0341,0.0078 -0.0115,0.0022 -0.023,0.004 -0.0346,0.0057 -0.0117,0.0017 -0.0233,0.003 -0.0351,0.0041 -0.0119,0.0011 -0.0241,0.002 -0.0362,0.0026 -0.012,5.61e-4 -0.024,10e-4 -0.0362,10e-4 -0.0122,0 -0.0241,-5.05e-4 -0.0362,-10e-4 -0.012,-5.62e-4 -0.0238,-0.0015 -0.0357,-0.0026 -0.0119,-0.0011 -0.024,-0.0025 -0.0357,-0.0041 -0.0117,-0.0017 -0.0231,-0.0035 -0.0346,-0.0057 -0.0115,-0.0022 -0.0228,-0.005 -0.0341,-0.0078 -0.0113,-0.0028 -0.0225,-0.0055 -0.0336,-0.0088 -0.011,-0.0033 -0.0217,-0.007 -0.0326,-0.01085 -0.0108,-0.0038 -0.0215,-0.0075 -0.032,-0.01189 -0.0106,-0.0043 -0.0213,-0.0091 -0.0315,-0.01395 -0.0103,-0.0049 -0.0205,-0.01014 -0.0305,-0.0155 -0.01,-0.0054 -0.0199,-0.01066 -0.0294,-0.01654 -0.01,-0.0059 -0.019,-0.01223 -0.0284,-0.0186 -0.009,-0.0064 -0.0189,-0.01277 -0.0279,-0.01964 -0.009,-0.0069 -0.0177,-0.01435 -0.0263,-0.0217 -0.009,-0.0074 -0.0175,-0.0149 -0.0258,-0.02274 -0.008,-0.0078 -0.0163,-0.01597 -0.0243,-0.02429 -0.008,-0.0083 -0.0157,-0.01653 -0.0232,-0.02532 -0.008,-0.0088 -0.015,-0.01813 -0.0222,-0.02739 -0.007,-0.0093 -0.0144,-0.0187 -0.0212,-0.02842 -0.007,-0.0097 -0.0133,-0.01979 -0.0196,-0.02997 -0.006,-0.01018 -0.0122,-0.02038 -0.0181,-0.03101 -0.006,-0.01063 -0.0115,-0.02148 -0.0171,-0.03256 -0.005,-0.01108 -0.0105,-0.02259 -0.0155,-0.03411 -0.005,-0.01152 -0.01,-0.02319 -0.0145,-0.03514 -0.004,-0.01195 -0.008,-0.0238 -0.0124,-0.03617 -0.004,-0.01238 -0.008,-0.02544 -0.0114,-0.03824 -0.003,-0.0128 -0.006,-0.02554 -0.009,-0.03876 -0.003,-0.01322 -0.005,-0.02668 -0.008,-0.04031 -0.002,-0.01363 -0.004,-0.0273 -0.006,-0.04134 -0.002,-0.01404 -0.003,-0.02846 -0.005,-0.04289 -10e-4,-0.01444 -0.002,-0.02909 -0.003,-0.04392 -6.1e-4,-0.01483 -10e-4,-0.02974 -10e-4,-0.04496 0,-0.01522 4.6e-4,-0.03076 10e-4,-0.04599 6.1e-4,-0.01523 0.001,-0.03026 0.003,-0.04547 10e-4,-0.01521 0.003,-0.03033 0.005,-0.04547 0.002,-0.01516 0.004,-0.0304 0.006,-0.04548 0.002,-0.01508 0.005,-0.03 0.008,-0.04496 0.003,-0.01496 0.006,-0.03014 0.009,-0.04496 0.003,-0.01481 0.007,-0.02929 0.0114,-0.04393 0.004,-0.01464 0.008,-0.02949 0.0124,-0.04392 0.004,-0.01443 0.01,-0.0287 0.0145,-0.04289 0.005,-0.01419 0.0101,-0.02794 0.0155,-0.04186 0.005,-0.01392 0.0112,-0.02773 0.0171,-0.04134 0.006,-0.01361 0.0118,-0.02703 0.0181,-0.04031 0.006,-0.01328 0.0129,-0.02636 0.0196,-0.03927 0.007,-0.01291 0.014,-0.02572 0.0212,-0.03824 0.007,-0.01252 0.0146,-0.02512 0.0222,-0.03721 0.008,-0.01209 0.0154,-0.02351 0.0232,-0.03514 0.008,-0.01163 0.0159,-0.02297 0.0243,-0.03411 0.008,-0.01114 0.0171,-0.02246 0.0258,-0.03307 0.009,-0.01061 0.0173,-0.02095 0.0263,-0.03101 0.009,-0.01006 0.0185,-0.01946 0.0279,-0.02894 0.009,-0.0095 0.0187,-0.01905 0.0284,-0.02791 0.01,-0.0089 0.0195,-0.01711 0.0294,-0.02532 0.01,-0.0082 0.0202,-0.01624 0.0305,-0.02377 0.0103,-0.0075 0.021,-0.01489 0.0315,-0.0217 0.0106,-0.0068 0.0212,-0.01304 0.032,-0.01912 0.0108,-0.0061 0.0215,-0.01175 0.0326,-0.01705 0.01,-0.0046 0.0192,-0.0089 0.0289,-0.01292 l 0.0176,-0.199471 a 1.0583333,1.0583333 0 0 0 -0.13488,0.02946 1.0583333,1.0583333 0 0 0 -0.14107,0.05271 1.0583333,1.0583333 0 0 0 -0.13281,0.07235 1.0583333,1.0583333 0 0 0 -0.12092,0.09043 1.0583333,1.0583333 0 0 0 -0.10646,0.106971 1.0583333,1.0583333 0 0 0 -0.0904,0.120922 1.0583333,1.0583333 0 0 0 -0.0729,0.132292 1.0583333,1.0583333 0 0 0 -0.0527,0.141594 1.0583333,1.0583333 0 0 0 -0.032,0.147794 1.0583333,1.0583333 0 0 0 -0.0109,0.150379 1.0583333,1.0583333 0 0 0 0.0109,0.150378 1.0583333,1.0583333 0 0 0 0.032,0.147795 1.0583333,1.0583333 0 0 0 0.0527,0.141593 1.0583333,1.0583333 0 0 0 0.0729,0.132292 1.0583333,1.0583333 0 0 0 0.0904,0.120922 1.0583333,1.0583333 0 0 0 0.10646,0.106971 1.0583333,1.0583333 0 0 0 0.12092,0.09043 1.0583333,1.0583333 0 0 0 0.13281,0.07235 1.0583333,1.0583333 0 0 0 0.14107,0.05271 1.0583333,1.0583333 0 0 0 0.1478,0.03204 1.0583333,1.0583333 0 0 0 0.15038,0.01085 1.0583333,1.0583333 0 0 0 0.15089,-0.01085 1.0583333,1.0583333 0 0 0 0.14728,-0.03204 1.0583333,1.0583333 0 0 0 0.14159,-0.05271 1.0583333,1.0583333 0 0 0 0.13281,-0.07235 1.0583333,1.0583333 0 0 0 0.12093,-0.09043 1.0583333,1.0583333 0 0 0 0.10645,-0.106971 1.0583333,1.0583333 0 0 0 0.0904,-0.120922 1.0583333,1.0583333 0 0 0 0.0723,-0.132292 1.0583333,1.0583333 0 0 0 0.0527,-0.141593 1.0583333,1.0583333 0 0 0 0.0326,-0.147795 1.0583333,1.0583333 0 0 0 0.0103,-0.150378 1.0583333,1.0583333 0 0 0 -10e-4,-0.05168 1.0583333,1.0583333 0 0 0 -0.004,-0.05219 1.0583333,1.0583333 0 0 0 -0.007,-0.05168 1.0583333,1.0583333 0 0 0 -0.009,-0.05116 1.0583333,1.0583333 0 0 0 -0.0114,-0.05064 1.0583333,1.0583333 0 0 0 -0.0139,-0.05013 1.0583333,1.0583333 0 0 0 -0.016,-0.04909 1.0583333,1.0583333 0 0 0 -0.0186,-0.04858 1.0583333,1.0583333 0 0 0 -0.0212,-0.04754 1.0583333,1.0583333 0 0 0 -0.0232,-0.04599 1.0583333,1.0583333 0 0 0 -0.0258,-0.04547 1.0583333,1.0583333 0 0 0 -0.0279,-0.04393 1.0583333,1.0583333 0 0 0 -0.03,-0.04237 1.0583333,1.0583333 0 0 0 -0.0315,-0.04082 1.0583333,1.0583333 0 0 0 -0.0341,-0.03927 1.0583333,1.0583333 0 0 0 -0.0357,-0.03772 1.0583333,1.0583333 0 0 0 -0.0377,-0.03566 1.0583333,1.0583333 0 0 0 -0.0393,-0.03411 1.0583333,1.0583333 0 0 0 -0.0413,-0.03204 1.0583333,1.0583333 0 0 0 -0.0424,-0.02997 1.0583333,1.0583333 0 0 0 -0.0439,-0.02791 1.0583333,1.0583333 0 0 0 -0.045,-0.02532 1.0583333,1.0583333 0 0 0 -0.0465,-0.02325 1.0583333,1.0583333 0 0 0 -0.0475,-0.02119 1.0583333,1.0583333 0 0 0 -0.0486,-0.0186 1.0583333,1.0583333 0 0 0 -0.0491,-0.01654 1.0583333,1.0583333 0 0 0 -0.0501,-0.01395 1.0583333,1.0583333 0 0 0 -0.0506,-0.01137 1.0583333,1.0583333 0 0 0 -0.0429,-0.0078 z m -0.16382,0.69298 a 0.3175,0.3175 0 0 0 -0.0811,0.01085 0.3175,0.3175 0 0 0 -0.0765,0.03204 0.3175,0.3175 0 0 0 -0.0656,0.05013 0.3175,0.3175 0 0 0 -0.0506,0.06615 0.3175,0.3175 0 0 0 -0.0315,0.07648 0.3175,0.3175 0 0 0 -0.0109,0.08217 0.3175,0.3175 0 0 0 0.0109,0.08216 0.3175,0.3175 0 0 0 0.0315,0.07648 0.3175,0.3175 0 0 0 0.0506,0.06563 0.3175,0.3175 0 0 0 0.0656,0.05064 0.3175,0.3175 0 0 0 0.0765,0.03152 0.3175,0.3175 0 0 0 0.0822,0.01085 0.3175,0.3175 0 0 0 0.0822,-0.01085 0.3175,0.3175 0 0 0 0.0765,-0.03152 0.3175,0.3175 0 0 0 0.0661,-0.05064 0.3175,0.3175 0 0 0 0.0501,-0.06563 0.3175,0.3175 0 0 0 0.032,-0.07648 0.3175,0.3175 0 0 0 0.0109,-0.08216 0.3175,0.3175 0 0 0 -0.002,-0.02791 0.3175,0.3175 0 0 0 -0.004,-0.02739 0.3175,0.3175 0 0 0 -0.006,-0.02687 0.3175,0.3175 0 0 0 -0.008,-0.02635 0.3175,0.3175 0 0 0 -0.0109,-0.02584 0.3175,0.3175 0 0 0 -0.0129,-0.02429 0.3175,0.3175 0 0 0 -0.0145,-0.02377 0.3175,0.3175 0 0 0 -0.0171,-0.0217 0.3175,0.3175 0 0 0 -0.0186,-0.02067 0.3175,0.3175 0 0 0 -0.0207,-0.0186 0.3175,0.3175 0 0 0 -0.0217,-0.01705 0.3175,0.3175 0 0 0 -0.0238,-0.01447 0.3175,0.3175 0 0 0 -0.0243,-0.01292 0.3175,0.3175 0 0 0 -0.0258,-0.01085 0.3175,0.3175 0 0 0 -0.0263,-0.0083 0.3175,0.3175 0 0 0 -0.0269,-0.0057 0.3175,0.3175 0 0 0 -0.0274,-0.0036 0.3175,0.3175 0 0 0 -0.0269,-0.0016 h -5.2e-4 z m -0.26355,0.793751 v 0.176733 h 0.52917 v -0.176733 z" /><path
       d="m 803.94887,23.8125 c -0.044,8.18e-4 -0.0877,0.0046 -0.13126,0.01085 -0.004,8.35e-4 -0.009,0.0017 -0.0129,0.0026 l -0.0176,0.199471 c -0.01,0.004 -0.0194,0.0084 -0.0289,0.01292 -0.011,0.0053 -0.0217,0.01098 -0.0326,0.01705 -0.0108,0.0061 -0.0215,0.0123 -0.032,0.01912 -0.0106,0.0068 -0.0213,0.01417 -0.0315,0.0217 -0.0103,0.0075 -0.0205,0.01556 -0.0305,0.02377 -0.01,0.0082 -0.0198,0.01646 -0.0294,0.02532 -0.01,0.0089 -0.019,0.01843 -0.0284,0.02791 -0.009,0.0095 -0.0189,0.01888 -0.0279,0.02894 -0.009,0.01006 -0.0176,0.02039 -0.0263,0.03101 -0.009,0.01061 -0.0175,0.02194 -0.0258,0.03307 -0.008,0.01114 -0.0163,0.02248 -0.0243,0.03411 -0.008,0.01163 -0.0157,0.02305 -0.0232,0.03514 -0.008,0.01209 -0.015,0.02469 -0.0222,0.03721 -0.007,0.01252 -0.0144,0.02533 -0.0212,0.03824 -0.007,0.01291 -0.0133,0.02599 -0.0196,0.03927 -0.006,0.01328 -0.0122,0.02669 -0.0181,0.04031 -0.006,0.01362 -0.0116,0.02742 -0.0171,0.04134 -0.005,0.01392 -0.0105,0.02767 -0.0155,0.04186 -0.005,0.01419 -0.01,0.02846 -0.0145,0.04289 -0.004,0.01443 -0.008,0.02929 -0.0124,0.04392 -0.004,0.01464 -0.008,0.02911 -0.0114,0.04393 -0.003,0.01482 -0.006,0.03 -0.009,0.04496 -0.003,0.01496 -0.005,0.02988 -0.008,0.04496 -0.002,0.01508 -0.004,0.03032 -0.006,0.04548 -0.002,0.01516 -0.003,0.03026 -0.005,0.04547 -10e-4,0.01521 -0.002,0.03024 -0.003,0.04547 -6.1e-4,0.01523 -0.001,0.03077 -0.001,0.04599 0,0.01522 4.3e-4,0.03013 0.001,0.04496 6.1e-4,0.01483 10e-4,0.02949 0.003,0.04392 10e-4,0.01444 0.003,0.02886 0.005,0.04289 0.002,0.01404 0.004,0.02771 0.006,0.04134 0.002,0.01363 0.005,0.02709 0.008,0.04031 0.003,0.01322 0.006,0.02596 0.009,0.03876 0.003,0.0128 0.007,0.02586 0.0114,0.03824 0.004,0.01238 0.008,0.02422 0.0124,0.03617 0.004,0.01195 0.01,0.02362 0.0145,0.03514 0.005,0.01151 0.0101,0.02303 0.0155,0.03411 0.005,0.01107 0.0112,0.02192 0.0171,0.03256 0.006,0.01063 0.0118,0.02083 0.0181,0.03101 0.006,0.01018 0.0129,0.02025 0.0196,0.02997 0.007,0.0097 0.014,0.01916 0.0212,0.02842 0.007,0.0093 0.0146,0.01859 0.0222,0.02739 0.008,0.0088 0.0153,0.017 0.0232,0.02532 0.008,0.0083 0.0159,0.01645 0.0243,0.02429 0.008,0.0078 0.0171,0.01538 0.0258,0.02274 0.009,0.0074 0.0173,0.01483 0.0263,0.0217 0.009,0.0069 0.0185,0.01326 0.0279,0.01964 0.009,0.0064 0.0187,0.01273 0.0284,0.0186 0.01,0.0059 0.0195,0.01117 0.0294,0.01654 0.01,0.0054 0.0202,0.01065 0.0305,0.0155 0.0103,0.0049 0.021,0.0096 0.0315,0.01395 0.0106,0.0043 0.0212,0.0081 0.032,0.01189 0.0108,0.0038 0.0215,0.0076 0.0326,0.01085 0.011,0.0033 0.0223,0.006 0.0336,0.0088 0.0113,0.0028 0.0226,0.0055 0.0341,0.0078 0.0115,0.0022 0.0229,0.004 0.0346,0.0057 0.0117,0.0017 0.0238,0.003 0.0357,0.0041 0.0119,0.0011 0.0236,0.002 0.0357,0.0026 0.012,5.61e-4 0.024,0.001 0.0362,0.001 0.0122,0 0.0241,-4.72e-4 0.0362,-0.001 0.012,-5.62e-4 0.0243,-0.0015 0.0362,-0.0026 0.0119,-0.0011 0.0235,-0.0025 0.0351,-0.0041 0.0117,-0.0017 0.0231,-0.0035 0.0346,-0.0057 0.0115,-0.0022 0.0228,-0.005 0.0341,-0.0078 0.0113,-0.0028 0.0226,-0.0055 0.0336,-0.0088 0.0111,-0.0033 0.0223,-0.007 0.0331,-0.01085 0.0108,-0.0038 0.0215,-0.0075 0.032,-0.01189 0.0105,-0.0043 0.0207,-0.0091 0.031,-0.01395 0.0103,-0.0049 0.0205,-0.01014 0.0305,-0.0155 0.01,-0.0054 0.0198,-0.01066 0.0295,-0.01654 0.01,-0.0059 0.0196,-0.01223 0.0289,-0.0186 0.009,-0.0064 0.0183,-0.01277 0.0274,-0.01964 0.009,-0.0069 0.0182,-0.01435 0.0269,-0.0217 0.009,-0.0074 0.017,-0.0149 0.0253,-0.02274 0.008,-0.0078 0.0168,-0.01597 0.0248,-0.02429 0.008,-0.0083 0.0157,-0.01653 0.0233,-0.02532 0.008,-0.0088 0.015,-0.01813 0.0222,-0.02739 0.007,-0.0093 0.0139,-0.0187 0.0207,-0.02842 0.007,-0.0097 0.0133,-0.01979 0.0196,-0.02997 0.006,-0.01018 0.0127,-0.02038 0.0186,-0.03101 0.006,-0.01063 0.0116,-0.02148 0.0171,-0.03256 0.005,-0.01108 0.0105,-0.02259 0.0155,-0.03411 0.005,-0.01152 0.009,-0.02319 0.014,-0.03514 0.004,-0.01195 0.009,-0.02431 0.0129,-0.03669 0.004,-0.01238 0.007,-0.02492 0.0109,-0.03772 0.003,-0.0128 0.007,-0.02554 0.01,-0.03876 0.003,-0.01322 0.005,-0.02668 0.008,-0.04031 0.002,-0.01363 0.004,-0.0273 0.006,-0.04134 0.002,-0.01404 0.003,-0.02846 0.004,-0.04289 10e-4,-0.01444 0.002,-0.02909 0.003,-0.04392 6.1e-4,-0.01483 5.2e-4,-0.02974 5.2e-4,-0.04496 0,-0.01522 9e-5,-0.03076 -5.2e-4,-0.04599 -6.1e-4,-0.01523 -0.002,-0.03026 -0.003,-0.04547 -10e-4,-0.01521 -0.002,-0.03032 -0.004,-0.04547 -0.002,-0.01516 -0.004,-0.0304 -0.006,-0.04548 -0.002,-0.01508 -0.005,-0.03 -0.008,-0.04496 -0.003,-0.01496 -0.006,-0.03014 -0.01,-0.04496 -0.003,-0.01481 -0.007,-0.02929 -0.0109,-0.04393 -0.004,-0.01464 -0.008,-0.02949 -0.0129,-0.04392 -0.004,-0.01443 -0.009,-0.0287 -0.014,-0.04289 -0.005,-0.01419 -0.0101,-0.02794 -0.0155,-0.04186 -0.005,-0.01392 -0.0112,-0.02773 -0.0171,-0.04134 -0.006,-0.01361 -0.0123,-0.02703 -0.0186,-0.04031 -0.006,-0.01328 -0.0129,-0.02636 -0.0196,-0.03927 -0.007,-0.01291 -0.0135,-0.02572 -0.0207,-0.03824 -0.007,-0.01252 -0.0146,-0.02512 -0.0222,-0.03721 -0.008,-0.01209 -0.0153,-0.02351 -0.0233,-0.03514 -0.008,-0.01163 -0.0164,-0.02297 -0.0248,-0.03411 -0.008,-0.01114 -0.0166,-0.02246 -0.0253,-0.03307 -0.009,-0.01061 -0.0178,-0.02095 -0.0269,-0.03101 -0.009,-0.01006 -0.018,-0.01946 -0.0274,-0.02894 -0.009,-0.0095 -0.0192,-0.01905 -0.0289,-0.02791 -0.01,-0.0089 -0.0195,-0.01711 -0.0295,-0.02532 -0.01,-0.0082 -0.0202,-0.01624 -0.0305,-0.02377 -0.0103,-0.0075 -0.0204,-0.01488 -0.031,-0.0217 -0.0106,-0.0068 -0.0212,-0.01304 -0.032,-0.01912 -0.0108,-0.0061 -0.022,-0.01175 -0.0331,-0.01705 -0.009,-0.0045 -0.0189,-0.0085 -0.0284,-0.0124 l -0.0186,-0.201021 c -0.002,-3.53e-4 -0.005,-6.98e-4 -0.007,-10e-4 -0.0172,-0.0025 -0.0344,-0.0046 -0.0517,-0.0062 -0.0172,-0.0018 -0.0344,-0.0032 -0.0517,-0.0041 -0.0174,-7.74e-4 -0.0348,-0.0011 -0.0522,-0.001 -0.006,5e-6 -0.0128,-1.17e-4 -0.0191,0 z m 0.0191,0.705383 c 0.009,1.07e-4 0.0186,6.25e-4 0.0279,0.0016 0.009,8.08e-4 0.0183,0.002 0.0274,0.0036 0.009,0.0015 0.018,0.0034 0.0269,0.0057 0.009,0.0024 0.0177,0.0051 0.0264,0.0083 0.009,0.0032 0.0174,0.0069 0.0258,0.01085 0.008,0.004 0.0164,0.0083 0.0243,0.01292 0.008,0.0045 0.0161,0.0093 0.0238,0.01447 0.007,0.0054 0.0147,0.01106 0.0217,0.01705 0.007,0.0059 0.014,0.0121 0.0207,0.0186 0.007,0.0066 0.0127,0.01351 0.0186,0.02067 0.006,0.007 0.0117,0.01423 0.0171,0.0217 0.005,0.0077 0.01,0.01564 0.0145,0.02377 0.005,0.0079 0.009,0.01601 0.0129,0.02429 0.004,0.0084 0.008,0.01707 0.0109,0.02584 0.003,0.0087 0.006,0.01745 0.008,0.02635 0.002,0.0089 0.004,0.01784 0.006,0.02687 0.002,0.0091 0.003,0.01821 0.004,0.02739 9.2e-4,0.0093 0.001,0.01859 0.002,0.02791 -10e-6,0.02774 -0.004,0.05537 -0.0109,0.08216 -0.007,0.02679 -0.0181,0.0525 -0.032,0.07648 -0.0138,0.02397 -0.0306,0.04603 -0.0501,0.06563 -0.0197,0.01971 -0.042,0.03674 -0.0661,0.05064 -0.024,0.0138 -0.0497,0.0244 -0.0765,0.03152 -0.0268,0.0072 -0.0544,0.01084 -0.0822,0.01085 -0.0277,-1.2e-5 -0.0554,-0.0037 -0.0822,-0.01085 -0.0268,-0.0071 -0.0525,-0.01772 -0.0765,-0.03152 -0.024,-0.01394 -0.0461,-0.03097 -0.0656,-0.05064 -0.0197,-0.01957 -0.0367,-0.04163 -0.0506,-0.06563 -0.0138,-0.02401 -0.0244,-0.04972 -0.0315,-0.07648 -0.007,-0.0268 -0.0108,-0.05442 -0.0109,-0.08216 2e-5,-0.02774 0.004,-0.05537 0.0109,-0.08217 0.007,-0.02676 0.0177,-0.05247 0.0315,-0.07648 0.0139,-0.02418 0.0309,-0.04642 0.0506,-0.06615 0.0196,-0.01949 0.0417,-0.03635 0.0656,-0.05013 0.024,-0.01398 0.0497,-0.02475 0.0765,-0.03204 0.0268,-0.0072 0.0544,-0.01084 0.0822,-0.01085 z m -0.26459,0.793751 h 0.52917 v 0.176733 h -0.52917 z"
       style="fill:#ffffff;stroke-width:0.999994;stroke-linecap:round;stroke-linejoin:round"
       id="path721" /></g></svg>
