<?xml version="1.0" encoding="UTF-8" standalone="no"?>
<!-- Created with Inkscape (http://www.inkscape.org/) -->

<svg
   width="5.9996338pt"
   height="5.9999881pt"
   viewBox="0 0 2.1165375 2.1166625"
   version="1.1"
   id="svg1"
   xml:space="preserve"
   xmlns="http://www.w3.org/2000/svg"
   xmlns:svg="http://www.w3.org/2000/svg"><defs
     id="defs1" /><g
     id="layer1"
     transform="translate(-802.90971,-41.098782)"><path
       d="m 803.96799,41.098784 c -0.0503,3.7e-5 -0.10058,0.0037 -0.15038,0.01085 -0.05,0.0071 -0.0994,0.01785 -0.1478,0.03204 -0.0484,0.01417 -0.0957,0.03179 -0.14159,0.05271 -0.0458,0.02094 -0.09,0.04512 -0.13229,0.07235 -0.0424,0.02723 -0.0828,0.05745 -0.12092,0.09043 -0.0382,0.03306 -0.0739,0.06881 -0.10697,0.10697 -0.033,0.0381 -0.0632,0.07851 -0.0904,0.120923 -0.0272,0.04232 -0.0514,0.08653 -0.0723,0.132292 -0.0209,0.04588 -0.0385,0.0932 -0.0527,0.141593 -0.0142,0.04827 -0.0249,0.09749 -0.032,0.147278 -0.007,0.04997 -0.0108,0.100404 -0.0109,0.150895 4e-5,0.05032 0.004,0.100576 0.0109,0.150378 0.007,0.04996 0.0178,0.09936 0.032,0.147795 0.0142,0.04839 0.0318,0.09571 0.0527,0.141593 0.0209,0.04576 0.0451,0.08997 0.0723,0.132292 0.0272,0.04241 0.0575,0.08282 0.0904,0.120923 0.0331,0.03816 0.0688,0.07391 0.10697,0.10697 0.0381,0.03298 0.0785,0.06321 0.12092,0.09043 0.0423,0.02723 0.0865,0.05141 0.13229,0.07235 0.0459,0.02092 0.0932,0.03854 0.14159,0.05271 0.0484,0.01419 0.0978,0.0249 0.1478,0.03204 0.0498,0.0072 0.10006,0.01082 0.15038,0.01085 0.0505,-1.3e-5 0.10092,-0.0036 0.15089,-0.01085 0.0498,-0.0072 0.099,-0.01787 0.14728,-0.03204 0.0484,-0.01417 0.0957,-0.03179 0.14159,-0.05271 0.0458,-0.02094 0.09,-0.04512 0.1323,-0.07235 0.0424,-0.02723 0.0828,-0.05745 0.12092,-0.09043 0.0382,-0.03306 0.0739,-0.06881 0.10697,-0.10697 0.033,-0.0381 0.0632,-0.07852 0.0904,-0.120923 0.0272,-0.04232 0.0514,-0.08653 0.0723,-0.132292 0.0209,-0.04588 0.0385,-0.0932 0.0527,-0.141593 0.0142,-0.04844 0.0249,-0.09783 0.032,-0.147795 0.007,-0.0498 0.0108,-0.10006 0.0109,-0.150378 9e-5,-0.0174 -2.6e-4,-0.03481 -10e-4,-0.05219 -9.6e-4,-0.01726 -0.002,-0.03449 -0.004,-0.05168 -0.002,-0.01727 -0.004,-0.0345 -0.006,-0.05168 -0.003,-0.01712 -0.005,-0.03418 -0.009,-0.05116 -0.003,-0.01697 -0.007,-0.03386 -0.0114,-0.05064 -0.004,-0.01682 -0.009,-0.03354 -0.014,-0.05013 -0.005,-0.0165 -0.0106,-0.03287 -0.0165,-0.04909 -0.006,-0.01634 -0.012,-0.03254 -0.0186,-0.04858 -0.007,-0.01601 -0.0134,-0.03187 -0.0207,-0.04754 -0.008,-0.0157 -0.0155,-0.0312 -0.0238,-0.04651 -0.008,-0.01519 -0.0165,-0.03018 -0.0253,-0.04496 -0.009,-0.01487 -0.0182,-0.02951 -0.0279,-0.04393 -0.01,-0.01437 -0.0196,-0.0285 -0.03,-0.04237 -0.0103,-0.01387 -0.021,-0.02748 -0.032,-0.04082 -0.0109,-0.01354 -0.0221,-0.02681 -0.0336,-0.03979 -0.0118,-0.0127 -0.0238,-0.0251 -0.0362,-0.03721 -0.0121,-0.01236 -0.0245,-0.02442 -0.0372,-0.03617 -0.013,-0.01152 -0.0263,-0.02272 -0.0398,-0.03359 -0.0133,-0.01101 -0.027,-0.0217 -0.0408,-0.03204 -0.0139,-0.01034 -0.028,-0.02033 -0.0424,-0.02997 -0.0144,-0.0097 -0.0291,-0.01897 -0.0439,-0.02791 -0.0148,-0.0088 -0.0298,-0.01725 -0.045,-0.02532 -0.0153,-0.0083 -0.0308,-0.01623 -0.0465,-0.02377 -0.0157,-0.0073 -0.0315,-0.01417 -0.0475,-0.02067 -0.016,-0.0068 -0.0322,-0.01315 -0.0486,-0.01912 -0.0162,-0.0057 -0.0326,-0.01108 -0.0491,-0.01602 -0.0166,-0.0051 -0.0333,-0.0097 -0.0501,-0.01395 -0.0168,-0.0042 -0.0337,-0.008 -0.0506,-0.01137 -0.017,-0.0033 -0.034,-0.0063 -0.0512,-0.0088 -0.0172,-0.0025 -0.0344,-0.0046 -0.0517,-0.0062 -0.0172,-0.0018 -0.0344,-0.0032 -0.0517,-0.0041 -0.0174,-7.73e-4 -0.0348,-0.0011 -0.0522,-10e-4 z m -0.46147,0.424263 c 0.0175,0.0035 0.035,0.0076 0.0527,0.01189 0.0177,0.0043 0.0357,0.0091 0.0532,0.01447 0.0175,0.0054 0.0346,0.01137 0.0517,0.01809 0.0171,0.0067 0.0338,0.01396 0.0501,0.02222 0.008,0.0041 0.0164,0.0089 0.0243,0.01344 0.008,0.0046 0.0156,0.0089 0.0233,0.01395 0.008,0.005 0.0154,0.01052 0.0227,0.01602 0.007,0.0055 0.0142,0.01104 0.0212,0.01705 0.007,0.006 0.0141,0.01256 0.0207,0.01912 0.007,0.0066 0.013,0.01354 0.0191,0.02067 0.006,0.0071 0.0119,0.01449 0.0176,0.02222 0.005,0.007 0.0102,0.01415 0.015,0.0217 4.7e-4,7.4e-4 10e-4,0.0013 0.002,0.0021 v 0.701249 c -0.0153,-0.01259 -0.0307,-0.02463 -0.046,-0.03566 -0.0153,-0.01103 -0.0306,-0.02095 -0.046,-0.03049 -0.0154,-0.0095 -0.0305,-0.01874 -0.046,-0.02687 -0.0154,-0.0081 -0.031,-0.01543 -0.0465,-0.02222 -0.0155,-0.0068 -0.0314,-0.01308 -0.047,-0.0186 -0.0156,-0.0055 -0.0313,-0.01013 -0.047,-0.01447 -0.0157,-0.0043 -0.0312,-0.0081 -0.047,-0.01137 -0.0158,-0.0032 -0.0317,-0.0061 -0.0475,-0.0083 v -0.535368 z m 0.92294,0 v 0.21084 0.535368 c -0.0159,0.0022 -0.0318,0.005 -0.0475,0.0083 -0.0158,0.0032 -0.0313,0.007 -0.047,0.01137 -0.0157,0.0043 -0.0314,0.0089 -0.047,0.01447 -0.0156,0.0055 -0.031,0.01181 -0.0465,0.0186 -0.0155,0.0068 -0.0311,0.01409 -0.0465,0.02222 -0.0155,0.0081 -0.0311,0.01733 -0.0465,0.02687 -0.0154,0.0095 -0.0307,0.01946 -0.046,0.03049 -0.0153,0.01103 -0.0307,0.02307 -0.046,0.03566 v -0.701249 c 4.7e-4,-7.45e-4 10e-4,-0.0013 0.002,-0.0021 0.005,-0.0076 0.01,-0.01467 0.015,-0.0217 0.006,-0.0077 0.0119,-0.01509 0.0181,-0.02222 0.006,-0.0071 0.0125,-0.01411 0.0191,-0.02067 0.007,-0.0066 0.0132,-0.01311 0.0202,-0.01912 0.007,-0.006 0.0144,-0.01155 0.0217,-0.01705 0.007,-0.0055 0.0146,-0.011 0.0222,-0.01602 0.008,-0.005 0.0158,-0.0094 0.0238,-0.01395 0.008,-0.0046 0.0156,-0.0093 0.0238,-0.01344 0.0163,-0.0083 0.0331,-0.0155 0.0501,-0.02222 0.0171,-0.0067 0.0347,-0.01268 0.0522,-0.01809 0.0175,-0.0054 0.0351,-0.01015 0.0527,-0.01447 0.0177,-0.0043 0.0352,-0.0084 0.0527,-0.01189 z m -1.25522,0.21084 h 0.15658 v 0.701766 h 0.0879 c 0.008,0 0.017,4.11e-4 0.0258,10e-4 0.009,6.22e-4 0.018,0.0013 0.0274,0.0026 0.009,0.0013 0.0191,0.0028 0.0289,0.0047 0.01,0.0019 0.0197,0.0042 0.03,0.0067 0.0103,0.0026 0.021,0.0056 0.0315,0.0088 0.0106,0.0032 0.0213,0.0064 0.032,0.01034 0.0108,0.0039 0.0212,0.0083 0.032,0.01292 0.0109,0.0046 0.0217,0.0097 0.0326,0.01499 0.0109,0.0053 0.0223,0.01057 0.0331,0.01654 0.0108,0.006 0.0214,0.01244 0.032,0.01912 0.0107,0.0067 0.0211,0.01378 0.0315,0.02119 5e-4,3.55e-4 10e-4,6.76e-4 0.002,0.001 h -0.58291 z m 1.43092,0 h 0.15658 v 0.821655 h -0.40825 v 0.344682 l -0.0879,-0.108004 -0.0879,0.108004 v -0.343648 -10e-4 h 10e-4 c 5e-4,-3.6e-4 0.001,-6.74e-4 0.002,-0.001 0.0104,-0.0074 0.0214,-0.01451 0.032,-0.02119 0.0107,-0.0067 0.0212,-0.01315 0.032,-0.01912 0.0108,-0.006 0.0217,-0.01127 0.0326,-0.01654 0.0109,-0.0053 0.0217,-0.01042 0.0326,-0.01499 0.0109,-0.0046 0.0218,-0.009 0.0326,-0.01292 0.0108,-0.0039 0.0215,-0.0071 0.032,-0.01034 0.0106,-0.0032 0.0208,-0.0062 0.031,-0.0088 0.0103,-0.0026 0.0206,-0.0048 0.0305,-0.0067 0.01,-0.0019 0.0195,-0.0034 0.0289,-0.0047 0.009,-0.0013 0.0185,-0.002 0.0274,-0.0026 0.009,-6.23e-4 0.0171,-10e-4 0.0253,-10e-4 h 0.0879 z"
       style="fill:transparent;stroke-width:0.352778"
       id="path196" /><path
       d="m 804.60516,41.733887 v 0.701766 h -0.0879 c -0.008,0 -0.0165,4.11e-4 -0.0253,10e-4 -0.009,6.22e-4 -0.018,0.0013 -0.0274,0.0026 -0.009,0.0013 -0.0191,0.0028 -0.0289,0.0047 -0.01,0.0019 -0.0202,0.0042 -0.0305,0.0067 -0.0103,0.0026 -0.0205,0.0056 -0.031,0.0088 -0.0105,0.0032 -0.0213,0.0064 -0.032,0.01034 -0.0107,0.0039 -0.0217,0.0083 -0.0326,0.01292 -0.0109,0.0046 -0.0217,0.0097 -0.0326,0.01499 -0.0109,0.0053 -0.0217,0.01057 -0.0326,0.01654 -0.0108,0.006 -0.0214,0.01244 -0.032,0.01912 -0.0107,0.0067 -0.0216,0.01378 -0.032,0.02119 -5.1e-4,3.59e-4 -10e-4,6.73e-4 -0.002,0.001 -4e-4,2.81e-4 -6.4e-4,7.52e-4 -10e-4,10e-4 v 0.343648 l 0.0879,-0.108004 0.0879,0.108004 v -0.344682 h 0.40825 v -0.821655 z"
       style="opacity:1;fill:#374151;stroke-width:0.176389"
       id="path215" /><path
       d="m 803.75715,42.555542 c -5e-4,-3.57e-4 -10e-4,-6.78e-4 -0.002,-0.001 -0.0104,-0.0074 -0.0209,-0.01451 -0.0315,-0.02119 -0.0106,-0.0067 -0.0212,-0.01315 -0.032,-0.01912 -0.0108,-0.006 -0.0222,-0.01127 -0.0331,-0.01654 -0.0109,-0.0053 -0.0217,-0.01042 -0.0326,-0.01499 -0.0109,-0.0046 -0.0213,-0.009 -0.032,-0.01292 -0.0108,-0.0039 -0.0215,-0.0071 -0.032,-0.01034 -0.0105,-0.0032 -0.0213,-0.0062 -0.0315,-0.0088 -0.0103,-0.0026 -0.0201,-0.0048 -0.03,-0.0067 -0.01,-0.0019 -0.0195,-0.0034 -0.0289,-0.0047 -0.009,-0.0013 -0.0185,-0.002 -0.0274,-0.0026 -0.009,-6.23e-4 -0.0176,-10e-4 -0.0258,-10e-4 h -0.0879 v -0.701766 h -0.15658 v 0.821655 z"
       style="opacity:1;fill:#374151;stroke-width:0.176389"
       id="path209" /><path
       d="m 803.50652,41.523047 v 0.21084 0.535368 c 0.0159,0.0022 0.0318,0.005 0.0475,0.0083 0.0158,0.0032 0.0313,0.007 0.047,0.01137 0.0157,0.0043 0.0314,0.0089 0.047,0.01447 0.0156,0.0055 0.0315,0.01181 0.047,0.0186 0.0155,0.0068 0.031,0.01409 0.0465,0.02222 0.0155,0.0081 0.0306,0.01733 0.046,0.02687 0.0154,0.0095 0.0307,0.01946 0.046,0.03049 0.0153,0.01103 0.0307,0.02307 0.046,0.03566 v -0.701249 c -4.6e-4,-7.45e-4 -10e-4,-0.0013 -0.002,-0.0021 -0.005,-0.0076 -0.01,-0.01467 -0.015,-0.0217 -0.006,-0.0077 -0.0114,-0.01509 -0.0176,-0.02222 -0.006,-0.0071 -0.0125,-0.01411 -0.0191,-0.02067 -0.007,-0.0066 -0.0137,-0.01311 -0.0207,-0.01912 -0.007,-0.006 -0.0138,-0.01155 -0.0212,-0.01705 -0.007,-0.0055 -0.0151,-0.011 -0.0227,-0.01602 -0.008,-0.005 -0.0153,-0.0094 -0.0233,-0.01395 -0.008,-0.0046 -0.0161,-0.0093 -0.0243,-0.01344 -0.0163,-0.0083 -0.0331,-0.0155 -0.0501,-0.02222 -0.0171,-0.0067 -0.0342,-0.01268 -0.0517,-0.01809 -0.0175,-0.0054 -0.0356,-0.01015 -0.0532,-0.01447 -0.0177,-0.0043 -0.0352,-0.0084 -0.0527,-0.01189 z"
       style="opacity:1;fill:#374151;stroke-width:0.176389"
       id="path208" /><path
       d="m 804.42946,41.523047 c -0.0175,0.0035 -0.0351,0.0076 -0.0527,0.01189 -0.0177,0.0043 -0.0352,0.0091 -0.0527,0.01447 -0.0175,0.0054 -0.0351,0.01137 -0.0522,0.01809 -0.0171,0.0067 -0.0338,0.01396 -0.0501,0.02222 -0.008,0.0041 -0.0159,0.0089 -0.0238,0.01344 -0.008,0.0046 -0.0161,0.0089 -0.0238,0.01395 -0.008,0.005 -0.0149,0.01052 -0.0222,0.01602 -0.007,0.0055 -0.0147,0.01104 -0.0217,0.01705 -0.007,0.006 -0.0136,0.01256 -0.0202,0.01912 -0.007,0.0066 -0.0129,0.01354 -0.0191,0.02067 -0.006,0.0071 -0.0124,0.01449 -0.0181,0.02222 -0.005,0.007 -0.0102,0.01415 -0.015,0.0217 -4.6e-4,7.4e-4 -10e-4,0.0013 -0.002,0.0021 v 0.701249 c 0.0153,-0.01259 0.0307,-0.02463 0.046,-0.03566 0.0153,-0.01103 0.0306,-0.02095 0.046,-0.03049 0.0154,-0.0095 0.0311,-0.01874 0.0465,-0.02687 0.0154,-0.0081 0.031,-0.01543 0.0465,-0.02222 0.0155,-0.0068 0.0309,-0.01308 0.0465,-0.0186 0.0156,-0.0055 0.0313,-0.01013 0.047,-0.01447 0.0157,-0.0043 0.0312,-0.0081 0.047,-0.01137 0.0158,-0.0032 0.0317,-0.0061 0.0475,-0.0083 v -0.535368 z"
       style="opacity:1;fill:#374151;stroke-width:0.176389"
       id="path203" /></g></svg>
