<?xml version="1.0" encoding="UTF-8" standalone="no"?>
<!-- Created with Inkscape (http://www.inkscape.org/) -->

<svg
   width="6.0003667pt"
   height="5.9999881pt"
   viewBox="0 0 2.1167961 2.1166625"
   version="1.1"
   id="svg1"
   xml:space="preserve"
   xmlns="http://www.w3.org/2000/svg"
   xmlns:svg="http://www.w3.org/2000/svg"><defs
     id="defs1" /><g
     id="layer1"
     transform="translate(-802.91013,-31.220833)"><path
       d="m 803.9685,31.220834 c -0.0505,1.3e-5 -0.10092,0.0036 -0.15089,0.01085 -0.0498,0.0072 -0.099,0.01787 -0.14728,0.03204 -0.0484,0.01417 -0.0957,0.03179 -0.14159,0.05271 -0.0459,0.02092 -0.0903,0.0451 -0.13281,0.07235 -0.0424,0.02723 -0.0828,0.05745 -0.12092,0.09043 -0.038,0.03308 -0.0736,0.06883 -0.10646,0.10697 -0.033,0.0381 -0.0632,0.07851 -0.0904,0.120923 -0.0272,0.04232 -0.0514,0.08653 -0.0724,0.132291 -0.0209,0.04588 -0.0385,0.0932 -0.0527,0.141594 -0.0144,0.04842 -0.0252,0.09782 -0.0326,0.147795 -0.007,0.04982 -0.0105,0.100071 -0.0103,0.150378 -1.3e-4,0.05031 0.003,0.100563 0.0103,0.150378 0.007,0.04998 0.0182,0.09937 0.0326,0.147795 0.0142,0.04839 0.0318,0.09571 0.0527,0.141593 0.0209,0.04576 0.0451,0.08997 0.0724,0.132292 0.0272,0.04241 0.0575,0.08282 0.0904,0.120923 0.0329,0.03814 0.0685,0.07389 0.10646,0.10697 0.0381,0.03298 0.0785,0.06321 0.12092,0.09043 0.0425,0.02725 0.0869,0.05143 0.13281,0.07235 0.0459,0.02092 0.0932,0.03854 0.14159,0.05271 0.0483,0.01417 0.0975,0.02487 0.14728,0.03204 0.05,0.0072 0.1004,0.01084 0.15089,0.01085 0.0503,-3.7e-5 0.10058,-0.0037 0.15038,-0.01085 0.05,-0.0071 0.0994,-0.01785 0.1478,-0.03204 0.0482,-0.0142 0.0954,-0.03181 0.14107,-0.05271 0.0459,-0.02092 0.0903,-0.0451 0.13281,-0.07235 0.0424,-0.02723 0.0828,-0.05745 0.12093,-0.09043 0.038,-0.03308 0.0736,-0.06883 0.10645,-0.10697 0.0332,-0.03808 0.0636,-0.0785 0.091,-0.120923 0.0272,-0.04232 0.0514,-0.08653 0.0724,-0.132292 0.0209,-0.04588 0.0385,-0.0932 0.0527,-0.141593 0.0142,-0.04844 0.0249,-0.09783 0.032,-0.147795 0.007,-0.0498 0.0108,-0.100059 0.0109,-0.150378 -10e-5,-0.01723 -6.2e-4,-0.03447 -0.002,-0.05168 -7.8e-4,-0.01742 -0.002,-0.03483 -0.004,-0.05219 -0.002,-0.01728 -0.004,-0.03451 -0.007,-0.05168 -0.003,-0.01712 -0.005,-0.03418 -0.009,-0.05116 -0.003,-0.01697 -0.007,-0.03386 -0.0114,-0.05064 -0.004,-0.01682 -0.009,-0.03353 -0.014,-0.05013 -0.005,-0.01649 -0.0103,-0.03286 -0.016,-0.04909 -0.006,-0.01634 -0.012,-0.03254 -0.0186,-0.04858 -0.007,-0.01602 -0.0137,-0.03187 -0.0212,-0.04754 -0.007,-0.01552 -0.0151,-0.03085 -0.0232,-0.04599 -0.008,-0.01537 -0.0168,-0.03053 -0.0258,-0.04547 -0.009,-0.01487 -0.0182,-0.02951 -0.0279,-0.04392 -0.009,-0.01436 -0.0193,-0.02849 -0.0295,-0.04238 -0.0103,-0.01387 -0.021,-0.02748 -0.032,-0.04082 -0.011,-0.01337 -0.0224,-0.02646 -0.0341,-0.03927 -0.0116,-0.01286 -0.0235,-0.02544 -0.0357,-0.03772 -0.0123,-0.01219 -0.0249,-0.02408 -0.0377,-0.03566 -0.0128,-0.01169 -0.0259,-0.02306 -0.0393,-0.03411 -0.0133,-0.01101 -0.027,-0.0217 -0.0408,-0.03204 -0.014,-0.01034 -0.0284,-0.02034 -0.0429,-0.02997 -0.0142,-0.0097 -0.0287,-0.01896 -0.0434,-0.02791 -0.0149,-0.0088 -0.0301,-0.01725 -0.0455,-0.02532 -0.0153,-0.0081 -0.0308,-0.01589 -0.0465,-0.02326 -0.0157,-0.0075 -0.0315,-0.01452 -0.0475,-0.02119 -0.0159,-0.0066 -0.0319,-0.01279 -0.0481,-0.0186 -0.0164,-0.0059 -0.0329,-0.01143 -0.0496,-0.01654 -0.0166,-0.0051 -0.0333,-0.0097 -0.0501,-0.01395 -0.0168,-0.0042 -0.0337,-0.008 -0.0506,-0.01137 -0.017,-0.0033 -0.034,-0.0063 -0.0512,-0.0088 -0.0172,-0.0025 -0.0344,-0.0046 -0.0517,-0.0062 -0.0172,-0.0018 -0.0344,-0.0032 -0.0517,-0.0041 -0.0172,-7.65e-4 -0.0344,-0.0011 -0.0517,-0.001 z m -0.0884,0.237194 h 0.17621 v 0.05116 0.250631 h -0.17621 v -0.249081 z m 0.35243,0.101286 c 0.004,0.0019 0.008,0.0037 0.0124,0.0057 0.0122,0.0058 0.0243,0.01203 0.0362,0.0186 0.0119,0.0065 0.0236,0.01342 0.0351,0.02067 0.0116,0.0072 0.023,0.0148 0.0341,0.02274 0.011,0.0081 0.0216,0.01655 0.032,0.02532 0.0104,0.0086 0.0206,0.0176 0.0305,0.02687 0.01,0.0093 0.0196,0.01899 0.0289,0.02894 0.009,0.0099 0.0186,0.02004 0.0274,0.03049 0.009,0.01059 0.0169,0.02145 0.0248,0.03256 0.008,0.01096 0.0155,0.02216 0.0227,0.03359 0.007,0.01149 0.0145,0.02321 0.0212,0.03514 0.007,0.01186 0.0128,0.02393 0.0186,0.03617 0.006,0.0124 0.0111,0.02498 0.016,0.03772 0.005,0.0126 0.01,0.02535 0.014,0.03824 0.004,0.01297 0.008,0.02607 0.0114,0.03927 0.003,0.01317 0.006,0.02644 0.009,0.03979 0.002,0.01337 0.005,0.02681 0.006,0.04031 0.002,0.01356 0.003,0.02718 0.004,0.04082 7.8e-4,0.01359 10e-4,0.02721 10e-4,0.04082 -8.1e-4,0.01313 -0.002,0.02622 -0.004,0.03928 h 0.003 l -0.0362,0.591695 -0.36794,0.289904 0.03,-0.334863 0.0238,-0.268717 0.1788,-0.134876 0.0258,-0.143143 0.0114,-0.06408 -0.23254,0.06408 -0.16691,0.04599 -0.0186,0.334346 -0.0966,0.06046 -0.0966,-0.06046 -0.0186,-0.334346 -0.16692,-0.04599 -0.23202,-0.06408 0.0114,0.06408 0.0258,0.143143 0.17829,0.134876 0.0243,0.268717 0.03,0.334347 -0.36794,-0.289388 -0.0362,-0.591695 h 0.003 c -0.002,-0.01305 -0.003,-0.02615 -0.004,-0.03928 -3e-5,-0.03794 0.003,-0.07581 0.01,-0.113171 0.007,-0.03713 0.0165,-0.07362 0.0295,-0.109037 0.013,-0.03561 0.0291,-0.07003 0.0481,-0.102836 0.0188,-0.03283 0.0404,-0.06395 0.0646,-0.09302 0.0243,-0.02898 0.0511,-0.05578 0.0801,-0.0801 0.0291,-0.0242 0.0602,-0.04581 0.093,-0.0646 0.0193,-0.0103 0.0392,-0.01961 0.0594,-0.0279 v 0.197404 c 1.8e-4,0.01863 0.003,0.03712 0.009,0.05478 0.006,0.01759 0.0144,0.03416 0.0253,0.04909 0.011,0.0149 0.0242,0.02798 0.0393,0.03876 0.0151,0.01083 0.0319,0.0192 0.0496,0.0248 0.0176,0.0056 0.0359,0.0084 0.0543,0.0083 h 0.17622 c 0.0184,-7.6e-5 0.0367,-0.003 0.0543,-0.0088 0.0174,-0.0057 0.0338,-0.01407 0.0486,-0.02481 0.0149,-0.01082 0.0279,-0.0239 0.0387,-0.03876 0.011,-0.01493 0.0195,-0.0315 0.0253,-0.04909 0.006,-0.01752 0.009,-0.03583 0.009,-0.05426 z"
       style="fill:#cccccc;stroke-width:0.352778"
       id="path735" /><path
       id="path736"
       style="fill:#faf6e8;stroke-width:0.176389;stroke-linecap:round;stroke-linejoin:round"
       d="m 803.88014,31.458028 v 0.05271 0.249081 h 0.17621 v -0.250631 -0.05116 z m 0.35243,0.101286 v 0.200505 c -7e-5,0.01843 -0.003,0.03674 -0.009,0.05426 -0.006,0.01759 -0.0144,0.03416 -0.0253,0.04909 -0.0108,0.01486 -0.0239,0.02794 -0.0387,0.03876 -0.0148,0.01074 -0.0312,0.0191 -0.0486,0.02481 -0.0175,0.0057 -0.0358,0.0087 -0.0543,0.0088 h -0.17622 c -0.0184,9.1e-5 -0.0367,-0.0027 -0.0543,-0.0083 -0.0177,-0.0056 -0.0345,-0.01397 -0.0496,-0.0248 -0.015,-0.01078 -0.0288,-0.02386 -0.0398,-0.03876 -0.011,-0.01493 -0.019,-0.0315 -0.0248,-0.04909 -0.006,-0.01765 -0.009,-0.03614 -0.009,-0.05478 v -0.197404 c -0.0203,0.0083 -0.0401,0.01761 -0.0594,0.0279 -0.0328,0.01878 -0.0639,0.0404 -0.093,0.0646 -0.029,0.02432 -0.0558,0.05112 -0.0801,0.0801 -0.0242,0.02907 -0.0458,0.06019 -0.0646,0.09302 -0.019,0.03281 -0.0351,0.06722 -0.0481,0.102836 -0.013,0.03542 -0.0228,0.07191 -0.0295,0.109037 -0.007,0.03737 -0.01,0.07523 -0.01,0.113171 8.1e-4,0.01313 0.002,0.02622 0.004,0.03928 h -0.003 l 0.0362,0.591695 0.36794,0.289388 -0.03,-0.334347 -0.0243,-0.268717 -0.17829,-0.134876 -0.0258,-0.143143 -0.0114,-0.06408 0.23202,0.06408 0.16692,0.04599 0.0186,0.334346 0.0966,0.06046 0.0961,-0.06046 0.0186,-0.334346 0.16691,-0.04599 0.23255,-0.06408 -0.0114,0.06408 -0.0258,0.143143 -0.1788,0.134876 -0.0238,0.268717 -0.03,0.334863 0.36793,-0.289904 0.0362,-0.591695 h -0.003 c 0.002,-0.01305 0.003,-0.02614 0.004,-0.03928 8e-5,-0.01362 -2.9e-4,-0.02723 -10e-4,-0.04082 -9.4e-4,-0.01365 -0.002,-0.02726 -0.004,-0.04082 -0.002,-0.0135 -0.004,-0.02694 -0.006,-0.04031 -0.003,-0.01335 -0.005,-0.02662 -0.009,-0.03979 -0.003,-0.01321 -0.007,-0.02631 -0.0114,-0.03927 -0.004,-0.01289 -0.009,-0.02564 -0.0145,-0.03824 -0.005,-0.01274 -0.01,-0.02532 -0.0155,-0.03772 -0.006,-0.01225 -0.012,-0.02431 -0.0186,-0.03617 -0.007,-0.01193 -0.0143,-0.02365 -0.0217,-0.03514 -0.007,-0.01143 -0.0143,-0.02263 -0.0222,-0.03359 -0.008,-0.01111 -0.0162,-0.02197 -0.0248,-0.03256 -0.009,-0.01045 -0.0179,-0.02062 -0.0274,-0.03049 -0.009,-0.0099 -0.019,-0.0196 -0.0289,-0.02894 -0.01,-0.0093 -0.02,-0.01823 -0.0305,-0.02687 -0.0104,-0.0088 -0.0211,-0.01722 -0.032,-0.02532 -0.0111,-0.0079 -0.0225,-0.01552 -0.0341,-0.02274 -0.0115,-0.0073 -0.0232,-0.01415 -0.0351,-0.02067 -0.0119,-0.0066 -0.0239,-0.01278 -0.0362,-0.0186 -0.004,-0.0019 -0.008,-0.0038 -0.0124,-0.0057 z" /></g></svg>
