<?xml version="1.0" encoding="UTF-8" standalone="no"?>
<!-- Created with Inkscape (http://www.inkscape.org/) -->

<svg
   width="6.9990234pt"
   height="6.0014648pt"
   viewBox="0 0 2.4691 2.1171834"
   version="1.1"
   id="svg1"
   xml:space="preserve"
   xmlns="http://www.w3.org/2000/svg"
   xmlns:svg="http://www.w3.org/2000/svg"><defs
     id="defs1" /><g
     id="layer1"
     transform="translate(-737.36121,-26.349814)"><g
       id="circle517"><path
         id="path142"
         style="color:#000000;fill:#4c72b0;-inkscape-stroke:none"
         d="m 738.3322,26.349813 c -0.53475,0 -0.971,0.435737 -0.971,0.970483 0,0.525618 0.42141,0.955431 0.94361,0.969967 0.15779,0.111175 0.34957,0.176733 0.55656,0.176733 0.53475,0 0.96893,-0.436252 0.96893,-0.971 0,-0.524825 -0.41843,-0.952218 -0.93948,-0.967899 -0.15794,-0.112163 -0.35053,-0.178284 -0.55862,-0.178284 z m 0,0.177767 c 0.43942,0 0.79272,0.353297 0.79272,0.792716 0,0.439421 -0.3533,0.793234 -0.79272,0.793234 -0.43942,0 -0.7953,-0.353813 -0.7953,-0.793234 0,-0.439419 0.35588,-0.792716 0.7953,-0.792716 z m 0.0196,0.19637 c -0.08,0 -0.15109,0.01579 -0.21343,0.04754 -0.0612,0.03057 -0.10942,0.07177 -0.14469,0.123506 -0.0341,0.05057 -0.0512,0.107549 -0.0512,0.171049 0,0.05644 0.0104,0.105085 0.0315,0.146245 0.0223,0.03998 0.051,0.0741 0.0863,0.102319 0.0365,0.02705 0.0744,0.04954 0.11317,0.06718 l 0.14986,0.06201 c 0.0341,0.01411 0.0637,0.027 0.0884,0.03876 0.0247,0.01176 0.0434,0.02502 0.0563,0.04031 0.0141,0.01411 0.0212,0.0337 0.0212,0.05839 0,0.0341 -0.0138,0.06114 -0.0408,0.08113 -0.0259,0.01999 -0.0658,0.02997 -0.11989,0.02997 -0.0505,0 -0.10209,-0.01 -0.15503,-0.02997 -0.0518,-0.01999 -0.0984,-0.04792 -0.13952,-0.0832 l -0.13746,0.169499 c 0.0588,0.05645 0.12487,0.0989 0.19895,0.127124 0.0741,0.02705 0.14939,0.04031 0.22583,0.04031 h 5.1e-4 c 0.0917,0 0.16995,-0.01617 0.23462,-0.04909 0.0646,-0.03292 0.11366,-0.07665 0.14779,-0.130741 0.0341,-0.05409 0.0512,-0.112717 0.0512,-0.176217 0,-0.05409 -0.009,-0.10072 -0.0279,-0.139526 -0.0188,-0.03998 -0.0454,-0.0741 -0.0796,-0.10232 -0.0329,-0.02822 -0.0728,-0.05147 -0.11989,-0.07028 l -0.14831,-0.05994 c -0.0317,-0.01411 -0.0608,-0.02662 -0.0879,-0.03721 -0.0271,-0.01176 -0.0483,-0.02554 -0.0636,-0.04083 -0.0153,-0.01647 -0.0233,-0.03554 -0.0233,-0.05788 0,-0.03293 0.0134,-0.05832 0.0393,-0.07597 0.0271,-0.01881 0.0628,-0.02842 0.10749,-0.02842 0.0388,0 0.0775,0.008 0.11627,0.02325 0.0399,0.01529 0.0786,0.03689 0.11627,0.06511 l 0.13798,-0.167432 c -0.0482,-0.04704 -0.10484,-0.08279 -0.1695,-0.107487 -0.0647,-0.02469 -0.13164,-0.03721 -0.20102,-0.03721 z m 0.75861,0.0186 c 0.31651,0.103935 0.54363,0.401176 0.54363,0.753442 0,0.43942 -0.35329,0.794784 -0.79271,0.794784 -0.0879,0 -0.17214,-0.0145 -0.25115,-0.04083 0.39925,-0.120139 0.6904,-0.491625 0.6904,-0.929659 0,-0.21606 -0.0704,-0.416177 -0.19017,-0.577742 z" /></g></g></svg>
