<?xml version="1.0" encoding="UTF-8" standalone="no"?>
<!-- Created with Inkscape (http://www.inkscape.org/) -->

<svg
   width="6.0000005pt"
   height="6.0000005pt"
   viewBox="0 0 2.1166669 2.1166668"
   version="1.1"
   id="svg1"
   xml:space="preserve"
   inkscape:version="1.3 (0e150ed6c4, 2023-07-21)"
   sodipodi:docname="custom.svg.2025_08_24_12_52_29.0.svg"
   xmlns:inkscape="http://www.inkscape.org/namespaces/inkscape"
   xmlns:sodipodi="http://sodipodi.sourceforge.net/DTD/sodipodi-0.dtd"
   xmlns="http://www.w3.org/2000/svg"
   xmlns:svg="http://www.w3.org/2000/svg"><sodipodi:namedview
     id="namedview1"
     pagecolor="#f9e3e4"
     bordercolor="#eeeeee"
     borderopacity="1"
     inkscape:showpageshadow="0"
     inkscape:pageopacity="0"
     inkscape:pagecheckerboard="0"
     inkscape:deskcolor="#d1d1d1"
     inkscape:document-units="pt"
     inkscape:zoom="11.313709"
     inkscape:cx="3012.4959"
     inkscape:cy="121.3572"
     inkscape:window-width="2400"
     inkscape:window-height="1511"
     inkscape:window-x="-9"
     inkscape:window-y="-9"
     inkscape:window-maximized="1"
     inkscape:current-layer="layer1"
     showgrid="true"
     showguides="false"
     inkscape:lockguides="true"><inkscape:grid
       id="grid1"
       units="in"
       originx="-3034.6211"
       originy="-80.666011"
       spacingx="1"
       spacingy="1"
       empcolor="#0099e5"
       empopacity="0.30196078"
       color="#0099e5"
       opacity="0.14901961"
       empspacing="5"
       dotted="true"
       gridanglex="30"
       gridanglez="30"
       visible="true"
       enabled="false" /><sodipodi:guide
       position="73.5,84.977927"
       orientation="1,0"
       id="guide23"
       inkscape:locked="true" /><sodipodi:guide
       position="81.167449,88.900003"
       orientation="0,-1"
       id="guide24"
       inkscape:locked="true" /><sodipodi:guide
       position="76.5,85.900003"
       orientation="0,1"
       id="guide25"
       inkscape:locked="true"
       inkscape:label=""
       inkscape:color="rgb(0,134,229)" /><sodipodi:guide
       position="137,88.900003"
       orientation="336,0"
       id="guide26"
       inkscape:locked="true" /><sodipodi:guide
       position="137,3.0000021"
       orientation="0,1"
       id="guide27"
       inkscape:locked="true"
       inkscape:label=""
       inkscape:color="rgb(0,134,229)" /><sodipodi:guide
       position="76.5,2.0000001e-06"
       orientation="-1,0"
       id="guide28"
       inkscape:locked="true"
       inkscape:label=""
       inkscape:color="rgb(0,134,229)" /><sodipodi:guide
       position="137,2.0426322e-06"
       orientation="0,1"
       id="guide29"
       inkscape:label=""
       inkscape:locked="true"
       inkscape:color="rgb(0,134,229)" /><sodipodi:guide
       position="134,88.900003"
       orientation="-1,0"
       id="guide30"
       inkscape:label=""
       inkscape:locked="true"
       inkscape:color="rgb(0,134,229)" /><sodipodi:guide
       position="69.5,78.900003"
       orientation="0,1"
       id="guide35"
       inkscape:label=""
       inkscape:locked="true"
       inkscape:color="rgb(0,134,229)" /><inkscape:grid
       id="grid143"
       units="pt"
       originx="-3034.4453"
       originy="-80.489622"
       spacingx="0.35277778"
       spacingy="0.35277778"
       empcolor="#0099e5"
       empopacity="0.30196078"
       color="#0099e5"
       opacity="0.14901961"
       empspacing="5"
       dotted="true"
       gridanglex="30"
       gridanglez="30"
       visible="true"
       enabled="false" /><inkscape:page
       x="-7.2492121e-06"
       y="1.1998361e-06"
       width="2.1166668"
       height="2.1166668"
       id="page4"
       margin="0"
       bleed="0" /></sodipodi:namedview><defs
     id="defs1" /><g
     inkscape:label="Layer 1"
     inkscape:groupmode="layer"
     id="layer1"
     transform="translate(-802.91013,-21.342882)"><path
       id="path720"
       style="fill:#c44e52;stroke-width:0.352778"
       d="m 803.96695,21.342883 a 1.0583333,1.0583333 0 0 0 -0.14934,0.01085 1.0583333,1.0583333 0 0 0 -0.14728,0.03204 1.0583333,1.0583333 0 0 0 -0.14159,0.05271 1.0583333,1.0583333 0 0 0 -0.13281,0.07235 1.0583333,1.0583333 0 0 0 -0.12092,0.09095 1.0583333,1.0583333 0 0 0 -0.10646,0.106454 1.0583333,1.0583333 0 0 0 -0.0904,0.120923 1.0583333,1.0583333 0 0 0 -0.0724,0.132808 1.0583333,1.0583333 0 0 0 -0.0532,0.141077 1.0583333,1.0583333 0 0 0 -0.032,0.147794 1.0583333,1.0583333 0 0 0 -0.0103,0.150379 1.0583333,1.0583333 0 0 0 0.0103,0.150895 1.0583333,1.0583333 0 0 0 0.032,0.147278 1.0583333,1.0583333 0 0 0 0.0532,0.141593 1.0583333,1.0583333 0 0 0 0.0724,0.132809 1.0583333,1.0583333 0 0 0 0.0904,0.120406 1.0583333,1.0583333 0 0 0 0.10646,0.10697 1.0583333,1.0583333 0 0 0 0.12092,0.09043 1.0583333,1.0583333 0 0 0 0.13281,0.07235 1.0583333,1.0583333 0 0 0 0.14159,0.05271 1.0583333,1.0583333 0 0 0 0.14728,0.03204 1.0583333,1.0583333 0 0 0 0.15089,0.01085 1.0583333,1.0583333 0 0 0 0.15038,-0.01085 1.0583333,1.0583333 0 0 0 0.1478,-0.03204 1.0583333,1.0583333 0 0 0 0.14107,-0.05271 1.0583333,1.0583333 0 0 0 0.13281,-0.07235 1.0583333,1.0583333 0 0 0 0.12093,-0.09043 1.0583333,1.0583333 0 0 0 0.10645,-0.10697 1.0583333,1.0583333 0 0 0 0.0904,-0.120406 1.0583333,1.0583333 0 0 0 0.0723,-0.132809 1.0583333,1.0583333 0 0 0 0.0532,-0.141593 1.0583333,1.0583333 0 0 0 0.032,-0.147278 1.0583333,1.0583333 0 0 0 0.0109,-0.150895 1.0583333,1.0583333 0 0 0 -0.002,-0.05168 1.0583333,1.0583333 0 0 0 -0.004,-0.05168 1.0583333,1.0583333 0 0 0 -0.007,-0.05168 1.0583333,1.0583333 0 0 0 -0.009,-0.05116 1.0583333,1.0583333 0 0 0 -0.0114,-0.05064 1.0583333,1.0583333 0 0 0 -0.014,-0.05013 1.0583333,1.0583333 0 0 0 -0.016,-0.04961 1.0583333,1.0583333 0 0 0 -0.0186,-0.04806 1.0583333,1.0583333 0 0 0 -0.0212,-0.04754 1.0583333,1.0583333 0 0 0 -0.0233,-0.04651 1.0583333,1.0583333 0 0 0 -0.0258,-0.04547 1.0583333,1.0583333 0 0 0 -0.0279,-0.04341 1.0583333,1.0583333 0 0 0 -0.03,-0.04289 1.0583333,1.0583333 0 0 0 -0.0315,-0.04082 1.0583333,1.0583333 0 0 0 -0.0341,-0.03927 1.0583333,1.0583333 0 0 0 -0.0357,-0.03772 1.0583333,1.0583333 0 0 0 -0.0377,-0.03566 1.0583333,1.0583333 0 0 0 -0.0393,-0.03411 1.0583333,1.0583333 0 0 0 -0.0408,-0.03204 1.0583333,1.0583333 0 0 0 -0.0429,-0.02997 1.0583333,1.0583333 0 0 0 -0.0439,-0.02739 1.0583333,1.0583333 0 0 0 -0.045,-0.02584 1.0583333,1.0583333 0 0 0 -0.0465,-0.02325 1.0583333,1.0583333 0 0 0 -0.0475,-0.02119 1.0583333,1.0583333 0 0 0 -0.0486,-0.0186 1.0583333,1.0583333 0 0 0 -0.0491,-0.01602 1.0583333,1.0583333 0 0 0 -0.0501,-0.01395 1.0583333,1.0583333 0 0 0 -0.0507,-0.01137 1.0583333,1.0583333 0 0 0 -0.0512,-0.0088 1.0583333,1.0583333 0 0 0 -0.0517,-0.0067 1.0583333,1.0583333 0 0 0 -0.0517,-0.0036 1.0583333,1.0583333 0 0 0 -0.0501,-0.0016 h -5.1e-4 z m -0.1111,0.264584 h 0.22428 l 0.0393,0.195337 a 0.61736113,0.61736113 0 0 1 0.009,0.0021 0.61736113,0.61736113 0 0 1 0.0393,0.01189 0.61736113,0.61736113 0 0 1 0.0377,0.01447 0.61736113,0.61736113 0 0 1 0.0367,0.01654 0.61736113,0.61736113 0 0 1 0.0357,0.01912 0.61736113,0.61736113 0 0 1 0.007,0.0047 l 0.16588,-0.110587 0.15865,0.158646 -0.11059,0.165882 a 0.61736113,0.61736113 0 0 1 0.005,0.0072 0.61736113,0.61736113 0 0 1 0.0191,0.03566 0.61736113,0.61736113 0 0 1 0.0165,0.03669 0.61736113,0.61736113 0 0 1 0.0145,0.03772 0.61736113,0.61736113 0 0 1 0.0114,0.03876 0.61736113,0.61736113 0 0 1 0.002,0.0088 l 0.19533,0.03876 v 0.224276 l -0.1974,0.03979 a 0.61736113,0.61736113 0 0 1 -0.0258,0.08475 0.61736113,0.61736113 0 0 1 -0.0413,0.07751 l 0.11162,0.167948 -0.15864,0.158647 -0.16795,-0.111622 a 0.61736113,0.61736113 0 0 1 -0.0775,0.04134 0.61736113,0.61736113 0 0 1 -0.0847,0.02584 l -0.0398,0.197404 h -0.22427 l -0.0393,-0.197404 a 0.61736113,0.61736113 0 0 1 -0.0847,-0.02584 0.61736113,0.61736113 0 0 1 -0.0775,-0.04134 l -0.16795,0.111622 -0.15865,-0.158647 0.11162,-0.167948 a 0.61736113,0.61736113 0 0 1 -0.0413,-0.07751 0.61736113,0.61736113 0 0 1 -0.0258,-0.08475 l -0.19792,-0.03979 v -0.224276 l 0.19792,-0.03927 a 0.61736113,0.61736113 0 0 1 0.0258,-0.08475 0.61736113,0.61736113 0 0 1 0.0413,-0.07751 l -0.11162,-0.167949 0.15865,-0.158646 0.16795,0.111621 a 0.61736113,0.61736113 0 0 1 0.0775,-0.04134 0.61736113,0.61736113 0 0 1 0.0847,-0.02584 z m -0.0641,0.488342 -0.17622,0.305408 0.17622,0.305924 h 0.35295 l 0.17622,-0.305924 -0.17622,-0.305408 z" /><path
       d="m 803.85585,21.607467 -0.0393,0.197921 c -0.0288,0.0066 -0.0572,0.01521 -0.0848,0.02584 -0.0268,0.01192 -0.0527,0.02574 -0.0775,0.04134 l -0.16795,-0.111621 -0.15864,0.158646 0.11162,0.167949 c -0.0156,0.02482 -0.0294,0.05073 -0.0413,0.07751 -0.0106,0.02759 -0.0193,0.05592 -0.0258,0.08475 l -0.19792,0.03927 v 0.224276 l 0.19792,0.03979 c 0.007,0.02883 0.0152,0.05715 0.0258,0.08475 0.0119,0.02679 0.0257,0.05269 0.0413,0.07751 l -0.11162,0.167948 0.15864,0.158647 0.16795,-0.111622 c 0.0248,0.0156 0.0507,0.02942 0.0775,0.04134 0.0276,0.01063 0.0559,0.01927 0.0848,0.02584 l 0.0393,0.197404 h 0.22428 l 0.0398,-0.197404 c 0.0288,-0.0066 0.0571,-0.01521 0.0847,-0.02584 0.0268,-0.01192 0.0527,-0.02574 0.0775,-0.04134 l 0.16795,0.111622 0.15865,-0.158647 -0.11163,-0.167948 c 0.0156,-0.02482 0.0294,-0.05073 0.0413,-0.07751 0.0106,-0.02759 0.0193,-0.05592 0.0258,-0.08475 l 0.19741,-0.03979 v -0.224276 l -0.19534,-0.03876 c -6.7e-4,-0.0029 -10e-4,-0.0059 -0.002,-0.0088 -0.003,-0.01304 -0.007,-0.02597 -0.0114,-0.03876 -0.004,-0.01273 -0.009,-0.02531 -0.0145,-0.03772 -0.005,-0.01241 -0.0106,-0.02464 -0.0165,-0.03669 -0.006,-0.01209 -0.0124,-0.02398 -0.0191,-0.03566 -0.002,-0.0024 -0.003,-0.0048 -0.005,-0.0072 l 0.11059,-0.165882 -0.15865,-0.158646 -0.16588,0.110587 c -0.002,-0.0016 -0.005,-0.0031 -0.007,-0.0047 -0.0117,-0.0068 -0.0236,-0.01314 -0.0357,-0.01912 -0.012,-0.0059 -0.0243,-0.01142 -0.0367,-0.01654 -0.0124,-0.0052 -0.025,-0.01006 -0.0377,-0.01447 -0.0128,-0.0044 -0.0257,-0.0083 -0.0388,-0.01189 -0.003,-7.11e-4 -0.006,-0.0014 -0.009,-0.0021 l -0.0393,-0.195337 z m -0.0641,0.488342 h 0.35295 l 0.17622,0.305408 -0.17622,0.305924 h -0.35295 l -0.17622,-0.305924 z"
       style="fill:#f9e3e4;stroke-linecap:round;stroke-linejoin:round"
       id="path718" /></g></svg>
