<?xml version="1.0" encoding="UTF-8" standalone="no"?>
<!-- Created with Inkscape (http://www.inkscape.org/) -->

<svg
   width="6.9990234pt"
   height="5.9956055pt"
   viewBox="0 0 2.4691 2.1151164"
   version="1.1"
   id="svg1"
   xml:space="preserve"
   xmlns="http://www.w3.org/2000/svg"
   xmlns:svg="http://www.w3.org/2000/svg"><defs
     id="defs1" /><g
     id="layer1"
     transform="translate(-737.36121,-28.820464)"><g
       id="circle519"><path
         id="path149"
         style="color:#000000;fill:#c44e52;-inkscape-stroke:none"
         d="m 738.3322,28.820463 c -0.53475,0 -0.971,0.43367 -0.971,0.968417 0,0.52527 0.42085,0.954892 0.94258,0.969966 0.15799,0.111109 0.35016,0.176734 0.55759,0.176734 0.53475,0 0.96893,-0.434187 0.96893,-0.968933 0,-0.525349 -0.41925,-0.95502 -0.94103,-0.969967 -0.15763,-0.111086 -0.34971,-0.176216 -0.55707,-0.176217 z m 0,0.1757 c 0.43942,0 0.79272,0.353297 0.79272,0.792717 0,0.43942 -0.3533,0.7953 -0.79272,0.7953 -0.43942,0 -0.7953,-0.35588 -0.7953,-0.7953 0,-0.43942 0.35588,-0.792717 0.7953,-0.792717 z m 0.006,0.197404 c -0.0729,0 -0.14239,0.01326 -0.20826,0.04031 -0.0647,0.02705 -0.12258,0.0666 -0.17311,0.118339 -0.0506,0.05174 -0.0905,0.11491 -0.11989,0.190169 -0.0282,0.07408 -0.0424,0.158998 -0.0424,0.254248 0,0.128176 0.025,0.236334 0.0744,0.324528 0.0494,0.08819 0.11472,0.154784 0.19585,0.199471 0.0823,0.04351 0.17253,0.06511 0.2713,0.06511 0.0717,0 0.13792,-0.01326 0.19792,-0.04031 0.06,-0.02822 0.11442,-0.07031 0.16382,-0.125574 l -0.13074,-0.153479 c -0.0271,0.02587 -0.0577,0.04837 -0.093,0.06718 -0.0353,0.01881 -0.0757,0.02842 -0.12041,0.02842 -0.0576,0 -0.10881,-0.01504 -0.15348,-0.04444 -0.0435,-0.0294 -0.0777,-0.07186 -0.10231,-0.127124 -0.0247,-0.05644 -0.0367,-0.123785 -0.0367,-0.202572 0,-0.07526 0.0129,-0.140587 0.0388,-0.195854 0.0259,-0.05527 0.06,-0.09772 0.10232,-0.127124 0.0435,-0.03057 0.0906,-0.04547 0.14108,-0.04547 0.0412,0 0.0782,0.0071 0.1111,0.02119 0.0329,0.01293 0.0633,0.0329 0.0915,0.05994 l 0.13798,-0.157096 c -0.0388,-0.04116 -0.088,-0.07654 -0.14676,-0.105937 -0.0588,-0.0294 -0.12488,-0.04392 -0.19896,-0.04392 z m 0.77205,0.01912 c 0.31639,0.104426 0.54363,0.401789 0.54363,0.75396 0,0.439418 -0.35329,0.793233 -0.79271,0.793233 -0.088,0 -0.17256,-0.01446 -0.25167,-0.04082 0.39957,-0.119943 0.69092,-0.491919 0.69092,-0.930175 0,-0.215897 -0.0706,-0.415071 -0.19017,-0.576193 z" /></g></g></svg>
