<?xml version="1.0" encoding="UTF-8" standalone="no"?>
<!-- Created with Inkscape (http://www.inkscape.org/) -->

<svg
   width="5.1610107pt"
   height="6.0001378pt"
   viewBox="0 0 1.8206899 2.1167153"
   version="1.1"
   id="svg1"
   xml:space="preserve"
   xmlns="http://www.w3.org/2000/svg"
   xmlns:svg="http://www.w3.org/2000/svg"><defs
     id="defs1" /><g
     id="layer1"
     transform="translate(-767.81348,-60.854295)"><path
       id="path271"
       style="fill:#64b5cd;stroke-width:0.999996"
       d="m 768.69347,60.854987 c -0.0213,7.11e-4 -0.0425,0.0025 -0.0636,0.0047 -0.0211,0.0022 -0.0417,0.0051 -0.0625,0.0088 -0.0208,0.0037 -0.0416,0.0078 -0.062,0.01292 -0.0204,0.0051 -0.0404,0.01103 -0.0605,0.01756 -0.02,0.0065 -0.0399,0.01376 -0.0594,0.0217 -0.0195,0.0079 -0.0389,0.01651 -0.0579,0.02583 -0.019,0.0093 -0.0379,0.01927 -0.0563,0.02997 -0.0184,0.01069 -0.036,0.02207 -0.0537,0.03411 -0.0177,0.01204 -0.0352,0.02488 -0.0522,0.03824 -0.017,0.01336 -0.0339,0.0277 -0.0501,0.04237 -0.0162,0.01465 -0.0317,0.02953 -0.047,0.04547 -0.0153,0.01594 -0.0305,0.03293 -0.045,0.05012 -0.0141,0.0168 -0.0271,0.0336 -0.0398,0.05115 -0.0127,0.01755 -0.0249,0.03549 -0.0362,0.05374 -0.0113,0.01824 -0.0217,0.03693 -0.0315,0.05581 -0.01,0.01887 -0.019,0.03794 -0.0274,0.05736 -0.008,0.01941 -0.0163,0.03953 -0.0233,0.05943 -0.007,0.01989 -0.0137,0.03965 -0.0191,0.05993 -0.006,0.02029 -0.0104,0.04086 -0.0145,0.06149 -0.004,0.02063 -0.007,0.04164 -0.01,0.06252 -0.003,0.02089 -0.005,0.04146 -0.006,0.06252 -9.5e-4,0.02107 -0.002,0.04238 -0.002,0.06355 3.2e-4,0.02117 0.002,0.04235 0.004,0.06355 0.002,0.0212 0.004,0.04239 0.007,0.06355 0.003,0.02117 0.008,0.0425 0.0124,0.06355 0.005,0.02107 0.0102,0.04216 0.0165,0.06304 0.006,0.02087 0.0133,0.04139 0.0212,0.06201 0.008,0.02063 0.0171,0.0412 0.0264,0.06149 0.005,0.01064 0.009,0.02057 0.0129,0.02997 0.004,0.0094 0.007,0.01839 0.009,0.02686 0.003,0.0085 0.005,0.01642 0.006,0.02429 0.002,0.0079 0.003,0.01564 0.003,0.02324 4e-4,0.0076 1.9e-4,0.01508 -5e-4,0.02274 -6.9e-4,0.0077 -0.002,0.01521 -0.004,0.02324 -0.002,0.008 -0.004,0.01656 -0.007,0.02532 -0.003,0.0088 -0.006,0.01812 -0.0103,0.02791 -0.003,0.008 -0.006,0.01606 -0.008,0.02428 -0.002,0.0082 -0.004,0.01645 -0.005,0.02479 -9.5e-4,0.0084 -0.002,0.0169 -0.003,0.02532 -4.9e-4,0.0084 -9e-4,0.01691 -5.2e-4,0.02532 3.8e-4,0.0084 9.6e-4,0.01648 0.003,0.0248 9.5e-4,0.0083 0.003,0.01664 0.005,0.02481 0.002,0.0082 0.005,0.01637 0.008,0.02429 0.003,0.0079 0.006,0.01564 0.0103,0.02324 0.005,0.0103 0.0112,0.02021 0.0176,0.02946 0.006,0.0092 0.0133,0.01771 0.0207,0.02583 0.007,0.0081 0.0149,0.0158 0.0232,0.02274 0.008,0.0069 0.0172,0.01291 0.0264,0.01859 0.009,0.0057 0.0186,0.01113 0.0284,0.0155 0.01,0.0044 0.0201,0.0078 0.0305,0.01085 0.0104,0.003 0.0211,0.0057 0.032,0.0072 0.0109,0.0016 0.0217,0.002 0.0331,0.0021 0.011,6.7e-5 0.0208,1.63e-4 0.0295,-5.18e-4 0.009,-6.81e-4 0.0167,-0.0019 0.0248,-0.0036 0.008,-0.0017 0.0165,-0.0041 0.0253,-0.0072 0.009,-0.0031 0.0179,-0.0071 0.0289,-0.01189 0.0118,-0.0051 0.0204,-0.0081 0.0279,-0.0098 0.004,-8.39e-4 0.007,-0.0014 0.0109,-0.0016 0.003,-1.49e-4 0.007,9.1e-5 0.0109,5.17e-4 0.005,5.72e-4 0.01,0.0018 0.0145,0.0036 0.005,0.0018 0.009,0.0039 0.0134,0.0067 0.004,0.0028 0.007,0.0062 0.0103,0.0098 0.003,0.0037 0.005,0.0081 0.007,0.01241 9.6e-4,0.0026 0.003,0.01667 0.005,0.03721 0.002,0.02052 0.004,0.04747 0.006,0.07596 0.002,0.03272 0.005,0.05985 0.007,0.08061 9.6e-4,0.01038 0.002,0.01957 0.003,0.02635 9.5e-4,0.0068 0.002,0.01166 0.004,0.01448 0.002,0.0048 0.004,0.009 0.007,0.01345 0.003,0.0044 0.006,0.0089 0.0103,0.01292 0.004,0.004 0.008,0.0074 0.0124,0.01085 0.005,0.0034 0.009,0.0066 0.0145,0.0093 h 5e-4 c 0.004,0.0022 0.01,0.004 0.0176,0.0052 0.008,0.0012 0.0169,0.002 0.0269,0.0021 h 0.0817 v -0.179992 a 0.05291181,0.05291181 0 0 1 0.007,-0.02635 0.05291181,0.05291181 0 0 1 0.0196,-0.01912 0.05291181,0.05291181 0 0 1 0.0264,-0.0072 0.05291181,0.05291181 0 0 1 0.0258,0.0072 0.05291181,0.05291181 0 0 1 0.0196,0.01912 0.05291181,0.05291181 0 0 1 0.007,0.02635 v 0.179818 h 0.17621 v -0.179818 a 0.05291181,0.05291181 0 0 1 0.007,-0.02635 0.05291181,0.05291181 0 0 1 0.0191,-0.01912 0.05291181,0.05291181 0 0 1 0.0263,-0.0072 0.05291181,0.05291181 0 0 1 0.0265,0.0072 0.05291181,0.05291181 0 0 1 0.0191,0.01912 0.05291181,0.05291181 0 0 1 0.007,0.02635 v 0.179818 h 0.0811 c 0.009,0 0.0165,-4.29e-4 0.0238,-0.0015 0.007,-0.0012 0.014,-0.0032 0.0201,-0.0057 0.006,-0.0024 0.0114,-0.0055 0.0165,-0.0093 0.005,-0.0038 0.01,-0.0081 0.0145,-0.01345 0.004,-0.0051 0.008,-0.0096 0.0103,-0.0155 9.5e-4,-0.0029 0.002,-0.0066 0.004,-0.01034 9.5e-4,-0.0037 0.002,-0.008 0.003,-0.01292 0.002,-0.0099 0.004,-0.02257 0.005,-0.03979 0.002,-0.0172 0.003,-0.03891 0.005,-0.06666 0.002,-0.02841 0.004,-0.05541 0.006,-0.07597 0.002,-0.02052 0.004,-0.0345 0.005,-0.03721 9.5e-4,-0.0037 0.003,-0.0072 0.005,-0.01034 0.002,-0.0031 0.005,-0.0057 0.008,-0.0083 0.003,-0.0025 0.006,-0.0048 0.009,-0.0067 0.003,-0.0019 0.007,-0.0034 0.0114,-0.0047 0.004,-0.0012 0.008,-0.0021 0.0119,-0.0026 0.004,-4.79e-4 0.008,-8.1e-4 0.0119,-5.17e-4 0.004,2.93e-4 0.008,9.27e-4 0.0124,0.0021 0.004,0.0011 0.008,0.0027 0.0119,0.0047 0.008,0.004 0.016,0.0077 0.0243,0.01085 0.008,0.0031 0.0172,0.006 0.0258,0.0083 0.009,0.0023 0.017,0.0042 0.0258,0.0057 0.009,0.0015 0.0175,0.0025 0.0265,0.0031 0.009,6e-4 0.0181,7.77e-4 0.0269,5.15e-4 0.009,-2.61e-4 0.0173,-9e-4 0.0258,-0.0021 0.009,-0.0011 0.0171,-0.0032 0.0253,-0.0052 0.008,-0.002 0.0161,-0.0043 0.0238,-0.0072 0.009,-0.0033 0.0175,-0.0069 0.0258,-0.01137 0.008,-0.0045 0.0165,-0.01 0.0243,-0.01549 0.008,-0.0056 0.0145,-0.01158 0.0217,-0.01809 0.007,-0.0065 0.0147,-0.01333 0.0212,-0.02067 0.006,-0.0073 0.0125,-0.01519 0.0181,-0.02324 0.006,-0.0081 0.0108,-0.01615 0.0155,-0.0248 0.005,-0.0086 0.009,-0.01775 0.0124,-0.02686 0.004,-0.0091 0.007,-0.01844 0.009,-0.02789 0.002,-0.0064 0.003,-0.01274 0.004,-0.01912 9.5e-4,-0.0064 0.002,-0.01266 0.002,-0.01912 4.7e-4,-0.0065 6.9e-4,-0.01296 5.1e-4,-0.01964 -1.8e-4,-0.0067 -7.8e-4,-0.01364 -0.002,-0.02066 -8.3e-4,-0.007 -0.002,-0.01416 -0.004,-0.0217 -9.5e-4,-0.0075 -0.003,-0.0151 -0.005,-0.02324 -0.004,-0.01631 -0.0104,-0.03408 -0.0176,-0.05374 -0.003,-0.0082 -0.005,-0.01684 -0.007,-0.02532 -0.002,-0.0085 -0.003,-0.01725 -0.003,-0.02583 -5.8e-4,-0.0086 -6.1e-4,-0.01683 0,-0.02532 6.1e-4,-0.0085 0.002,-0.01707 0.004,-0.02532 9.5e-4,-0.0052 0.005,-0.0159 0.01,-0.02894 0.005,-0.01304 0.0119,-0.02832 0.0186,-0.04289 0.006,-0.01358 0.012,-0.02711 0.0176,-0.04081 0.006,-0.0137 0.0111,-0.02751 0.016,-0.04134 0.005,-0.01382 0.009,-0.02793 0.0134,-0.04186 0.004,-0.0139 0.008,-0.02786 0.0119,-0.04186 0.004,-0.014 0.007,-0.02779 0.01,-0.04186 0.003,-0.01407 0.005,-0.02826 0.007,-0.04237 0.002,-0.01411 0.004,-0.02822 0.006,-0.04237 0.002,-0.01417 0.003,-0.0287 0.004,-0.04289 8.6e-4,-0.0142 9.6e-4,-0.02817 0.002,-0.04237 1.8e-4,-0.0142 -10e-6,-0.02868 -5.1e-4,-0.04289 -5e-4,-0.01422 -9.6e-4,-0.02818 -0.003,-0.04237 -9.5e-4,-0.0142 -0.003,-0.02871 -0.005,-0.04289 -0.002,-0.01417 -0.004,-0.02823 -0.006,-0.04237 -0.003,-0.01415 -0.006,-0.02828 -0.009,-0.04237 -0.003,-0.0141 -0.007,-0.02782 -0.0109,-0.04186 -0.004,-0.01403 -0.008,-0.02842 -0.0124,-0.04237 -0.006,-0.0181 -0.0126,-0.03562 -0.0196,-0.05322 -0.007,-0.01759 -0.0146,-0.03512 -0.0227,-0.05218 -0.008,-0.01706 -0.0171,-0.03365 -0.0263,-0.05013 -0.009,-0.01646 -0.0192,-0.03274 -0.0294,-0.04857 -0.0102,-0.01584 -0.0209,-0.03134 -0.032,-0.04651 -0.0112,-0.01516 -0.0226,-0.03 -0.0346,-0.04444 -0.0121,-0.01443 -0.0248,-0.02871 -0.0377,-0.04237 -0.0129,-0.01367 -0.0261,-0.02695 -0.0398,-0.03979 -0.0137,-0.01284 -0.0279,-0.02523 -0.0424,-0.03721 -0.0145,-0.01199 -0.0293,-0.02355 -0.0444,-0.03462 -0.0152,-0.01107 -0.0308,-0.0214 -0.0465,-0.03152 -0.0159,-0.01012 -0.0321,-0.01981 -0.0486,-0.02894 -0.0164,-0.0091 -0.0331,-0.01776 -0.0501,-0.02583 -0.017,-0.0081 -0.0342,-0.01576 -0.0517,-0.02274 -0.0175,-0.007 -0.0353,-0.01328 -0.0532,-0.01912 -0.0181,-0.0058 -0.0364,-0.01085 -0.0548,-0.01551 -0.0215,-0.0055 -0.043,-0.01008 -0.0647,-0.01394 -0.0216,-0.0039 -0.0431,-0.007 -0.0647,-0.0093 -0.0215,-0.0023 -0.0431,-0.0044 -0.0647,-0.0052 -0.0214,-7.98e-4 -0.0428,-7.12e-4 -0.0641,0 z m -0.25113,1.058238 c 0.0186,-5e-6 0.0347,2.43e-4 0.0481,5.18e-4 0.0133,2.41e-4 0.024,4.96e-4 0.032,9.55e-4 0.008,6e-4 0.013,0.0013 0.016,0.0021 0.005,0.0014 0.01,0.0031 0.014,0.0052 0.004,0.0022 0.008,0.005 0.0119,0.0078 0.003,0.0028 0.007,0.0059 0.0103,0.0093 0.003,0.0035 0.006,0.0069 0.009,0.01085 0.003,0.004 0.005,0.0084 0.007,0.01292 0.002,0.0044 0.004,0.0091 0.005,0.01395 9.5e-4,0.0049 0.002,0.0102 0.003,0.0155 6.3e-4,0.0053 9.6e-4,0.01084 9.6e-4,0.01653 -9.6e-4,0.0081 -7.2e-4,0.01597 -0.002,0.02377 -9.6e-4,0.0078 -0.002,0.01575 -0.004,0.02324 -9.6e-4,0.0075 -0.004,0.01501 -0.006,0.02221 -0.003,0.0072 -0.005,0.01418 -0.008,0.02118 -0.003,0.007 -0.007,0.01387 -0.0109,0.02067 -0.003,0.0068 -0.007,0.01355 -0.0124,0.02014 -0.005,0.0066 -0.0105,0.01313 -0.0155,0.01963 -0.005,0.0065 -0.0116,0.01283 -0.0176,0.01912 -0.009,0.0089 -0.0174,0.01677 -0.0264,0.02377 -0.009,0.007 -0.0184,0.0132 -0.0274,0.01859 -0.009,0.0054 -0.0187,0.01 -0.0289,0.01395 -0.0103,0.004 -0.021,0.0079 -0.0326,0.01085 -0.005,0.0013 -0.0105,0.0022 -0.0165,0.0031 -0.006,9.55e-4 -0.0126,0.0015 -0.0186,0.0021 -0.0129,0.0012 -0.0267,0.0019 -0.0403,0.0016 -0.0136,-3e-4 -0.027,-0.0014 -0.0393,-0.0031 -0.006,-8.99e-4 -0.0121,-0.0019 -0.0171,-0.0031 -0.005,-0.0012 -0.011,-0.0026 -0.015,-0.0041 -0.008,-0.0029 -0.0168,-0.0064 -0.0248,-0.01033 -0.008,-0.0039 -0.0152,-0.0081 -0.0222,-0.01292 -0.007,-0.0048 -0.0147,-0.0099 -0.0207,-0.0155 -0.006,-0.0056 -0.0117,-0.01169 -0.0176,-0.01809 -0.005,-0.0064 -0.0105,-0.01306 -0.0155,-0.02014 -0.005,-0.0071 -0.009,-0.01494 -0.0129,-0.02274 -0.004,-0.0078 -0.007,-0.01588 -0.0103,-0.02428 -0.003,-0.0084 -0.005,-0.01694 -0.007,-0.02584 -0.002,-0.009 -0.003,-0.01807 -0.003,-0.02686 0,-0.0088 3e-5,-0.01745 9.5e-4,-0.02583 9.6e-4,-0.0084 0.003,-0.01639 0.005,-0.02429 0.003,-0.0079 0.005,-0.01597 0.009,-0.02325 0.003,-0.0073 0.007,-0.01408 0.0124,-0.02067 0.005,-0.0066 0.01,-0.01281 0.016,-0.01859 0.006,-0.0057 0.0126,-0.01122 0.0196,-0.01602 0.007,-0.0048 0.0142,-0.0087 0.0222,-0.01241 0.005,-0.0023 0.008,-0.0044 0.0145,-0.0057 0.006,-0.0013 0.013,-0.0019 0.0238,-0.0026 0.0215,-0.0014 0.0578,-0.0019 0.12609,-0.0026 h 0.002 c 0.0238,-2.5e-4 0.0449,-5.11e-4 0.0636,-5.17e-4 z m 0.53583,0 h 5.3e-4 c 0.0232,-2.22e-4 0.0531,1.68e-4 0.0915,5.18e-4 0.0406,4e-4 0.071,7.32e-4 0.0946,0.0016 0.0118,4.99e-4 0.022,8.19e-4 0.031,0.0016 0.009,7e-4 0.0162,0.0014 0.0222,0.0026 0.006,0.0012 0.0121,0.0029 0.0171,0.0047 0.004,0.0018 0.009,0.0041 0.0134,0.0067 0.004,0.0026 0.008,0.0054 0.0119,0.0088 0.004,0.0035 0.008,0.0074 0.0134,0.01189 0.005,0.0053 0.0105,0.01064 0.0155,0.01653 0.005,0.0059 0.008,0.01221 0.0119,0.01859 0.003,0.0064 0.007,0.01285 0.009,0.01963 0.003,0.0068 0.005,0.01357 0.006,0.02067 9.5e-4,0.007 0.003,0.01452 0.003,0.0217 4.8e-4,0.0072 4.7e-4,0.0144 0,0.0217 -9.5e-4,0.0073 -0.002,0.01492 -0.003,0.02221 -0.002,0.0073 -0.004,0.0145 -0.006,0.0217 -0.002,0.0072 -0.005,0.01418 -0.008,0.02118 -0.003,0.007 -0.007,0.01408 -0.0109,0.02066 -0.004,0.0067 -0.008,0.01292 -0.0129,0.01912 -0.005,0.0062 -0.01,0.0124 -0.0155,0.01809 -0.006,0.0057 -0.0117,0.01093 -0.0176,0.01602 -0.006,0.0051 -0.0126,0.0097 -0.0196,0.01395 -0.007,0.0043 -0.0138,0.0084 -0.0217,0.01188 -0.008,0.0035 -0.0159,0.0067 -0.0238,0.0093 -0.005,0.0015 -0.01,0.0026 -0.015,0.0036 -0.005,0.0011 -0.01,0.002 -0.016,0.0026 -0.0116,0.0013 -0.0249,0.0017 -0.0419,0.0016 -0.0101,-2.9e-5 -0.0199,-3.34e-4 -0.0289,-9.54e-4 -0.009,-7e-4 -0.0189,-0.0017 -0.0269,-0.0031 -0.009,-0.0014 -0.0163,-0.0031 -0.0242,-0.0052 -0.008,-0.0022 -0.0158,-0.0049 -0.0227,-0.0078 -0.007,-0.0029 -0.0142,-0.006 -0.0212,-0.0098 -0.007,-0.0037 -0.0137,-0.0082 -0.0207,-0.01292 -0.007,-0.0047 -0.0126,-0.0099 -0.0196,-0.0155 -0.007,-0.0056 -0.0126,-0.01149 -0.0196,-0.01809 -0.006,-0.0063 -0.0126,-0.01272 -0.0176,-0.01912 -0.005,-0.0064 -0.01,-0.01262 -0.015,-0.01912 -0.005,-0.0065 -0.009,-0.01346 -0.0129,-0.02014 -0.004,-0.0067 -0.007,-0.01326 -0.0103,-0.02014 -0.003,-0.0069 -0.006,-0.0141 -0.008,-0.02118 -0.003,-0.0071 -0.004,-0.01432 -0.006,-0.0217 -0.002,-0.0074 -0.003,-0.01494 -0.004,-0.02274 -9.6e-4,-0.0078 -0.002,-0.01557 -0.002,-0.02377 0,-0.0088 9.5e-4,-0.01679 0.002,-0.02429 9.5e-4,-0.0074 0.003,-0.01437 0.006,-0.02067 0.003,-0.0064 0.006,-0.01218 0.01,-0.01756 0.004,-0.0054 0.008,-0.0108 0.0145,-0.0155 0.003,-0.0025 0.006,-0.0043 0.009,-0.0062 0.003,-0.0019 0.006,-0.0038 0.009,-0.0052 0.004,-0.0014 0.007,-0.0026 0.0119,-0.0036 0.005,-9.55e-4 0.01,-0.0019 0.016,-0.0026 0.0126,-0.0013 0.0291,-0.0018 0.0522,-0.0021 z m -0.25578,0.361704 c 0.002,-1.13e-4 0.003,-1.19e-4 0.005,0 0.004,3e-4 0.007,7.67e-4 0.0109,0.0016 0.007,0.0016 0.0147,0.0044 0.0217,0.0078 0.007,0.0034 0.0136,0.0077 0.0196,0.01241 0.003,0.0023 0.006,0.0046 0.008,0.0072 0.003,0.0026 0.005,0.0055 0.007,0.0083 0.004,0.0054 0.008,0.01617 0.0145,0.02946 0.006,0.0133 0.0126,0.02875 0.0186,0.04444 0.006,0.01568 0.0115,0.03137 0.0155,0.04392 0.004,0.01256 0.007,0.02245 0.007,0.02636 0,0.0046 -9.6e-4,0.0092 -0.003,0.01395 -0.002,0.0048 -0.004,0.0095 -0.007,0.01394 -0.002,0.0045 -0.005,0.0087 -0.009,0.01241 -0.004,0.0037 -0.008,0.0071 -0.0119,0.0093 -0.003,0.0014 -0.007,0.0025 -0.0134,0.0036 -0.006,0.0011 -0.0132,0.0019 -0.0223,0.0026 -0.0171,0.0015 -0.0383,0.0025 -0.0594,0.0026 -0.0211,0 -0.0421,-6.66e-4 -0.0594,-0.0021 -0.009,-7.01e-4 -0.0162,-0.0016 -0.0222,-0.0026 -0.006,-9.55e-4 -0.0116,-0.0022 -0.0145,-0.0036 -0.004,-0.0022 -0.008,-0.0054 -0.0124,-0.0088 -0.004,-0.0035 -0.007,-0.0071 -0.01,-0.01137 -0.003,-0.0042 -0.004,-0.0093 -0.006,-0.01395 -0.002,-0.0048 -0.003,-0.0097 -0.003,-0.01448 0,-0.0023 9.6e-4,-0.006 0.002,-0.01085 9.6e-4,-0.0049 0.003,-0.01087 0.005,-0.01756 0.004,-0.0135 0.0105,-0.03004 0.0165,-0.04651 0.006,-0.01645 0.0131,-0.03296 0.0191,-0.0465 0.003,-0.0068 0.006,-0.01267 0.009,-0.01756 0.003,-0.005 0.005,-0.009 0.007,-0.01137 0.003,-0.0043 0.007,-0.0083 0.0114,-0.01188 0.005,-0.0036 0.01,-0.0065 0.015,-0.0093 0.005,-0.0027 0.011,-0.0054 0.017,-0.0072 0.006,-0.0018 0.0126,-0.0029 0.0186,-0.0036 0.002,-1.84e-4 0.003,-4.04e-4 0.005,-5.17e-4 z" /></g></svg>
