<?xml version="1.0" encoding="UTF-8" standalone="no"?>
<!-- Created with Inkscape (http://www.inkscape.org/) -->

<svg
   width="6.0000005pt"
   height="6.0000005pt"
   viewBox="0 0 2.1166669 2.1166668"
   version="1.1"
   id="svg1"
   xml:space="preserve"
   xmlns="http://www.w3.org/2000/svg"
   xmlns:svg="http://www.w3.org/2000/svg"><defs
     id="defs1" /><g
     id="layer1"
     transform="translate(-737.36121,-11.533146)"><path
       id="circle499-3"
       style="fill:#ccb974;stroke:none;stroke-width:0.352778;stroke-opacity:1"
       d="m 738.41953,11.533146 a 1.0583333,1.0583333 0 0 0 -1.05833,1.058334 1.0583333,1.0583333 0 0 0 1.05833,1.058333 1.0583333,1.0583333 0 0 0 1.05834,-1.058333 1.0583333,1.0583333 0 0 0 -1.05834,-1.058334 z m -0.41393,0.37052 h 0.47233 c 0.096,0 0.18166,0.01087 0.25786,0.03204 0.0776,0.01975 0.13816,0.05462 0.1819,0.10542 0.0451,0.04939 0.0682,0.118181 0.0682,0.205672 0,0.06914 -0.016,0.131002 -0.047,0.186035 -0.0311,0.05362 -0.0755,0.09097 -0.13332,0.112138 v 0.0088 c 0.0776,0.01693 0.13867,0.05049 0.18241,0.101286 0.0437,0.04939 0.0651,0.118836 0.0651,0.207739 0,0.09737 -0.0238,0.177172 -0.0718,0.239262 -0.048,0.06209 -0.113,0.107824 -0.19482,0.137459 -0.0804,0.02963 -0.16995,0.04444 -0.26872,0.04444 h -0.51212 z m 0.3111,0.241329 v 0.311092 h 0.14624 c 0.0762,0 0.13098,-0.01481 0.16485,-0.04444 0.0353,-0.02963 0.0532,-0.06895 0.0532,-0.118339 0,-0.05362 -0.018,-0.09163 -0.0532,-0.114205 -0.0353,-0.02258 -0.0894,-0.03411 -0.16278,-0.03411 z m 0,0.542086 v 0.355534 h 0.1757 c 0.0847,0 0.14835,-0.01481 0.19068,-0.04444 0.0437,-0.03105 0.0656,-0.07861 0.0656,-0.14211 0,-0.05927 -0.0219,-0.101863 -0.0656,-0.128674 -0.0423,-0.02681 -0.10602,-0.04031 -0.19068,-0.04031 z" /></g></svg>
