<?xml version="1.0" encoding="UTF-8" standalone="no"?>
<!-- Created with Inkscape (http://www.inkscape.org/) -->

<svg
   width="6.0018311pt"
   height="6.0001144pt"
   viewBox="0 0 2.1173127 2.116707"
   version="1.1"
   id="svg1"
   xml:space="preserve"
   xmlns="http://www.w3.org/2000/svg"
   xmlns:svg="http://www.w3.org/2000/svg"><defs
     id="defs1" /><g
     id="layer1"
     transform="translate(-802.90965,-26.282076)"><path
       d="m 803.96799,26.282117 c -0.0503,3.8e-5 -0.10058,0.0037 -0.15038,0.01085 -0.05,0.0071 -0.0994,0.01785 -0.1478,0.03204 -0.0482,0.0142 -0.0954,0.03181 -0.14107,0.05271 -0.0459,0.02092 -0.0903,0.0451 -0.13281,0.07235 -0.0424,0.02723 -0.0828,0.05745 -0.12092,0.09043 -0.038,0.03308 -0.0736,0.06883 -0.10646,0.10697 -0.033,0.03793 -0.0632,0.07818 -0.0904,0.120406 -0.0274,0.04247 -0.0518,0.08686 -0.0729,0.132809 -0.0209,0.04588 -0.0385,0.0932 -0.0527,0.141593 -0.0142,0.04827 -0.0249,0.09749 -0.032,0.147278 -0.007,0.04997 -0.0108,0.100406 -0.0109,0.150895 4e-5,0.05032 0.004,0.100578 0.0109,0.150379 0.007,0.04996 0.0178,0.09936 0.032,0.147794 0.0142,0.04822 0.0318,0.09537 0.0527,0.141077 0.0211,0.04595 0.0454,0.09034 0.0729,0.132808 0.0272,0.04241 0.0575,0.08282 0.0904,0.120923 0.0329,0.03796 0.0685,0.07354 0.10646,0.106454 0.0381,0.03316 0.0785,0.06356 0.12092,0.09095 0.0425,0.02725 0.0869,0.05143 0.13281,0.07235 0.0457,0.0209 0.0929,0.03851 0.14107,0.05271 0.0484,0.01419 0.0978,0.0249 0.1478,0.03204 0.0208,0.0022 0.0416,0.0037 0.0625,0.0047 v -0.346748 -0.149862 -0.215491 -0.0925 -0.10542 c -0.005,-0.0023 -0.0105,-0.0049 -0.0155,-0.0078 -0.0151,-0.01093 -0.0283,-0.02419 -0.0393,-0.03927 -0.0108,-0.01497 -0.0192,-0.03153 -0.0248,-0.04909 -0.004,-0.01494 -0.007,-0.03041 -0.007,-0.04599 -5.8e-4,-0.0027 -10e-4,-0.0055 -0.002,-0.0083 2e-5,-0.01861 0.003,-0.0371 0.009,-0.05478 0.006,-0.01756 0.014,-0.03413 0.0248,-0.04909 0.011,-0.0149 0.0242,-0.02798 0.0393,-0.03876 0.0149,-0.01097 0.0315,-0.01951 0.0491,-0.02532 0.0175,-0.0057 0.0358,-0.0087 0.0543,-0.0088 h 5.1e-4 c 0.007,9e-5 0.0142,6.08e-4 0.0212,0.0015 0.007,7.94e-4 0.0139,0.002 0.0207,0.0036 0.007,0.0018 0.0139,0.0041 0.0207,0.0067 0.007,0.0025 0.0129,0.0055 0.0191,0.0088 0.006,0.0033 0.0123,0.0069 0.0181,0.01085 0.006,0.004 0.0116,0.0083 0.0171,0.01292 0.005,0.0047 0.0103,0.0097 0.015,0.01499 0.005,0.0054 0.009,0.01111 0.0129,0.01705 0.004,0.0058 0.008,0.01183 0.0114,0.01809 0.003,0.0064 0.006,0.01292 0.009,0.01964 0.002,0.0066 0.005,0.01332 0.006,0.02015 0.002,0.007 0.003,0.01406 0.004,0.02119 9.4e-4,0.007 10e-4,0.0141 0.002,0.02119 -4.5e-4,0.0028 -9.7e-4,0.0055 -0.002,0.0083 -3.7e-4,0.01558 -0.003,0.03105 -0.007,0.04599 -0.006,0.01756 -0.014,0.03413 -0.0248,0.04909 -0.0109,0.01508 -0.0242,0.02834 -0.0393,0.03927 -0.005,0.0028 -0.0102,0.0054 -0.0155,0.0078 v 0.105937 0.09198 0.213424 0.151929 0.346748 c 0.0209,-9.32e-4 0.0417,-0.0025 0.0625,-0.0047 0.0498,-0.0072 0.099,-0.01787 0.14728,-0.03204 0.0484,-0.01417 0.0957,-0.03179 0.14159,-0.05271 0.0459,-0.02092 0.0903,-0.0451 0.13281,-0.07235 0.0424,-0.02739 0.0828,-0.05779 0.12093,-0.09095 0.038,-0.03291 0.0735,-0.06849 0.10645,-0.106454 0.033,-0.0381 0.0632,-0.07852 0.0904,-0.120923 0.0272,-0.04248 0.0514,-0.08687 0.0723,-0.132808 0.0209,-0.04571 0.0385,-0.09286 0.0527,-0.141077 0.0144,-0.04842 0.0252,-0.09782 0.0326,-0.147794 0.007,-0.04981 0.0105,-0.100074 0.0103,-0.150379 9e-5,-0.0174 -2.6e-4,-0.03481 -10e-4,-0.05219 -7.9e-4,-0.01725 -0.002,-0.03448 -0.004,-0.05168 -0.002,-0.01728 -0.004,-0.03451 -0.007,-0.05168 -0.003,-0.01712 -0.005,-0.03418 -0.009,-0.05116 -0.003,-0.01697 -0.007,-0.03386 -0.0114,-0.05064 -0.004,-0.01682 -0.009,-0.03354 -0.014,-0.05013 -0.005,-0.01649 -0.0103,-0.03286 -0.016,-0.04909 -0.006,-0.01634 -0.012,-0.03254 -0.0186,-0.04858 -0.007,-0.01602 -0.0137,-0.03187 -0.0212,-0.04754 -0.007,-0.01569 -0.0151,-0.0312 -0.0232,-0.04651 -0.008,-0.01519 -0.0169,-0.03019 -0.0258,-0.04496 -0.009,-0.01487 -0.0182,-0.02951 -0.0279,-0.04392 -0.01,-0.01437 -0.0196,-0.0285 -0.03,-0.04237 -0.0102,-0.01404 -0.0207,-0.02782 -0.0315,-0.04134 -0.011,-0.01337 -0.0224,-0.02646 -0.0341,-0.03927 -0.0116,-0.01269 -0.0235,-0.0251 -0.0357,-0.03721 -0.0123,-0.01237 -0.0249,-0.02443 -0.0377,-0.03617 -0.0128,-0.01151 -0.0259,-0.02271 -0.0393,-0.03359 -0.0135,-0.01102 -0.0273,-0.0217 -0.0413,-0.03204 -0.0139,-0.01034 -0.028,-0.02033 -0.0424,-0.02997 -0.0144,-0.0097 -0.0291,-0.01897 -0.0439,-0.02791 -0.0148,-0.009 -0.0298,-0.01759 -0.045,-0.02584 -0.0153,-0.0081 -0.0308,-0.01589 -0.0465,-0.02325 -0.0157,-0.0073 -0.0315,-0.01417 -0.0475,-0.02067 -0.016,-0.0068 -0.0322,-0.01315 -0.0486,-0.01912 -0.0162,-0.0057 -0.0326,-0.01108 -0.0491,-0.01602 -0.0166,-0.0051 -0.0333,-0.0097 -0.0501,-0.01395 -0.0168,-0.0042 -0.0337,-0.008 -0.0506,-0.01137 -0.017,-0.0033 -0.034,-0.0063 -0.0512,-0.0088 -0.0172,-0.0025 -0.0344,-0.0046 -0.0517,-0.0062 -0.0172,-0.0018 -0.0344,-0.0032 -0.0517,-0.0041 -0.0174,-7.73e-4 -0.0348,-0.0011 -0.0522,-10e-4 z m 0,0.176217 0.15193,0.563789 c -0.003,-0.0016 -0.007,-0.0032 -0.01,-0.0047 -0.009,-0.004 -0.0181,-0.0076 -0.0274,-0.01085 -0.009,-0.0031 -0.0185,-0.0059 -0.0279,-0.0083 -0.009,-0.0025 -0.0189,-0.0045 -0.0284,-0.0062 -0.01,-0.0016 -0.0193,-0.0028 -0.0289,-0.0036 -0.01,-7.55e-4 -0.0196,-0.0011 -0.0294,-10e-4 -0.0263,1.6e-5 -0.0524,0.003 -0.078,0.0088 -0.0255,0.0058 -0.0503,0.01451 -0.0739,0.02584 z m -0.65268,0.229443 0.48266,0.345715 c -0.0174,0.0089 -0.034,0.01932 -0.0496,0.03101 -0.0206,0.01646 -0.0394,0.03518 -0.0558,0.05581 -0.0119,0.01563 -0.0224,0.03223 -0.0315,0.04961 z m 1.30535,0 -0.34468,0.480591 c -0.004,-0.0072 -0.008,-0.01427 -0.0124,-0.02119 -0.005,-0.0082 -0.0111,-0.01609 -0.0171,-0.02377 -0.006,-0.0077 -0.0121,-0.01507 -0.0186,-0.02222 -0.007,-0.0072 -0.0135,-0.01407 -0.0207,-0.02067 -0.007,-0.0065 -0.0146,-0.01271 -0.0222,-0.0186 -0.008,-0.006 -0.0156,-0.0117 -0.0238,-0.01705 -0.007,-0.0044 -0.014,-0.0085 -0.0212,-0.0124 z m -0.971,0.500745 c -0.0111,0.02345 -0.0196,0.04806 -0.0253,0.07338 -0.006,0.02577 -0.009,0.05212 -0.009,0.07855 -2e-5,0.02643 0.003,0.05278 0.009,0.07855 0.006,0.02532 0.0142,0.04993 0.0253,0.07338 l -0.56327,-0.151929 z m 0.63717,5.16e-4 0.56327,0.151412 -0.56379,0.151929 c 0.0113,-0.02343 0.02,-0.04804 0.0258,-0.07338 0.006,-0.02577 0.009,-0.05212 0.009,-0.07855 6e-5,-0.0098 -2.8e-4,-0.01966 -10e-4,-0.02946 -8e-4,-0.0097 -0.002,-0.01935 -0.004,-0.02894 -0.002,-0.0096 -0.004,-0.01904 -0.006,-0.02842 -0.002,-0.0094 -0.005,-0.01872 -0.008,-0.02791 -0.003,-0.0093 -0.007,-0.01841 -0.0103,-0.02739 -0.001,-0.0031 -0.003,-0.0062 -0.005,-0.0093 z m -0.6258,0.321944 c 0.009,0.01721 0.0197,0.03363 0.0315,0.04909 0.004,0.0037 0.007,0.0073 0.0109,0.01085 v 0.143661 l -0.38809,0.278536 z m 0.61392,0 0.34571,0.482142 -0.38809,-0.278536 v -0.143144 c 0.004,-0.0037 0.008,-0.0075 0.0114,-0.01137 0.0117,-0.01548 0.022,-0.0319 0.031,-0.04909 z"
       style="fill:#8172b3;stroke-width:0.352778"
       id="path725" /><path
       id="path732"
       style="fill:#eae8f4;stroke-width:1.08108;stroke-linecap:round;stroke-linejoin:round"
       d="m 803.96799,26.458334 -0.15193,0.563789 a 0.35277778,0.35277778 0 0 1 0.0739,-0.02584 0.35277778,0.35277778 0 0 1 0.078,-0.0088 0.35277778,0.35277778 0 0 1 0.0294,10e-4 0.35277778,0.35277778 0 0 1 0.0289,0.0036 0.35277778,0.35277778 0 0 1 0.0284,0.0062 0.35277778,0.35277778 0 0 1 0.0279,0.0083 0.35277778,0.35277778 0 0 1 0.0274,0.01085 0.35277778,0.35277778 0 0 1 0.01,0.0047 z m -0.65268,0.229443 0.34572,0.482141 a 0.35277778,0.35277778 0 0 1 0.0315,-0.04961 0.35277778,0.35277778 0 0 1 0.0558,-0.05581 0.35277778,0.35277778 0 0 1 0.0496,-0.03101 z m 1.30535,0 -0.48059,0.344682 a 0.35277778,0.35277778 0 0 1 0.0212,0.0124 0.35277778,0.35277778 0 0 1 0.0238,0.01705 0.35277778,0.35277778 0 0 1 0.0222,0.0186 0.35277778,0.35277778 0 0 1 0.0207,0.02067 0.35277778,0.35277778 0 0 1 0.0186,0.02222 0.35277778,0.35277778 0 0 1 0.0171,0.02377 0.35277778,0.35277778 0 0 1 0.0124,0.02119 z m -0.66042,0.467672 c -0.0158,7.82e-4 -0.0315,0.0039 -0.0465,0.0088 -0.0176,0.0058 -0.0342,0.01435 -0.0491,0.02532 -0.015,0.01078 -0.0283,0.02386 -0.0393,0.03876 -0.0108,0.01497 -0.0192,0.03153 -0.0248,0.04909 -0.006,0.01768 -0.009,0.03617 -0.009,0.05478 4.5e-4,0.0028 5.2e-4,0.0055 0.002,0.0083 3.7e-4,0.01558 0.003,0.03105 0.007,0.04599 0.006,0.01756 0.014,0.03413 0.0248,0.04909 0.0109,0.01508 0.0242,0.02834 0.0393,0.03927 0.005,0.0028 0.0102,0.0054 0.0155,0.0078 v 0.10542 0.0925 0.215491 0.149862 0.346748 c 0.0292,0.0033 0.0584,0.0054 0.0879,0.0062 0.0295,-8.33e-4 0.059,-0.0029 0.0884,-0.0062 v -0.346748 -0.151929 -0.213424 -0.09198 -0.105937 c 0.005,-0.0023 0.0105,-0.0049 0.0155,-0.0078 0.0151,-0.01093 0.0283,-0.02419 0.0393,-0.03927 0.0108,-0.01497 0.0192,-0.03153 0.0248,-0.04909 0.004,-0.01494 0.007,-0.03041 0.007,-0.04599 5.8e-4,-0.0027 10e-4,-0.0055 0.002,-0.0083 -9e-5,-0.0071 -6.8e-4,-0.01416 -0.002,-0.02119 -7.7e-4,-0.0071 -0.002,-0.0142 -0.004,-0.02119 -0.002,-0.0068 -0.004,-0.01356 -0.006,-0.02015 -0.003,-0.0067 -0.005,-0.01328 -0.009,-0.01964 -0.003,-0.0063 -0.007,-0.01229 -0.0114,-0.01809 -0.004,-0.0059 -0.008,-0.01164 -0.0129,-0.01705 -0.005,-0.0053 -0.01,-0.0103 -0.015,-0.01499 -0.005,-0.0046 -0.0111,-0.009 -0.0171,-0.01292 -0.006,-0.004 -0.0118,-0.0076 -0.0181,-0.01085 -0.006,-0.0033 -0.0126,-0.0062 -0.0191,-0.0088 -0.007,-0.0027 -0.0136,-0.0049 -0.0207,-0.0067 -0.007,-0.0016 -0.0137,-0.0028 -0.0207,-0.0036 -0.007,-9.42e-4 -0.0141,-0.0015 -0.0212,-0.0015 h -5.2e-4 c -0.002,7e-6 -0.004,-4.1e-5 -0.006,0 z m -0.31058,0.03307 -0.56327,0.151928 0.56327,0.151929 a 0.35277778,0.35277778 0 0 1 -0.0253,-0.07338 0.35277778,0.35277778 0 0 1 -0.009,-0.07855 0.35277778,0.35277778 0 0 1 0.009,-0.07855 0.35277778,0.35277778 0 0 1 0.0253,-0.07338 z m 0.63717,5.16e-4 a 0.35277778,0.35277778 0 0 1 0.005,0.0093 0.35277778,0.35277778 0 0 1 0.0103,0.02739 0.35277778,0.35277778 0 0 1 0.008,0.02791 0.35277778,0.35277778 0 0 1 0.006,0.02842 0.35277778,0.35277778 0 0 1 0.004,0.02894 0.35277778,0.35277778 0 0 1 5.2e-4,5.16e-4 0.35277778,0.35277778 0 0 1 0,5.17e-4 0.35277778,0.35277778 0 0 1 0,5.17e-4 0.35277778,0.35277778 0 0 1 0,5.17e-4 0.35277778,0.35277778 0 0 1 0,5.17e-4 0.35277778,0.35277778 0 0 1 0,0.0015 0.35277778,0.35277778 0 0 1 0,5.17e-4 0.35277778,0.35277778 0 0 1 0,5.16e-4 0.35277778,0.35277778 0 0 1 0,5.17e-4 0.35277778,0.35277778 0 0 1 0,5.17e-4 0.35277778,0.35277778 0 0 1 0,5.17e-4 0.35277778,0.35277778 0 0 1 0,5.16e-4 0.35277778,0.35277778 0 0 1 0,5.17e-4 0.35277778,0.35277778 0 0 1 0,5.17e-4 0.35277778,0.35277778 0 0 1 5.2e-4,0.0016 0.35277778,0.35277778 0 0 1 0,5.17e-4 0.35277778,0.35277778 0 0 1 0,5.17e-4 0.35277778,0.35277778 0 0 1 0,5.16e-4 0.35277778,0.35277778 0 0 1 0,5.17e-4 0.35277778,0.35277778 0 0 1 0,5.17e-4 0.35277778,0.35277778 0 0 1 0,5.17e-4 0.35277778,0.35277778 0 0 1 0,5.17e-4 0.35277778,0.35277778 0 0 1 0,5.16e-4 0.35277778,0.35277778 0 0 1 0,5.17e-4 0.35277778,0.35277778 0 0 1 0,0.0015 0.35277778,0.35277778 0 0 1 0,5.17e-4 0.35277778,0.35277778 0 0 1 0,5.17e-4 0.35277778,0.35277778 0 0 1 0,5.17e-4 0.35277778,0.35277778 0 0 1 0,5.16e-4 0.35277778,0.35277778 0 0 1 0,5.17e-4 0.35277778,0.35277778 0 0 1 0,5.17e-4 0.35277778,0.35277778 0 0 1 0,5.17e-4 0.35277778,0.35277778 0 0 1 0,5.16e-4 0.35277778,0.35277778 0 0 1 0,0.0016 0.35277778,0.35277778 0 0 1 0,5.17e-4 0.35277778,0.35277778 0 0 1 0,5.16e-4 0.35277778,0.35277778 0 0 1 0,5.17e-4 0.35277778,0.35277778 0 0 1 0,5.17e-4 0.35277778,0.35277778 0 0 1 0,5.17e-4 0.35277778,0.35277778 0 0 1 0,5.16e-4 0.35277778,0.35277778 0 0 1 0,5.17e-4 0.35277778,0.35277778 0 0 1 0,5.17e-4 0.35277778,0.35277778 0 0 1 0,0.0016 0.35277778,0.35277778 0 0 1 0,5.17e-4 0.35277778,0.35277778 0 0 1 0,5.17e-4 0.35277778,0.35277778 0 0 1 0,5.16e-4 0.35277778,0.35277778 0 0 1 0,5.17e-4 0.35277778,0.35277778 0 0 1 -0.009,0.07855 0.35277778,0.35277778 0 0 1 -0.0258,0.07338 l 0.56379,-0.151929 z m -0.6258,0.321944 -0.34572,0.482142 0.38809,-0.278536 v -0.143661 a 0.35277778,0.35277778 0 0 1 -0.0109,-0.01085 0.35277778,0.35277778 0 0 1 -0.0315,-0.04909 z m 0.61392,0 a 0.35277778,0.35277778 0 0 1 -0.031,0.04909 0.35277778,0.35277778 0 0 1 -0.0114,0.01137 v 0.143144 l 0.38809,0.278536 z" /></g></svg>
