<?xml version="1.0" encoding="UTF-8" standalone="no"?>
<!-- Created with Inkscape (http://www.inkscape.org/) -->

<svg
   width="5.9963379pt"
   height="5.9976482pt"
   viewBox="0 0 2.1153748 2.115837"
   version="1.1"
   id="svg1"
   xml:space="preserve"
   xmlns="http://www.w3.org/2000/svg"
   xmlns:svg="http://www.w3.org/2000/svg"><defs
     id="defs1" /><g
     id="layer1"
     transform="translate(-802.91074,-33.69273)"><path
       d="m 803.43979,33.833789 c -0.0481,0.0277 -0.094,0.05923 -0.13719,0.09413 -0.041,0.03346 -0.0793,0.06999 -0.11476,0.10922 0.0104,0.006 0.021,0.01194 0.0316,0.01756 0.0147,0.0075 0.0292,0.01519 0.044,0.02235 0.0295,0.01432 0.0593,0.02745 0.0895,0.04022 0.0302,0.01276 0.061,0.02479 0.0916,0.03663 0.0306,0.01185 0.0613,0.02369 0.0919,0.03523 0.0307,0.01155 0.0614,0.02286 0.0917,0.03478 0.0303,0.01193 0.0606,0.02448 0.0902,0.03743 0.0296,0.01294 0.0584,0.02649 0.087,0.04108 0.0145,0.0072 0.0288,0.01463 0.0427,0.02245 0.0138,0.0079 0.0279,0.01592 0.0416,0.02435 0.014,0.0082 0.027,0.01718 0.0402,0.02629 0.0133,0.0091 0.0264,0.01878 0.0392,0.02869 0.0127,0.01 0.0252,0.02011 0.0376,0.03084 0.0121,0.01088 0.0243,0.02183 0.0361,0.03348 0.0115,0.01185 0.0232,0.02416 0.0344,0.03681 0.0109,0.01285 0.0219,0.02596 0.0322,0.03986 0.004,0.0055 0.008,0.01146 0.0121,0.0169 l 0.1902,-0.10981 -0.0589,-0.102037 0.45702,-0.02697 -0.25187,0.38231 -0.0586,-0.101584 -0.19064,0.11007 c 0.003,0.0057 0.006,0.01118 0.008,0.01711 0.007,0.0159 0.0127,0.03201 0.0184,0.04786 0.006,0.01585 0.0105,0.03216 0.0147,0.04821 0.005,0.01585 0.008,0.03185 0.011,0.04798 0.003,0.01588 0.006,0.03188 0.008,0.04793 0.002,0.01596 0.004,0.03227 0.005,0.04829 0.001,0.01607 0.002,0.03197 0.003,0.04799 1.3e-4,0.01623 5.3e-4,0.03212 3.2e-4,0.04815 -4e-5,0.01592 -10e-4,0.03224 -0.002,0.04826 -0.002,0.03208 -0.004,0.06413 -0.008,0.09632 -0.004,0.03214 -0.008,0.06415 -0.0129,0.09638 -0.005,0.03223 -0.0104,0.06444 -0.0157,0.09678 -0.005,0.03234 -0.0104,0.06479 -0.0155,0.09723 -0.005,0.03244 -0.01,0.06506 -0.0141,0.09763 -0.004,0.03256 -0.007,0.06535 -0.01,0.09807 -0.001,0.01626 -0.002,0.03242 -0.003,0.0488 -10e-5,0.01182 -5.1e-4,0.02412 -6e-4,0.03616 0.0517,-0.01109 0.1025,-0.02607 0.15197,-0.04477 0.0519,-0.01983 0.1022,-0.04362 0.15037,-0.0713 0.0479,-0.02782 0.0936,-0.05932 0.1365,-0.09432 0.043,-0.03489 0.0832,-0.07303 0.12025,-0.114182 0.0371,-0.04118 0.0709,-0.08528 0.10113,-0.131785 0.0303,-0.04637 0.0568,-0.095 0.0795,-0.145533 0.0227,-0.05075 0.0412,-0.103172 0.0557,-0.156839 0.0142,-0.0536 0.0241,-0.108211 0.0298,-0.16339 0.006,-0.05514 0.007,-0.110639 0.004,-0.166023 -0.003,-0.05525 -0.01,-0.110143 -0.0214,-0.16427 -0.0115,-0.05434 -0.0274,-0.107626 -0.0473,-0.159477 -0.0195,-0.05185 -0.0435,-0.101892 -0.0711,-0.14991 -0.01,-0.01657 -0.0196,-0.03287 -0.0304,-0.04868 -0.0105,-0.01609 -0.0218,-0.03166 -0.033,-0.04718 -0.0112,-0.01547 -0.0233,-0.03038 -0.0353,-0.04522 -0.012,-0.01484 -0.0249,-0.02911 -0.0376,-0.04333 -0.0127,-0.01406 -0.0263,-0.02753 -0.0398,-0.04088 -0.0135,-0.01344 -0.0278,-0.02631 -0.0421,-0.03894 -0.0142,-0.01267 -0.0289,-0.02489 -0.0438,-0.03674 -0.0149,-0.01189 -0.0304,-0.02326 -0.046,-0.0343 -0.0156,-0.01111 -0.0315,-0.02183 -0.0477,-0.03211 -0.0162,-0.01004 -0.0327,-0.01962 -0.0494,-0.02876 -0.0169,-0.0093 -0.0336,-0.01833 -0.0507,-0.02682 -0.0172,-0.0083 -0.0347,-0.01611 -0.0524,-0.02348 -0.0177,-0.0073 -0.0355,-0.0141 -0.0536,-0.02039 -0.0181,-0.0065 -0.0362,-0.01251 -0.0545,-0.01804 -0.0182,-0.0054 -0.0366,-0.01034 -0.0551,-0.01476 -0.0187,-0.0044 -0.0374,-0.0083 -0.0563,-0.01167 -0.0188,-0.0035 -0.0376,-0.0066 -0.0565,-0.0091 -0.0189,-0.0023 -0.0378,-0.0041 -0.0568,-0.0054 -0.0192,-0.0014 -0.0384,-0.0022 -0.0576,-0.0026 -0.0191,-4.24e-4 -0.0381,-4.01e-4 -0.0572,1.87e-4 -0.0192,7.93e-4 -0.0383,0.0021 -0.0574,0.0039 -0.0189,0.0017 -0.0378,0.0038 -0.0566,0.0064 -0.019,0.0029 -0.038,0.0062 -0.0568,0.01014 -0.0188,0.0037 -0.0375,0.0079 -0.056,0.01263 -0.0184,0.0048 -0.0365,0.01012 -0.0546,0.01601 -0.0182,0.0058 -0.0363,0.01208 -0.0542,0.01875 -0.0179,0.0068 -0.0356,0.01396 -0.0531,0.02164 -0.0176,0.0077 -0.0349,0.01598 -0.0521,0.02463 -0.0169,0.0086 -0.0336,0.01765 -0.0501,0.02706 z m -0.31843,0.287678 c -0.0139,0.01705 -0.0273,0.03452 -0.0402,0.05243 -0.0302,0.04651 -0.0566,0.0953 -0.0792,0.145983 -0.0227,0.05075 -0.0412,0.103172 -0.0556,0.156839 -0.0143,0.05346 -0.0243,0.107925 -0.03,0.162937 -0.006,0.05514 -0.007,0.110648 -0.004,0.166024 0.003,0.0554 0.0102,0.110438 0.0217,0.164717 0.0115,0.05415 0.0272,0.10733 0.047,0.159029 0.0104,0.02396 0.0216,0.04749 0.0338,0.07058 l 0.83177,-0.479628 c -0.002,-0.0028 -0.004,-0.0059 -0.006,-0.0087 -0.009,-0.01371 -0.0197,-0.02618 -0.0297,-0.03951 -0.01,-0.01334 -0.0211,-0.02647 -0.0329,-0.03891 -0.0109,-0.01294 -0.0227,-0.02539 -0.0349,-0.03771 -0.0118,-0.01252 -0.0247,-0.02478 -0.0374,-0.03686 -0.0255,-0.02415 -0.0519,-0.04744 -0.0795,-0.07047 -0.0276,-0.02303 -0.0561,-0.04576 -0.0851,-0.06781 -0.029,-0.02206 -0.0589,-0.04339 -0.0886,-0.06462 -0.0595,-0.04241 -0.11929,-0.0838 -0.17717,-0.123863 -0.0289,-0.02006 -0.0574,-0.03936 -0.0848,-0.05906 -0.024,-0.01717 -0.0468,-0.03439 -0.0691,-0.05142 z m -0.0189,1.231201 c 0.0137,0.02178 0.0283,0.04303 0.0437,0.06368 0.0352,0.043 0.0732,0.08354 0.11447,0.120677 0.0412,0.03693 0.0851,0.07062 0.13157,0.100669 0.0465,0.03018 0.0953,0.05668 0.14596,0.07922 0.0506,0.02268 0.10288,0.0414 0.15639,0.05591 0.0537,0.01436 0.10835,0.02448 0.16365,0.03023 0.0551,0.0056 0.11048,0.007 0.16577,0.0039 0.022,-0.0022 0.0437,-0.005 0.0655,-0.0086 -0.004,-0.02767 -0.007,-0.05588 -0.01,-0.08508 -0.003,-0.0336 -0.006,-0.06834 -0.009,-0.1034 -0.006,-0.07016 -0.0117,-0.142645 -0.0187,-0.215364 -0.004,-0.03634 -0.007,-0.07287 -0.0117,-0.109021 -0.005,-0.03616 -0.01,-0.07174 -0.0159,-0.107168 -0.006,-0.03543 -0.0134,-0.07036 -0.0216,-0.104517 -0.004,-0.01708 -0.008,-0.03433 -0.0132,-0.05086 -0.005,-0.01652 -0.01,-0.03297 -0.0152,-0.04911 -0.006,-0.01595 -0.0113,-0.03162 -0.017,-0.04746 -0.007,-0.01534 -0.0123,-0.03125 -0.0196,-0.04596 -0.001,-0.0026 -0.003,-0.0053 -0.004,-0.0079 z"
       style="fill:#dd8452;stroke-width:0.352778"
       id="path19" /><path
       d="m 803.18784,34.037134 c -0.001,0.0014 -0.004,0.0034 -0.005,0.0049 -0.0216,0.02547 -0.0419,0.05197 -0.061,0.07937 0.0223,0.01704 0.0452,0.0342 0.0691,0.05142 0.0274,0.0197 0.0559,0.039 0.0848,0.05906 0.0579,0.04006 0.11769,0.08145 0.17717,0.123863 0.0297,0.02124 0.0596,0.04257 0.0886,0.06462 0.029,0.02206 0.0575,0.04479 0.0851,0.06782 0.0276,0.02303 0.054,0.04632 0.0795,0.07047 0.0127,0.01207 0.0256,0.02434 0.0374,0.03685 0.0119,0.01252 0.0237,0.02497 0.0349,0.03771 0.0109,0.01295 0.022,0.02607 0.0329,0.03891 0.01,0.01333 0.0207,0.02581 0.0297,0.03951 0.002,0.0029 0.004,0.0058 0.006,0.0087 l -0.83177,0.479628 c 0.012,0.02677 0.0241,0.05365 0.0379,0.07958 0.0156,0.02508 0.0321,0.04961 0.0503,0.07303 l 0.83151,-0.480075 c 0.001,0.0026 0.003,0.0052 0.004,0.0079 0.007,0.01471 0.0131,0.03062 0.0196,0.04596 0.007,0.01534 0.0121,0.03102 0.017,0.04746 0.006,0.01594 0.0106,0.03239 0.0152,0.04911 0.005,0.01652 0.009,0.03378 0.0132,0.05085 0.008,0.03415 0.0154,0.06909 0.0215,0.104517 0.006,0.03543 0.0113,0.07101 0.0159,0.107168 0.005,0.03616 0.008,0.07268 0.0117,0.109021 0.007,0.07272 0.0129,0.145204 0.0187,0.215365 0.003,0.03506 0.006,0.0698 0.009,0.103399 0.003,0.02919 0.006,0.05741 0.01,0.08508 0.0333,-0.0028 0.0664,-0.0072 0.0992,-0.01313 0.002,-5.45e-4 0.005,-0.0016 0.007,-0.0022 10e-6,-0.01198 1.5e-4,-0.02414 6.1e-4,-0.03616 8.4e-4,-0.01654 0.002,-0.03245 0.003,-0.0488 0.002,-0.03272 0.006,-0.06551 0.01,-0.09807 0.004,-0.03256 0.009,-0.06519 0.0141,-0.09763 0.005,-0.03244 0.0101,-0.06489 0.0155,-0.09723 0.005,-0.03235 0.0109,-0.06456 0.0157,-0.09678 0.005,-0.03223 0.009,-0.06424 0.0129,-0.09638 0.004,-0.03214 0.006,-0.06424 0.008,-0.09632 10e-4,-0.01617 0.002,-0.03223 0.002,-0.04826 4e-5,-0.01593 1.6e-4,-0.03212 -3.2e-4,-0.04815 -1.3e-4,-0.01623 -0.001,-0.03197 -0.003,-0.04799 -10e-4,-0.01608 -0.003,-0.03228 -0.005,-0.04829 -0.002,-0.01596 -0.005,-0.03191 -0.008,-0.04793 -0.003,-0.01588 -0.007,-0.03193 -0.011,-0.04798 -0.005,-0.01585 -0.009,-0.03216 -0.0147,-0.04821 -0.006,-0.01585 -0.0115,-0.03196 -0.0184,-0.04785 -0.002,-0.0057 -0.005,-0.01118 -0.008,-0.01711 l 0.19064,-0.11007 0.0587,0.10159 0.25187,-0.382311 -0.45703,0.02697 0.0589,0.102037 -0.19019,0.10981 c -0.004,-0.0056 -0.008,-0.01156 -0.0121,-0.0169 -0.0103,-0.0139 -0.0214,-0.02701 -0.0322,-0.03986 -0.0109,-0.01285 -0.0226,-0.02517 -0.0344,-0.03681 -0.0115,-0.01185 -0.0236,-0.02285 -0.0361,-0.03348 -0.0121,-0.01088 -0.0247,-0.02098 -0.0376,-0.03084 -0.0127,-0.01 -0.026,-0.01957 -0.0392,-0.02869 -0.0133,-0.0091 -0.0266,-0.01787 -0.0402,-0.02629 -0.014,-0.0082 -0.0276,-0.01653 -0.0415,-0.02435 -0.0138,-0.0079 -0.0285,-0.01514 -0.0427,-0.02245 -0.0286,-0.01459 -0.0574,-0.02813 -0.087,-0.04108 -0.0296,-0.01294 -0.0599,-0.0255 -0.0902,-0.03743 -0.0303,-0.01192 -0.061,-0.02324 -0.0917,-0.03478 -0.0307,-0.01154 -0.0613,-0.02339 -0.0919,-0.03523 -0.0306,-0.01184 -0.0613,-0.02386 -0.0916,-0.03663 -0.0302,-0.01276 -0.06,-0.0259 -0.0895,-0.04022 -0.0146,-0.0073 -0.0295,-0.01466 -0.044,-0.02235 -0.0103,-0.0058 -0.0211,-0.01162 -0.0316,-0.01756 z"
       style="opacity:1;fill:#ffffff;stroke-width:0.176388;stroke-linecap:round"
       id="path17" /></g></svg>
