<?xml version="1.0" encoding="UTF-8" standalone="no"?>
<!-- Created with Inkscape (http://www.inkscape.org/) -->

<svg
   width="5.4550781pt"
   height="5.9999776pt"
   viewBox="0 0 1.9244304 2.1166588"
   version="1.1"
   id="svg1"
   xml:space="preserve"
   xmlns="http://www.w3.org/2000/svg"
   xmlns:svg="http://www.w3.org/2000/svg"><defs
     id="defs1" /><g
     id="layer1"
     transform="translate(-767.72809,-75.674264)"><path
       id="path541"
       style="color:#000000;fill:#c44e52;stroke-width:1;stroke-linecap:round;-inkscape-stroke:none"
       d="m 769.11235,75.674407 a 0.08090012,0.08090012 0 0 0 -0.005,0.0014 0.08089966,0.08089966 0 0 0 -0.0218,0.0043 0.08090012,0.08090012 0 0 0 -0.007,0.0033 0.08089966,0.08089966 0 0 0 -0.0118,0.0052 0.08089966,0.08089966 0 0 0 -0.008,0.009 0.08090012,0.08090012 0 0 0 -0.003,0.0019 0.08090012,0.08090012 0 0 0 -0.002,0.0033 0.08089966,0.08089966 0 0 0 -0.0118,0.01802 0.08090012,0.08090012 0 0 0 -0.005,0.01233 0.08089966,0.08089966 0 0 0 -0.003,0.01517 0.08090012,0.08090012 0 0 0 9.2e-4,0.01944 0.08089966,0.08089966 0 0 0 0.002,0.009 0.08090012,0.08090012 0 0 0 0.0109,0.0237 0.08089966,0.08089966 0 0 0 4.8e-4,9.18e-4 0.08090012,0.08090012 0 0 0 0.009,0.0128 c 0.38514,0.557074 0.38282,1.29554 -0.007,1.8506 a 0.08089966,0.08089966 0 0 0 -0.006,0.01422 0.08090012,0.08090012 0 0 0 -4.7e-4,4.74e-4 0.08090012,0.08090012 0 0 0 0,4.73e-4 0.08089966,0.08089966 0 0 0 0.0151,0.08627 0.08090012,0.08090012 0 0 0 4.8e-4,4.74e-4 0.08090012,0.08090012 0 0 0 9.1e-4,4.75e-4 0.08089966,0.08089966 0 0 0 0.01,0.01043 0.08089966,0.08089966 0 0 0 0.0114,0.0052 0.08090012,0.08090012 0 0 0 0.006,0.0028 0.08089966,0.08089966 0 0 0 0.0218,0.0052 0.08090012,0.08090012 0 0 0 0.009,0 0.08089966,0.08089966 0 0 0 0.0208,-0.0033 0.08090012,0.08090012 0 0 0 0.0105,-0.0043 0.08089966,0.08089966 0 0 0 0.0151,-0.009 0.08090012,0.08090012 0 0 0 0.006,-0.0038 c 0.31812,-0.305995 0.48216,-0.67073 0.48161,-1.03717 -5.5e-4,-0.366439 -0.1645,-0.730219 -0.48351,-1.035748 a 0.08090012,0.08090012 0 0 0 -0.007,-0.0052 0.08089966,0.08089966 0 0 0 -0.0128,-0.0081 0.08090012,0.08090012 0 0 0 -0.0151,-0.0057 0.08089966,0.08089966 0 0 0 -0.0162,-0.0033 0.08090012,0.08090012 0 0 0 -0.005,-9.17e-4 z m -0.41904,0.25076 a 0.08089966,0.08089966 0 0 0 -0.005,0.0014 0.08090012,0.08090012 0 0 0 -0.0422,0.0147 0.08090012,0.08090012 0 0 0 -0.0161,0.112818 c 0.30438,0.405026 0.30316,0.961689 -0.004,1.365196 a 0.08090012,0.08090012 0 0 0 -0.006,0.01138 0.08089966,0.08089966 0 0 0 -0.004,0.0066 0.08090012,0.08090012 0 0 0 -0.006,0.02513 0.08089966,0.08089966 0 0 0 0,0.0042 0.08090012,0.08090012 0 0 0 0.004,0.02749 0.08089966,0.08089966 0 0 0 0.002,0.0033 0.08090012,0.08090012 0 0 0 0.0138,0.02276 0.08089966,0.08089966 0 0 0 0.002,0.0028 0.08089966,0.08089966 0 0 0 0.003,0.0019 0.08090012,0.08090012 0 0 0 0.008,0.009 0.08090012,0.08090012 0 0 0 0.0114,0.0057 0.08089966,0.08089966 0 0 0 0.006,0.0028 0.08090012,0.08090012 0 0 0 0.0242,0.0057 0.08089966,0.08089966 0 0 0 0.006,4.74e-4 0.08090012,0.08090012 0 0 0 0.0232,-0.0038 0.08089966,0.08089966 0 0 0 0.007,-0.0024 0.08090012,0.08090012 0 0 0 0.019,-0.01091 0.08089966,0.08089966 0 0 0 0.005,-0.0028 c 0.25253,-0.228407 0.38625,-0.507757 0.38728,-0.790203 9.2e-4,-0.282444 -0.12923,-0.562759 -0.38018,-0.792098 a 0.08089966,0.08089966 0 0 0 -0.0142,-0.0085 0.08090012,0.08090012 0 0 0 -0.004,-0.0028 0.08089966,0.08089966 0 0 0 -0.0199,-0.0066 0.08090012,0.08090012 0 0 0 -0.008,-0.0033 0.08090012,0.08090012 0 0 0 -0.008,4.74e-4 0.08089966,0.08089966 0 0 0 -0.005,-4.74e-4 z m -0.42141,0.240805 a 0.08090012,0.08090012 0 0 0 -0.0365,0.0072 0.08090012,0.08090012 0 0 0 -0.004,0.0015 0.08090012,0.08090012 0 0 0 -0.0157,0.01 0.08090012,0.08090012 0 0 0 -0.004,0.0024 0.08090012,0.08090012 0 0 0 -0.004,0.0038 0.08090012,0.08090012 0 0 0 -0.006,0.0052 0.08090012,0.08090012 0 0 0 -0.004,0.0052 0.08090012,0.08090012 0 0 0 -0.006,0.01091 0.08090012,0.08090012 0 0 0 -0.005,0.01233 0.08090012,0.08090012 0 0 0 -0.003,0.01091 0.08090012,0.08090012 0 0 0 -4.6e-4,0.01517 0.08090012,0.08090012 0 0 0 4.6e-4,0.0095 0.08090012,0.08090012 0 0 0 0.004,0.01469 0.08090012,0.08090012 0 0 0 0.006,0.01091 0.08090012,0.08090012 0 0 0 0.006,0.01043 0.08090012,0.08090012 0 0 0 0.004,0.0057 c 0.22279,0.247517 0.22209,0.622415 -0.002,0.86889 a 0.08090012,0.08090012 0 0 0 -0.004,0.0052 0.08090012,0.08090012 0 0 0 -0.006,0.01043 0.08090012,0.08090012 0 0 0 -0.005,0.0128 0.08090012,0.08090012 0 0 0 -0.003,0.01 0.08090012,0.08090012 0 0 0 -0.002,0.01659 0.08090012,0.08090012 0 0 0 0,0.0061 0.08090012,0.08090012 0 0 0 0.006,0.0218 0.08090012,0.08090012 0 0 0 4.7e-4,0.0015 0.08090012,0.08090012 0 0 0 0.0199,0.03034 0.08090012,0.08090012 0 0 0 0.11471,-0.0057 c 5.4e-4,-5.93e-4 8.9e-4,-0.0013 0.002,-0.0019 0.17729,-0.149949 0.27194,-0.343989 0.27257,-0.540865 6.2e-4,-0.200798 -0.0959,-0.399957 -0.27921,-0.551766 a 0.08090012,0.08090012 0 0 0 -0.047,-0.01896 z m -0.44701,0.263559 a 0.08090058,0.08090058 0 0 0 -0.0379,0.0066 0.08090058,0.08090058 0 0 0 -0.0166,0.0095 0.08090058,0.08090058 0 0 0 -0.002,0.0015 0.08090058,0.08090058 0 0 0 -0.008,0.0076 0.08090058,0.08090058 0 0 0 -0.008,0.009 0.08090058,0.08090058 0 0 0 -0.004,0.0061 0.08090058,0.08090058 0 0 0 -0.006,0.009 0.08090058,0.08090058 0 0 0 -9.1e-4,0.0033 0.08090058,0.08090058 0 0 0 -9.2e-4,0.0019 0.08090058,0.08090058 0 0 0 -0.002,0.0057 0.08090058,0.08090058 0 0 0 -0.003,0.0128 0.08090058,0.08090058 0 0 0 0,0.0095 0.08090058,0.08090058 0 0 0 9.2e-4,0.01091 0.08090058,0.08090058 0 0 0 0.003,0.0095 0.08090058,0.08090058 0 0 0 0.004,0.01091 0.08090058,0.08090058 0 0 0 0.005,0.0076 0.08090058,0.08090058 0 0 0 0.007,0.01091 0.08090058,0.08090058 0 0 0 0.005,0.0048 0.08090058,0.08090058 0 0 0 0.0105,0.009 0.08090058,0.08090058 0 0 0 0.005,0.0033 0.08090058,0.08090058 0 0 0 0.009,0.0057 c 0.0617,0.02542 0.10152,0.08545 0.10049,0.152162 -9.2e-4,0.06672 -0.0432,0.125367 -0.10571,0.148845 a 0.08090058,0.08090058 0 0 0 -0.0516,0.07964 0.08090058,0.08090058 0 0 0 0.003,0.01848 0.08090058,0.08090058 0 0 0 4.8e-4,0.0024 0.08090058,0.08090058 0 0 0 9.2e-4,0.0024 0.08090058,0.08090058 0 0 0 9.2e-4,0.0028 0.08090058,0.08090058 0 0 0 0.002,0.0038 0.08090058,0.08090058 0 0 0 0.007,0.01375 0.08090058,0.08090058 0 0 0 0.005,0.0048 0.08090058,0.08090058 0 0 0 0.008,0.0095 0.08090058,0.08090058 0 0 0 0.008,0.0061 0.08090058,0.08090058 0 0 0 0.01,0.0057 0.08090058,0.08090058 0 0 0 0.005,0.0019 0.08090058,0.08090058 0 0 0 0.0157,0.0052 0.08090058,0.08090058 0 0 0 0.002,0 0.08090058,0.08090058 0 0 0 0.0199,4.73e-4 0.08090058,0.08090058 0 0 0 0.0166,-0.0028 c 0.13962,-0.04356 0.24292,-0.159682 0.24554,-0.299111 0.003,-0.139428 -0.0964,-0.259432 -0.23464,-0.306695 a 0.08090058,0.08090058 0 0 0 -0.0208,-0.0043 z" /></g></svg>
