<?xml version="1.0" encoding="UTF-8" standalone="no"?>
<!-- Created with Inkscape (http://www.inkscape.org/) -->

<svg
   width="6.0000005pt"
   height="6.0000005pt"
   viewBox="0 0 2.1166669 2.1166668"
   version="1.1"
   id="svg1"
   xml:space="preserve"
   xmlns="http://www.w3.org/2000/svg"
   xmlns:svg="http://www.w3.org/2000/svg"><defs
     id="defs1" /><g
     id="layer1"
     transform="translate(-737.36121,-14.002763)"><path
       id="circle502"
       style="fill:#c44e52;stroke:none;stroke-width:0.352778;stroke-opacity:1"
       d="m 738.41953,14.002763 a 1.0583333,1.0583333 0 0 0 -1.05833,1.058333 1.0583333,1.0583333 0 0 0 1.05833,1.058334 1.0583333,1.0583333 0 0 0 1.05834,-1.058334 1.0583333,1.0583333 0 0 0 -1.05834,-1.058333 z m -0.4532,0.37052 h 0.49764 c 0.0974,0 0.18622,0.01349 0.26666,0.04031 0.0804,0.0254 0.14425,0.06982 0.19223,0.133325 0.048,0.06209 0.0724,0.14714 0.0724,0.255798 0,0.105833 -0.0244,0.19206 -0.0724,0.258382 -0.0439,0.06065 -0.10107,0.107196 -0.17208,0.139527 l 0.31212,0.552421 h -0.34933 l -0.26406,-0.497128 h -0.17209 v 0.497128 h -0.31109 z m 0.31109,0.24753 v 0.387573 h 0.16072 c 0.0818,0 0.14422,-0.01729 0.18655,-0.05116 0.0437,-0.03528 0.0656,-0.08678 0.0656,-0.154513 0,-0.06773 -0.0219,-0.114782 -0.0656,-0.141593 -0.0423,-0.02681 -0.10471,-0.04031 -0.18655,-0.04031 z" /></g></svg>
