<?xml version="1.0" encoding="UTF-8" standalone="no"?>
<!-- Created with Inkscape (http://www.inkscape.org/) -->

<svg
   width="6.9990234pt"
   height="6.0014648pt"
   viewBox="0 0 2.4691 2.1171834"
   version="1.1"
   id="svg1"
   xml:space="preserve"
   xmlns="http://www.w3.org/2000/svg"
   xmlns:svg="http://www.w3.org/2000/svg"><defs
     id="defs1" /><g
     id="layer1"
     transform="translate(-737.36121,-21.410063)"><g
       id="circle513"><path
         id="path96"
         style="color:#000000;fill:#64b5cd;-inkscape-stroke:none"
         d="m 738.3322,21.410063 c -0.53475,0 -0.971,0.436254 -0.971,0.971 0,0.525445 0.42113,0.955164 0.94309,0.969967 0.15789,0.110855 0.3499,0.176216 0.55708,0.176216 0.53475,0 0.96893,-0.43367 0.96893,-0.968416 0,-0.524826 -0.41843,-0.95471 -0.93948,-0.970483 -0.15791,-0.112105 -0.35059,-0.178284 -0.55862,-0.178284 z m 0,0.177767 c 0.43942,0 0.79272,0.353813 0.79272,0.793233 0,0.439421 -0.3533,0.794784 -0.79272,0.794784 -0.43942,0 -0.7953,-0.355363 -0.7953,-0.794784 0,-0.43942 0.35588,-0.793233 0.7953,-0.793233 z m -10e-4,0.197404 c -0.0764,0 -0.14884,0.01326 -0.21704,0.04031 -0.067,0.02705 -0.12656,0.0666 -0.17829,0.118339 -0.0517,0.05174 -0.092,0.115427 -0.12144,0.190686 -0.0294,0.07408 -0.0439,0.158482 -0.0439,0.253732 0,0.129352 0.0245,0.237883 0.0739,0.326078 0.0506,0.08702 0.11843,0.153234 0.20309,0.197921 0.0858,0.04351 0.1806,0.06511 0.28526,0.06511 h 5.1e-4 c 0.0811,0 0.15428,-0.01326 0.22014,-0.04031 0.067,-0.02705 0.11985,-0.06041 0.15865,-0.09922 v -0.529167 h -0.41961 v 0.211873 h 0.19069 v 0.197404 c -0.0141,0.01177 -0.0325,0.021 -0.0548,0.02687 -0.0223,0.0059 -0.0452,0.0088 -0.0687,0.0088 -0.0718,0 -0.13164,-0.01504 -0.17984,-0.04444 -0.047,-0.0294 -0.0833,-0.07186 -0.108,-0.127124 -0.0235,-0.05644 -0.0351,-0.123785 -0.0351,-0.202571 0,-0.07644 0.0129,-0.142138 0.0388,-0.197404 0.0259,-0.05527 0.0616,-0.09772 0.10748,-0.127124 0.0459,-0.03057 0.0983,-0.04599 0.1571,-0.04599 0.0494,0 0.0906,0.008 0.12351,0.02325 0.0341,0.01411 0.0653,0.03407 0.0935,0.05994 l 0.13591,-0.157097 c -0.0376,-0.04115 -0.0868,-0.07654 -0.14676,-0.105936 -0.06,-0.0294 -0.13149,-0.04393 -0.21497,-0.04393 z m 0.77979,0.01912 c 0.31615,0.104667 0.54312,0.40248 0.54312,0.754476 0,0.439418 -0.35329,0.792716 -0.79271,0.792716 -0.0879,0 -0.17218,-0.01456 -0.25115,-0.04082 0.39931,-0.120104 0.6904,-0.491586 0.6904,-0.929659 0,-0.215651 -0.0703,-0.415304 -0.18966,-0.576709 z" /></g></g></svg>
