<?xml version="1.0" encoding="UTF-8" standalone="no"?>
<!-- Created with Inkscape (http://www.inkscape.org/) -->

<svg
   width="6.0000005pt"
   height="5.8829045pt"
   viewBox="0 0 2.1166669 2.075358"
   version="1.1"
   id="svg1"
   xml:space="preserve"
   xmlns="http://www.w3.org/2000/svg"
   xmlns:svg="http://www.w3.org/2000/svg"><defs
     id="defs1" /><g
     id="layer1"
     transform="translate(-767.66547,-50.943818)"><path
       id="path571"
       style="opacity:1;fill:#7f7f7f;stroke-width:0.176389;stroke-linecap:round"
       d="m 768.77548,50.94383 c -0.48765,-0.0017 -0.86379,0.180548 -1.11001,0.47439 0.29262,-0.143184 0.74998,-0.386494 1.22576,0 l 0.40824,-0.408761 c -0.18664,-0.04407 -0.36145,-0.06506 -0.52399,-0.06563 z m 1.00665,0.03256 -0.35191,0.117306 -1.11105,1.111043 -0.10283,-0.102319 a 0.0881945,0.0881945 0 0 0 -0.12506,0 0.0881945,0.0881945 0 0 0 0,0.125057 l 0.15761,0.156579 -0.30592,0.307475 a 0.16588748,0.16588748 0 0 0 -0.15503,0.04444 0.16588748,0.16588748 0 0 0 0,0.234611 0.16588748,0.16588748 0 0 0 0.23461,0 0.16588748,0.16588748 0 0 0 0.0444,-0.154513 l 0.30696,-0.306958 0.15865,0.157613 a 0.0881945,0.0881945 0 0 0 0.12505,0 0.0881945,0.0881945 0 0 0 0,-0.125057 l -0.10335,-0.102836 1.11053,-1.110526 z" /></g></svg>
