<?xml version="1.0" encoding="UTF-8" standalone="no"?>
<!-- Created with Inkscape (http://www.inkscape.org/) -->

<svg
   width="5.9990845pt"
   height="5.420208pt"
   viewBox="0 0 2.1163437 1.9121289"
   version="1.1"
   id="svg1"
   xml:space="preserve"
   xmlns="http://www.w3.org/2000/svg"
   xmlns:svg="http://www.w3.org/2000/svg"><defs
     id="defs1" /><g
     id="layer1"
     transform="translate(-767.63086,-56.024564)"><path
       d="m 768.29678,56.025005 c -0.0255,-5.3e-5 -0.0508,0.0032 -0.0755,0.0098 -0.0244,0.0066 -0.0479,0.0163 -0.0698,0.02894 -0.0219,0.01265 -0.0421,0.02812 -0.0599,0.04599 -0.0181,0.01786 -0.0337,0.03802 -0.0465,0.05994 -0.0127,0.02205 -0.0224,0.04569 -0.0289,0.07028 -0.004,0.01699 -0.006,0.03429 -0.007,0.05168 -0.003,4.55e-4 -0.007,9.72e-4 -0.0103,0.0016 -0.0246,0.0065 -0.0482,0.01626 -0.0703,0.02894 -0.0219,0.01281 -0.0421,0.02845 -0.0599,0.04651 -0.0179,0.01789 -0.0333,0.03805 -0.046,0.05994 -0.0127,0.02189 -0.0224,0.04535 -0.0289,0.06976 -0.007,0.02461 -0.01,0.04998 -0.01,0.07545 -10e-6,0.02529 0.003,0.05049 0.01,0.07493 0.002,0.0061 0.005,0.01214 0.007,0.01809 -10e-4,5.09e-4 -0.002,0.001 -0.004,0.0016 -0.0251,0.01449 -0.0482,0.03221 -0.0687,0.05271 -0.0205,0.0205 -0.0382,0.04361 -0.0527,0.06873 -0.0145,0.02513 -0.0256,0.05207 -0.0331,0.0801 -0.008,0.02797 -0.0113,0.05682 -0.0114,0.08578 7e-5,0.02879 0.004,0.05746 0.0114,0.08527 0.007,0.02803 0.0186,0.05496 0.0331,0.0801 0.0145,0.02512 0.0322,0.04823 0.0527,0.06873 0.0146,0.01344 0.0303,0.02555 0.047,0.03617 l -5.2e-4,5.17e-4 c -0.0127,0.02205 -0.0224,0.04569 -0.0289,0.07028 -0.007,0.02444 -0.01,0.04963 -0.01,0.07493 -6e-5,0.02547 0.003,0.05084 0.01,0.07545 0.007,0.02441 0.0163,0.04787 0.0289,0.06976 0.0127,0.0219 0.0281,0.04205 0.046,0.05994 0.018,0.01809 0.0383,0.03373 0.0605,0.04651 0.0219,0.01264 0.0454,0.02237 0.0698,0.02894 0.021,0.0051 0.0425,0.0079 0.0641,0.0083 1.7e-4,0.001 3.4e-4,0.0021 5.2e-4,0.0031 0.007,0.02441 0.0163,0.04787 0.0289,0.06976 0.0128,0.02211 0.0284,0.04244 0.0465,0.06046 0.0179,0.01788 0.038,0.03334 0.0599,0.04599 0.0219,0.01264 0.0453,0.02237 0.0698,0.02894 0.0246,0.0066 0.05,0.0099 0.0755,0.0098 0.0253,7e-6 0.0505,-0.0033 0.0749,-0.0098 0.0246,-0.0065 0.0482,-0.01626 0.0703,-0.02894 0.0219,-0.01265 0.0421,-0.02812 0.0599,-0.04599 0.0179,-0.01805 0.0334,-0.03838 0.046,-0.06046 0.0126,-0.02189 0.0224,-0.04535 0.0289,-0.06976 0.007,-0.02444 0.01,-0.04963 0.01,-0.07493 6e-5,-0.0067 -1e-4,-0.01344 -5.1e-4,-0.02015 1.4e-4,0.0022 4.3e-4,0.0045 5.1e-4,0.0067 V 57.44869 c -0.009,0.0057 -0.0176,0.01102 -0.0269,0.01602 h -5.1e-4 c -0.0109,0.0059 -0.0221,0.01169 -0.0336,0.01654 -0.0116,0.0049 -0.0235,0.0091 -0.0357,0.01292 -0.0121,0.0038 -0.0246,0.0072 -0.0372,0.0098 -0.0126,0.0026 -0.0253,0.0044 -0.0382,0.0057 -0.013,0.0013 -0.0265,0.0021 -0.0398,0.0021 -0.0115,-2.2e-5 -0.0229,-0.0023 -0.0336,-0.0067 -0.004,-0.0021 -0.007,-0.0046 -0.0109,-0.0072 -0.006,-0.0032 -0.0122,-0.0072 -0.0176,-0.01189 -0.005,-0.0061 -0.01,-0.01285 -0.0134,-0.02015 -0.002,-0.0026 -0.004,-0.0054 -0.006,-0.0083 -0.004,-0.01065 -0.007,-0.02206 -0.007,-0.03359 2.7e-4,-0.0021 6.2e-4,-0.0041 10e-4,-0.0062 4.3e-4,-0.0094 0.002,-0.01862 0.006,-0.02739 0.004,-0.01063 0.0109,-0.02029 0.0191,-0.02842 10e-4,-8.92e-4 0.002,-0.0018 0.004,-0.0026 0.004,-0.0035 0.009,-0.0067 0.014,-0.0093 0.003,-0.0027 0.007,-0.0051 0.0109,-0.0072 0.0106,-0.0044 0.0221,-0.0067 0.0336,-0.0067 0.007,0 0.0151,-3.22e-4 0.0222,-10e-4 0.007,-7.12e-4 0.0138,-0.0017 0.0207,-0.0031 0.003,-6.29e-4 0.006,-0.0018 0.009,-0.0026 h 5.2e-4 c 0.004,-8.91e-4 0.007,-0.0015 0.0109,-0.0026 0.007,-0.002 0.0128,-0.0046 0.0191,-0.0072 0.006,-0.0026 0.0126,-0.0056 0.0186,-0.0088 0.006,-0.0032 0.012,-0.0066 0.0176,-0.01033 0.006,-0.0038 0.0108,-0.0081 0.016,-0.0124 0.005,-0.0043 0.0102,-0.0087 0.015,-0.01344 0.005,-0.0048 0.009,-0.0098 0.0134,-0.01499 0.004,-0.0052 0.009,-0.01042 0.0124,-0.01602 0.004,-0.0056 0.007,-0.01159 0.0103,-0.01757 0.003,-0.006 0.006,-0.01228 0.009,-0.0186 0.003,-0.0063 0.005,-0.01249 0.007,-0.01912 0.002,-0.0066 0.004,-0.01325 0.005,-0.02015 10e-4,-0.0069 0.003,-0.01404 0.004,-0.02119 7.2e-4,-0.0071 0.001,-0.01435 0.001,-0.0217 1.5e-4,-0.001 3.2e-4,-0.0021 5.1e-4,-0.0031 v -0.132808 c -7e-5,-0.0037 -5.1e-4,-0.0072 -5.1e-4,-0.01085 1.6e-4,-8.64e-4 3.3e-4,-0.0017 5.1e-4,-0.0026 V 56.85814 c -1.8e-4,-8.59e-4 -3.5e-4,-0.0017 -5.1e-4,-0.0026 0,-0.0044 3.7e-4,-0.0086 5.1e-4,-0.01292 v -0.518315 c 10e-5,-0.0031 10e-6,-0.0062 0,-0.0093 7e-5,-0.009 -2.7e-4,-0.01794 -10e-4,-0.02687 -8e-4,-0.0088 -0.002,-0.01763 -0.004,-0.02636 -0.002,-0.0087 -0.004,-0.01733 -0.006,-0.02584 -0.002,-0.0087 -0.005,-0.01736 -0.008,-0.02584 -0.003,-0.0083 -0.007,-0.01636 -0.0109,-0.02429 -0.004,-0.008 -0.009,-0.01572 -0.0134,-0.02325 -0.005,-0.0076 -0.01,-0.01505 -0.015,-0.02222 -0.005,-0.0071 -0.011,-0.01405 -0.017,-0.02067 -0.006,-0.0067 -0.0125,-0.01305 -0.0191,-0.01912 -0.007,-0.006 -0.0135,-0.01169 -0.0207,-0.01705 -0.007,-0.0053 -0.0146,-0.01034 -0.0222,-0.01499 -0.008,-0.0047 -0.0153,-0.009 -0.0232,-0.01292 -0.008,-0.004 -0.016,-0.0076 -0.0243,-0.01085 -0.008,-0.0033 -0.0168,-0.0062 -0.0253,-0.0088 -0.009,-0.0025 -0.0175,-0.0045 -0.0263,-0.0062 -0.009,-0.0016 -0.0175,-0.0028 -0.0264,-0.0036 -0.009,-7.59e-4 -0.0179,-0.0011 -0.0269,-10e-4 z m 0.76584,0 c -0.0262,-1.28e-4 -0.0522,0.0032 -0.0775,0.0098 -0.0253,0.0068 -0.0496,0.01686 -0.0723,0.02997 -0.0227,0.01307 -0.0435,0.02905 -0.062,0.04754 -0.0185,0.0185 -0.0345,0.03935 -0.0475,0.06201 -0.0129,0.02273 -0.0228,0.04705 -0.0295,0.07235 -0.007,0.02528 -0.0103,0.05134 -0.0103,0.07751 2e-5,0.01309 8.6e-4,0.02633 0.003,0.03927 -10e-4,-0.0097 -0.002,-0.01965 -0.003,-0.02945 v 0.19792 c 0.009,-0.0057 0.0176,-0.01153 0.0269,-0.01654 0.0107,-0.0058 0.0213,-0.01072 0.0326,-0.0155 3.6e-4,-1.53e-4 6.7e-4,-3.65e-4 10e-4,-5.17e-4 0.0116,-0.0049 0.0235,-0.0097 0.0357,-0.01344 0.0121,-0.0038 0.0246,-0.0067 0.0372,-0.0093 0.0126,-0.0026 0.0253,-0.0044 0.0382,-0.0057 0.012,-0.0012 0.0244,-0.002 0.0367,-0.0021 10e-4,-8e-6 0.002,0 0.003,0 0.0115,2.3e-5 0.0229,0.0023 0.0336,0.0067 0.003,0.0017 0.006,0.0036 0.008,0.0057 0.007,0.0035 0.0141,0.0081 0.0202,0.01344 0.008,0.0081 0.0147,0.01779 0.0191,0.02842 0.004,0.01065 0.007,0.02206 0.007,0.03359 -6.4e-4,0.0058 -0.002,0.0115 -0.004,0.01705 -5.1e-4,0.0056 -0.002,0.01114 -0.003,0.01654 -0.004,0.01063 -0.011,0.02029 -0.0191,0.02842 -5.2e-4,3.5e-4 -10e-4,6.94e-4 -0.002,10e-4 -0.008,0.0076 -0.0169,0.01377 -0.0269,0.01809 -0.003,6.65e-4 -0.006,0.0012 -0.009,0.0016 -0.008,0.0029 -0.0163,0.0046 -0.0248,0.0052 -10e-4,0 -0.002,-1.5e-5 -0.003,0 -0.006,8.9e-5 -0.0125,4.23e-4 -0.0186,10e-4 -0.007,7.12e-4 -0.0143,0.0017 -0.0212,0.0031 -10e-4,2.78e-4 -0.003,7.29e-4 -0.004,0.001 -0.005,0.0012 -0.0112,0.0025 -0.0165,0.0041 -0.007,0.002 -0.0128,0.0046 -0.0191,0.0072 -0.006,0.0026 -0.0126,0.0056 -0.0186,0.0088 -0.006,0.0032 -0.012,0.0066 -0.0176,0.01034 -0.006,0.0038 -0.0108,0.0076 -0.016,0.01188 -0.005,0.0043 -0.0102,0.0092 -0.015,0.01395 -0.005,0.0048 -0.009,0.0093 -0.0134,0.01447 -0.004,0.0052 -0.008,0.01093 -0.0119,0.01654 -0.004,0.0056 -0.008,0.01107 -0.0109,0.01705 -0.003,0.006 -0.006,0.01228 -0.009,0.0186 -0.003,0.0063 -0.005,0.01301 -0.007,0.01964 -0.002,0.0066 -0.004,0.01325 -0.005,0.02015 -10e-4,0.0069 -0.002,0.01404 -0.003,0.02119 -7.1e-4,0.0071 -0.002,0.01435 -0.002,0.0217 v 0.120406 c 1.8e-4,8.59e-4 3.5e-4,0.0017 5.1e-4,0.0026 0,0.0124 3.4e-4,0.02463 0.002,0.03669 10e-4,0.01206 0.003,0.02399 0.006,0.03566 0.002,0.01167 0.005,0.02341 0.008,0.03462 0.003,0.01121 0.008,0.02185 0.0124,0.03256 0.005,0.0107 0.01,0.02139 0.015,0.03152 0.005,0.01013 0.0112,0.01995 0.0176,0.02945 0.006,0.0095 0.0134,0.01857 0.0207,0.02739 0.007,0.0088 0.0147,0.01725 0.0227,0.02532 0.008,0.0081 0.0165,0.01599 0.0253,0.02326 0.009,0.0073 0.0184,0.01375 0.0279,0.02015 0.002,0.0015 0.005,0.0027 0.007,0.0041 0.007,0.0048 0.0149,0.0097 0.0227,0.01395 0.007,0.0038 0.014,0.007 0.0212,0.01034 0.003,0.0015 0.006,0.0032 0.01,0.0047 0.0107,0.0045 0.0219,0.0084 0.0331,0.01189 0.0112,0.0035 0.0224,0.0064 0.0341,0.0088 0.002,4.13e-4 0.004,6.55e-4 0.006,0.001 0.01,0.0018 0.0195,0.0031 0.0295,0.0041 0.0121,0.0012 0.0243,0.0021 0.0367,0.0021 0.0115,2.2e-5 0.0229,0.0023 0.0336,0.0067 0.0106,0.0045 0.0203,0.01095 0.0284,0.01912 7.1e-4,10e-4 10e-4,0.0021 0.002,0.0031 0.007,0.0074 0.0129,0.01596 0.017,0.02532 0.004,0.01065 0.007,0.02206 0.007,0.03359 -2e-5,0.01153 -0.002,0.02294 -0.007,0.03359 -8.2e-4,0.0014 -0.002,0.0028 -0.003,0.0041 -0.004,0.009 -0.01,0.01717 -0.0165,0.02429 -0.008,0.0082 -0.0178,0.01467 -0.0284,0.01912 -0.0107,0.0044 -0.0221,0.0067 -0.0336,0.0067 -0.0184,0 -0.0364,-7.58e-4 -0.0543,-0.0026 -0.003,-2.88e-4 -0.005,-0.0012 -0.008,-0.0016 -0.015,-0.0018 -0.0298,-0.0037 -0.0444,-0.0067 -0.0144,-0.003 -0.0284,-0.0073 -0.0424,-0.01137 -0.003,-8.41e-4 -0.006,-0.0012 -0.009,-0.0021 -0.0167,-0.0052 -0.0331,-0.01081 -0.0491,-0.01757 -0.016,-0.0068 -0.0319,-0.01452 -0.047,-0.02274 -0.008,-0.0041 -0.0144,-0.009 -0.0217,-0.01344 -0.007,-0.0045 -0.015,-0.0086 -0.0222,-0.01344 -0.0143,-0.0096 -0.0281,-0.01961 -0.0413,-0.03049 -0.006,-0.0052 -0.012,-0.01109 -0.0181,-0.01654 v 0.254764 c -1.1e-4,0.0033 0,0.0065 0,0.0098 4e-5,0.02618 0.004,0.05224 0.0103,0.07752 0.007,0.0253 0.0165,0.04962 0.0295,0.07235 0.0131,0.02266 0.029,0.04351 0.0475,0.06201 0.0185,0.01849 0.0394,0.03447 0.062,0.04754 0.0227,0.01311 0.047,0.02319 0.0723,0.02997 0.0253,0.0066 0.0514,0.0099 0.0775,0.0098 0.0262,1.27e-4 0.0522,-0.0032 0.0775,-0.0098 0.0253,-0.0068 0.0497,-0.01686 0.0724,-0.02997 0.0226,-0.01307 0.0435,-0.02905 0.062,-0.04754 0.0185,-0.0185 0.0345,-0.03935 0.0475,-0.06201 0.0131,-0.0227 0.0232,-0.04703 0.03,-0.07235 1.8e-4,-0.0012 3.5e-4,-0.0024 5.2e-4,-0.0036 0.0223,-2.85e-4 0.0445,-0.0031 0.0661,-0.0083 0.0253,-0.0068 0.0496,-0.01686 0.0724,-0.02997 0.0227,-0.01307 0.0435,-0.02905 0.062,-0.04754 0.0185,-0.0185 0.0345,-0.03935 0.0476,-0.06201 0.0131,-0.0227 0.0232,-0.04703 0.03,-0.07235 0.007,-0.0253 0.01,-0.05136 0.01,-0.07751 2e-5,-0.0086 -3.2e-4,-0.01725 -10e-4,-0.02584 -6.6e-4,-0.0087 -0.002,-0.01728 -0.003,-0.02584 -0.002,-0.0087 -0.003,-0.01731 -0.006,-0.02584 -0.002,-0.0084 -0.005,-0.01666 -0.008,-0.0248 -0.003,-0.0082 -0.006,-0.01634 -0.01,-0.02429 -0.004,-0.0077 -0.008,-0.01533 -0.0119,-0.02274 l -5.2e-4,-5.17e-4 c 0.007,-0.0039 0.0136,-0.008 0.0202,-0.0124 0.0199,-0.01602 0.0379,-0.03422 0.0537,-0.05426 0.016,-0.01994 0.0297,-0.04161 0.0408,-0.0646 0.0111,-0.02309 0.0196,-0.04736 0.0253,-0.07235 0.006,-0.02493 0.008,-0.05041 0.008,-0.07596 4e-5,-0.0093 -3.1e-4,-0.01862 -10e-4,-0.02791 -8.1e-4,-0.0095 -0.002,-0.019 -0.004,-0.02842 -0.002,-0.0092 -0.003,-0.01834 -0.006,-0.02739 -0.002,-0.0092 -0.005,-0.01837 -0.008,-0.02739 -0.003,-0.0089 -0.007,-0.01772 -0.0103,-0.02635 -0.004,-0.0086 -0.008,-0.01706 -0.0124,-0.02532 -0.004,-0.0083 -0.009,-0.0164 -0.0145,-0.02429 -0.005,-0.0078 -0.0107,-0.01539 -0.0165,-0.02274 -0.006,-0.0075 -0.0118,-0.01472 -0.0181,-0.02171 -0.006,-0.0068 -0.0132,-0.01337 -0.0202,-0.01964 -0.007,-0.0065 -0.0142,-0.01271 -0.0217,-0.0186 -0.007,-0.0056 -0.0149,-0.01099 -0.0227,-0.01602 -0.007,-0.0042 -0.0133,-0.0082 -0.0202,-0.01188 0.003,-0.0061 0.005,-0.01232 0.008,-0.0186 0.007,-0.02527 0.0103,-0.05134 0.0103,-0.07752 -1.4e-4,-0.0086 -6.6e-4,-0.01725 -0.002,-0.02584 -6.6e-4,-0.0087 -0.002,-0.01727 -0.003,-0.02584 -0.002,-0.0087 -0.003,-0.01731 -0.006,-0.02584 -0.002,-0.0084 -0.005,-0.01665 -0.008,-0.02481 -0.003,-0.0082 -0.007,-0.01635 -0.0103,-0.02429 -0.004,-0.0079 -0.008,-0.01568 -0.0119,-0.02325 -0.004,-0.0074 -0.009,-0.01467 -0.014,-0.0217 -0.005,-0.0071 -0.0104,-0.01402 -0.016,-0.02067 -0.006,-0.0068 -0.0114,-0.01335 -0.0176,-0.01964 -0.006,-0.0061 -0.0125,-0.01199 -0.0191,-0.01757 -0.007,-0.0055 -0.0136,-0.01064 -0.0207,-0.0155 -0.007,-0.0051 -0.0146,-0.01 -0.0222,-0.01447 -0.008,-0.0043 -0.0153,-0.0083 -0.0233,-0.01189 -0.008,-0.0036 -0.0161,-0.0069 -0.0243,-0.0098 -0.008,-0.0029 -0.0164,-0.0055 -0.0248,-0.0078 -0.003,-7.33e-4 -0.006,-0.0014 -0.009,-0.0021 0,-6.89e-4 0,-0.0014 0,-0.0021 -6.6e-4,-0.0087 -0.002,-0.01727 -0.003,-0.02584 -0.002,-0.0085 -0.003,-0.01697 -0.006,-0.02532 -0.002,-0.0084 -0.005,-0.01666 -0.008,-0.0248 -0.003,-0.0082 -0.006,-0.01634 -0.01,-0.02429 -0.004,-0.0079 -0.008,-0.01568 -0.0119,-0.02325 -0.004,-0.0074 -0.009,-0.01467 -0.014,-0.0217 -0.005,-0.0071 -0.0104,-0.01402 -0.016,-0.02067 -0.006,-0.0068 -0.0114,-0.01335 -0.0176,-0.01964 -0.006,-0.0061 -0.0128,-0.01201 -0.0196,-0.01757 -0.007,-0.0056 -0.0136,-0.01098 -0.0207,-0.01602 -0.007,-0.005 -0.0143,-0.0096 -0.0217,-0.01395 -0.008,-0.0043 -0.0153,-0.0083 -0.0233,-0.01188 -0.008,-0.0036 -0.016,-0.0069 -0.0243,-0.0098 -0.008,-0.0031 -0.0164,-0.0059 -0.0248,-0.0083 -0.008,-0.0023 -0.0168,-0.0042 -0.0253,-0.0057 -0.009,-0.0014 -0.0172,-0.0024 -0.0258,-0.0031 -0.009,-7.31e-4 -0.0176,-0.0011 -0.0264,-0.001 z m -0.85162,0.246496 c 0.009,-5.74e-4 0.0169,1.46e-4 0.0253,0.0021 0.009,0.002 0.0174,0.0044 0.0258,0.0072 0.008,0.0028 0.0163,0.0057 0.0243,0.0093 0.008,0.0036 0.0158,0.0076 0.0233,0.01189 0.007,0.0041 0.014,0.0092 0.0207,0.01395 3.1e-4,2.18e-4 7.3e-4,2.97e-4 10e-4,5.17e-4 0.007,0.005 0.0138,0.0099 0.0202,0.0155 0.006,0.0056 0.0123,0.01192 0.0181,0.01809 0.006,0.0062 0.0114,0.01245 0.0165,0.01912 0.005,0.0067 0.01,0.01355 0.0145,0.02067 0.005,0.0071 0.009,0.01418 0.0124,0.0217 0.004,0.0075 0.008,0.01539 0.0109,0.02325 0.003,0.0079 0.005,0.01613 0.008,0.02429 0.002,0.0082 0.005,0.01641 0.006,0.0248 0.002,0.0084 0.002,0.01674 0.003,0.02532 7.1e-4,0.0086 10e-4,0.01713 10e-4,0.02584 -1.6e-4,0.0087 -10e-4,0.01757 -0.002,0.02635 -2.7e-4,0.0022 -7e-4,0.0045 -0.001,0.0067 -9.6e-4,0.0066 -0.002,0.01307 -0.004,0.01964 -0.003,0.01132 -0.007,0.02204 -0.0139,0.03152 -0.004,0.0052 -0.009,0.0099 -0.0145,0.01395 -0.003,0.0035 -0.007,0.0068 -0.0103,0.0098 -0.01,0.0062 -0.0207,0.01041 -0.032,0.0124 -0.004,1.19e-4 -0.008,-5.3e-5 -0.0124,-5.17e-4 -0.007,7.22e-4 -0.0145,5.49e-4 -0.0217,-5.17e-4 h -5.2e-4 c -0.0111,-0.0026 -0.0217,-0.0073 -0.031,-0.01395 -0.002,-0.0023 -0.005,-0.0047 -0.007,-0.0072 -0.007,-0.0052 -0.0122,-0.01128 -0.0171,-0.01809 -0.002,-0.0043 -0.004,-0.0088 -0.005,-0.01344 -0.003,-0.0059 -0.006,-0.01215 -0.007,-0.0186 -0.002,-0.01133 -0.002,-0.02291 0.001,-0.03411 10e-4,-0.006 0.002,-0.01225 0.002,-0.01809 1.5e-4,-0.0058 -5e-5,-0.0115 -10e-4,-0.01705 -9.8e-4,-0.0056 -0.003,-0.01087 -0.005,-0.01602 -0.002,-0.0052 -0.005,-0.0098 -0.008,-0.01447 -0.003,-0.0046 -0.006,-0.0089 -0.0103,-0.01292 -0.004,-0.004 -0.008,-0.0081 -0.0124,-0.01137 -0.005,-0.0032 -0.0101,-0.0059 -0.0155,-0.0083 -0.005,-0.0024 -0.0111,-0.0043 -0.0171,-0.0057 -0.0111,-0.0026 -0.0217,-0.0073 -0.031,-0.01395 -0.009,-0.0066 -0.0175,-0.01506 -0.0238,-0.0248 -0.006,-0.0098 -0.0104,-0.02065 -0.0124,-0.03204 -0.002,-0.01149 -0.002,-0.02326 10e-4,-0.03462 0.003,-0.01114 0.007,-0.02167 0.014,-0.03101 0.004,-0.0046 0.008,-0.0087 0.0129,-0.0124 0.004,-0.0042 0.008,-0.008 0.0119,-0.01137 0.01,-0.0063 0.021,-0.01047 0.0326,-0.0124 0.003,-4.7e-4 0.006,-8.43e-4 0.009,-10e-4 z m 1.13068,0.373104 c 0.006,5.7e-4 0.0122,0.0018 0.0181,0.0036 0.005,5.68e-4 0.0104,0.0016 0.0155,0.0031 5.2e-4,3.39e-4 10e-4,6.83e-4 0.002,10e-4 0.01,0.0043 0.0191,0.01045 0.0269,0.01809 0.007,0.0073 0.0125,0.01566 0.0165,0.02481 9e-4,0.0012 0.002,0.0024 0.003,0.0036 0.004,0.01065 0.007,0.02206 0.007,0.03359 -3e-5,0.01153 -0.002,0.02294 -0.007,0.03359 -8.3e-4,0.0012 -0.002,0.0024 -0.003,0.0036 -0.004,0.0091 -0.01,0.01754 -0.0165,0.02481 -0.008,0.0082 -0.0178,0.01467 -0.0284,0.01912 -0.0107,0.0044 -0.0221,0.0067 -0.0336,0.0067 -0.006,0 -0.0118,3.96e-4 -0.0176,0.0016 -0.006,0.0012 -0.0113,0.003 -0.0165,0.0052 -0.005,0.0022 -0.0103,0.0051 -0.015,0.0083 -0.005,0.0031 -0.009,0.0064 -0.0129,0.01034 -0.004,0.004 -0.008,0.0082 -0.0109,0.01292 -0.003,0.0047 -0.006,0.0097 -0.008,0.01499 -0.002,0.0038 -0.003,0.0078 -0.004,0.01188 -4.1e-4,0.0016 -7.2e-4,0.0031 -0.001,0.0047 -10e-4,0.0058 -0.002,0.01194 -0.002,0.01809 -3e-5,0.01153 -0.002,0.02294 -0.007,0.03359 -0.004,0.01063 -0.0109,0.02029 -0.0191,0.02842 -0.008,0.0082 -0.0178,0.01467 -0.0284,0.01912 -0.0106,0.0044 -0.0221,0.0067 -0.0336,0.0067 -0.0115,-2.3e-5 -0.0229,-0.0023 -0.0336,-0.0067 -0.0106,-0.0045 -0.0203,-0.01095 -0.0284,-0.01912 -0.008,-0.0081 -0.0147,-0.01779 -0.0191,-0.02842 -0.004,-0.01065 -0.007,-0.02206 -0.007,-0.03359 0,-0.0045 8e-4,-0.009 10e-4,-0.01344 2.3e-4,-0.0045 6e-5,-0.009 5.2e-4,-0.01344 9.1e-4,-0.0088 0.002,-0.01729 0.004,-0.02584 0.002,-0.0085 0.004,-0.01709 0.007,-0.02532 0.002,-0.0054 0.004,-0.01075 0.006,-0.01602 0.001,-0.0027 0.002,-0.0056 0.003,-0.0083 0.003,-0.0079 0.007,-0.01527 0.0114,-0.02274 0.004,-0.0075 0.009,-0.01469 0.0134,-0.0217 0.005,-0.007 0.01,-0.01415 0.015,-0.02067 0.005,-0.0065 0.0111,-0.01262 0.017,-0.0186 0.006,-0.006 0.0126,-0.01166 0.0191,-0.01705 0.007,-0.0054 0.0131,-0.01023 0.0202,-0.01499 0.007,-0.0048 0.0142,-0.0094 0.0217,-0.01344 0.007,-0.0041 0.0154,-0.008 0.0232,-0.01137 0.008,-0.0034 0.0155,-0.0062 0.0238,-0.0088 0.005,-0.0016 0.0103,-0.0029 0.0155,-0.0041 0.003,-8.1e-4 0.007,-0.0019 0.01,-0.0026 0.009,-0.0018 0.017,-0.0027 0.0258,-0.0036 0.009,-9.08e-4 0.0178,-0.0016 0.0269,-0.0016 z m -1.21647,0.118856 v 5.16e-4 c 0.0116,1.87e-4 0.023,0.0026 0.0336,0.0072 0.0109,0.0045 0.0207,0.01123 0.0289,0.01964 0.006,0.0065 0.0117,0.01368 0.0171,0.02067 0.004,0.005 0.007,0.0098 0.0109,0.01499 0.001,0.0021 0.003,0.0041 0.004,0.0062 0.005,0.0074 0.009,0.01503 0.0129,0.02274 0.004,0.0077 0.007,0.0158 0.01,0.02377 0.003,0.008 0.006,0.01611 0.008,0.02429 0.002,0.0082 0.004,0.01649 0.006,0.02481 10e-4,0.0083 0.002,0.01641 0.003,0.0248 5.7e-4,0.0084 7.4e-4,0.01692 5.2e-4,0.02532 -2.3e-4,0.0084 -5.3e-4,0.01697 -0.002,0.02532 -0.001,0.0084 -0.003,0.01656 -0.005,0.02481 -0.002,0.0082 -0.004,0.01622 -0.007,0.02429 -0.003,0.0081 -0.005,0.01595 -0.009,0.02377 -0.003,0.0078 -0.007,0.01573 -0.0114,0.02325 -0.004,0.0075 -0.009,0.01507 -0.014,0.02222 -0.004,0.0057 -0.008,0.01107 -0.0129,0.01654 -0.001,0.0013 -0.002,0.0028 -0.003,0.0041 -0.006,0.0067 -0.0121,0.0134 -0.0186,0.01964 -0.008,0.008 -0.0182,0.01436 -0.0289,0.0186 -0.0109,0.0043 -0.0224,0.0064 -0.0341,0.0062 -0.0116,-1.86e-4 -0.023,-0.0026 -0.0336,-0.0072 -0.0107,-0.0046 -0.0203,-0.01128 -0.0284,-0.01964 -0.008,-0.0085 -0.0141,-0.01854 -0.0181,-0.02946 -0.004,-0.01088 -0.006,-0.02248 -0.006,-0.03411 7.6e-4,-0.0051 0.002,-0.01011 0.004,-0.01499 7e-4,-0.0063 0.002,-0.01257 0.004,-0.0186 0.005,-0.01053 0.0117,-0.02002 0.0201,-0.0279 0.005,-0.0043 0.008,-0.0092 0.0119,-0.01395 0.003,-0.0048 0.006,-0.0098 0.009,-0.01499 0.002,-0.0052 0.004,-0.01009 0.005,-0.0155 10e-4,-0.0054 0.002,-0.01103 0.003,-0.01654 1.8e-4,-0.0055 -1.3e-4,-0.01107 -0.001,-0.01654 -9.1e-4,-0.0055 -0.003,-0.01075 -0.005,-0.01602 -0.002,-0.0053 -0.005,-0.01057 -0.008,-0.0155 -0.003,-0.0049 -0.007,-0.0095 -0.0109,-0.01395 -0.008,-0.0083 -0.0147,-0.01812 -0.0191,-0.02894 -0.003,-0.0078 -0.004,-0.01601 -0.005,-0.02429 -7e-4,-0.0032 -10e-4,-0.0065 -0.002,-0.0098 3.5e-4,-0.0116 0.003,-0.02301 0.008,-0.03359 0.005,-0.01067 0.0113,-0.02034 0.0196,-0.02842 0.008,-0.0079 0.0182,-0.014 0.0289,-0.01809 0.0107,-0.0041 0.0221,-0.006 0.0336,-0.0057 z"
       style="opacity:1;fill:#ccb974;stroke-width:0.176388;stroke-linecap:round"
       id="path747" /></g></svg>
