<?xml version="1.0" encoding="UTF-8" standalone="no"?>
<!-- Created with Inkscape (http://www.inkscape.org/) -->

<svg
   width="4.7927856pt"
   height="6.0000005pt"
   viewBox="0 0 1.6907883 2.1166668"
   version="1.1"
   id="svg1"
   xml:space="preserve"
   xmlns="http://www.w3.org/2000/svg"
   xmlns:svg="http://www.w3.org/2000/svg"><defs
     id="defs1" /><g
     id="layer1"
     transform="translate(-767.87842,-68.266984)"><path
       id="path37"
       style="fill:#333;stroke-width:1"
       d="m 768.51603,68.266982 c 0.37981,0.519442 -0.13333,0.493082 -0.24081,0.976811 -0.14394,-0.139746 -0.077,-0.28809 -0.047,-0.348937 -0.55155,0.310905 -0.50841,1.519365 0.54638,1.488201 0.99582,-0.02942 0.86924,-1.038665 0.61221,-1.172173 -0.002,0.04059 -0.0421,0.153814 -0.12119,0.145215 -0.29937,-0.03257 0.25485,-0.904686 -0.74958,-1.089117 z m 0.34319,0.679066 c -0.11752,0.706614 0.28138,0.558218 0.27633,0.949648 -10e-4,0.112568 -0.13053,0.309614 -0.42311,0.309759 -0.17747,8.8e-5 -0.50067,-0.211781 -0.32491,-0.608026 0.0177,0.08782 0.13099,0.167207 0.19902,0.171856 -0.003,-0.08873 -0.22235,-0.522932 0.27267,-0.823237 z" /></g></svg>
