<?xml version="1.0" encoding="UTF-8" standalone="no"?>
<!-- Created with Inkscape (http://www.inkscape.org/) -->

<svg
   width="5.6314087pt"
   height="6.0000229pt"
   viewBox="0 0 1.9866359 2.1166747"
   version="1.1"
   id="svg1"
   xml:space="preserve"
   xmlns="http://www.w3.org/2000/svg"
   xmlns:svg="http://www.w3.org/2000/svg"><defs
     id="defs1" /><g
     id="layer1"
     transform="translate(-767.73047,-63.676377)"><path
       d="m 769.354,63.676395 c -0.0281,-3.2e-5 -0.0561,0.0036 -0.0832,0.01085 -0.0271,0.0072 -0.0532,0.01802 -0.0775,0.03204 -0.0244,0.01406 -0.0468,0.03126 -0.0667,0.05116 -0.0199,0.01989 -0.0371,0.0423 -0.0512,0.06666 -0.014,0.02433 -0.0248,0.05039 -0.032,0.07751 -0.007,0.02714 -0.0109,0.05511 -0.0109,0.0832 -3e-5,0.02809 0.004,0.05606 0.0109,0.0832 0.007,0.02713 0.018,0.05319 0.032,0.07751 0.0141,0.02436 0.0313,0.04677 0.0512,0.06666 0.0199,0.0199 0.0423,0.0371 0.0667,0.05116 0.0243,0.01402 0.0504,0.02479 0.0775,0.03204 0.0271,0.0072 0.0551,0.01088 0.0832,0.01085 0.0281,3.2e-5 0.0561,-0.0036 0.0832,-0.01085 0.0271,-0.0072 0.0532,-0.01802 0.0775,-0.03204 0.0244,-0.01406 0.0468,-0.03126 0.0667,-0.05116 0.0199,-0.01989 0.0371,-0.0423 0.0512,-0.06666 0.014,-0.02433 0.0248,-0.05039 0.032,-0.07751 0.007,-0.02714 0.0109,-0.05511 0.0109,-0.0832 6e-5,-0.0093 -2.9e-4,-0.01862 -0.001,-0.02791 -8e-4,-0.0093 -0.002,-0.01866 -0.004,-0.02791 -0.002,-0.0092 -0.004,-0.01835 -0.006,-0.02739 -0.002,-0.0091 -0.005,-0.01804 -0.008,-0.02687 -0.003,-0.0088 -0.007,-0.01739 -0.0109,-0.02584 -0.004,-0.0085 -0.008,-0.01673 -0.0129,-0.02481 -0.005,-0.0081 -0.01,-0.01607 -0.015,-0.02377 -0.005,-0.0077 -0.0111,-0.01506 -0.0171,-0.02222 -0.006,-0.0072 -0.0124,-0.01406 -0.0191,-0.02067 -0.007,-0.0067 -0.0135,-0.01305 -0.0207,-0.01912 -0.007,-0.006 -0.0146,-0.01169 -0.0222,-0.01705 -0.008,-0.0053 -0.0156,-0.01034 -0.0238,-0.01499 -0.008,-0.0047 -0.0164,-0.009 -0.0248,-0.01292 -0.008,-0.004 -0.0171,-0.0076 -0.0258,-0.01085 -0.009,-0.0031 -0.0178,-0.0059 -0.0269,-0.0083 -0.009,-0.0025 -0.0182,-0.0045 -0.0274,-0.0062 -0.009,-0.0016 -0.0186,-0.0028 -0.0279,-0.0036 -0.009,-7.49e-4 -0.0186,-0.0011 -0.0279,-10e-4 z m -0.72192,0.143661 c -0.0168,6.13e-4 -0.0335,0.0036 -0.0496,0.0088 -0.0185,0.006 -0.0359,0.01491 -0.0517,0.02635 -0.0157,0.01154 -0.0295,0.0255 -0.0408,0.04134 -0.0114,0.01557 -0.0203,0.03284 -0.0264,0.05116 -0.006,0.01851 -0.009,0.03787 -0.009,0.05736 6e-5,0.01949 0.003,0.03885 0.009,0.05736 0.006,0.0185 0.0149,0.03594 0.0264,0.05168 0.0114,0.01566 0.0252,0.02944 0.0408,0.04082 0.0157,0.01145 0.0332,0.02034 0.0517,0.02635 0.0184,0.0059 0.0376,0.0088 0.0568,0.0088 0.0195,1.05e-4 0.0388,-0.0029 0.0574,-0.0088 0.0185,-0.006 0.0359,-0.01491 0.0517,-0.02635 0.0157,-0.01139 0.0294,-0.02517 0.0408,-0.04082 0.0114,-0.01573 0.0203,-0.03317 0.0264,-0.05168 0.006,-0.01851 0.009,-0.03787 0.009,-0.05736 -1.4e-4,-0.0069 -6.5e-4,-0.01381 -0.002,-0.02067 -6.4e-4,-0.0069 -0.002,-0.01385 -0.003,-0.02067 -0.002,-0.0066 -0.003,-0.0132 -0.006,-0.01964 -0.002,-0.0065 -0.005,-0.01291 -0.008,-0.01912 -0.003,-0.0062 -0.006,-0.01225 -0.01,-0.01809 -0.004,-0.0059 -0.008,-0.01161 -0.0124,-0.01705 -0.004,-0.0054 -0.009,-0.01059 -0.0134,-0.0155 -0.005,-0.0049 -0.0101,-0.0096 -0.0155,-0.01395 -0.005,-0.0043 -0.0112,-0.0082 -0.0171,-0.01188 -0.006,-0.0038 -0.0119,-0.0072 -0.0181,-0.01034 -0.006,-0.0029 -0.0126,-0.0055 -0.0191,-0.0078 -0.007,-0.0023 -0.0133,-0.0042 -0.0202,-0.0057 -0.007,-0.0016 -0.0134,-0.0028 -0.0202,-0.0036 -0.007,-7.49e-4 -0.0141,-0.0011 -0.0212,-10e-4 -0.002,-7e-6 -0.005,-8.8e-5 -0.007,0 z m -0.58291,0.251664 c -0.0279,-2e-5 -0.0557,0.0036 -0.0827,0.01085 -0.0269,0.0071 -0.0528,0.01769 -0.077,0.03152 -0.024,0.01395 -0.0461,0.03098 -0.0656,0.05064 -0.0197,0.01974 -0.0367,0.04198 -0.0506,0.06615 -0.014,0.02415 -0.0248,0.05004 -0.032,0.077 -0.007,0.0268 -0.0108,0.05442 -0.0108,0.08217 -2e-5,0.02792 0.004,0.05572 0.0108,0.08268 0.007,0.02678 0.0181,0.05249 0.032,0.07648 0.0139,0.02417 0.0309,0.04641 0.0506,0.06615 0.0196,0.01967 0.0416,0.03669 0.0656,0.05064 0.0241,0.01401 0.05,0.02478 0.077,0.03204 0.027,0.0072 0.0548,0.01087 0.0827,0.01085 0.0278,-2.5e-5 0.0554,-0.0037 0.0822,-0.01085 0.027,-0.0073 0.0528,-0.01803 0.077,-0.03204 0.0242,-0.01391 0.0464,-0.03094 0.0661,-0.05064 0.0197,-0.01974 0.0367,-0.04198 0.0506,-0.06615 0.0138,-0.02402 0.0244,-0.04973 0.0315,-0.07648 0.007,-0.02697 0.0109,-0.05477 0.0109,-0.08268 6e-5,-0.0093 -2.8e-4,-0.01862 -10e-4,-0.02791 -8.1e-4,-0.0092 -0.002,-0.01832 -0.004,-0.02739 -0.002,-0.009 -0.004,-0.01801 -0.006,-0.02687 -0.002,-0.0091 -0.005,-0.01804 -0.008,-0.02687 -0.003,-0.0086 -0.007,-0.01703 -0.0103,-0.02532 -0.004,-0.0085 -0.008,-0.01673 -0.0129,-0.02481 -0.005,-0.0081 -0.01,-0.01607 -0.015,-0.02377 -0.005,-0.0075 -0.0111,-0.01472 -0.0171,-0.0217 -0.006,-0.0072 -0.0121,-0.01405 -0.0186,-0.02067 -0.007,-0.0065 -0.0135,-0.01271 -0.0207,-0.0186 -0.007,-0.006 -0.0146,-0.0117 -0.0222,-0.01705 -0.008,-0.0053 -0.0153,-0.01033 -0.0232,-0.01499 -0.008,-0.0047 -0.0164,-0.009 -0.0248,-0.01292 -0.008,-0.0038 -0.0167,-0.0073 -0.0253,-0.01033 -0.009,-0.0032 -0.0178,-0.0059 -0.0269,-0.0083 -0.009,-0.0025 -0.0178,-0.0045 -0.0269,-0.0062 -0.009,-0.0016 -0.0182,-0.0028 -0.0274,-0.0036 -0.009,-7.52e-4 -0.0186,-0.0011 -0.0279,-0.001 z m 0.84543,0.263033 c -0.0361,-7.5e-5 -0.0721,0.0034 -0.10749,0.01033 -0.0356,0.0071 -0.0704,0.01763 -0.10387,0.03152 -0.0335,0.01387 -0.0655,0.03101 -0.0956,0.05116 -0.0301,0.02011 -0.0581,0.04313 -0.0837,0.06873 -0.0256,0.02558 -0.0486,0.05363 -0.0687,0.08372 -0.02,0.03013 -0.0369,0.06215 -0.0506,0.0956 -0.0139,0.03334 -0.0244,0.06795 -0.0315,0.103353 -0.007,0.03556 -0.0108,0.07174 -0.0109,0.108004 9e-5,0.0361 0.004,0.0721 0.0109,0.107487 0.007,0.0354 0.0177,0.07002 0.0315,0.103353 0.0137,0.03345 0.0307,0.06547 0.0506,0.0956 0.0134,0.01845 0.0279,0.03605 0.0434,0.05271 -0.0141,0.0119 -0.025,0.02437 -0.0326,0.03721 -0.008,0.0134 -0.0114,0.02709 -0.0114,0.04082 -8e-5,0.01391 0.004,0.02778 0.0114,0.04134 0.008,0.01356 0.0191,0.02674 0.0341,0.03927 0.0149,0.0125 0.0333,0.02429 0.0548,0.03514 0.0215,0.01089 0.0459,0.02077 0.0729,0.02945 0.0163,0.0048 0.0334,0.0091 0.0512,0.01292 v 0.110071 h 0.47129 v -0.110587 c 0.0175,-0.0037 0.0344,-0.0078 0.0507,-0.0124 0.0269,-0.0087 0.0514,-0.01857 0.0729,-0.02945 0.0215,-0.01085 0.0399,-0.02264 0.0548,-0.03514 0.0148,-0.01254 0.0261,-0.02572 0.0336,-0.03927 0.008,-0.01356 0.0118,-0.02742 0.0119,-0.04134 -1.1e-4,-0.0045 -6.3e-4,-0.009 -0.002,-0.01344 -7.7e-4,-0.0047 -0.002,-0.0093 -0.004,-0.01395 -0.002,-0.0045 -0.004,-0.009 -0.007,-0.01344 -0.003,-0.0045 -0.005,-0.009 -0.009,-0.01344 -0.003,-0.0044 -0.007,-0.0087 -0.0114,-0.01292 -0.003,-0.0037 -0.007,-0.0073 -0.0114,-0.01085 0.0155,-0.01666 0.03,-0.03426 0.0434,-0.05271 0.02,-0.03013 0.0369,-0.06215 0.0506,-0.0956 0.0139,-0.03334 0.0244,-0.06795 0.0315,-0.103353 0.007,-0.03539 0.0108,-0.07139 0.0109,-0.107487 -9e-5,-0.01259 -6e-4,-0.02517 -0.002,-0.03772 -7.7e-4,-0.01261 -0.002,-0.02519 -0.004,-0.03772 -0.002,-0.01247 -0.004,-0.02488 -0.007,-0.03721 -0.003,-0.01233 -0.005,-0.02456 -0.009,-0.03669 -0.003,-0.01201 -0.007,-0.0239 -0.0114,-0.03566 -0.004,-0.01187 -0.009,-0.02359 -0.014,-0.03514 -0.005,-0.01155 -0.0103,-0.02292 -0.016,-0.03411 -0.006,-0.01123 -0.012,-0.02227 -0.0186,-0.03307 -0.007,-0.01074 -0.0134,-0.02125 -0.0207,-0.03152 -0.007,-0.01025 -0.0148,-0.02024 -0.0227,-0.02997 -0.008,-0.0098 -0.0162,-0.01923 -0.0248,-0.02842 -0.009,-0.0091 -0.0176,-0.01788 -0.0269,-0.02635 -0.009,-0.0086 -0.0187,-0.01686 -0.0284,-0.02481 -0.01,-0.0079 -0.0197,-0.0155 -0.03,-0.02274 -0.0103,-0.0072 -0.0208,-0.01414 -0.0315,-0.02067 -0.0106,-0.0066 -0.0215,-0.01277 -0.0326,-0.0186 -0.0112,-0.0059 -0.0226,-0.01142 -0.0341,-0.01654 -0.0116,-0.0049 -0.0233,-0.0094 -0.0351,-0.01344 -0.0119,-0.0042 -0.024,-0.008 -0.0362,-0.01137 -0.0121,-0.0035 -0.0244,-0.0066 -0.0367,-0.0093 -0.0123,-0.0025 -0.0247,-0.0046 -0.0372,-0.0062 -0.0124,-0.0018 -0.0248,-0.0032 -0.0372,-0.0041 -0.0126,-7.74e-4 -0.0251,-0.0011 -0.0377,-0.001 z m -0.85938,0.549837 c -0.0169,7.61e-4 -0.0336,0.004 -0.0496,0.0093 -0.0185,0.006 -0.0359,0.01491 -0.0517,0.02635 -0.0158,0.01135 -0.0298,0.02513 -0.0413,0.04082 -0.0113,0.01577 -0.02,0.03321 -0.0258,0.05168 -0.006,0.01835 -0.009,0.03753 -0.009,0.05684 6e-5,0.01949 0.003,0.03885 0.009,0.05736 0.006,0.01847 0.0146,0.03591 0.0258,0.05168 0.0115,0.0157 0.0255,0.02948 0.0413,0.04082 0.0157,0.01145 0.0332,0.02034 0.0517,0.02636 0.0183,0.006 0.0375,0.0092 0.0568,0.0093 0.0195,-6.1e-5 0.0389,-0.0032 0.0574,-0.0093 0.0185,-0.006 0.0359,-0.01491 0.0517,-0.02636 0.0157,-0.01139 0.0294,-0.02516 0.0408,-0.04082 0.0114,-0.01573 0.0203,-0.03317 0.0264,-0.05168 0.006,-0.01854 0.009,-0.0379 0.009,-0.05736 4e-5,-0.0069 -3.1e-4,-0.01381 -10e-4,-0.02067 -6.6e-4,-0.0068 -0.002,-0.0135 -0.003,-0.02015 -0.002,-0.0068 -0.004,-0.01356 -0.006,-0.02015 -0.002,-0.0065 -0.005,-0.0129 -0.008,-0.01912 -0.003,-0.0062 -0.006,-0.01224 -0.01,-0.01809 -0.004,-0.0059 -0.008,-0.01161 -0.0124,-0.01705 -0.004,-0.0054 -0.009,-0.01059 -0.0134,-0.0155 -0.005,-0.0049 -0.0101,-0.0096 -0.0155,-0.01395 -0.005,-0.0043 -0.0112,-0.0082 -0.0171,-0.01189 -0.006,-0.0036 -0.0119,-0.0069 -0.0181,-0.0098 -0.006,-0.0031 -0.0126,-0.0059 -0.0191,-0.0083 -0.007,-0.0023 -0.0133,-0.0042 -0.0202,-0.0057 -0.007,-0.0016 -0.0137,-0.0028 -0.0207,-0.0036 -0.007,-7.3e-4 -0.0138,-0.0011 -0.0207,-0.001 -0.002,1.5e-5 -0.005,-1.09e-4 -0.007,0 z m 0.62632,0.02274 c 0.006,-3.3e-5 0.0114,3.12e-4 0.017,0.001 0.006,6.72e-4 0.0111,0.0017 0.0165,0.0031 0.005,0.0015 0.0108,0.0034 0.016,0.0057 0.005,0.0021 0.0101,0.0045 0.015,0.0072 0.005,0.0028 0.01,0.0059 0.014,0.0093 0.004,0.0035 0.009,0.0073 0.0124,0.01137 0.004,0.0039 0.008,0.008 0.0114,0.0124 0.003,0.0044 0.006,0.0091 0.009,0.01395 0.003,0.005 0.006,0.01017 0.008,0.0155 0.002,0.0052 0.004,0.01057 0.005,0.01602 10e-4,0.0054 0.002,0.01096 0.003,0.01654 8.7e-4,0.0055 10e-4,0.011 0.002,0.01654 3e-5,0.01702 -0.003,0.03388 -0.01,0.04961 -0.007,0.01551 -0.0163,0.02956 -0.0284,0.04134 -0.0118,0.0119 -0.0259,0.02138 -0.0413,0.0279 -0.004,0.0011 -0.009,0.002 -0.0134,0.0026 -10e-4,1.85e-4 -0.002,3.57e-4 -0.003,5.16e-4 -10e-4,3.58e-4 -0.002,7.03e-4 -0.003,0.001 -0.007,0.0014 -0.0145,0.0031 -0.0217,0.0047 -0.003,4.82e-4 -0.005,8.4e-4 -0.008,10e-4 -0.0168,-3.1e-5 -0.0335,-0.0034 -0.0491,-0.0098 -0.0157,-0.0065 -0.0299,-0.01594 -0.0419,-0.0279 -0.0119,-0.01183 -0.0214,-0.02588 -0.0279,-0.04134 -0.007,-0.01573 -0.01,-0.03259 -0.01,-0.04961 4e-5,-0.01685 0.003,-0.03353 0.01,-0.04909 0.006,-0.01565 0.0159,-0.02987 0.0279,-0.04186 0.012,-0.01196 0.0262,-0.02144 0.0419,-0.02791 0.0156,-0.0065 0.0322,-0.0098 0.0491,-0.0098 z m 0.46612,0 c 0.006,-1.1e-5 0.0111,3.34e-4 0.0165,0.001 0.006,6.72e-4 0.0111,0.0017 0.0165,0.0031 0.005,0.0015 0.0108,0.0034 0.016,0.0057 0.005,0.0021 0.0101,0.0045 0.015,0.0072 0.005,0.0028 0.01,0.0059 0.0145,0.0093 0.004,0.0035 0.009,0.0073 0.0124,0.01137 0.004,0.0039 0.008,0.008 0.0114,0.0124 0.003,0.0044 0.007,0.0091 0.009,0.01395 0.003,0.005 0.005,0.01018 0.007,0.0155 0.002,0.0052 0.004,0.01056 0.006,0.01602 10e-4,0.0054 0.002,0.01096 0.003,0.01654 7e-4,0.0055 10e-4,0.01101 10e-4,0.01654 4e-5,0.01702 -0.003,0.03388 -0.01,0.04961 -0.007,0.01547 -0.016,0.02951 -0.0279,0.04134 -0.012,0.01196 -0.0262,0.02144 -0.0419,0.0279 -0.0156,0.0065 -0.0322,0.0098 -0.0491,0.0098 -10e-4,-1.55e-4 -0.002,-3.27e-4 -0.004,-5.16e-4 -0.0104,-8.28e-4 -0.0206,-0.0029 -0.0305,-0.0062 -0.005,-7.15e-4 -0.0104,-0.0018 -0.0155,-0.0031 -0.0157,-0.0065 -0.0299,-0.01594 -0.0419,-0.0279 -0.0119,-0.01183 -0.0214,-0.02588 -0.0279,-0.04134 -0.007,-0.01573 -0.01,-0.03259 -0.01,-0.04961 3e-5,-0.01685 0.003,-0.03353 0.01,-0.04909 0.006,-0.01565 0.0159,-0.02987 0.0279,-0.04186 0.012,-0.01196 0.0262,-0.02144 0.0419,-0.02791 0.0157,-0.0065 0.0326,-0.0099 0.0496,-0.0098 z m -0.23306,0.191719 0.0232,0.04082 0.0439,0.07596 0.063,0.109037 h -0.26096 l 0.063,-0.109037 0.0439,-0.07545 z m 0.62993,0.323495 c -0.017,7.25e-4 -0.0339,0.004 -0.0501,0.0093 -0.0183,0.0061 -0.0356,0.01496 -0.0512,0.02635 -0.0158,0.01135 -0.0298,0.02513 -0.0413,0.04082 -0.0114,0.01573 -0.0203,0.03317 -0.0264,0.05168 -0.006,0.01854 -0.009,0.0379 -0.009,0.05736 -5e-5,0.01929 0.003,0.03847 0.009,0.05684 0.006,0.0185 0.0149,0.03594 0.0264,0.05168 0.0115,0.0157 0.0255,0.02948 0.0413,0.04082 0.0156,0.0114 0.0328,0.02029 0.0512,0.02636 0.0185,0.0061 0.0379,0.0092 0.0574,0.0093 0.0195,-6.2e-5 0.0389,-0.0032 0.0574,-0.0093 0.0185,-0.006 0.0359,-0.01491 0.0517,-0.02636 0.0157,-0.01139 0.0294,-0.02517 0.0408,-0.04082 0.0114,-0.01573 0.0203,-0.03317 0.0264,-0.05168 0.006,-0.01837 0.009,-0.03755 0.009,-0.05684 6e-5,-0.0071 -2.8e-4,-0.01415 -10e-4,-0.02119 -8.4e-4,-0.0068 -0.002,-0.01351 -0.004,-0.02015 -0.002,-0.0068 -0.003,-0.01355 -0.006,-0.02015 -0.002,-0.0065 -0.005,-0.0129 -0.008,-0.01912 -0.003,-0.0062 -0.007,-0.01226 -0.0103,-0.01809 -0.004,-0.0059 -0.008,-0.0116 -0.0119,-0.01705 -0.004,-0.0054 -0.009,-0.0106 -0.014,-0.0155 -0.005,-0.0048 -0.0101,-0.0092 -0.0155,-0.01344 -0.005,-0.0044 -0.0108,-0.0086 -0.0165,-0.0124 -0.006,-0.0036 -0.0122,-0.0069 -0.0186,-0.0098 -0.006,-0.0031 -0.0126,-0.0059 -0.0191,-0.0083 -0.006,-0.0023 -0.013,-0.0042 -0.0196,-0.0057 -0.007,-0.0014 -0.0137,-0.0025 -0.0207,-0.0031 -0.007,-9.02e-4 -0.0138,-0.0014 -0.0207,-0.0015 -0.002,7e-6 -0.005,-1.04e-4 -0.007,0 z"
       style="opacity:1;fill:#da8bc3;stroke-width:0.176388;stroke-linecap:round"
       id="path361" /></g></svg>
