<?xml version="1.0" encoding="UTF-8" standalone="no"?>
<!-- Created with Inkscape (http://www.inkscape.org/) -->

<svg
   width="6.0000005pt"
   height="6.0000005pt"
   viewBox="0 0 2.1166669 2.1166668"
   version="1.1"
   id="svg1"
   xml:space="preserve"
   xmlns="http://www.w3.org/2000/svg"
   xmlns:svg="http://www.w3.org/2000/svg"><defs
     id="defs1" /><g
     id="layer1"
     transform="translate(-767.66547,-58.384721)"><path
       id="path6"
       style="fill:#dd8452;stroke:none;stroke-width:0.176389"
       d="m 768.72381,58.384722 -0.17571,0.652156 -0.66352,-0.475939 0.49454,0.68988 -0.71365,0.192237 0.71365,0.192236 -0.49454,0.68988 0.66352,-0.47594 0.17571,0.652156 0.18913,-0.703832 0.73536,0.527616 -0.5085,-0.709517 0.64234,-0.172599 -0.64234,-0.1726 0.5085,-0.709517 -0.73536,0.527616 z m 0,0.79375 a 0.26458516,0.26458335 0 0 1 0.26458,0.264584 0.26458516,0.26458335 0 0 1 -0.26458,0.264583 0.26458516,0.26458335 0 0 1 -0.26459,-0.264583 0.26458516,0.26458335 0 0 1 0.26459,-0.264584 z" /></g></svg>
