<?xml version="1.0" encoding="UTF-8" standalone="no"?>
<!-- Created with Inkscape (http://www.inkscape.org/) -->

<svg
   width="6.0000005pt"
   height="5.9998512pt"
   viewBox="0 0 2.1166669 2.1166142"
   version="1.1"
   id="svg1"
   xml:space="preserve"
   xmlns="http://www.w3.org/2000/svg"
   xmlns:svg="http://www.w3.org/2000/svg"><defs
     id="defs1" /><g
     id="layer1"
     transform="translate(-802.90965,-38.629219)"><path
       id="path183"
       style="fill:#4c72b0;stroke-width:0.352778"
       d="m 804.06462,38.633818 0.21084,0.647506 h 0.66973 c -0.005,-0.01285 -0.0108,-0.0256 -0.0165,-0.03824 -0.008,-0.01728 -0.0164,-0.03434 -0.0253,-0.05116 -0.009,-0.01696 -0.0185,-0.03368 -0.0284,-0.05013 -0.01,-0.01629 -0.0199,-0.03232 -0.0305,-0.04806 -0.0108,-0.0158 -0.022,-0.03131 -0.0336,-0.04651 -0.0117,-0.01531 -0.0237,-0.0303 -0.0362,-0.04496 -0.0124,-0.01447 -0.0251,-0.0286 -0.0382,-0.04237 -0.0131,-0.01397 -0.0265,-0.02758 -0.0403,-0.04082 -0.014,-0.01313 -0.0282,-0.02589 -0.0429,-0.03824 -0.0145,-0.01228 -0.0293,-0.02417 -0.0444,-0.03566 -0.0152,-0.01161 -0.0307,-0.02282 -0.0465,-0.03359 -0.0159,-0.01077 -0.0321,-0.02111 -0.0486,-0.03101 -0.0163,-0.0097 -0.0328,-0.01905 -0.0496,-0.02791 -0.017,-0.0091 -0.0342,-0.0177 -0.0517,-0.02584 -0.0174,-0.0079 -0.0349,-0.01529 -0.0527,-0.02222 -0.0177,-0.0072 -0.0357,-0.01392 -0.0537,-0.02015 -0.0181,-0.006 -0.0364,-0.01152 -0.0548,-0.01654 -0.0183,-0.0051 -0.0367,-0.0098 -0.0553,-0.01395 -0.0187,-0.0041 -0.0375,-0.0077 -0.0563,-0.01085 -0.0189,-0.0031 -0.0378,-0.0057 -0.0568,-0.0078 -0.006,-5.68e-4 -0.0121,-10e-4 -0.0181,-0.0016 z m -0.19327,0.0031 c -0.023,9.76e-4 -0.0459,0.0027 -0.0687,0.0052 -0.0547,0.0087 -0.10858,0.02164 -0.16123,0.03876 -0.0527,0.01713 -0.10406,0.03839 -0.15348,0.06356 -0.0494,0.02519 -0.0967,0.05421 -0.14159,0.08682 -0.045,0.03262 -0.0873,0.06874 -0.12661,0.108004 -0.0391,0.03916 -0.075,0.08132 -0.10748,0.12609 -0.0326,0.04485 -0.0616,0.09219 -0.0868,0.141593 -0.0113,0.0244 -0.0216,0.04922 -0.031,0.07441 h 0.66766 z m 0.0971,0.271302 -0.12092,0.373104 h 0.24236 z m -0.75551,0.55087 0.31626,0.230477 0.076,-0.230477 z m 0.5762,0 -0.10956,0.339515 0.28887,0.209289 0.28939,-0.21084 -0.10955,-0.337964 z m 0.5426,0 0.0744,0.230477 0.31626,-0.230477 z m 0.67179,0.01292 -0.54053,0.393257 0.19999,0.615983 c 0.0184,-0.01456 0.0363,-0.02973 0.0537,-0.04548 0.0391,-0.03916 0.075,-0.08132 0.10749,-0.12609 0.0326,-0.04485 0.0616,-0.0922 0.0868,-0.141594 0.0252,-0.04941 0.0464,-0.100733 0.0636,-0.153479 0.0172,-0.05282 0.0301,-0.106898 0.0388,-0.161747 0.009,-0.0547 0.0129,-0.10999 0.0129,-0.165365 0,-0.01913 -5.8e-4,-0.03826 -0.002,-0.05736 -10e-4,-0.01899 -0.003,-0.03794 -0.005,-0.05684 -0.002,-0.01901 -0.005,-0.03797 -0.008,-0.05684 -0.002,-0.01487 -0.005,-0.02968 -0.008,-0.04444 z m -2.06912,0.0021 c -0.004,0.01593 -0.008,0.03195 -0.0114,0.04806 -0.009,0.05468 -0.0133,0.109976 -0.0134,0.165364 1.5e-4,0.05539 0.005,0.11068 0.0134,0.165365 0.009,0.05485 0.0216,0.108932 0.0388,0.161747 0.0171,0.05275 0.0384,0.104064 0.0636,0.153479 0.0252,0.0494 0.0542,0.09674 0.0868,0.141594 0.0325,0.04477 0.0684,0.08693 0.10748,0.12609 0.0171,0.01556 0.0347,0.03055 0.0527,0.04496 l 0.19999,-0.615467 z m 1.37976,0.498677 -0.19689,0.144177 0.31833,0.230477 z m -0.69143,0.0021 -0.12092,0.371037 0.31626,-0.22841 z m 0.34571,0.249597 -0.52296,0.380339 c 0.0139,0.0089 0.028,0.01756 0.0424,0.02584 0.0494,0.02518 0.10074,0.04643 0.15348,0.06356 0.0526,0.01712 0.10656,0.03008 0.16123,0.03876 0.0547,0.0086 0.10999,0.01295 0.16537,0.01292 0.0555,5.3e-5 0.11101,-0.0043 0.16588,-0.01292 0.0547,-0.0087 0.10858,-0.02164 0.16123,-0.03876 0.0527,-0.01713 0.10406,-0.03839 0.15348,-0.06356 0.0141,-0.0083 0.0281,-0.0169 0.0419,-0.02584 z" /><path
       d="m 804.06462,38.633818 a 1.0583333,1.0583333 0 0 0 -0.0393,-0.0031 1.0583333,1.0583333 0 0 0 -0.0574,-0.0015 1.0583333,1.0583333 0 0 0 -0.0966,0.0078 l -0.20929,0.644406 h -0.66766 a 1.0583333,1.0583333 0 0 0 -0.0326,0.07906 1.0583333,1.0583333 0 0 0 -0.0274,0.113689 l 0.53795,0.39119 -0.19999,0.615467 a 1.0583333,1.0583333 0 0 0 0.0739,0.06305 1.0583333,1.0583333 0 0 0 0.0992,0.06098 l 0.52296,-0.380339 0.52194,0.380339 a 1.0583333,1.0583333 0 0 0 0.0997,-0.06098 1.0583333,1.0583333 0 0 0 0.0729,-0.06253 l -0.19999,-0.615983 0.54105,-0.393774 a 1.0583333,1.0583333 0 0 0 -0.002,-0.01137 1.0583333,1.0583333 0 0 0 -0.014,-0.05581 1.0583333,1.0583333 0 0 0 -0.017,-0.05478 1.0583333,1.0583333 0 0 0 -0.0196,-0.05374 1.0583333,1.0583333 0 0 0 -0.006,-0.01447 h -0.66973 z m -0.0961,0.274402 0.12144,0.373104 h -0.24236 z m -0.75551,0.55087 h 0.39223 l -0.076,0.230477 z m 0.5762,0 h 0.35915 l 0.10955,0.337964 -0.28939,0.21084 -0.28887,-0.209289 z m 0.5426,0 h 0.39067 l -0.31626,0.230477 z m -0.0176,0.513664 0.12144,0.374654 -0.31833,-0.230477 z m -0.69143,0.0021 0.19534,0.142627 -0.31626,0.22841 z"
       style="fill:#dde8f4"
       id="path41" /></g></svg>
