<?xml version="1.0" encoding="UTF-8" standalone="no"?>
<!-- Created with Inkscape (http://www.inkscape.org/) -->

<svg
   width="6.0000005pt"
   height="6.0000005pt"
   viewBox="0 0 2.1166669 2.1166668"
   version="1.1"
   id="svg1"
   xml:space="preserve"
   xmlns="http://www.w3.org/2000/svg"
   xmlns:svg="http://www.w3.org/2000/svg"><defs
     id="defs1" /><g
     id="layer1"
     transform="translate(-737.36121,-9.064046)"><path
       id="circle499"
       style="fill:#7f7f7f;stroke:none;stroke-width:0.352778;stroke-opacity:1"
       d="m 738.41953,9.0640463 a 1.0583333,1.0583333 0 0 0 -1.05833,1.0583337 1.0583333,1.0583333 0 0 0 1.05833,1.058333 1.0583333,1.0583333 0 0 0 1.05834,-1.058333 1.0583333,1.0583333 0 0 0 -1.05834,-1.0583337 z m -0.18758,0.3700033 h 0.37258 l 0.43409,1.3802774 h -0.33022 l -0.0842,-0.328145 h -0.42064 l -0.0853,0.328145 h -0.31781 z m 0.17621,0.2371948 c -0.0155,0.071967 -0.0323,0.1466645 -0.0506,0.2242757 -0.0183,0.077611 -0.0376,0.1509969 -0.0574,0.2201419 l -0.0331,0.127124 h 0.29404 l -0.0326,-0.127124 c -0.0197,-0.06915 -0.039,-0.1425308 -0.0574,-0.2201419 -0.0183,-0.077611 -0.0364,-0.1523091 -0.0548,-0.2242757 z" /></g></svg>
