<?xml version="1.0" encoding="UTF-8" standalone="no"?>
<!-- Created with Inkscape (http://www.inkscape.org/) -->

<svg
   width="6.0000005pt"
   height="6.000011pt"
   viewBox="0 0 2.1166669 2.1166705"
   version="1.1"
   id="svg1"
   xml:space="preserve"
   xmlns="http://www.w3.org/2000/svg"
   xmlns:svg="http://www.w3.org/2000/svg"><defs
     id="defs1" /><g
     id="layer1"
     transform="translate(-802.90965,-36.15955)"><path
       id="path38"
       style="fill:#c44e52;stroke-width:0.352778"
       d="m 803.96695,36.15955 a 1.0583333,1.0583333 0 0 0 -0.14934,0.01085 1.0583333,1.0583333 0 0 0 -0.1478,0.03204 1.0583333,1.0583333 0 0 0 -0.14107,0.05271 1.0583333,1.0583333 0 0 0 -0.13281,0.07235 1.0583333,1.0583333 0 0 0 -0.12092,0.09095 1.0583333,1.0583333 0 0 0 -0.10646,0.106454 1.0583333,1.0583333 0 0 0 -0.0904,0.120922 1.0583333,1.0583333 0 0 0 -0.0729,0.132809 1.0583333,1.0583333 0 0 0 -0.0527,0.141077 1.0583333,1.0583333 0 0 0 -0.032,0.147794 1.0583333,1.0583333 0 0 0 -0.0109,0.150379 1.0583333,1.0583333 0 0 0 0.0109,0.150895 1.0583333,1.0583333 0 0 0 0.032,0.147278 1.0583333,1.0583333 0 0 0 0.0527,0.141593 1.0583333,1.0583333 0 0 0 0.0729,0.132808 1.0583333,1.0583333 0 0 0 0.0904,0.120923 1.0583333,1.0583333 0 0 0 0.10646,0.106454 1.0583333,1.0583333 0 0 0 0.12092,0.09043 1.0583333,1.0583333 0 0 0 0.13281,0.07235 1.0583333,1.0583333 0 0 0 0.14107,0.05271 1.0583333,1.0583333 0 0 0 0.1478,0.03256 1.0583333,1.0583333 0 0 0 0.15038,0.01034 1.0583333,1.0583333 0 0 0 0.15089,-0.01034 1.0583333,1.0583333 0 0 0 0.14728,-0.03256 1.0583333,1.0583333 0 0 0 0.14159,-0.05271 1.0583333,1.0583333 0 0 0 0.13281,-0.07235 1.0583333,1.0583333 0 0 0 0.12093,-0.09043 1.0583333,1.0583333 0 0 0 0.10645,-0.106454 1.0583333,1.0583333 0 0 0 0.0904,-0.120923 1.0583333,1.0583333 0 0 0 0.0723,-0.132808 1.0583333,1.0583333 0 0 0 0.0527,-0.141593 1.0583333,1.0583333 0 0 0 0.0326,-0.147278 1.0583333,1.0583333 0 0 0 0.0103,-0.150895 1.0583333,1.0583333 0 0 0 -10e-4,-0.05168 1.0583333,1.0583333 0 0 0 -0.004,-0.05168 1.0583333,1.0583333 0 0 0 -0.007,-0.05168 1.0583333,1.0583333 0 0 0 -0.009,-0.05116 1.0583333,1.0583333 0 0 0 -0.0114,-0.05064 1.0583333,1.0583333 0 0 0 -0.0139,-0.05013 1.0583333,1.0583333 0 0 0 -0.016,-0.04961 1.0583333,1.0583333 0 0 0 -0.0186,-0.04806 1.0583333,1.0583333 0 0 0 -0.0212,-0.04754 1.0583333,1.0583333 0 0 0 -0.0232,-0.04651 1.0583333,1.0583333 0 0 0 -0.0258,-0.04548 1.0583333,1.0583333 0 0 0 -0.0279,-0.04341 1.0583333,1.0583333 0 0 0 -0.03,-0.04289 1.0583333,1.0583333 0 0 0 -0.0315,-0.04082 1.0583333,1.0583333 0 0 0 -0.0341,-0.03927 1.0583333,1.0583333 0 0 0 -0.0357,-0.03772 1.0583333,1.0583333 0 0 0 -0.0377,-0.03566 1.0583333,1.0583333 0 0 0 -0.0393,-0.03411 1.0583333,1.0583333 0 0 0 -0.0413,-0.03204 1.0583333,1.0583333 0 0 0 -0.0424,-0.02945 1.0583333,1.0583333 0 0 0 -0.0439,-0.02791 1.0583333,1.0583333 0 0 0 -0.045,-0.02584 1.0583333,1.0583333 0 0 0 -0.0465,-0.02325 1.0583333,1.0583333 0 0 0 -0.0475,-0.02119 1.0583333,1.0583333 0 0 0 -0.0486,-0.0186 1.0583333,1.0583333 0 0 0 -0.0491,-0.01602 1.0583333,1.0583333 0 0 0 -0.0501,-0.01395 1.0583333,1.0583333 0 0 0 -0.0506,-0.01137 1.0583333,1.0583333 0 0 0 -0.0512,-0.0088 1.0583333,1.0583333 0 0 0 -0.0517,-0.0067 1.0583333,1.0583333 0 0 0 -0.0517,-0.0036 1.0583333,1.0583333 0 0 0 -0.0512,-0.0016 h -5.2e-4 z m -0.15761,0.1757 c 0.0198,0.0066 0.0392,0.01377 0.0574,0.02119 0.0198,0.0081 0.0383,0.01635 0.0563,0.02532 0.018,0.009 0.0354,0.01862 0.0517,0.02842 0.0163,0.0098 0.0318,0.01993 0.0465,0.03049 0.0147,0.01056 0.0287,0.02132 0.0419,0.03256 0.0132,0.01124 0.0254,0.02278 0.0372,0.03462 0.0118,0.01184 0.0231,0.02433 0.0336,0.03669 0.0105,0.01236 0.0203,0.02491 0.0294,0.03772 0.009,0.01281 0.0182,0.02558 0.0264,0.03876 0.008,0.01318 0.0156,0.02684 0.0227,0.04031 0.007,0.01347 0.0139,0.02662 0.0202,0.04031 0.006,0.01369 0.0122,0.02752 0.0176,0.04134 0.005,0.01382 0.0103,0.02798 0.015,0.04186 0.005,0.01388 0.009,0.02748 0.0134,0.04134 0.008,0.02773 0.015,0.05549 0.0212,0.08268 0.006,0.02719 0.0115,0.05406 0.0165,0.0801 0.005,0.02604 0.01,0.05118 0.0145,0.07545 0.005,0.02427 0.009,0.04737 0.0145,0.06925 0.003,0.01094 0.005,0.02182 0.008,0.03204 0.003,0.01022 0.006,0.02002 0.009,0.02946 0.003,0.0094 0.006,0.01831 0.01,0.02687 0.004,0.0086 0.008,0.01667 0.0119,0.02429 0.004,0.0076 0.008,0.01511 0.0129,0.0217 0.005,0.0066 0.01,0.01259 0.0155,0.01809 0.005,0.0055 0.0113,0.01015 0.0176,0.01447 0.006,0.0043 0.0129,0.0083 0.0202,0.01137 0.007,0.0031 0.0155,0.0055 0.0238,0.0072 0.008,0.0017 0.017,0.0023 0.0264,0.0026 0.007,2.28e-4 0.0134,-2.03e-4 0.0196,-0.0016 0.006,-0.0013 0.0123,-0.003 0.0181,-0.0057 0.006,-0.0027 0.0113,-0.0059 0.0165,-0.0098 0.005,-0.0039 0.0102,-0.0085 0.015,-0.01344 0.005,-0.0049 0.009,-0.01021 0.0129,-0.01602 0.004,-0.0058 0.009,-0.01206 0.0124,-0.0186 0.004,-0.0065 0.007,-0.01356 0.01,-0.02067 0.003,-0.0071 0.006,-0.01417 0.009,-0.0217 0.003,-0.0075 0.005,-0.01547 0.007,-0.02325 0.002,-0.0078 0.004,-0.01537 0.006,-0.02325 0.002,-0.0079 0.003,-0.01595 0.004,-0.02377 0.001,-0.0078 0.002,-0.01565 0.003,-0.02325 6e-4,-0.0076 4.7e-4,-0.015 5.1e-4,-0.02222 7e-5,-0.0072 -4e-5,-0.01399 -5.1e-4,-0.02067 -4.6e-4,-0.0067 -5.5e-4,-0.01313 -0.002,-0.01912 -0.001,-0.006 -0.002,-0.01192 -0.004,-0.01705 0.007,0.0034 0.0129,0.0079 0.0191,0.01292 0.006,0.005 0.012,0.01058 0.0176,0.01705 0.006,0.0065 0.0111,0.01388 0.016,0.0217 0.005,0.0078 0.01,0.01626 0.014,0.02532 0.004,0.0091 0.008,0.01874 0.0119,0.02894 0.004,0.0102 0.007,0.02081 0.01,0.03204 0.003,0.01123 0.005,0.02299 0.007,0.03514 0.002,0.01215 0.004,0.02477 0.006,0.03772 10e-4,0.01296 0.002,0.02613 0.003,0.03979 6.7e-4,0.01366 10e-4,0.0276 10e-4,0.04186 -1.5e-4,0.01425 -10e-4,0.02918 -0.002,0.04393 -9.8e-4,0.01474 -0.002,0.02933 -0.004,0.04444 -0.002,0.01512 -0.004,0.03061 -0.007,0.04599 -0.003,0.01538 -0.006,0.03097 -0.009,0.04651 -0.004,0.01554 -0.008,0.03092 -0.0124,0.04651 -0.005,0.01559 -0.01,0.03149 -0.0155,0.04702 -0.006,0.01554 -0.0115,0.03062 -0.0181,0.04599 -0.007,0.01537 -0.0136,0.0309 -0.0212,0.04599 -0.008,0.0151 -0.0157,0.02973 -0.0243,0.04444 -0.009,0.01471 -0.0177,0.02919 -0.0274,0.04341 -0.01,0.01422 -0.0197,0.02824 -0.0305,0.04186 -0.0108,0.01362 -0.0222,0.02688 -0.0341,0.03979 -0.0119,0.01291 -0.0247,0.02563 -0.0377,0.03772 -0.0131,0.0121 -0.0266,0.02397 -0.0408,0.03514 -0.0143,0.01117 -0.029,0.02139 -0.0444,0.03152 -0.0155,0.01013 -0.0319,0.01994 -0.0486,0.02894 -0.0167,0.009 -0.0337,0.01758 -0.0517,0.02532 -0.018,0.0077 -0.0366,0.01481 -0.0558,0.02119 -0.0192,0.0064 -0.0394,0.01214 -0.0599,0.01705 -0.0206,0.0049 -0.0417,0.0091 -0.0636,0.0124 -0.0219,0.0033 -0.0444,0.0056 -0.0677,0.0072 -0.0233,0.0017 -0.0476,0.0027 -0.0723,0.0026 -0.0239,-1.35e-4 -0.0476,-0.0016 -0.0703,-0.0036 -0.0227,-0.002 -0.0442,-0.005 -0.0656,-0.0088 -0.0214,-0.0038 -0.0423,-0.0084 -0.0625,-0.01395 -0.0202,-0.0055 -0.0399,-0.01203 -0.0589,-0.01912 -0.019,-0.0071 -0.0375,-0.01468 -0.0553,-0.02325 -0.0178,-0.0086 -0.035,-0.01795 -0.0517,-0.02791 -0.0166,-0.01 -0.0327,-0.02029 -0.0481,-0.03152 -0.0155,-0.01124 -0.0302,-0.02324 -0.0444,-0.03566 -0.0143,-0.01241 -0.0282,-0.02527 -0.0413,-0.03876 -0.0131,-0.01349 -0.0257,-0.02792 -0.0377,-0.04237 -0.012,-0.01446 -0.0237,-0.02911 -0.0346,-0.04444 -0.0109,-0.01533 -0.0207,-0.03093 -0.0305,-0.04702 -0.01,-0.0161 -0.0193,-0.03285 -0.0279,-0.04961 -0.009,-0.01676 -0.0168,-0.03383 -0.0243,-0.05116 -0.008,-0.01733 -0.0142,-0.03492 -0.0207,-0.05271 -0.006,-0.01779 -0.0127,-0.0356 -0.0181,-0.05374 -0.005,-0.01815 -0.0102,-0.03638 -0.0145,-0.05478 -0.004,-0.0184 -0.008,-0.03726 -0.0109,-0.05581 -0.003,-0.01855 -0.006,-0.03721 -0.008,-0.05581 -0.002,-0.01861 -0.004,-0.03674 -0.005,-0.05529 -10e-4,-0.01855 -0.002,-0.03741 -0.002,-0.05581 -8e-5,-0.0184 6.7e-4,-0.03663 0.002,-0.05478 9.4e-4,-0.01815 0.002,-0.03596 0.004,-0.05374 0.002,-0.01779 0.004,-0.03538 0.007,-0.05271 0.003,-0.01733 0.006,-0.03439 0.0103,-0.05116 0.004,-0.01677 0.008,-0.03351 0.0134,-0.04961 0.005,-0.0161 0.0106,-0.03169 0.0165,-0.04703 0.006,-0.01533 0.0122,-0.0305 0.0191,-0.04496 0.007,-0.01446 0.0144,-0.02837 0.0222,-0.04186 0.008,-0.01349 0.016,-0.02634 0.0248,-0.03876 0.009,-0.01242 0.0182,-0.02442 0.0279,-0.03566 0.01,-0.01124 0.0198,-0.02156 0.0305,-0.03152 -0.002,0.0032 -0.003,0.0067 -0.004,0.01137 -10e-4,0.0046 -0.002,0.01011 -0.003,0.01602 -8e-4,0.0059 -10e-4,0.01261 -0.002,0.01964 -3.5e-4,0.007 -6.5e-4,0.01424 -5.1e-4,0.02222 1.5e-4,0.008 9.2e-4,0.01656 0.002,0.02532 7e-4,0.0088 0.002,0.01802 0.003,0.02739 10e-4,0.0094 0.003,0.01861 0.005,0.02842 0.002,0.0098 0.004,0.01988 0.007,0.02997 0.003,0.01009 0.005,0.02029 0.009,0.03049 0.003,0.0102 0.007,0.02035 0.0114,0.03049 0.004,0.01014 0.008,0.02058 0.0134,0.03049 0.005,0.0099 0.0107,0.01942 0.0165,0.02894 0.006,0.0095 0.0118,0.01896 0.0186,0.02791 0.007,0.009 0.014,0.01762 0.0217,0.02584 0.008,0.0082 0.016,0.01594 0.0248,0.02325 0.009,0.0073 0.0181,0.01391 0.0279,0.02015 10e-4,-0.01208 0.003,-0.02354 0.005,-0.03514 0.002,-0.0116 0.004,-0.02296 0.007,-0.03411 0.003,-0.01115 0.005,-0.02235 0.008,-0.03307 0.003,-0.01072 0.007,-0.0212 0.0103,-0.03152 0.004,-0.01032 0.008,-0.02054 0.0119,-0.03049 0.004,-0.0099 0.008,-0.01985 0.0129,-0.02946 0.009,-0.0192 0.019,-0.03733 0.0294,-0.05529 0.0104,-0.01796 0.0214,-0.03526 0.0326,-0.05219 0.0112,-0.01694 0.0227,-0.0335 0.0341,-0.04961 0.0228,-0.03223 0.0456,-0.06335 0.0661,-0.09353 0.0103,-0.01509 0.02,-0.03007 0.0289,-0.04496 0.009,-0.01489 0.0172,-0.02954 0.0243,-0.04444 0.004,-0.0075 0.007,-0.01473 0.01,-0.02222 0.003,-0.0075 0.005,-0.01518 0.008,-0.02274 0.002,-0.0076 0.004,-0.01508 0.006,-0.02274 0.002,-0.0077 0.003,-0.01548 0.004,-0.02325 8.6e-4,-0.0078 10e-4,-0.01534 10e-4,-0.02325 2e-5,-0.0079 -2e-4,-0.0162 -10e-4,-0.02429 -8.7e-4,-0.0081 -0.002,-0.016 -0.004,-0.02429 -0.002,-0.0083 -0.004,-0.01681 -0.007,-0.02532 -0.003,-0.0085 -0.006,-0.01708 -0.0103,-0.02584 -0.004,-0.0088 -0.008,-0.01784 -0.0134,-0.02687 -0.005,-0.009 -0.0108,-0.01806 -0.0171,-0.02739 -0.006,-0.0087 -0.0125,-0.01783 -0.0196,-0.02687 z m 0.15761,0.49506 c -0.004,0.02211 -0.01,0.04372 -0.0155,0.0646 -0.006,0.02087 -0.0124,0.04126 -0.0196,0.06098 -0.007,0.01972 -0.0149,0.03872 -0.0233,0.05736 -0.008,0.01864 -0.0168,0.03712 -0.0258,0.05478 -0.009,0.01765 -0.0188,0.03441 -0.0284,0.05116 -0.01,0.01675 -0.0195,0.03317 -0.0295,0.04909 -0.0199,0.03185 -0.0401,0.0624 -0.0599,0.09147 -0.0198,0.02906 -0.039,0.05677 -0.0569,0.08371 -0.009,0.01347 -0.0173,0.02672 -0.0253,0.03979 -0.008,0.01307 -0.0153,0.02601 -0.0222,0.03876 -0.007,0.01274 -0.0131,0.02522 -0.0186,0.03772 -0.006,0.01251 -0.0106,0.02486 -0.0145,0.03721 -0.004,0.01235 -0.007,0.02493 -0.009,0.03721 -0.001,0.0061 -0.002,0.01195 -0.003,0.01809 -5.4e-4,0.0061 -10e-4,0.01246 -10e-4,0.0186 -1e-5,0.01136 9.3e-4,0.02287 0.002,0.03411 10e-4,0.01123 0.003,0.02204 0.005,0.03307 0.002,0.01103 0.005,0.02232 0.009,0.03307 0.003,0.01075 0.007,0.02112 0.0119,0.03152 0.004,0.0104 0.01,0.02053 0.015,0.03049 0.005,0.01 0.0112,0.02002 0.0176,0.02945 0.006,0.0094 0.0131,0.01853 0.0202,0.02739 0.007,0.0089 0.0148,0.01714 0.0227,0.02532 0.008,0.0082 0.0166,0.01633 0.0253,0.02377 0.009,0.0074 0.0175,0.01406 0.0269,0.02067 0.009,0.0066 0.0195,0.0129 0.0294,0.0186 0.01,0.0057 0.0199,0.01078 0.0305,0.0155 0.0106,0.0047 0.0215,0.0093 0.0326,0.01292 0.0111,0.0037 0.0226,0.0068 0.0341,0.0093 0.0115,0.0025 0.0228,0.0044 0.0346,0.0057 0.0119,0.0013 0.024,0.0021 0.0362,0.0021 0.0122,0 0.0243,-8.3e-4 0.0362,-0.0021 0.0119,-0.0012 0.0237,-0.0028 0.0351,-0.0052 0.0115,-0.0023 0.0225,-0.0053 0.0336,-0.0088 0.011,-0.0034 0.022,-0.0074 0.0326,-0.01189 0.0105,-0.0045 0.021,-0.0096 0.031,-0.01499 0.01,-0.0054 0.0196,-0.01123 0.0289,-0.01757 0.009,-0.0063 0.0182,-0.01296 0.0269,-0.02015 0.009,-0.0072 0.0173,-0.01476 0.0253,-0.02274 0.008,-0.008 0.0155,-0.01661 0.0227,-0.02532 0.007,-0.0087 0.0137,-0.01749 0.0201,-0.02687 0.006,-0.0094 0.0121,-0.01946 0.0176,-0.02946 0.005,-0.01 0.0105,-0.01994 0.015,-0.03049 0.004,-0.01055 0.008,-0.02151 0.0119,-0.03256 0.003,-0.01105 0.006,-0.02211 0.009,-0.03359 0.002,-0.01148 0.004,-0.02328 0.005,-0.03514 10e-4,-0.01186 0.002,-0.024 0.002,-0.03617 0,-0.01268 -10e-4,-0.02513 -0.003,-0.03772 -0.002,-0.0126 -0.005,-0.02512 -0.008,-0.03772 -0.004,-0.0126 -0.008,-0.02555 -0.0129,-0.03824 -0.005,-0.01269 -0.0112,-0.02536 -0.0176,-0.03824 -0.006,-0.01288 -0.0132,-0.02613 -0.0207,-0.03927 -0.008,-0.01315 -0.0159,-0.02629 -0.0243,-0.03979 -0.0168,-0.02701 -0.0351,-0.05475 -0.0543,-0.08372 -0.0191,-0.02896 -0.0386,-0.05881 -0.0584,-0.09043 -0.01,-0.01581 -0.0202,-0.03248 -0.03,-0.04909 -0.01,-0.01661 -0.019,-0.03366 -0.0284,-0.05116 -0.009,-0.0175 -0.0185,-0.03527 -0.0274,-0.05374 -0.009,-0.01847 -0.0177,-0.03731 -0.0258,-0.05684 -0.008,-0.01953 -0.0156,-0.03978 -0.0227,-0.06046 -0.007,-0.02068 -0.0142,-0.04216 -0.0202,-0.06408 z" /><path
       d="m 803.80417,36.3337 c 0.008,0.0097 0.0149,0.01909 0.0212,0.02842 0.006,0.0093 0.0119,0.01836 0.017,0.02739 0.005,0.009 0.009,0.01812 0.0134,0.02687 0.004,0.0088 0.007,0.01733 0.0103,0.02584 0.003,0.0085 0.005,0.01704 0.007,0.02532 0.002,0.0083 0.003,0.0162 0.004,0.02429 8.8e-4,0.0081 10e-4,0.01637 10e-4,0.02429 -3e-5,0.0079 -1.8e-4,0.01548 -10e-4,0.02325 -8.5e-4,0.0078 -0.003,0.0156 -0.004,0.02325 -0.002,0.0077 -0.003,0.01518 -0.006,0.02274 -0.002,0.0076 -0.005,0.01525 -0.008,0.02274 -0.003,0.0075 -0.006,0.01477 -0.01,0.02222 -0.007,0.0149 -0.0154,0.02955 -0.0243,0.04444 -0.009,0.01489 -0.0187,0.02987 -0.0289,0.04496 -0.0205,0.03018 -0.0433,0.06131 -0.0661,0.09353 -0.0114,0.01611 -0.0229,0.03267 -0.0341,0.04961 -0.0112,0.01693 -0.0221,0.03423 -0.0326,0.05219 -0.0104,0.01797 -0.0203,0.03609 -0.0295,0.05529 -0.005,0.0096 -0.009,0.01951 -0.0129,0.02946 -0.004,0.0099 -0.008,0.02017 -0.0119,0.03049 -0.004,0.01032 -0.007,0.0208 -0.0103,0.03152 -0.003,0.01072 -0.006,0.02192 -0.008,0.03307 -0.003,0.01115 -0.005,0.0225 -0.007,0.03411 -0.002,0.0116 -0.004,0.02306 -0.005,0.03514 -0.01,-0.0062 -0.0191,-0.01284 -0.0279,-0.02015 -0.009,-0.0073 -0.0171,-0.01504 -0.0248,-0.02325 -0.008,-0.0082 -0.0149,-0.01689 -0.0217,-0.02584 -0.007,-0.0089 -0.0128,-0.01839 -0.0186,-0.02791 -0.006,-0.0095 -0.0116,-0.01903 -0.0165,-0.02894 -0.005,-0.0099 -0.009,-0.02035 -0.0134,-0.03049 -0.004,-0.01014 -0.008,-0.02029 -0.0114,-0.03049 -0.003,-0.0102 -0.006,-0.0204 -0.009,-0.03049 -0.003,-0.01009 -0.005,-0.02016 -0.007,-0.02997 -0.002,-0.0098 -0.003,-0.01905 -0.005,-0.02842 -10e-4,-0.0094 -0.002,-0.01863 -0.003,-0.02739 -6.9e-4,-0.0088 -10e-4,-0.01734 -0.002,-0.02532 -1.4e-4,-0.008 1.7e-4,-0.01519 5.2e-4,-0.02222 3.5e-4,-0.007 7.5e-4,-0.01373 0.002,-0.01964 8e-4,-0.0059 0.002,-0.0114 0.003,-0.01602 0.001,-0.0046 0.003,-0.0082 0.004,-0.01137 -0.0107,0.01 -0.0208,0.02028 -0.0305,0.03152 -0.01,0.01124 -0.0191,0.02324 -0.0279,0.03566 -0.009,0.01242 -0.0169,0.02527 -0.0248,0.03876 -0.008,0.01349 -0.0153,0.02739 -0.0222,0.04186 -0.007,0.01446 -0.0132,0.02963 -0.0191,0.04496 -0.006,0.01533 -0.0116,0.03093 -0.0165,0.04703 -0.005,0.0161 -0.009,0.03284 -0.0134,0.04961 -0.004,0.01676 -0.007,0.03383 -0.0103,0.05116 -0.003,0.01733 -0.005,0.03492 -0.007,0.05271 -0.002,0.01779 -0.003,0.0356 -0.004,0.05374 -9.5e-4,0.01815 -0.002,0.03637 -0.002,0.05478 8e-5,0.0184 9.5e-4,0.03726 0.002,0.05581 10e-4,0.01855 0.002,0.03669 0.005,0.05529 0.002,0.01861 0.005,0.03726 0.008,0.05581 0.003,0.01855 0.007,0.03741 0.0109,0.05581 0.004,0.0184 0.009,0.03663 0.0145,0.05478 0.005,0.01814 0.0116,0.03596 0.0181,0.05374 0.006,0.01779 0.0131,0.03538 0.0207,0.05271 0.008,0.01733 0.0157,0.0344 0.0243,0.05116 0.009,0.01676 0.0181,0.03351 0.0279,0.04961 0.01,0.0161 0.0196,0.03169 0.0305,0.04702 0.0109,0.01533 0.0226,0.02998 0.0346,0.04444 0.012,0.01446 0.0246,0.02889 0.0377,0.04237 0.0132,0.01349 0.027,0.02634 0.0413,0.03876 0.0143,0.01241 0.029,0.02442 0.0444,0.03566 0.0155,0.01124 0.0314,0.02156 0.048,0.03152 0.0167,0.01 0.0339,0.01933 0.0517,0.02791 0.0178,0.0086 0.0363,0.01616 0.0553,0.02325 0.019,0.0071 0.0387,0.01361 0.0589,0.01912 0.0202,0.0055 0.0411,0.01013 0.0625,0.01395 0.0214,0.0038 0.0435,0.0068 0.0661,0.0088 0.0227,0.002 0.0459,0.0035 0.0698,0.0036 0.0247,1.41e-4 0.0491,-9.31e-4 0.0724,-0.0026 0.0233,-0.0017 0.0458,-0.0039 0.0677,-0.0072 0.0219,-0.0033 0.043,-0.0075 0.0636,-0.0124 0.0206,-0.0049 0.0407,-0.01067 0.0599,-0.01705 0.0193,-0.0064 0.0379,-0.01345 0.0558,-0.02119 0.018,-0.0077 0.035,-0.01633 0.0517,-0.02532 0.0167,-0.009 0.0331,-0.0188 0.0486,-0.02894 0.0155,-0.01014 0.0302,-0.02035 0.0444,-0.03152 0.0143,-0.01117 0.0277,-0.02304 0.0408,-0.03514 0.0131,-0.0121 0.0258,-0.02481 0.0377,-0.03772 0.0119,-0.01291 0.0233,-0.02617 0.0341,-0.03979 0.0108,-0.01362 0.0208,-0.02764 0.0305,-0.04186 0.01,-0.01422 0.0188,-0.02869 0.0274,-0.04341 0.009,-0.01471 0.0167,-0.02935 0.0243,-0.04444 0.008,-0.0151 0.0146,-0.03062 0.0212,-0.04599 0.007,-0.01537 0.0125,-0.03046 0.0181,-0.04599 0.006,-0.01554 0.0109,-0.03143 0.0155,-0.04702 0.005,-0.01559 0.009,-0.03097 0.0124,-0.04651 0.004,-0.01554 0.007,-0.03112 0.009,-0.04651 0.003,-0.01538 0.005,-0.03088 0.007,-0.04599 0.002,-0.01512 0.003,-0.0297 0.004,-0.04444 9.8e-4,-0.01474 0.002,-0.02967 0.002,-0.04393 1.4e-4,-0.01425 -3.7e-4,-0.0282 -10e-4,-0.04186 -6.6e-4,-0.01366 -0.002,-0.02683 -0.003,-0.03979 -10e-4,-0.01296 -0.003,-0.02558 -0.006,-0.03772 -0.002,-0.01215 -0.004,-0.02391 -0.007,-0.03514 -0.003,-0.01123 -0.006,-0.02184 -0.01,-0.03204 -0.004,-0.0102 -0.008,-0.01987 -0.0119,-0.02894 -0.004,-0.0091 -0.009,-0.0175 -0.014,-0.02532 -0.005,-0.0078 -0.0104,-0.01523 -0.016,-0.0217 -0.006,-0.0065 -0.0114,-0.01205 -0.0176,-0.01705 -0.006,-0.005 -0.0124,-0.0095 -0.0191,-0.01292 0.002,0.0051 0.003,0.01107 0.004,0.01705 10e-4,0.006 0.002,0.01244 0.002,0.01912 4.7e-4,0.0067 5.9e-4,0.01345 5.2e-4,0.02067 -7e-5,0.0072 -4.3e-4,0.01462 -10e-4,0.02222 -6e-4,0.0076 -0.001,0.01543 -0.003,0.02325 -10e-4,0.0078 -0.002,0.01589 -0.004,0.02377 -0.002,0.0079 -0.004,0.01547 -0.006,0.02325 -0.002,0.0078 -0.005,0.01572 -0.007,0.02325 -0.003,0.0075 -0.006,0.01459 -0.009,0.0217 -0.003,0.0071 -0.007,0.01413 -0.0103,0.02067 -0.004,0.0065 -0.008,0.01279 -0.0119,0.0186 -0.004,0.0058 -0.009,0.0111 -0.0134,0.01602 -0.005,0.0049 -0.01,0.0096 -0.015,0.01344 -0.005,0.0039 -0.0108,0.0072 -0.0165,0.0098 -0.006,0.0027 -0.0118,0.0044 -0.0181,0.0057 -0.006,0.0013 -0.0129,0.0018 -0.0196,0.0016 -0.009,-3.16e-4 -0.0181,-8.57e-4 -0.0264,-0.0026 -0.008,-0.0017 -0.016,-0.0042 -0.0233,-0.0072 -0.007,-0.0031 -0.0139,-0.0071 -0.0202,-0.01137 -0.006,-0.0043 -0.0121,-0.009 -0.0176,-0.01447 -0.005,-0.0055 -0.0108,-0.01149 -0.0155,-0.01809 -0.005,-0.0066 -0.009,-0.01409 -0.0129,-0.0217 -0.004,-0.0076 -0.008,-0.01572 -0.0119,-0.02429 -0.004,-0.0086 -0.007,-0.01744 -0.01,-0.02687 -0.003,-0.0094 -0.006,-0.01923 -0.009,-0.02946 -0.003,-0.01022 -0.005,-0.0211 -0.008,-0.03204 -0.005,-0.02188 -0.01,-0.04498 -0.0145,-0.06925 -0.005,-0.02427 -0.009,-0.04941 -0.0145,-0.07545 -0.005,-0.02604 -0.0104,-0.05291 -0.0165,-0.0801 -0.006,-0.02719 -0.0131,-0.05495 -0.0212,-0.08268 -0.004,-0.01386 -0.009,-0.02746 -0.0134,-0.04134 -0.005,-0.01388 -0.01,-0.02804 -0.015,-0.04186 -0.005,-0.01382 -0.0113,-0.02766 -0.0176,-0.04134 -0.006,-0.01369 -0.013,-0.02684 -0.0202,-0.04031 -0.007,-0.01347 -0.0146,-0.02713 -0.0227,-0.04031 -0.008,-0.01318 -0.0171,-0.02595 -0.0264,-0.03876 -0.009,-0.01281 -0.019,-0.02536 -0.0294,-0.03772 -0.0105,-0.01236 -0.0218,-0.02485 -0.0336,-0.03669 -0.0118,-0.01184 -0.024,-0.02338 -0.0372,-0.03462 -0.0132,-0.01124 -0.0272,-0.02199 -0.0419,-0.03256 -0.0147,-0.01056 -0.0302,-0.02068 -0.0465,-0.03049 -0.0163,-0.0098 -0.0337,-0.01945 -0.0517,-0.02842 -0.018,-0.009 -0.0365,-0.01726 -0.0563,-0.02532 -0.0198,-0.0081 -0.0408,-0.01566 -0.0625,-0.02274 z m 0.16278,0.49661 c 0.006,0.02192 0.013,0.0434 0.0202,0.06408 0.007,0.02068 0.0146,0.04093 0.0227,0.06046 0.008,0.01953 0.017,0.03837 0.0258,0.05684 0.009,0.01847 0.018,0.03624 0.0274,0.05374 0.009,0.0175 0.0187,0.03455 0.0284,0.05116 0.01,0.01661 0.0201,0.03328 0.03,0.04909 0.0198,0.03163 0.0393,0.06147 0.0584,0.09043 0.0191,0.02896 0.0375,0.05671 0.0543,0.08372 0.008,0.0135 0.0168,0.02664 0.0243,0.03979 0.007,0.01315 0.0143,0.0264 0.0207,0.03927 0.006,0.01288 0.0124,0.02555 0.0176,0.03824 0.005,0.0127 0.009,0.02564 0.0129,0.03824 0.004,0.0126 0.006,0.02513 0.008,0.03772 0.002,0.0126 0.003,0.02504 0.003,0.03772 -10e-6,0.01218 -8.6e-4,0.02431 -0.002,0.03617 -0.001,0.01186 -0.003,0.02366 -0.005,0.03514 -0.002,0.01148 -0.005,0.02254 -0.009,0.03359 -0.003,0.01105 -0.007,0.022 -0.0119,0.03256 -0.004,0.01055 -0.01,0.02049 -0.015,0.03049 -0.005,0.01 -0.0112,0.02007 -0.0176,0.02946 -0.006,0.0094 -0.013,0.01816 -0.0202,0.02687 -0.007,0.0087 -0.0148,0.01734 -0.0227,0.02532 -0.008,0.008 -0.0166,0.01555 -0.0253,0.02274 -0.009,0.0072 -0.0175,0.01382 -0.0269,0.02015 -0.009,0.0063 -0.0189,0.01214 -0.0289,0.01757 -0.01,0.0054 -0.0204,0.01052 -0.031,0.01499 -0.0105,0.0045 -0.0215,0.0084 -0.0326,0.01189 -0.0111,0.0034 -0.0221,0.0064 -0.0336,0.0088 -0.0115,0.0023 -0.0233,0.004 -0.0351,0.0052 -0.0119,0.0012 -0.024,0.0021 -0.0362,0.0021 -0.0122,-1e-6 -0.0243,-7.7e-4 -0.0362,-0.0021 -0.0119,-0.0013 -0.0231,-0.0032 -0.0346,-0.0057 -0.0115,-0.0025 -0.0231,-0.0056 -0.0341,-0.0093 -0.011,-0.0037 -0.022,-0.0082 -0.0326,-0.01292 -0.0105,-0.0047 -0.0205,-0.0098 -0.0305,-0.0155 -0.01,-0.0057 -0.0201,-0.01199 -0.0295,-0.0186 -0.009,-0.0066 -0.0182,-0.01324 -0.0269,-0.02067 -0.009,-0.0074 -0.0173,-0.01559 -0.0253,-0.02377 -0.008,-0.0082 -0.0155,-0.01647 -0.0227,-0.02532 -0.007,-0.0089 -0.0138,-0.01794 -0.0201,-0.02739 -0.006,-0.0094 -0.0121,-0.01949 -0.0176,-0.02945 -0.005,-0.01 -0.0105,-0.02009 -0.015,-0.03049 -0.004,-0.0104 -0.008,-0.02077 -0.0119,-0.03152 -0.003,-0.01076 -0.006,-0.02204 -0.009,-0.03307 -0.002,-0.01103 -0.004,-0.02184 -0.005,-0.03307 -0.001,-0.01123 -0.002,-0.02275 -0.002,-0.03411 0,-0.0061 4.9e-4,-0.01247 10e-4,-0.0186 5.4e-4,-0.0061 0.002,-0.01195 0.003,-0.01809 0.002,-0.01228 0.005,-0.02486 0.009,-0.03721 0.004,-0.01235 0.009,-0.0247 0.0145,-0.03721 0.006,-0.01251 0.0117,-0.02498 0.0186,-0.03772 0.007,-0.01275 0.0142,-0.02569 0.0222,-0.03876 0.008,-0.01307 0.0164,-0.02632 0.0253,-0.03979 0.0178,-0.02694 0.0371,-0.05465 0.0569,-0.08371 0.0198,-0.02906 0.04,-0.05962 0.0599,-0.09147 0.01,-0.01593 0.0198,-0.03234 0.0295,-0.04909 0.01,-0.01675 0.0194,-0.03351 0.0284,-0.05116 0.009,-0.01765 0.0176,-0.03613 0.0258,-0.05478 0.008,-0.01864 0.0161,-0.03764 0.0233,-0.05736 0.007,-0.01972 0.0137,-0.0401 0.0196,-0.06098 0.006,-0.02087 0.0111,-0.04248 0.0155,-0.0646 z"
       style="fill:#f9e3e4"
       id="path36" /></g></svg>
