<?xml version="1.0" encoding="UTF-8" standalone="no"?>
<!-- Created with Inkscape (http://www.inkscape.org/) -->

<svg
   width="5.9992676pt"
   height="6.00002pt"
   viewBox="0 0 2.1164083 2.1166737"
   version="1.1"
   id="svg1"
   xml:space="preserve"
   inkscape:version="1.3 (0e150ed6c4, 2023-07-21)"
   sodipodi:docname="custom.svg"
   xmlns:inkscape="http://www.inkscape.org/namespaces/inkscape"
   xmlns:sodipodi="http://sodipodi.sourceforge.net/DTD/sodipodi-0.dtd"
   xmlns="http://www.w3.org/2000/svg"
   xmlns:svg="http://www.w3.org/2000/svg"><sodipodi:namedview
     id="namedview1"
     pagecolor="#ffffff"
     bordercolor="#eeeeee"
     borderopacity="1"
     inkscape:showpageshadow="0"
     inkscape:pageopacity="0"
     inkscape:pagecheckerboard="0"
     inkscape:deskcolor="#d1d1d1"
     inkscape:document-units="pt"
     inkscape:zoom="64"
     inkscape:cx="2878.1641"
     inkscape:cy="49.359375"
     inkscape:window-width="2400"
     inkscape:window-height="1511"
     inkscape:window-x="-9"
     inkscape:window-y="-9"
     inkscape:window-maximized="1"
     inkscape:current-layer="layer1"
     showgrid="true"
     showguides="false"
     inkscape:lockguides="true"><inkscape:grid
       id="grid1"
       units="in"
       originx="-2861.5356"
       originy="-43.590528"
       spacingx="1"
       spacingy="1"
       empcolor="#0099e5"
       empopacity="0.30196078"
       color="#0099e5"
       opacity="0.14901961"
       empspacing="5"
       dotted="true"
       gridanglex="30"
       gridanglez="30"
       visible="true"
       enabled="false" /><sodipodi:guide
       position="73.5,84.977927"
       orientation="1,0"
       id="guide23"
       inkscape:locked="true" /><sodipodi:guide
       position="81.167449,88.900003"
       orientation="0,-1"
       id="guide24"
       inkscape:locked="true" /><sodipodi:guide
       position="76.5,85.900003"
       orientation="0,1"
       id="guide25"
       inkscape:locked="true"
       inkscape:label=""
       inkscape:color="rgb(0,134,229)" /><sodipodi:guide
       position="137,88.900003"
       orientation="336,0"
       id="guide26"
       inkscape:locked="true" /><sodipodi:guide
       position="137,3.0000021"
       orientation="0,1"
       id="guide27"
       inkscape:locked="true"
       inkscape:label=""
       inkscape:color="rgb(0,134,229)" /><sodipodi:guide
       position="76.5,2.0000001e-06"
       orientation="-1,0"
       id="guide28"
       inkscape:locked="true"
       inkscape:label=""
       inkscape:color="rgb(0,134,229)" /><sodipodi:guide
       position="137,2.0426322e-06"
       orientation="0,1"
       id="guide29"
       inkscape:label=""
       inkscape:locked="true"
       inkscape:color="rgb(0,134,229)" /><sodipodi:guide
       position="134,88.900003"
       orientation="-1,0"
       id="guide30"
       inkscape:label=""
       inkscape:locked="true"
       inkscape:color="rgb(0,134,229)" /><sodipodi:guide
       position="69.5,78.900003"
       orientation="0,1"
       id="guide35"
       inkscape:label=""
       inkscape:locked="true"
       inkscape:color="rgb(0,134,229)" /><inkscape:grid
       id="grid143"
       units="pt"
       originx="-2861.3598"
       originy="-43.414139"
       spacingx="0.35277778"
       spacingy="0.35277778"
       empcolor="#0099e5"
       empopacity="0.30196078"
       color="#0099e5"
       opacity="0.14901961"
       empspacing="5"
       dotted="true"
       gridanglex="30"
       gridanglez="30"
       visible="true"
       enabled="true" /><inkscape:page
       x="-2.8569712e-06"
       y="1.7329299e-07"
       width="2.1164083"
       height="2.1166737"
       id="page4"
       margin="0"
       bleed="0" /></sodipodi:namedview><defs
     id="defs1" /><g
     inkscape:label="Layer 1"
     inkscape:groupmode="layer"
     id="layer1"
     transform="translate(-757.1146,-11.533327)"><path
       style="opacity:1;fill:none;stroke:#333333;stroke-width:0.176389;stroke-linejoin:bevel"
       d="m 757.18133,12.591824 c 0.58169,0.672754 1.37422,0.666089 1.9827,2e-6 -0.5792,-0.67645 -1.37038,-0.663346 -1.9827,-2e-6 z"
       id="path380"
       sodipodi:nodetypes="ccc"
       inkscape:export-filename="..\..\..\..\code\wunderpus-site\assets\icon-range-los.svg"
       inkscape:export-xdpi="96"
       inkscape:export-ydpi="96" /><path
       style="opacity:1;fill:none;stroke:#333333;stroke-width:0.176388"
       d="m 758.17494,11.533332 3e-5,0.556166"
       id="path381"
       sodipodi:nodetypes="cc" /><path
       style="opacity:1;fill:none;stroke:#333333;stroke-width:0.176389"
       d="m 758.17497,13.093889 -10e-6,0.55611"
       id="path382"
       sodipodi:nodetypes="cc" /><ellipse
       style="fill:none;stroke:#333333;stroke-width:0.176389;stroke-opacity:1"
       id="ellipse382"
       cx="758.17285"
       cy="12.591641"
       rx="0.50461006"
       ry="0.50225157" /><path
       d="m 758.17285,12.326896 a 0.26458335,0.26458335 0 0 0 -0.0377,0.0031 0.26458335,0.26458335 0 0 0 -0.0367,0.0078 0.26458335,0.26458335 0 0 0 -0.0243,0.0093 0.12347222,0.12347222 0 0 1 0.004,5.17e-4 0.12347222,0.12347222 0 0 1 0.009,0.0021 0.12347222,0.12347222 0 0 1 0.008,0.0031 0.12347222,0.12347222 0 0 1 0.008,0.0031 0.12347222,0.12347222 0 0 1 0.008,0.0041 0.12347222,0.12347222 0 0 1 0.007,0.0041 0.12347222,0.12347222 0 0 1 0.007,0.0052 0.12347222,0.12347222 0 0 1 0.007,0.0057 0.12347222,0.12347222 0 0 1 0.006,0.0057 0.12347222,0.12347222 0 0 1 0.006,0.0067 0.12347222,0.12347222 0 0 1 0.005,0.0067 0.12347222,0.12347222 0 0 1 0.005,0.0072 0.12347222,0.12347222 0 0 1 0.005,0.0078 0.12347222,0.12347222 0 0 1 0.004,0.0078 0.12347222,0.12347222 0 0 1 0.003,0.0083 0.12347222,0.12347222 0 0 1 0.003,0.0083 0.12347222,0.12347222 0 0 1 0.003,0.0088 0.12347222,0.12347222 0 0 1 0.002,0.0083 0.12347222,0.12347222 0 0 1 10e-4,0.0088 0.12347222,0.12347222 0 0 1 0,0.0088 0.12347222,0.12347222 0 0 1 -0.002,0.02429 0.12347222,0.12347222 0 0 1 -0.007,0.02325 0.12347222,0.12347222 0 0 1 -0.0114,0.02119 0.12347222,0.12347222 0 0 1 -0.0155,0.0186 0.12347222,0.12347222 0 0 1 -0.0186,0.0155 0.12347222,0.12347222 0 0 1 -0.0212,0.01137 0.12347222,0.12347222 0 0 1 -0.0232,0.0072 0.12347222,0.12347222 0 0 1 -0.0243,0.0021 0.12347222,0.12347222 0 0 1 -0.0238,-0.0021 0.12347222,0.12347222 0 0 1 -0.0233,-0.0072 0.12347222,0.12347222 0 0 1 -0.0217,-0.01137 0.12347222,0.12347222 0 0 1 -0.0186,-0.0155 0.12347222,0.12347222 0 0 1 -0.015,-0.0186 0.12347222,0.12347222 0 0 1 -0.0119,-0.02119 0.12347222,0.12347222 0 0 1 -0.007,-0.02325 0.12347222,0.12347222 0 0 1 -5.2e-4,-0.0047 0.26458335,0.26458335 0 0 0 -0.0109,0.02946 0.26458335,0.26458335 0 0 0 -0.008,0.03669 0.26458335,0.26458335 0 0 0 -0.003,0.03772 0.26458335,0.26458335 0 0 0 0.003,0.03772 0.26458335,0.26458335 0 0 0 0.008,0.03721 0.26458335,0.26458335 0 0 0 0.0129,0.03514 0.26458335,0.26458335 0 0 0 0.0181,0.03307 0.26458335,0.26458335 0 0 0 0.0227,0.03049 0.26458335,0.26458335 0 0 0 0.0269,0.02636 0.26458335,0.26458335 0 0 0 0.03,0.02274 0.26458335,0.26458335 0 0 0 0.0331,0.01809 0.26458335,0.26458335 0 0 0 0.0357,0.01344 0.26458335,0.26458335 0 0 0 0.0367,0.0078 0.26458335,0.26458335 0 0 0 0.0377,0.0026 0.26458335,0.26458335 0 0 0 0.0377,-0.0026 0.26458335,0.26458335 0 0 0 0.0367,-0.0078 0.26458335,0.26458335 0 0 0 0.0357,-0.01344 0.26458335,0.26458335 0 0 0 0.0331,-0.01809 0.26458335,0.26458335 0 0 0 0.03,-0.02274 0.26458335,0.26458335 0 0 0 0.0269,-0.02636 0.26458335,0.26458335 0 0 0 0.0227,-0.03049 0.26458335,0.26458335 0 0 0 0.0181,-0.03307 0.26458335,0.26458335 0 0 0 0.0129,-0.03514 0.26458335,0.26458335 0 0 0 0.008,-0.03721 0.26458335,0.26458335 0 0 0 0.003,-0.03772 0.26458335,0.26458335 0 0 0 -5.1e-4,-0.01292 0.26458335,0.26458335 0 0 0 -5.2e-4,-0.01292 0.26458335,0.26458335 0 0 0 -0.002,-0.01292 0.26458335,0.26458335 0 0 0 -0.002,-0.01292 0.26458335,0.26458335 0 0 0 -0.003,-0.0124 0.26458335,0.26458335 0 0 0 -0.004,-0.0124 0.26458335,0.26458335 0 0 0 -0.004,-0.0124 0.26458335,0.26458335 0 0 0 -0.005,-0.0124 0.26458335,0.26458335 0 0 0 -0.005,-0.01189 0.26458335,0.26458335 0 0 0 -0.006,-0.01137 0.26458335,0.26458335 0 0 0 -0.007,-0.01137 0.26458335,0.26458335 0 0 0 -0.007,-0.01085 0.26458335,0.26458335 0 0 0 -0.008,-0.01085 0.26458335,0.26458335 0 0 0 -0.008,-0.0098 0.26458335,0.26458335 0 0 0 -0.009,-0.01034 0.26458335,0.26458335 0 0 0 -0.009,-0.0093 0.26458335,0.26458335 0 0 0 -0.009,-0.0088 0.26458335,0.26458335 0 0 0 -0.01,-0.0083 0.26458335,0.26458335 0 0 0 -0.0103,-0.0083 0.26458335,0.26458335 0 0 0 -0.0109,-0.0072 0.26458335,0.26458335 0 0 0 -0.0109,-0.0072 0.26458335,0.26458335 0 0 0 -0.0114,-0.0062 0.26458335,0.26458335 0 0 0 -0.0114,-0.0062 0.26458335,0.26458335 0 0 0 -0.0119,-0.0052 0.26458335,0.26458335 0 0 0 -0.0124,-0.0047 0.26458335,0.26458335 0 0 0 -0.0119,-0.0041 0.26458335,0.26458335 0 0 0 -0.0129,-0.0031 0.26458335,0.26458335 0 0 0 -0.0124,-0.0031 0.26458335,0.26458335 0 0 0 -0.0129,-0.0021 0.26458335,0.26458335 0 0 0 -0.0129,-0.0015 0.26458335,0.26458335 0 0 0 -0.0129,-10e-4 0.26458335,0.26458335 0 0 0 -0.0129,-5.17e-4 z"
       style="fill:#333333;stroke-width:0.17639"
       id="path391" /></g></svg>
