<?xml version="1.0" encoding="UTF-8" standalone="no"?>
<!-- Created with Inkscape (http://www.inkscape.org/) -->

<svg
   width="6.0049438pt"
   height="4.1534615pt"
   viewBox="0 0 2.1184108 1.4652489"
   version="1.1"
   id="svg1"
   xml:space="preserve"
   inkscape:version="1.3 (0e150ed6c4, 2023-07-21)"
   sodipodi:docname="custom.svg"
   xmlns:inkscape="http://www.inkscape.org/namespaces/inkscape"
   xmlns:sodipodi="http://sodipodi.sourceforge.net/DTD/sodipodi-0.dtd"
   xmlns="http://www.w3.org/2000/svg"
   xmlns:svg="http://www.w3.org/2000/svg"><sodipodi:namedview
     id="namedview1"
     pagecolor="#333333"
     bordercolor="#eeeeee"
     borderopacity="1"
     inkscape:showpageshadow="0"
     inkscape:pageopacity="0"
     inkscape:pagecheckerboard="0"
     inkscape:deskcolor="#d1d1d1"
     inkscape:document-units="pt"
     inkscape:zoom="2.8284272"
     inkscape:cx="4015.129"
     inkscape:cy="260.21529"
     inkscape:window-width="2400"
     inkscape:window-height="1511"
     inkscape:window-x="-9"
     inkscape:window-y="-9"
     inkscape:window-maximized="1"
     inkscape:current-layer="layer1"
     showgrid="true"
     showguides="false"
     inkscape:lockguides="true"><inkscape:grid
       id="grid1"
       units="in"
       originx="-2887.3371"
       originy="-118.16158"
       spacingx="1"
       spacingy="1"
       empcolor="#0099e5"
       empopacity="0.30196078"
       color="#0099e5"
       opacity="0.14901961"
       empspacing="5"
       dotted="true"
       gridanglex="30"
       gridanglez="30"
       visible="true"
       enabled="true" /><sodipodi:guide
       position="73.5,84.977927"
       orientation="1,0"
       id="guide23"
       inkscape:locked="true" /><sodipodi:guide
       position="81.167449,88.900003"
       orientation="0,-1"
       id="guide24"
       inkscape:locked="true" /><sodipodi:guide
       position="76.5,85.900003"
       orientation="0,1"
       id="guide25"
       inkscape:locked="true"
       inkscape:label=""
       inkscape:color="rgb(0,134,229)" /><sodipodi:guide
       position="137,88.900003"
       orientation="336,0"
       id="guide26"
       inkscape:locked="true" /><sodipodi:guide
       position="137,3.0000021"
       orientation="0,1"
       id="guide27"
       inkscape:locked="true"
       inkscape:label=""
       inkscape:color="rgb(0,134,229)" /><sodipodi:guide
       position="76.5,2.0000001e-06"
       orientation="-1,0"
       id="guide28"
       inkscape:locked="true"
       inkscape:label=""
       inkscape:color="rgb(0,134,229)" /><sodipodi:guide
       position="137,2.0426322e-06"
       orientation="0,1"
       id="guide29"
       inkscape:label=""
       inkscape:locked="true"
       inkscape:color="rgb(0,134,229)" /><sodipodi:guide
       position="134,88.900003"
       orientation="-1,0"
       id="guide30"
       inkscape:label=""
       inkscape:locked="true"
       inkscape:color="rgb(0,134,229)" /><sodipodi:guide
       position="69.5,78.900003"
       orientation="0,1"
       id="guide35"
       inkscape:label=""
       inkscape:locked="true"
       inkscape:color="rgb(0,134,229)" /><inkscape:grid
       id="grid143"
       units="pt"
       originx="-2887.1613"
       originy="-117.98519"
       spacingx="0.35277778"
       spacingy="0.35277778"
       empcolor="#0099e5"
       empopacity="0.30196078"
       color="#0099e5"
       opacity="0.14901961"
       empspacing="5"
       dotted="true"
       gridanglex="30"
       gridanglez="30"
       visible="true"
       enabled="false" /><inkscape:page
       x="3.1964094e-06"
       y="5.6302301e-08"
       width="2.1184108"
       height="1.4652489"
       id="page4"
       margin="0"
       bleed="0" /></sodipodi:namedview><defs
     id="defs1" /><g
     inkscape:label="Layer 1"
     inkscape:groupmode="layer"
     id="layer1"
     transform="translate(-763.94126,-31.263584)"><path
       d="m 764.99982,31.263725 c -0.0182,0 -0.0362,6.34e-4 -0.0543,0.0015 -0.018,9.17e-4 -0.036,0.0018 -0.0537,0.0036 -0.0178,0.0018 -0.0352,0.0046 -0.0527,0.0072 -0.0175,0.0027 -0.035,0.0058 -0.0522,0.0093 -0.0172,0.0035 -0.0343,0.0075 -0.0512,0.01189 -0.0169,0.0044 -0.0336,0.0088 -0.0501,0.01395 -0.0166,0.0052 -0.0329,0.01059 -0.0491,0.01654 -0.0162,0.0059 -0.0322,0.01241 -0.0481,0.01912 -0.0158,0.0067 -0.0316,0.01374 -0.047,0.02119 -0.0154,0.0074 -0.0305,0.01561 -0.0455,0.02377 -0.015,0.0082 -0.0299,0.01647 -0.0444,0.02532 -0.0146,0.0089 -0.0288,0.01786 -0.0429,0.02739 -0.0141,0.0095 -0.0277,0.0198 -0.0413,0.02997 -0.0136,0.01017 -0.0272,0.02021 -0.0403,0.03101 -0.0131,0.0108 -0.0257,0.02219 -0.0382,0.03359 -0.0126,0.0114 -0.0247,0.02316 -0.0367,0.03514 -0.012,0.01198 -0.0237,0.02415 -0.0351,0.03669 -0.0114,0.01254 -0.0228,0.02516 -0.0336,0.03824 -0.0108,0.01308 -0.0214,0.02672 -0.0315,0.04031 -0.0102,0.01359 -0.0199,0.02726 -0.0294,0.04134 -0.01,0.01408 -0.0185,0.02834 -0.0274,0.04289 -0.009,0.01455 -0.0172,0.02944 -0.0253,0.04444 -0.008,0.015 -0.0163,0.03005 -0.0238,0.04547 -0.007,0.01542 -0.0145,0.0312 -0.0212,0.04703 -0.007,0.01582 -0.0132,0.03186 -0.0191,0.04806 -0.006,0.0162 -0.0114,0.03253 -0.0165,0.04909 -0.005,0.01656 -0.0101,0.03323 -0.0145,0.05013 -0.004,0.01689 -0.008,0.03395 -0.0114,0.05116 -0.004,0.01721 -0.007,0.0347 -0.009,0.05219 -0.003,0.0175 -0.005,0.03495 -0.007,0.05271 -0.002,0.01776 -0.003,0.03573 -0.004,0.05374 -9.2e-4,0.01801 -0.002,0.03603 -0.002,0.05426 h 0.1757 c 0,-0.01525 2.7e-4,-0.03041 10e-4,-0.04547 7.6e-4,-0.01506 0.002,-0.02959 0.004,-0.04444 0.002,-0.01485 0.003,-0.02982 0.006,-0.04444 0.002,-0.01462 0.005,-0.02903 0.008,-0.04341 0.003,-0.01438 0.006,-0.02878 0.01,-0.04289 0.004,-0.01411 0.008,-0.02803 0.0119,-0.04186 0.004,-0.01383 0.009,-0.0273 0.014,-0.04082 0.005,-0.01353 0.01,-0.0271 0.0155,-0.04031 0.006,-0.0132 0.0114,-0.02641 0.0176,-0.03927 0.006,-0.01287 0.0128,-0.02521 0.0196,-0.03772 0.007,-0.01251 0.0138,-0.02507 0.0212,-0.03721 0.007,-0.01213 0.0148,-0.02392 0.0227,-0.03566 0.008,-0.01174 0.0163,-0.0233 0.0248,-0.03462 0.008,-0.01133 0.0174,-0.02269 0.0264,-0.03359 0.009,-0.0109 0.0179,-0.02159 0.0274,-0.03204 0.009,-0.01045 0.0195,-0.02051 0.0294,-0.03049 0.01,-0.01 0.02,-0.01996 0.0305,-0.02946 0.0104,-0.0095 0.0211,-0.0184 0.032,-0.02739 0.0109,-0.009 0.0223,-0.01789 0.0336,-0.02635 0.0113,-0.0085 0.0229,-0.01636 0.0346,-0.02429 0.0117,-0.0079 0.0235,-0.01589 0.0357,-0.02325 0.0121,-0.0074 0.0247,-0.0144 0.0372,-0.02119 0.0125,-0.0068 0.0249,-0.01344 0.0377,-0.01964 0.0129,-0.0062 0.0261,-0.01199 0.0393,-0.01757 0.0132,-0.0056 0.0268,-0.01056 0.0403,-0.0155 0.0135,-0.0049 0.027,-0.0097 0.0408,-0.01395 0.002,-6.94e-4 0.004,-0.0014 0.007,-0.0021 0.004,-0.0089 0.009,-0.01737 0.0134,-0.02584 0.005,-0.0093 0.0102,-0.01812 0.0155,-0.02687 0.005,-0.0087 0.0109,-0.01762 0.0165,-0.02584 0.006,-0.0082 0.0111,-0.0161 0.0171,-0.02377 0.006,-0.0077 0.0121,-0.01498 0.0186,-0.02222 0.007,-0.0072 0.0136,-0.01401 0.0207,-0.02067 0.007,-0.0067 0.0141,-0.0132 0.0217,-0.01912 0.008,-0.0059 0.0157,-0.0115 0.0238,-0.01654 0.008,-0.005 0.0162,-0.0094 0.0248,-0.01344 0.009,-0.004 0.0173,-0.0075 0.0263,-0.01033 0.009,-0.0028 0.0183,-0.0052 0.0279,-0.0067 0.01,-0.0015 0.0194,-0.0021 0.0294,-0.0021 z"
       style="fill:#333333"
       id="path153" /><path
       d="m 764.99982,31.263725 v 0.1757 c 0.0153,0 0.0304,2.72e-4 0.0455,0.001 0.0151,7.62e-4 0.0301,0.0021 0.045,0.0036 0.0149,0.0015 0.0298,0.0035 0.0444,0.0057 0.0146,0.0022 0.029,0.0048 0.0434,0.0078 0.0144,0.0029 0.0288,0.0062 0.0429,0.0098 0.0141,0.0036 0.028,0.0076 0.0419,0.01189 0.0138,0.0043 0.0273,0.009 0.0408,0.01395 0.0135,0.0049 0.0271,0.0099 0.0403,0.0155 0.0132,0.0056 0.0259,0.01138 0.0388,0.01757 0.0129,0.0062 0.0257,0.01285 0.0382,0.01964 0.0125,0.0068 0.0251,0.01382 0.0372,0.02119 0.0121,0.0074 0.0239,0.01533 0.0357,0.02325 0.0117,0.0079 0.0233,0.01582 0.0346,0.02429 0.0113,0.0085 0.0222,0.01736 0.0331,0.02635 0.0109,0.009 0.0216,0.01789 0.032,0.02739 0.0104,0.0095 0.021,0.01948 0.031,0.02946 0.01,0.01 0.0195,0.02004 0.0289,0.03049 0.009,0.01045 0.0189,0.02114 0.0279,0.03204 0.009,0.0109 0.0179,0.02226 0.0264,0.03359 0.008,0.01133 0.0164,0.02288 0.0243,0.03462 0.008,0.01174 0.0159,0.02352 0.0232,0.03566 0.007,0.01213 0.0144,0.0247 0.0212,0.03721 0.007,0.01251 0.0129,0.02486 0.0191,0.03772 0.006,0.01287 0.0125,0.02607 0.0181,0.03927 0.006,0.01321 0.0106,0.02678 0.0155,0.04031 0.005,0.01353 0.01,0.027 0.0139,0.04082 0.004,0.01383 0.008,0.02775 0.0119,0.04186 0.004,0.01411 0.007,0.02851 0.01,0.04289 0.003,0.01438 0.006,0.02878 0.008,0.04341 0.002,0.01462 0.004,0.02959 0.006,0.04444 0.002,0.01485 0.002,0.02938 0.003,0.04444 7.6e-4,0.01506 0.002,0.03022 0.002,0.04547 h 0.1757 c 0,-0.01823 -6.3e-4,-0.03625 -0.002,-0.05426 -9.1e-4,-0.01801 -0.002,-0.03598 -0.004,-0.05374 -0.002,-0.01777 -0.004,-0.03521 -0.007,-0.05271 -0.003,-0.0175 -0.006,-0.03499 -0.009,-0.05219 -0.004,-0.01721 -0.008,-0.03426 -0.0119,-0.05116 -0.004,-0.0169 -0.009,-0.03357 -0.014,-0.05013 -0.005,-0.01656 -0.0111,-0.03289 -0.017,-0.04909 -0.006,-0.0162 -0.0119,-0.03224 -0.0186,-0.04806 -0.007,-0.01582 -0.0142,-0.0316 -0.0217,-0.04703 -0.007,-0.01542 -0.0151,-0.03048 -0.0232,-0.04547 -0.008,-0.015 -0.0165,-0.02989 -0.0253,-0.04444 -0.009,-0.01455 -0.0184,-0.02881 -0.0279,-0.04289 -0.01,-0.01408 -0.0193,-0.02775 -0.0295,-0.04134 -0.0102,-0.01359 -0.0207,-0.02723 -0.0315,-0.04031 -0.0108,-0.01308 -0.0217,-0.0257 -0.0331,-0.03824 -0.0114,-0.01254 -0.0232,-0.02471 -0.0351,-0.03669 -0.012,-0.01198 -0.0242,-0.02374 -0.0367,-0.03514 -0.0125,-0.0114 -0.0257,-0.02279 -0.0388,-0.03359 -0.0131,-0.0108 -0.0262,-0.02083 -0.0398,-0.03101 -0.0136,-0.01017 -0.0273,-0.02045 -0.0413,-0.02997 -0.0141,-0.0095 -0.0283,-0.01853 -0.0429,-0.02739 -0.0145,-0.0089 -0.0294,-0.01716 -0.0444,-0.02532 -0.015,-0.0082 -0.0306,-0.01633 -0.046,-0.02377 -0.0154,-0.0074 -0.0307,-0.01448 -0.0465,-0.02119 -0.0158,-0.0067 -0.0319,-0.01317 -0.0481,-0.01912 -0.0162,-0.0059 -0.0325,-0.01137 -0.0491,-0.01654 -0.0166,-0.0052 -0.0332,-0.0096 -0.0501,-0.01395 -0.0169,-0.0044 -0.034,-0.0084 -0.0512,-0.01189 -0.0172,-0.0035 -0.0347,-0.0066 -0.0522,-0.0093 -0.0175,-0.0027 -0.0355,-0.0054 -0.0532,-0.0072 -0.0178,-0.0018 -0.0352,-0.0027 -0.0532,-0.0036 -0.018,-9.16e-4 -0.0365,-0.0015 -0.0548,-0.0015 z"
       style="fill:#333333"
       id="path35" /><path
       d="m 763.94149,32.322058 c 0,0.01004 5.8e-4,0.01989 0.002,0.02946 10e-4,0.0096 0.004,0.01882 0.007,0.0279 0.003,0.0091 0.006,0.01828 0.0103,0.02687 0.004,0.0086 0.008,0.01672 0.0134,0.0248 0.005,0.0081 0.0106,0.0162 0.0165,0.02377 0.006,0.0076 0.0119,0.01466 0.0186,0.0217 0.007,0.007 0.0139,0.01364 0.0212,0.02015 0.007,0.0065 0.0146,0.01316 0.0222,0.01912 0.008,0.006 0.0156,0.01143 0.0238,0.01705 0.008,0.0056 0.0171,0.01122 0.0258,0.01654 0.009,0.0053 0.0176,0.01048 0.0269,0.0155 0.008,0.0046 0.0169,0.0091 0.0258,0.01344 -0.004,-0.01163 -0.007,-0.02331 -0.01,-0.03514 -0.004,-0.01411 -0.007,-0.02851 -0.01,-0.04289 -0.003,-0.01438 -0.006,-0.02878 -0.008,-0.04341 -0.002,-0.01462 -0.004,-0.02959 -0.006,-0.04444 -10e-4,-0.01485 -0.003,-0.0299 -0.004,-0.04496 -7.6e-4,-0.01506 -10e-4,-0.03022 -10e-4,-0.04548 z"
       style="fill:#333333"
       id="path228" /><path
       d="m 765.88297,32.322058 c 0,0.01525 -7.9e-4,0.03041 -0.002,0.04548 -7.6e-4,0.01506 -0.002,0.03011 -0.003,0.04496 -0.002,0.01485 -0.003,0.02982 -0.006,0.04444 -0.002,0.01462 -0.005,0.02903 -0.008,0.04341 -0.003,0.01438 -0.006,0.02878 -0.01,0.04289 -0.003,0.01167 -0.006,0.02314 -0.01,0.03462 0.009,-0.0043 0.0176,-0.0084 0.0258,-0.01292 0.009,-0.005 0.0181,-0.01019 0.0269,-0.0155 0.009,-0.0053 0.0171,-0.01091 0.0253,-0.01654 0.008,-0.0056 0.0161,-0.01109 0.0238,-0.01705 0.008,-0.006 0.0155,-0.01261 0.0227,-0.01912 0.007,-0.0065 0.014,-0.01311 0.0207,-0.02015 0.007,-0.007 0.0132,-0.01413 0.0191,-0.0217 0.006,-0.0076 0.0115,-0.01569 0.0165,-0.02377 0.005,-0.0081 0.009,-0.01622 0.0134,-0.0248 0.004,-0.0086 0.008,-0.01779 0.0103,-0.02687 0.003,-0.0091 0.005,-0.01834 0.006,-0.0279 10e-4,-0.0096 0.003,-0.01942 0.003,-0.02946 z"
       style="fill:#333333"
       id="path224" /><path
       d="m 764.7988,32.722034 c 0.0325,0.0022 0.0657,0.0036 0.0992,0.0047 0.0336,0.0011 0.0673,0.0021 0.1018,0.0021 0.0345,0 0.0688,-9.67e-4 0.10232,-0.0021 0.0336,-0.0011 0.0667,-0.0025 0.0992,-0.0047 0.0325,-0.0022 0.0642,-0.0051 0.0956,-0.0083 0.0314,-0.0032 0.0625,-0.0067 0.0925,-0.01085 0.0301,-0.0042 0.0592,-0.0088 0.0879,-0.01395 0.0286,-0.0051 0.0567,-0.01051 0.0837,-0.01654 0.0271,-0.006 0.0532,-0.01274 0.0786,-0.01964 0.0254,-0.0069 0.0498,-0.01397 0.0734,-0.02171 0.0235,-0.0077 0.0461,-0.01628 0.0677,-0.0248 0.0216,-0.0085 0.0419,-0.01738 0.0615,-0.02687 10e-4,-5.08e-4 0.002,-0.001 0.003,-0.0016 0.003,-0.01148 0.007,-0.02295 0.01,-0.03462 0.004,-0.01411 0.007,-0.02851 0.01,-0.04289 0.003,-0.01438 0.006,-0.02878 0.008,-0.04341 0.002,-0.01462 0.004,-0.02959 0.006,-0.04444 0.002,-0.01485 0.002,-0.0299 0.003,-0.04496 7.6e-4,-0.01506 0.002,-0.03022 0.002,-0.04548 0,0.002 -4.1e-4,0.005 -0.002,0.0083 -10e-4,0.0033 -0.003,0.0068 -0.006,0.01137 -0.003,0.0046 -0.007,0.0096 -0.0129,0.0155 -0.006,0.0059 -0.0135,0.01249 -0.0227,0.01964 -0.009,0.0072 -0.0196,0.01473 -0.032,0.02222 -0.0124,0.0075 -0.0266,0.01521 -0.0419,0.02274 -0.0153,0.0075 -0.0322,0.01496 -0.0501,0.02222 -0.018,0.0073 -0.037,0.01398 -0.0574,0.02067 -0.0204,0.0067 -0.0421,0.01306 -0.0646,0.01912 -0.0225,0.0061 -0.0458,0.01219 -0.0703,0.01757 -0.0245,0.0054 -0.0502,0.01036 -0.0765,0.01499 -0.0263,0.0046 -0.0532,0.0086 -0.0811,0.0124 -0.0279,0.0038 -0.057,0.0074 -0.0863,0.01033 -0.0293,0.003 -0.0593,0.0052 -0.0899,0.0072 -0.0306,0.002 -0.0614,0.0036 -0.093,0.0047 -0.0316,10e-4 -0.0641,0.0016 -0.0966,0.0016 -0.0325,0 -0.0645,-5.06e-4 -0.0961,-0.0016 -0.0316,-10e-4 -0.063,-0.0026 -0.0935,-0.0047 -0.0109,-7.23e-4 -0.0213,-0.0017 -0.032,-0.0026 0.002,0.01942 0.003,0.03898 0.005,0.05788 0.003,0.02934 0.006,0.05838 0.01,0.0863 0.002,0.01175 0.004,0.02263 0.006,0.03411 z"
       style="fill:#333333"
       id="path175" /><path
       d="m 764.60036,32.523596 c -0.0159,-0.0024 -0.0322,-0.0045 -0.0475,-0.0072 -0.0263,-0.0046 -0.0515,-0.0096 -0.076,-0.01499 -0.0245,-0.0054 -0.0483,-0.01151 -0.0708,-0.01757 -0.0225,-0.0061 -0.0437,-0.01243 -0.0641,-0.01912 -0.0204,-0.0067 -0.0399,-0.01341 -0.0579,-0.02067 -0.018,-0.0073 -0.0348,-0.0147 -0.0501,-0.02222 -0.0153,-0.0075 -0.029,-0.01525 -0.0413,-0.02274 -0.0124,-0.0075 -0.0234,-0.01507 -0.0326,-0.02222 -0.009,-0.0072 -0.0165,-0.01378 -0.0222,-0.01964 -0.006,-0.0059 -0.01,-0.01094 -0.0129,-0.0155 -0.003,-0.0046 -0.005,-0.0086 -0.006,-0.01188 -10e-4,-0.0033 -0.002,-0.0058 -0.002,-0.0078 0,0.01525 2.7e-4,0.03041 0.001,0.04548 7.6e-4,0.01506 0.002,0.03011 0.004,0.04496 0.002,0.01485 0.003,0.02982 0.006,0.04444 0.002,0.01462 0.005,0.02903 0.008,0.04341 0.003,0.01438 0.006,0.02878 0.01,0.04289 0.003,0.01183 0.006,0.02351 0.01,0.03514 8.5e-4,4.15e-4 0.002,6.22e-4 0.003,10e-4 0.0196,0.0095 0.0404,0.01835 0.062,0.02687 0.0216,0.0085 0.0442,0.01707 0.0677,0.0248 0.0235,0.0077 0.048,0.01481 0.0734,0.02171 0.0254,0.0069 0.0515,0.01361 0.0785,0.01964 0.0271,0.006 0.0551,0.01142 0.0837,0.01654 0.0286,0.0051 0.0578,0.0098 0.0879,0.01395 0.003,3.52e-4 0.005,6.88e-4 0.008,10e-4 -0.004,-0.02764 -0.007,-0.05602 -0.0103,-0.08475 -0.003,-0.03136 -0.006,-0.06307 -0.008,-0.0956 z"
       style="fill:#333333"
       id="path172" /><path
       d="m 764.60036,32.523596 c 0.002,0.03253 0.005,0.06424 0.008,0.0956 0.003,0.02873 0.007,0.05711 0.0103,0.08475 0.0276,0.0037 0.0555,0.0069 0.0842,0.0098 0.0314,0.0032 0.0636,0.0061 0.0961,0.0083 -0.002,-0.01147 -0.004,-0.02236 -0.006,-0.03411 -0.004,-0.02792 -0.007,-0.05696 -0.01,-0.0863 -0.002,-0.01889 -0.004,-0.03846 -0.005,-0.05788 -0.0194,-0.0015 -0.039,-0.0028 -0.0579,-0.0047 -0.0293,-0.003 -0.0579,-0.0065 -0.0858,-0.01033 -0.0117,-0.0016 -0.0227,-0.0034 -0.0341,-0.0052 z"
       style="fill:#333333"
       id="path159" /><path
       d="m 764.74402,31.477149 c -4.1e-4,8.47e-4 -6.2e-4,0.0017 -10e-4,0.0026 -0.009,0.01958 -0.0189,0.04042 -0.0274,0.06201 -0.009,0.02159 -0.0165,0.04417 -0.0243,0.0677 -0.008,0.02353 -0.0148,0.04802 -0.0217,0.07338 -0.007,0.02536 -0.0136,0.05149 -0.0196,0.07855 -0.006,0.02706 -0.0114,0.05509 -0.0165,0.08372 -0.005,0.02862 -0.01,0.05779 -0.014,0.08785 -0.004,0.03006 -0.008,0.06062 -0.0114,0.09198 -0.003,0.03136 -0.006,0.06359 -0.008,0.09612 -0.002,0.03253 -0.004,0.06566 -0.005,0.09922 -10e-4,0.03356 -0.002,0.06734 -0.002,0.101802 0,0.03447 4.5e-4,0.06876 0.002,0.10232 0.001,0.03356 0.003,0.06669 0.005,0.09922 0.0114,0.0017 0.0224,0.0036 0.0341,0.0052 0.0279,0.0038 0.0564,0.0074 0.0858,0.01033 0.0189,0.0019 0.0385,0.0031 0.0579,0.0047 -8.4e-4,-0.01074 -0.002,-0.02115 -0.003,-0.03204 -0.002,-0.03058 -0.004,-0.06138 -0.005,-0.09302 -10e-4,-0.03164 -0.002,-0.06413 -0.002,-0.09663 0,-0.03251 5e-4,-0.06448 0.002,-0.09612 0.001,-0.03164 0.003,-0.06295 0.005,-0.09353 0.002,-0.03059 0.005,-0.06057 0.008,-0.08992 0.003,-0.02935 0.006,-0.05786 0.01,-0.08578 0.004,-0.02792 0.008,-0.05482 0.0129,-0.08113 0.005,-0.02631 0.01,-0.05197 0.015,-0.07648 0.005,-0.02451 0.011,-0.04827 0.0171,-0.0708 0.006,-0.02253 0.0124,-0.04371 0.0191,-0.06408 0.007,-0.02037 0.0139,-0.03991 0.0212,-0.05788 0.007,-0.01797 0.0147,-0.0343 0.0222,-0.04961 0.008,-0.01531 0.0152,-0.02947 0.0227,-0.04186 0.007,-0.01239 0.0146,-0.02336 0.0217,-0.03256 0.007,-0.0092 0.0138,-0.01647 0.0196,-0.02222 0.006,-0.0058 0.0115,-0.0098 0.016,-0.01292 0.005,-0.0031 0.008,-0.005 0.0114,-0.0062 0.003,-0.0012 0.006,-0.0016 0.008,-0.0016 -0.0153,0 -0.0304,2.72e-4 -0.0455,10e-4 -0.0151,7.62e-4 -0.0301,0.0021 -0.045,0.0036 -0.0149,0.0015 -0.0293,0.0035 -0.0439,0.0057 -0.0146,0.0022 -0.029,0.0048 -0.0434,0.0078 -0.0144,0.0029 -0.0288,0.0062 -0.0429,0.0098 -0.0118,0.003 -0.0235,0.0063 -0.0351,0.0098 z"
       style="fill:#333333"
       id="path158" /><path
       d="m 764.99982,31.263725 c -0.01,0 -0.0199,5.82e-4 -0.0294,0.0021 -0.01,0.0015 -0.0188,0.0039 -0.0279,0.0067 -0.009,0.0028 -0.0178,0.0063 -0.0263,0.01033 -0.009,0.004 -0.0167,0.0084 -0.0248,0.01344 -0.008,0.005 -0.0162,0.01061 -0.0238,0.01654 -0.008,0.0059 -0.0147,0.01246 -0.0217,0.01912 -0.007,0.0067 -0.0142,0.01343 -0.0207,0.02067 -0.007,0.0072 -0.0126,0.01455 -0.0186,0.02222 -0.006,0.0077 -0.0114,0.01556 -0.0171,0.02377 -0.006,0.0082 -0.0112,0.01709 -0.0165,0.02584 -0.005,0.0087 -0.0105,0.0176 -0.0155,0.02687 -0.005,0.0085 -0.009,0.01694 -0.0134,0.02584 0.0116,-0.0035 0.0233,-0.0068 0.0351,-0.0098 0.0141,-0.0036 0.0285,-0.0069 0.0429,-0.0098 0.0144,-0.0029 0.0288,-0.0055 0.0434,-0.0078 0.0146,-0.0022 0.0291,-0.0042 0.0439,-0.0057 0.0149,-0.0015 0.0299,-0.0029 0.045,-0.0036 0.0151,-7.61e-4 0.0302,-0.001 0.0455,-0.001 z"
       style="fill:#333333"
       id="path40" /></g></svg>
