<?xml version="1.0" encoding="UTF-8" standalone="no"?>
<!-- Created with Inkscape (http://www.inkscape.org/) -->

<svg
   width="6.0073242pt"
   height="5.9975395pt"
   viewBox="0 0 2.1192505 2.1157987"
   version="1.1"
   id="svg1"
   xml:space="preserve"
   xmlns="http://www.w3.org/2000/svg"
   xmlns:svg="http://www.w3.org/2000/svg"><defs
     id="defs1" /><g
     id="layer1"
     transform="translate(-767.66418,-53.44677)"><path
       id="path513"
       style="color:#000000;fill:#55a868;stroke-linecap:round;-inkscape-stroke:none"
       d="m 768.06132,53.447335 a 0.0881945,0.0881945 0 0 0 -0.0264,0.0088 0.0881945,0.0881945 0 0 0 -0.008,0.0057 0.0881945,0.0881945 0 0 0 -5.2e-4,5.16e-4 0.0881945,0.0881945 0 0 0 -0.0186,0.01654 0.0881945,0.0881945 0 0 0 -0.004,0.0057 0.0881945,0.0881945 0 0 0 -0.009,0.01602 0.0881945,0.0881945 0 0 0 -0.004,0.01395 0.0881945,0.0881945 0 0 0 -0.002,0.0098 0.0881945,0.0881945 0 0 0 0.0134,0.06046 c 10e-4,0.0017 0.002,0.0034 0.004,0.0052 0.17577,0.335085 0.44727,0.518341 0.72863,0.518315 0.28547,-2.6e-5 0.56303,-0.188276 0.73846,-0.532784 a 0.0881945,0.0881945 0 0 0 -0.0393,-0.119373 0.0881945,0.0881945 0 0 0 -0.0171,-0.0057 0.0881945,0.0881945 0 0 0 -5.1e-4,0 0.0881945,0.0881945 0 0 0 -0.0243,-0.0031 0.0881945,0.0881945 0 0 0 -0.003,0 0.0881945,0.0881945 0 0 0 -0.001,0 0.0881945,0.0881945 0 0 0 -0.0227,0.0047 0.0881945,0.0881945 0 0 0 -0.0129,0.0062 0.0881945,0.0881945 0 0 0 -0.009,0.0052 0.0881945,0.0881945 0 0 0 -0.0109,0.0093 0.0881945,0.0881945 0 0 0 -0.008,0.0083 0.0881945,0.0881945 0 0 0 -0.004,0.0047 c -0.14958,0.22443 -0.36843,0.331748 -0.58602,0.331763 -0.21759,1.5e-5 -0.43638,-0.107353 -0.58601,-0.331763 a 0.0881945,0.0881945 0 0 0 -0.005,-0.0057 0.0881945,0.0881945 0 0 0 -0.0103,-0.01085 0.0881945,0.0881945 0 0 0 -0.008,-0.0067 0.0881945,0.0881945 0 0 0 -0.0186,-0.0098 0.0881945,0.0881945 0 0 0 -0.003,-5.17e-4 0.0881945,0.0881945 0 0 0 -0.0419,-0.0047 z m -0.31419,0.299207 a 0.0881945,0.0881945 0 0 0 -0.0129,0.0026 0.0881945,0.0881945 0 0 0 -5.2e-4,0 0.0881945,0.0881945 0 0 0 -0.009,0.0021 0.0881945,0.0881945 0 0 0 -0.01,0.0047 0.0881945,0.0881945 0 0 0 -0.003,0.001 0.0881945,0.0881945 0 0 0 -0.0382,0.03721 0.0881945,0.0881945 0 0 0 -0.004,0.06821 0.0881945,0.0881945 0 0 0 0.002,0.0041 0.0881945,0.0881945 0 0 0 0.009,0.01705 0.0881945,0.0881945 0 0 0 0.007,0.0088 0.0881945,0.0881945 0 0 0 0.01,0.0093 0.0881945,0.0881945 0 0 0 0.006,0.0057 c 0.22441,0.149603 0.33228,0.368418 0.33228,0.58601 0,0.217593 -0.10787,0.4364 -0.33228,0.586011 a 0.0881945,0.0881945 0 0 0 -0.006,0.0052 0.0881945,0.0881945 0 0 0 -0.0103,0.0098 0.0881945,0.0881945 0 0 0 -0.007,0.0088 0.0881945,0.0881945 0 0 0 -0.009,0.01705 0.0881945,0.0881945 0 0 0 -0.002,0.0041 0.0881945,0.0881945 0 0 0 0.004,0.06821 0.0881945,0.0881945 0 0 0 0.006,0.0072 0.0881945,0.0881945 0 0 0 0,5.17e-4 0.0881945,0.0881945 0 0 0 5.2e-4,5.17e-4 0.0881945,0.0881945 0 0 0 0.0176,0.01912 0.0881945,0.0881945 0 0 0 5.1e-4,5.17e-4 0.0881945,0.0881945 0 0 0 5.2e-4,5.16e-4 0.0881945,0.0881945 0 0 0 0.0227,0.0124 0.0881945,0.0881945 0 0 0 5.1e-4,5.17e-4 0.0881945,0.0881945 0 0 0 0.002,5.16e-4 0.0881945,0.0881945 0 0 0 0.0212,0.0047 0.0881945,0.0881945 0 0 0 0.0124,-5.17e-4 0.0881945,0.0881945 0 0 0 0.0124,-10e-4 0.0881945,0.0881945 0 0 0 0.0176,-0.0062 0.0881945,0.0881945 0 0 0 0.005,-0.0016 c 0.34448,-0.175481 0.53333,-0.450912 0.5333,-0.736389 -2e-5,-0.285476 -0.18879,-0.560957 -0.5333,-0.736389 a 0.0881945,0.0881945 0 0 0 -0.005,-0.0021 0.0881945,0.0881945 0 0 0 -0.0119,-0.0041 0.0881945,0.0881945 0 0 0 -0.0155,-0.0031 0.0881945,0.0881945 0 0 0 -0.006,-5.16e-4 0.0881945,0.0881945 0 0 0 -0.008,-5.17e-4 z m 1.95026,0.02377 a 0.0881945,0.0881945 0 0 0 -0.008,5.17e-4 0.0881945,0.0881945 0 0 0 -0.007,10e-4 0.0881945,0.0881945 0 0 0 -0.0124,0.0021 0.0881945,0.0881945 0 0 0 -0.0124,0.0047 0.0881945,0.0881945 0 0 0 -0.005,0.0016 c -0.002,0.0012 -0.005,0.0024 -0.007,0.0036 a 0.0881945,0.0881945 0 0 0 -5.1e-4,5.17e-4 l -5.2e-4,5.16e-4 c -0.33907,0.175663 -0.52505,0.448623 -0.52503,0.731739 3e-5,0.285476 0.18879,0.563023 0.5333,0.738456 a 0.0881945,0.0881945 0 0 0 0.0708,0.0036 0.0881945,0.0881945 0 0 0 0.002,-10e-4 0.0881945,0.0881945 0 0 0 0.0222,-0.0124 0.0881945,0.0881945 0 0 0 10e-4,-0.001 0.0881945,0.0881945 0 0 0 0.015,-0.0155 0.0881945,0.0881945 0 0 0 0.003,-0.0031 0.0881945,0.0881945 0 0 0 0.006,-0.0098 0.0881945,0.0881945 0 0 0 0.002,-0.0031 0.0881945,0.0881945 0 0 0 0.003,-0.0067 0.0881945,0.0881945 0 0 0 0.003,-0.0093 0.0881945,0.0881945 0 0 0 0,-5.17e-4 0.0881945,0.0881945 0 0 0 0.002,-0.03152 0.0881945,0.0881945 0 0 0 0,-5.17e-4 0.0881945,0.0881945 0 0 0 -0.002,-0.0098 0.0881945,0.0881945 0 0 0 0,-0.001 0.0881945,0.0881945 0 0 0 -0.003,-0.0093 0.0881945,0.0881945 0 0 0 0,-5.17e-4 0.0881945,0.0881945 0 0 0 -0.005,-0.0093 0.0881945,0.0881945 0 0 0 0,-5.17e-4 0.0881945,0.0881945 0 0 0 -0.006,-0.0088 0.0881945,0.0881945 0 0 0 0,-5.16e-4 0.0881945,0.0881945 0 0 0 -0.007,-0.0078 0.0881945,0.0881945 0 0 0 0,-5.17e-4 0.0881945,0.0881945 0 0 0 -0.007,-0.0067 0.0881945,0.0881945 0 0 0 -5.2e-4,-5.16e-4 0.0881945,0.0881945 0 0 0 -0.008,-0.0062 l -5.2e-4,-5.16e-4 a 0.0881945,0.0881945 0 0 0 -10e-4,-5.17e-4 c -0.22337,-0.149561 -0.33021,-0.367891 -0.33022,-0.584977 -2e-5,-0.217593 0.10736,-0.434317 0.33177,-0.583944 a 0.0881945,0.0881945 0 0 0 0.0336,-0.103353 0.0881945,0.0881945 0 0 0 0,-5.17e-4 0.0881945,0.0881945 0 0 0 -0.004,-0.0093 0.0881945,0.0881945 0 0 0 -5.2e-4,-5.17e-4 0.0881945,0.0881945 0 0 0 -0.002,-0.0026 0.0881945,0.0881945 0 0 0 -0.004,-0.0067 0.0881945,0.0881945 0 0 0 -0.002,-0.0021 0.0881945,0.0881945 0 0 0 -0.0129,-0.01499 0.0881945,0.0881945 0 0 0 -10e-4,-5.17e-4 0.0881945,0.0881945 0 0 0 -0.0284,-0.01757 0.0881945,0.0881945 0 0 0 -0.0233,-0.0041 z m -0.96325,1.131197 c -0.2829,2.6e-5 -0.55611,0.185383 -0.73173,0.523999 -2.2e-4,3.2e-4 -3.1e-4,7.13e-4 -5.2e-4,10e-4 a 0.0881945,0.0881945 0 0 0 -10e-4,0.0021 c -10e-4,0.0021 -0.002,0.0041 -0.003,0.0062 a 0.0881945,0.0881945 0 0 0 -0.002,0.0036 0.0881945,0.0881945 0 0 0 -0.006,0.01912 0.0881945,0.0881945 0 0 0 -10e-4,0.0124 0.0881945,0.0881945 0 0 0 -5.2e-4,0.01188 0.0881945,0.0881945 0 0 0 0.005,0.02222 0.0881945,0.0881945 0 0 0 10e-4,0.0021 0.0881945,0.0881945 0 0 0 0.0124,0.02274 0.0881945,0.0881945 0 0 0 5.2e-4,5.17e-4 0.0881945,0.0881945 0 0 0 5.1e-4,5.17e-4 0.0881945,0.0881945 0 0 0 0.0191,0.01757 0.0881945,0.0881945 0 0 0 5.2e-4,5.16e-4 0.0881945,0.0881945 0 0 0 5.2e-4,0 0.0881945,0.0881945 0 0 0 0.007,0.0057 0.0881945,0.0881945 0 0 0 0.0171,0.0057 0.0881945,0.0881945 0 0 0 0.0269,0.0031 0.0881945,0.0881945 0 0 0 0.0243,-0.0047 0.0881945,0.0881945 0 0 0 0.003,-5.17e-4 0.0881945,0.0881945 0 0 0 0.002,-10e-4 0.0881945,0.0881945 0 0 0 0.0171,-0.0088 0.0881945,0.0881945 0 0 0 0.008,-0.0067 0.0881945,0.0881945 0 0 0 0.0109,-0.01137 0.0881945,0.0881945 0 0 0 0.005,-0.0052 c 0.14961,-0.22442 0.36842,-0.331763 0.58601,-0.331763 0.21759,0 0.43641,0.107342 0.58602,0.331763 a 0.0881945,0.0881945 0 0 0 0.004,0.0041 0.0881945,0.0881945 0 0 0 0.0119,0.0124 0.0881945,0.0881945 0 0 0 0.008,0.0067 0.0881945,0.0881945 0 0 0 0.0171,0.0088 0.0881945,0.0881945 0 0 0 0.004,0.0016 0.0881945,0.0881945 0 0 0 0.0243,0.0047 0.0881945,0.0881945 0 0 0 0.0269,-0.0031 0.0881945,0.0881945 0 0 0 0.0171,-0.0057 0.0881945,0.0881945 0 0 0 0.0393,-0.118856 c -0.17551,-0.344479 -0.45299,-0.533327 -0.73846,-0.533301 z" /></g></svg>
