<?xml version="1.0" encoding="UTF-8" standalone="no"?>
<!-- Created with Inkscape (http://www.inkscape.org/) -->

<svg
   width="6.0175781pt"
   height="3.0046806pt"
   viewBox="0 0 2.1228679 1.0599846"
   version="1.1"
   id="svg1"
   xml:space="preserve"
   inkscape:version="1.3 (0e150ed6c4, 2023-07-21)"
   sodipodi:docname="custom.svg"
   xmlns:inkscape="http://www.inkscape.org/namespaces/inkscape"
   xmlns:sodipodi="http://sodipodi.sourceforge.net/DTD/sodipodi-0.dtd"
   xmlns="http://www.w3.org/2000/svg"
   xmlns:svg="http://www.w3.org/2000/svg"><sodipodi:namedview
     id="namedview1"
     pagecolor="#ffffff"
     bordercolor="#eeeeee"
     borderopacity="1"
     inkscape:showpageshadow="0"
     inkscape:pageopacity="0"
     inkscape:pagecheckerboard="0"
     inkscape:deskcolor="#d1d1d1"
     inkscape:document-units="pt"
     inkscape:zoom="8"
     inkscape:cx="2889.8125"
     inkscape:cy="59.625"
     inkscape:window-width="2400"
     inkscape:window-height="1511"
     inkscape:window-x="-9"
     inkscape:window-y="-9"
     inkscape:window-maximized="1"
     inkscape:current-layer="layer1"
     showgrid="true"
     showguides="false"
     inkscape:lockguides="true"><inkscape:grid
       id="grid1"
       units="in"
       originx="-2900.1985"
       originy="-70.251953"
       spacingx="1"
       spacingy="1"
       empcolor="#0099e5"
       empopacity="0.30196078"
       color="#0099e5"
       opacity="0.14901961"
       empspacing="5"
       dotted="true"
       gridanglex="30"
       gridanglez="30"
       visible="true"
       enabled="false" /><sodipodi:guide
       position="73.5,84.977927"
       orientation="1,0"
       id="guide23"
       inkscape:locked="true" /><sodipodi:guide
       position="81.167449,88.900003"
       orientation="0,-1"
       id="guide24"
       inkscape:locked="true" /><sodipodi:guide
       position="76.5,85.900003"
       orientation="0,1"
       id="guide25"
       inkscape:locked="true"
       inkscape:label=""
       inkscape:color="rgb(0,134,229)" /><sodipodi:guide
       position="137,88.900003"
       orientation="336,0"
       id="guide26"
       inkscape:locked="true" /><sodipodi:guide
       position="137,3.0000021"
       orientation="0,1"
       id="guide27"
       inkscape:locked="true"
       inkscape:label=""
       inkscape:color="rgb(0,134,229)" /><sodipodi:guide
       position="76.5,2.0000001e-06"
       orientation="-1,0"
       id="guide28"
       inkscape:locked="true"
       inkscape:label=""
       inkscape:color="rgb(0,134,229)" /><sodipodi:guide
       position="137,2.0426322e-06"
       orientation="0,1"
       id="guide29"
       inkscape:label=""
       inkscape:locked="true"
       inkscape:color="rgb(0,134,229)" /><sodipodi:guide
       position="134,88.900003"
       orientation="-1,0"
       id="guide30"
       inkscape:label=""
       inkscape:locked="true"
       inkscape:color="rgb(0,134,229)" /><sodipodi:guide
       position="69.5,78.900003"
       orientation="0,1"
       id="guide35"
       inkscape:label=""
       inkscape:locked="true"
       inkscape:color="rgb(0,134,229)" /><inkscape:grid
       id="grid143"
       units="pt"
       originx="-2900.0227"
       originy="-70.075564"
       spacingx="0.35277778"
       spacingy="0.35277778"
       empcolor="#0099e5"
       empopacity="0.30196078"
       color="#0099e5"
       opacity="0.14901961"
       empspacing="5"
       dotted="true"
       gridanglex="30"
       gridanglez="30"
       visible="true"
       enabled="true" /><inkscape:page
       x="4.3410873e-06"
       y="-7.5694464e-07"
       width="2.1228678"
       height="1.0599846"
       id="page4"
       margin="0"
       bleed="0" /></sodipodi:namedview><defs
     id="defs1" /><g
     inkscape:label="Layer 1"
     inkscape:groupmode="layer"
     id="layer1"
     transform="translate(-767.34416,-18.587496)"><path
       d="m 767.87613,18.587496 c -0.009,0 -0.0163,0.0016 -0.0253,0.0021 -0.0114,7e-4 -0.0214,0.0014 -0.0274,0.0021 -0.006,7e-4 -0.0161,0.0023 -0.0274,0.0041 -0.0103,0.0015 -0.0194,0.002 -0.0274,0.0036 -0.006,0.0014 -0.0143,0.0038 -0.0233,0.0062 -0.0118,0.003 -0.0203,0.0064 -0.0253,0.0078 -0.007,0.0022 -0.0142,0.0045 -0.0232,0.0078 h -0.002 c -0.008,0.0028 -0.0147,0.0048 -0.0217,0.0078 l -0.002,0.0021 c -0.008,0.0035 -0.0164,0.0068 -0.0243,0.01034 -0.008,0.0035 -0.015,0.007 -0.0222,0.01085 -0.007,0.004 -0.0146,0.0088 -0.0217,0.01344 -0.007,0.0046 -0.0145,0.0091 -0.0217,0.01395 -0.007,0.0049 -0.0143,0.0097 -0.0212,0.01447 -0.007,0.0048 -0.0133,0.0098 -0.0196,0.01499 -0.006,0.0052 -0.0125,0.01112 -0.0186,0.01705 -0.006,0.0059 -0.0124,0.01188 -0.0186,0.01809 -0.006,0.0063 -0.0121,0.01245 -0.0176,0.0186 -0.005,0.0062 -0.0104,0.01243 -0.0155,0.0186 -0.0114,0.01385 -0.022,0.02778 -0.031,0.04082 -0.005,0.0069 -0.009,0.01398 -0.0134,0.02119 -0.004,0.0072 -0.008,0.0145 -0.0124,0.02171 h -0.002 c -0.005,0.0083 -0.008,0.01673 -0.0119,0.02429 -0.003,0.0076 -0.007,0.01432 -0.01,0.02067 -10e-4,0.0028 -0.003,0.0067 -0.005,0.01189 -0.002,0.0052 -0.004,0.01179 -0.007,0.01964 0,-1.6e-4 -5.6e-4,0.0015 -0.002,0.0052 -0.001,0.0036 -0.004,0.0089 -0.006,0.01602 -0.002,0.0066 -0.004,0.01214 -0.006,0.01964 v 0.0021 c -10e-4,0.0025 -0.002,0.006 -0.002,0.0098 -5e-4,0.0038 -5.5e-4,0.008 -0.002,0.01188 l -0.004,0.01137 c -6.7e-4,0.0034 4.4e-4,0.007 0,0.0098 -0.002,0.0087 -0.004,0.0157 -0.005,0.02119 -8.4e-4,0.0055 -10e-4,0.0099 -0.002,0.0124 v 0.0036 c -10e-4,0.0093 -0.004,0.01929 -0.004,0.02739 -4.8e-4,0.0095 0,0.01879 0,0.02739 0,0.0073 -3.3e-4,0.01329 0,0.02119 v 0.0041 c 5e-4,0.0068 0.002,0.01282 0.003,0.01757 8.3e-4,0.0048 10e-4,0.0083 0.002,0.0098 v 0.0021 0.0021 c 10e-4,0.0073 10e-4,0.01369 0.002,0.02119 10e-4,0.0076 0.002,0.01349 0.003,0.01705 7.6e-4,0.0036 0.002,0.005 0.002,0.0047 10e-4,0.0077 0.003,0.01413 0.004,0.01964 0.001,0.0055 0.003,0.0099 0.004,0.01344 0.002,0.0077 0.004,0.0152 0.006,0.0217 0.002,0.0071 0.004,0.01238 0.006,0.01602 0.002,0.0036 0.002,0.0054 0.002,0.0052 l 0.002,0.0062 0.002,0.0036 c 0,-4e-5 0.003,0.0079 0.008,0.01964 v 0.0021 c 0.003,0.0075 0.007,0.01477 0.0109,0.02222 0.004,0.0075 0.008,0.01514 0.0124,0.02274 h -0.002 c 0.004,0.0072 0.008,0.01411 0.0129,0.02119 0.005,0.0071 0.009,0.01429 0.0145,0.0217 0.005,0.0073 0.0102,0.01433 0.0155,0.02119 0.005,0.0069 0.0103,0.01337 0.0155,0.01964 0.005,0.0062 0.0106,0.01245 0.016,0.0186 0.005,0.0062 0.0107,0.01232 0.017,0.0186 0.006,0.0064 0.0125,0.01215 0.0186,0.01757 0.006,0.0054 0.0124,0.01037 0.0186,0.0155 0.006,0.0052 0.0128,0.01072 0.0196,0.01602 0.007,0.0053 0.0144,0.0106 0.0217,0.0155 0.007,0.0049 0.0141,0.0099 0.0212,0.01447 0.007,0.0046 0.0144,0.0089 0.0217,0.01292 0.007,0.0039 0.0149,0.0073 0.0227,0.01085 0.008,0.0035 0.0161,0.0068 0.0243,0.01034 0.009,0.0039 0.0173,0.0069 0.0253,0.0098 0.005,0.0017 0.0117,0.0043 0.0232,0.0078 0.0104,0.0033 0.0183,0.0061 0.0253,0.0078 0.006,0.0016 0.0133,0.0041 0.0233,0.0062 h 0.002 c 0.0115,0.0024 0.0193,0.0027 0.0253,0.0036 0.007,0.001 0.0171,0.003 0.0274,0.0041 0.0103,0.0012 0.0194,0.0017 0.0274,0.0021 0.009,4.62e-4 0.0163,0 0.0253,0 0.009,0 0.0184,4.52e-4 0.0274,0 0.008,-5e-4 0.0168,-9.67e-4 0.0274,-0.0021 0.0101,-0.0011 0.0204,-0.003 0.0274,-0.0041 0.003,-5e-4 0.007,-4.96e-4 0.0119,-10e-4 0.005,-5.37e-4 0.01,-0.0013 0.0155,-0.0026 0.01,-0.0021 0.0172,-0.0047 0.0233,-0.0062 0.007,-0.0018 0.0163,-0.005 0.0253,-0.0078 0.009,-0.0026 0.0167,-0.0053 0.0248,-0.0083 0.008,-0.0029 0.0164,-0.0061 0.0243,-0.0093 0.008,-0.0033 0.0154,-0.0063 0.0233,-0.0098 0.008,-0.0035 0.0156,-0.0074 0.0232,-0.01137 0.008,-0.004 0.0153,-0.0082 0.0227,-0.0124 0.007,-0.0042 0.0148,-0.0082 0.0222,-0.01292 0.007,-0.0045 0.0145,-0.0096 0.0217,-0.01447 0.007,-0.0049 0.0141,-0.0096 0.0212,-0.01499 0.0139,-0.01054 0.0286,-0.0218 0.0413,-0.03307 0.0132,-0.01165 0.0258,-0.02355 0.0372,-0.03514 0.0109,-0.01104 0.0226,-0.02481 0.0351,-0.03927 0.005,-0.0065 0.0109,-0.01332 0.0165,-0.02015 0.006,-0.0068 0.0113,-0.01348 0.0165,-0.02067 0.0102,-0.01356 0.0195,-0.02705 0.0294,-0.04134 v -0.0021 c 0.005,-0.0069 0.008,-0.01302 0.0119,-0.01964 0.004,0.0066 0.007,0.01273 0.0119,0.01964 v 0.0021 c 0.01,0.01429 0.0193,0.02778 0.0295,0.04134 0.005,0.0072 0.0109,0.01383 0.0165,0.02067 0.006,0.0068 0.011,0.01368 0.0165,0.02015 0.0125,0.01447 0.0242,0.02823 0.0351,0.03927 0.0114,0.01159 0.024,0.02349 0.0372,0.03514 0.0127,0.01127 0.0269,0.02253 0.0408,0.03307 0.007,0.0054 0.0145,0.01013 0.0217,0.01499 0.007,0.0049 0.0145,0.01 0.0217,0.01447 0.007,0.0047 0.0148,0.0087 0.0222,0.01292 0.007,0.0042 0.0151,0.0084 0.0227,0.0124 0.008,0.004 0.0149,0.0073 0.0227,0.01085 0.008,0.0035 0.0158,0.007 0.0238,0.01034 0.008,0.0032 0.0162,0.0064 0.0243,0.0093 0.008,0.0029 0.0163,0.0056 0.0248,0.0083 0.009,0.0028 0.0182,0.006 0.0253,0.0078 0.006,0.0015 0.0138,0.0041 0.0233,0.0062 0.006,0.0012 0.0109,0.002 0.0155,0.0026 0.005,5.38e-4 0.009,5.34e-4 0.0119,0.001 0.007,0.0011 0.0173,0.003 0.0274,0.0041 0.0106,0.0011 0.0199,0.0016 0.0274,0.0021 0.009,4.52e-4 0.0187,0 0.0274,0 0.009,0 0.0162,4.62e-4 0.0253,0 0.008,-4.04e-4 0.0171,-8.98e-4 0.0274,-0.0021 0.0103,-0.0011 0.0206,-0.0031 0.0274,-0.0041 0.006,-8.73e-4 0.0138,-0.0012 0.0253,-0.0036 h 0.002 c 0.01,-0.0021 0.0169,-0.0046 0.0232,-0.0062 0.007,-0.0017 0.0149,-0.0045 0.0253,-0.0078 0.0116,-0.0035 0.0185,-0.0061 0.0233,-0.0078 0.008,-0.0029 0.0164,-0.0059 0.0253,-0.0098 0.008,-0.0035 0.0164,-0.0068 0.0243,-0.01034 0.008,-0.0035 0.0156,-0.007 0.0227,-0.01085 0.007,-0.004 0.0146,-0.0088 0.0217,-0.01343 0.007,-0.0046 0.0139,-0.0091 0.0212,-0.01395 0.007,-0.0049 0.0148,-0.0102 0.0217,-0.0155 0.007,-0.0053 0.0134,-0.01087 0.0196,-0.01602 0.006,-0.0051 0.0119,-0.01008 0.0181,-0.0155 0.006,-0.0054 0.0128,-0.0112 0.0191,-0.01757 0.006,-0.0063 0.0116,-0.01245 0.0171,-0.0186 0.005,-0.0062 0.0109,-0.0124 0.016,-0.0186 0.005,-0.0063 0.0102,-0.01278 0.0155,-0.01964 0.005,-0.0069 0.0106,-0.01387 0.0155,-0.02119 0.005,-0.0074 0.01,-0.01462 0.0145,-0.0217 0.005,-0.0071 0.009,-0.01395 0.0129,-0.02119 h -0.002 c 0.004,-0.0076 0.008,-0.01528 0.0124,-0.02274 0.004,-0.0075 0.008,-0.01472 0.0109,-0.02222 v -0.0021 c 0.005,-0.01178 0.008,-0.01968 0.008,-0.01964 l 0.002,-0.0036 0.002,-0.0062 c -6e-5,2.27e-4 5.5e-4,-0.0015 0.002,-0.0052 0.002,-0.0036 0.004,-0.0089 0.006,-0.01602 0.002,-0.0065 0.004,-0.01401 0.006,-0.0217 10e-4,-0.0035 0.002,-0.0079 0.004,-0.01344 10e-4,-0.0055 0.003,-0.01198 0.004,-0.01964 -5e-5,3.62e-4 7.9e-4,-0.0016 0.002,-0.0052 7.6e-4,-0.0036 0.002,-0.0089 0.003,-0.01654 10e-4,-0.0075 10e-4,-0.01389 0.002,-0.02119 v -0.0021 -0.0021 c 1.5e-4,-0.0015 7.1e-4,-0.0051 0.002,-0.0098 8.3e-4,-0.0048 0.002,-0.01074 0.003,-0.01757 v -0.0041 c 3.3e-4,-0.0079 0,-0.01391 0,-0.02119 0,-0.0086 4.8e-4,-0.01789 0,-0.02739 -4.1e-4,-0.0081 -0.003,-0.0181 -0.004,-0.02739 v -0.0041 c -1.7e-4,-0.0025 -7.2e-4,-0.0064 -0.002,-0.01188 -8.4e-4,-0.0055 -0.002,-0.01249 -0.005,-0.02119 -4.4e-4,-0.0028 6.7e-4,-0.0064 0,-0.0098 l -0.004,-0.01137 c -10e-4,-0.0038 -10e-4,-0.0081 -0.002,-0.01188 -5e-4,-0.0038 -10e-4,-0.0073 -0.002,-0.0098 v -0.0021 c -0.002,-0.0075 -0.004,-0.01303 -0.006,-0.01964 -0.002,-0.0071 -0.004,-0.01238 -0.006,-0.01602 -0.002,-0.0036 -0.002,-0.0053 -0.002,-0.0052 -0.003,-0.0078 -0.005,-0.01447 -0.007,-0.01964 -0.002,-0.0052 -0.004,-0.0091 -0.005,-0.01189 -0.003,-0.0063 -0.006,-0.01311 -0.01,-0.02067 -0.003,-0.0076 -0.007,-0.01595 -0.0119,-0.02429 h -0.002 c -0.004,-0.0072 -0.008,-0.0145 -0.0119,-0.02171 -0.004,-0.0072 -0.009,-0.01426 -0.0134,-0.02119 -0.009,-0.01304 -0.0196,-0.02697 -0.031,-0.04082 -0.005,-0.0062 -0.0101,-0.01245 -0.0155,-0.0186 -0.005,-0.0062 -0.0112,-0.01228 -0.0176,-0.0186 -0.006,-0.0062 -0.0124,-0.01215 -0.0186,-0.01809 -0.006,-0.0059 -0.0123,-0.01184 -0.0186,-0.01705 -0.006,-0.0052 -0.0128,-0.01018 -0.0196,-0.01499 -0.007,-0.0048 -0.014,-0.0096 -0.0212,-0.01447 -0.007,-0.0049 -0.0146,-0.0093 -0.0217,-0.01395 -0.007,-0.0046 -0.0143,-0.0094 -0.0217,-0.01344 -0.007,-0.0039 -0.0143,-0.0073 -0.0222,-0.01085 -0.008,-0.0035 -0.016,-0.0069 -0.0243,-0.01034 l -0.002,-0.0021 c -0.007,-0.003 -0.0142,-0.005 -0.0217,-0.0078 h -0.002 c -0.009,-0.0033 -0.0162,-0.0056 -0.0233,-0.0078 -0.005,-0.0014 -0.0135,-0.0048 -0.0253,-0.0078 -0.009,-0.0024 -0.0168,-0.0048 -0.0232,-0.0062 -0.008,-0.0016 -0.0171,-0.0021 -0.0274,-0.0036 -0.0113,-0.0018 -0.0212,-0.0034 -0.0274,-0.0041 -0.006,-6.95e-4 -0.016,-0.0014 -0.0274,-0.0021 -0.009,-4.43e-4 -0.0166,-0.0021 -0.0253,-0.0021 v 5.17e-4 c -0.009,0 -0.0181,0.0016 -0.0274,0.0021 -0.0122,5.8e-4 -0.021,0.0014 -0.0274,0.0021 -0.006,6.62e-4 -0.0167,0.002 -0.0274,0.0036 -0.0104,0.0016 -0.0192,0.0029 -0.0253,0.0041 h -0.002 c -0.005,0.0011 -0.0137,0.0026 -0.0253,0.0057 -0.009,0.0025 -0.0177,0.0061 -0.0232,0.0078 -0.008,0.0024 -0.0156,0.0048 -0.0238,0.0078 -0.008,0.0029 -0.0162,0.0063 -0.0248,0.0098 -0.008,0.0033 -0.0159,0.0068 -0.0238,0.01034 -0.008,0.0035 -0.0156,0.0074 -0.0232,0.01137 -0.007,0.0038 -0.0147,0.0077 -0.0222,0.01189 -0.007,0.0042 -0.0152,0.0086 -0.0227,0.01344 -0.0145,0.0092 -0.0291,0.01912 -0.0429,0.02945 -0.014,0.01057 -0.0287,0.02193 -0.0413,0.03307 -0.0131,0.01157 -0.0253,0.02349 -0.0367,0.03514 -0.0118,0.01205 -0.024,0.02527 -0.0357,0.03876 -0.0118,0.01367 -0.023,0.02787 -0.0331,0.04134 -0.008,0.01177 -0.019,0.0269 -0.0295,0.04289 -0.004,0.0065 -0.008,0.0128 -0.0119,0.01912 -0.004,-0.0062 -0.008,-0.01269 -0.0124,-0.01912 -0.0105,-0.01599 -0.0209,-0.03112 -0.0289,-0.04289 -0.0101,-0.01347 -0.0213,-0.02767 -0.0331,-0.04134 -0.0117,-0.01349 -0.0239,-0.02671 -0.0357,-0.03876 -0.0114,-0.01165 -0.0236,-0.02357 -0.0367,-0.03514 -0.0126,-0.01114 -0.0273,-0.0225 -0.0413,-0.03307 -0.0138,-0.01033 -0.0284,-0.02025 -0.0429,-0.02945 -0.008,-0.0048 -0.0152,-0.0092 -0.0227,-0.01344 -0.008,-0.0042 -0.0149,-0.008 -0.0222,-0.01189 -0.008,-0.004 -0.0154,-0.0078 -0.0232,-0.01137 -0.008,-0.0035 -0.0158,-0.007 -0.0238,-0.01034 -0.009,-0.0036 -0.0167,-0.0069 -0.0248,-0.0098 -0.008,-0.0029 -0.0161,-0.0054 -0.0238,-0.0078 -0.005,-0.0017 -0.0143,-0.0053 -0.0232,-0.0078 -0.0116,-0.0031 -0.0203,-0.0046 -0.0253,-0.0057 h -0.002 c -0.006,-0.0012 -0.0149,-0.0025 -0.0253,-0.0041 -0.0107,-0.0016 -0.0214,-0.003 -0.0274,-0.0036 -0.006,-7e-4 -0.0152,-0.0015 -0.0274,-0.0021 -0.009,-5e-4 -0.0184,-0.0021 -0.0274,-0.0021 z m -0.0176,0.178284 c 0.007,-3.19e-4 0.0106,0 0.0176,0 0.007,0 0.0136,-2.9e-4 0.0196,0 v 5.17e-4 c 0.004,2e-4 0.01,0.0012 0.0176,0.0021 0.008,9e-4 0.0136,0.0015 0.0176,0.0021 0.004,6e-4 0.01,0.002 0.0176,0.0036 v -0.0021 c 0.009,0.0019 0.0125,0.0034 0.0155,0.0041 h 0.002 c 0.004,0.001 0.01,0.0033 0.0176,0.0057 0.0127,0.0039 0.0231,0.0079 0.0331,0.01189 0.006,0.0023 0.0109,0.0046 0.016,0.0072 0.005,0.0026 0.0102,0.0055 0.0155,0.0083 0.006,0.003 0.0114,0.0059 0.0171,0.0088 0.006,0.0029 0.011,0.0056 0.016,0.0088 0.0104,0.0066 0.0208,0.014 0.031,0.0217 0.005,0.0037 0.0101,0.0076 0.015,0.01189 0.005,0.0043 0.009,0.009 0.0145,0.01344 0.009,0.0081 0.0174,0.01552 0.0274,0.02532 0.01,0.0097 0.0204,0.02101 0.0294,0.03101 0.008,0.0094 0.0153,0.01849 0.0233,0.02945 v 0.0021 c 0.009,0.01268 0.0183,0.02512 0.0253,0.03514 0.004,0.0051 0.007,0.01065 0.0109,0.01654 0.004,0.0059 0.007,0.0121 0.0109,0.0186 0.007,0.01207 0.0131,0.02454 0.0191,0.03721 0.006,0.01309 0.0131,0.02543 0.0181,0.03721 l 0.002,0.0021 c 0.002,0.0038 0.002,0.0076 0.004,0.01137 -10e-4,0.0029 -0.003,0.0073 -0.004,0.0098 l -0.002,0.0021 c -0.005,0.01157 -0.0111,0.02371 -0.0181,0.03721 -0.005,0.01103 -0.0111,0.0235 -0.0191,0.03721 -0.008,0.01357 -0.0147,0.02463 -0.0217,0.03514 -0.008,0.0121 -0.0163,0.02369 -0.0253,0.03514 v 0.0021 c -0.004,0.0051 -0.008,0.0097 -0.0119,0.01447 -0.004,0.0048 -0.009,0.0094 -0.0134,0.01447 -0.008,0.0087 -0.0172,0.01908 -0.0274,0.02946 -0.01,0.0099 -0.0184,0.01939 -0.0274,0.02739 -0.005,0.0044 -0.01,0.0086 -0.0145,0.01292 -0.005,0.0043 -0.01,0.0087 -0.015,0.0124 -0.005,0.0036 -0.01,0.0067 -0.015,0.0098 -0.005,0.0031 -0.0106,0.0064 -0.016,0.0098 -0.005,0.0032 -0.01,0.0065 -0.015,0.0098 -0.005,0.0034 -0.0106,0.007 -0.016,0.0098 h -0.002 c -0.005,0.0028 -0.0104,0.0056 -0.0155,0.0083 -0.005,0.0026 -0.0105,0.0049 -0.016,0.0072 -0.0113,0.0047 -0.0222,0.0086 -0.0331,0.01189 -0.005,0.0014 -0.0106,0.0018 -0.0176,0.0036 -0.008,0.002 -0.0136,0.0054 -0.0176,0.0062 -0.002,6e-4 -0.01,3.51e-4 -0.0176,0.0016 -0.007,0.0011 -0.0126,0.0016 -0.0176,0.0021 -0.003,4e-4 -0.0106,0.0017 -0.0176,0.0021 -0.006,3.11e-4 -0.0126,0 -0.0196,0 -0.007,0 -0.0116,3e-4 -0.0176,0 -0.008,-4e-4 -0.0136,-0.0016 -0.0176,-0.0021 -0.004,-4e-4 -0.01,-8.67e-4 -0.0176,-0.0021 -0.009,-0.0014 -0.0146,-9.49e-4 -0.0176,-0.0016 -0.004,-9e-4 -0.01,-0.0042 -0.0176,-0.0062 -0.008,-0.0019 -0.0125,-0.0025 -0.0155,-0.0036 h -0.002 c -0.002,-7e-4 -0.006,-0.0031 -0.0155,-0.0062 -0.006,-0.0022 -0.0115,-0.0039 -0.0155,-0.0057 -0.005,-0.0021 -0.01,-0.0046 -0.0145,-0.0072 -0.005,-0.0027 -0.01,-0.0054 -0.015,-0.0083 -0.0103,-0.0056 -0.0204,-0.01199 -0.0294,-0.01809 h -0.002 c -0.009,-0.006 -0.0163,-0.01142 -0.0253,-0.01912 -0.009,-0.0077 -0.0183,-0.01657 -0.0253,-0.02377 -0.007,-0.0074 -0.0153,-0.01592 -0.0233,-0.02532 -0.008,-0.0092 -0.0136,-0.01652 -0.0196,-0.02532 v -0.0021 c -0.006,-0.0086 -0.0116,-0.01842 -0.0176,-0.02894 h -0.002 c -0.003,-0.0046 -0.005,-0.0097 -0.007,-0.01447 -0.002,-0.0048 -0.004,-0.0096 -0.007,-0.01499 v -0.0021 c 0,3.3e-4 -0.003,-0.0065 -0.004,-0.0098 -0.002,-0.007 -0.004,-0.01179 -0.006,-0.01499 -0.002,-0.0032 -0.003,-0.0049 -0.003,-0.0047 -0.002,-0.0073 -0.004,-0.01324 -0.006,-0.01964 v -0.0015 c -0.002,-0.007 -0.002,-0.0092 -0.002,-0.0083 -10e-4,-0.0075 -0.002,-0.01297 -0.003,-0.01654 -7.6e-4,-0.0036 -10e-4,-0.005 -10e-4,-0.0047 -0.001,-0.0071 -0.003,-0.0142 -0.004,-0.0217 l 0.002,0.0021 c -10e-4,-0.01137 -0.002,-0.01574 -0.002,-0.01344 v -0.0021 -0.0021 c 0,-0.0055 -0.002,-0.01097 -0.002,-0.01757 0,-0.0066 0.002,-0.01414 0.002,-0.01964 2.9e-4,-0.0057 -5.4e-4,-0.0115 0,-0.0155 l 0.002,-0.0021 c 5e-4,-0.0055 10e-4,-0.0086 10e-4,-0.0098 0,-0.0012 -5.3e-4,-3.33e-4 -10e-4,0.0021 v -0.0057 l 0.002,-0.0062 c 10e-4,-0.0073 0.002,-0.0101 0.002,-0.0098 v -0.0057 l 0.002,-0.0062 c 0,4.1e-4 7e-5,-0.0036 0.002,-0.0098 0.002,-0.0065 0.004,-0.01192 0.006,-0.01912 0,1.95e-4 10e-4,-0.0014 0.003,-0.0047 0.002,-0.0032 0.004,-0.0081 0.006,-0.01499 v -0.0021 c -10e-4,0.0021 -3.8e-4,-5.1e-5 0.004,-0.0078 0.006,-0.01271 0.01,-0.02342 0.014,-0.03152 0.003,-0.0053 0.006,-0.01018 0.01,-0.01499 0.003,-0.0048 0.007,-0.0092 0.01,-0.01395 0.004,-0.0052 0.007,-0.01044 0.01,-0.01499 0.003,-0.0045 0.006,-0.0085 0.009,-0.0124 0.008,-0.0094 0.0168,-0.01802 0.0238,-0.02532 0.008,-0.0076 0.0163,-0.01627 0.0253,-0.02377 0.004,-0.0036 0.008,-0.0071 0.0124,-0.01033 0.004,-0.0033 0.008,-0.0064 0.0129,-0.0093 0.009,-0.0061 0.0209,-0.01362 0.031,-0.01912 0.01,-0.0055 0.0184,-0.01 0.0274,-0.01395 0.007,-0.0027 0.0136,-0.0035 0.0196,-0.0057 0.004,-0.0014 0.008,-0.0046 0.0134,-0.0062 0.01,-0.0028 0.0161,-0.0051 0.0181,-0.0057 0.004,-10e-4 0.01,-0.0025 0.0176,-0.0041 0.006,-0.0014 0.0136,-9.01e-4 0.0176,-0.0016 0.003,-5e-4 0.009,-0.0011 0.0176,-0.0021 0.008,-9e-4 0.0136,-0.0019 0.0176,-0.0021 z m 1.0573,0 c 0.006,-2.9e-4 0.0126,0 0.0196,0 0.007,0 0.0109,-3.19e-4 0.0176,0 0.004,1.88e-4 0.01,0.0012 0.0176,0.0021 0.009,9.21e-4 0.0148,10e-4 0.0176,0.0016 0.004,6.49e-4 0.0113,6.65e-4 0.0176,0.0021 0.008,0.0016 0.0136,0.0031 0.0176,0.0041 0.002,6.01e-4 0.008,0.0029 0.0176,0.0057 0.005,0.0016 0.0102,0.0048 0.014,0.0062 0.006,0.0022 0.013,0.003 0.0196,0.0057 0.009,0.004 0.0174,0.0085 0.0274,0.01395 0.0101,0.0055 0.022,0.01298 0.031,0.01912 0.005,0.0029 0.009,0.0061 0.0129,0.0093 0.004,0.0033 0.008,0.0067 0.0124,0.01033 0.009,0.0075 0.0177,0.01618 0.0253,0.02377 0.007,0.0073 0.0156,0.01589 0.0233,0.02532 0.003,0.0039 0.007,0.0079 0.01,0.0124 0.003,0.0045 0.006,0.0098 0.01,0.01499 0.003,0.0048 0.006,0.0092 0.01,0.01395 0.003,0.0048 0.007,0.0097 0.01,0.01499 0.004,0.0081 0.008,0.01881 0.0134,0.03152 0.004,0.0077 0.005,0.0099 0.004,0.0078 v 0.0021 c 0.002,0.0069 0.004,0.01178 0.006,0.01499 0.002,0.0032 0.003,0.0043 0.003,0.0041 0.002,0.0072 0.004,0.01313 0.006,0.01964 0.002,0.0062 0.002,0.01023 0.002,0.0098 l 0.002,0.0062 v 0.0057 c -8e-5,-2.81e-4 10e-4,0.0025 0.002,0.0098 l 0.002,0.0057 v 0.0062 c -5e-4,-0.0024 -10e-4,-0.0032 -10e-4,-0.0021 0,0.0012 5.4e-4,0.0043 10e-4,0.0098 l 0.002,0.0021 c 5.4e-4,0.004 -2.9e-4,0.0098 0,0.0155 2.8e-4,0.0055 0.002,0.01305 0.002,0.01964 0,0.0066 -0.002,0.01207 -0.002,0.01757 v 0.0021 0.0021 c 0,-0.0023 -8.6e-4,0.0021 -0.002,0.01344 l 0.002,-0.0021 c -10e-4,0.0075 -0.003,0.01463 -0.004,0.0217 4e-5,-3.14e-4 -2.7e-4,0.0011 -0.001,0.0047 -7.7e-4,0.0036 -0.002,0.009 -0.003,0.01654 1.3e-4,-9.64e-4 -3e-5,7.85e-4 -0.002,0.0078 v 0.0021 c -0.002,0.0064 -0.004,0.01237 -0.006,0.01964 8e-5,-2.48e-4 -10e-4,9.44e-4 -0.003,0.0041 -0.002,0.0032 -0.004,0.0085 -0.006,0.0155 -10e-4,0.0033 -0.004,0.01015 -0.004,0.0098 v 0.0021 c -0.002,0.0054 -0.004,0.01018 -0.006,0.01499 -0.002,0.0048 -0.004,0.0093 -0.007,0.01395 h -0.002 c -0.006,0.01052 -0.0117,0.02083 -0.0176,0.02946 v 0.0021 c -0.006,0.0088 -0.012,0.01608 -0.0196,0.02532 -0.008,0.0094 -0.0159,0.01788 -0.0233,0.02532 -0.007,0.0072 -0.0159,0.01602 -0.0253,0.02377 -0.009,0.0077 -0.0165,0.01316 -0.0253,0.01912 h -0.002 c -0.009,0.0061 -0.0192,0.01198 -0.0295,0.01757 -0.005,0.0029 -0.0102,0.0061 -0.015,0.0088 -0.005,0.0027 -0.009,0.0051 -0.0145,0.0072 -0.004,0.0018 -0.01,0.0035 -0.0155,0.0057 -0.009,0.0031 -0.0132,0.0055 -0.0155,0.0062 h -0.002 c -0.003,0.0011 -0.008,0.0017 -0.0155,0.0036 -0.008,0.002 -0.0136,0.0048 -0.0176,0.0057 -0.003,6.02e-4 -0.009,6.93e-4 -0.0176,0.0021 -0.008,0.0012 -0.0139,0.0017 -0.0176,0.0021 -0.004,4.84e-4 -0.0101,0.0017 -0.0176,0.0021 -0.006,3e-4 -0.0106,0 -0.0176,0 -0.007,0 -0.0131,3.11e-4 -0.0196,0 -0.007,-3.96e-4 -0.0142,-0.0017 -0.0176,-0.0021 -0.005,-4.99e-4 -0.0108,-9.53e-4 -0.0176,-0.0021 -0.008,-0.0012 -0.0152,-0.0015 -0.0176,-0.0021 -0.004,-7.95e-4 -0.01,-0.0037 -0.0176,-0.0057 -0.007,-0.0018 -0.013,-0.0022 -0.0176,-0.0036 -0.0109,-0.0033 -0.0223,-0.0072 -0.0336,-0.01189 -0.005,-0.0023 -0.0104,-0.0051 -0.0155,-0.0078 -0.005,-0.0026 -0.0102,-0.005 -0.0155,-0.0078 h -0.002 c -0.005,-0.0029 -0.0108,-0.0065 -0.016,-0.0098 -0.005,-0.0034 -0.01,-0.0066 -0.015,-0.0098 -0.005,-0.0034 -0.0108,-0.0067 -0.016,-0.0098 -0.005,-0.0031 -0.0107,-0.0062 -0.0155,-0.0098 -0.005,-0.0037 -0.01,-0.0081 -0.0145,-0.0124 -0.005,-0.0043 -0.01,-0.0086 -0.0145,-0.01292 -0.009,-0.008 -0.0178,-0.01753 -0.0274,-0.02739 -0.0102,-0.01038 -0.0199,-0.02071 -0.0274,-0.02946 -0.005,-0.0051 -0.009,-0.0097 -0.0134,-0.01447 -0.004,-0.0048 -0.008,-0.0094 -0.0119,-0.01447 v -0.0021 c -0.009,-0.01145 -0.017,-0.02304 -0.0253,-0.03514 -0.007,-0.01051 -0.0138,-0.02157 -0.0217,-0.03514 -0.008,-0.01371 -0.0142,-0.02618 -0.0196,-0.03721 -0.007,-0.0135 -0.0129,-0.02564 -0.0176,-0.03721 l -0.002,-0.0021 c -10e-4,-0.0025 -0.003,-0.0069 -0.004,-0.0098 0.002,-0.0038 0.002,-0.0081 0.004,-0.01188 l 0.002,-0.0016 c 0.005,-0.01178 0.0112,-0.02412 0.0176,-0.03721 0.006,-0.01267 0.0126,-0.02514 0.0196,-0.03721 0.003,-0.0065 0.007,-0.01272 0.0109,-0.0186 0.004,-0.0059 0.007,-0.01143 0.0109,-0.01654 0.007,-0.01002 0.0162,-0.02246 0.0253,-0.03514 v -0.0021 c 0.008,-0.01097 0.0153,-0.02005 0.0233,-0.02945 0.009,-0.01 0.0199,-0.02128 0.0294,-0.03101 0.01,-0.0098 0.0182,-0.01721 0.0274,-0.02532 0.005,-0.0044 0.01,-0.0091 0.0145,-0.01344 0.005,-0.0043 0.01,-0.0082 0.0145,-0.01189 0.0102,-0.0077 0.0211,-0.0151 0.0315,-0.0217 0.005,-0.0032 0.0104,-0.0059 0.016,-0.0088 0.006,-0.0029 0.0114,-0.0058 0.0171,-0.0088 0.005,-0.0028 0.0104,-0.0056 0.0155,-0.0083 0.005,-0.0026 0.01,-0.0049 0.0155,-0.0072 0.01,-0.004 0.0209,-0.008 0.0336,-0.01189 0.008,-0.0024 0.014,-0.0047 0.0176,-0.0057 h 0.002 c 0.003,-7.02e-4 0.007,-0.0022 0.0155,-0.0041 v 0.0021 c 0.008,-0.0016 0.014,-0.0035 0.0176,-0.0041 0.004,-5.79e-4 0.01,-6.5e-4 0.0176,-0.0016 0.008,-9.09e-4 0.0138,-0.0019 0.0176,-0.0021 z"
       style="fill:#333333"
       id="path295" /></g></svg>
