<?xml version="1.0" encoding="UTF-8" standalone="no"?>
<!-- Created with Inkscape (http://www.inkscape.org/) -->

<svg
   width="5.4418945pt"
   height="5.9957194pt"
   viewBox="0 0 1.9197795 2.1151566"
   version="1.1"
   id="svg1"
   xml:space="preserve"
   xmlns="http://www.w3.org/2000/svg"
   xmlns:svg="http://www.w3.org/2000/svg"><defs
     id="defs1" /><g
     id="layer1"
     transform="translate(-767.73016,-70.732636)"><path
       id="path39"
       style="color:#000000;fill:#333;-inkscape-stroke:none"
       d="m 768.60166,70.732633 v 0.208773 l -0.15451,-0.07803 -0.0801,0.156063 0.23461,0.119889 V 71.4375 h -0.11523 l -0.0579,0.100252 -0.25787,-0.148828 0.0129,-0.261999 -0.1757,-0.0098 -0.01,0.172083 -0.17983,-0.10387 -0.0879,0.152445 0.18035,0.104387 -0.14521,0.09508 0.0956,0.146244 0.22066,-0.142627 0.2589,0.149862 -0.0579,0.09974 0.0579,0.09974 -0.2589,0.149344 -0.22066,-0.143143 -0.0956,0.148311 0.14469,0.09353 -0.17983,0.10387 0.0879,0.154513 0.17983,-0.10387 0.01,0.172082 0.1757,-0.0098 -0.0129,-0.262 0.25838,-0.149344 0.0574,0.09922 h 0.11523 v 0.299207 l -0.23461,0.118339 0.0801,0.15813 0.15451,-0.07855 v 0.207739 h 0.17777 v -0.207739 l 0.154,0.07855 0.078,-0.15813 -0.23203,-0.117822 v -0.299724 h 0.11421 l 0.0579,-0.09973 0.25839,0.149861 -0.0145,0.262 0.17776,0.0098 0.008,-0.172599 0.18087,0.104387 0.0879,-0.154513 -0.17983,-0.10387 0.14469,-0.09353 -0.0977,-0.148311 -0.21859,0.142627 -0.2589,-0.148828 0.0579,-0.09974 -0.0579,-0.09974 0.2589,-0.149862 0.21859,0.142627 0.0977,-0.146244 -0.14521,-0.09508 0.18035,-0.104387 -0.0879,-0.152445 -0.18087,0.104386 -0.008,-0.172599 -0.17776,0.0098 0.0145,0.261482 -0.25839,0.149345 -0.0579,-0.100252 h -0.11421 v -0.29869 l 0.23255,-0.119372 -0.0785,-0.156063 -0.154,0.07751 v -0.208256 z" /></g></svg>
