<?xml version="1.0" encoding="UTF-8" standalone="no"?>
<!-- Created with Inkscape (http://www.inkscape.org/) -->

<svg
   width="5.7489624pt"
   height="6.0000343pt"
   viewBox="0 0 2.0281062 2.1166788"
   version="1.1"
   id="svg1"
   xml:space="preserve"
   xmlns="http://www.w3.org/2000/svg"
   xmlns:svg="http://www.w3.org/2000/svg"><defs
     id="defs1" /><g
     id="layer1"
     transform="translate(-767.70972,-46.037488)"><path
       id="path652"
       style="opacity:1;fill:#4c72b0;stroke-width:0.17639"
       d="m 767.85426,46.037508 a 0.14615617,0.1435758 0.06180848 0 0 -0.10955,0.05064 0.14615617,0.1435758 0.06180848 0 0 0.0165,0.202572 0.14615617,0.1435758 0.06180848 0 0 0.12505,0.03049 l 0.80874,0.674377 -0.25115,0.290939 c -0.0383,0.04437 -0.0331,0.11029 0.0119,0.147794 l 0.28318,0.236162 c 0.045,0.03752 0.1126,0.03195 0.1509,-0.0124 l 0.25115,-0.290938 0.046,0.03824 a 0.0881945,0.0881945 0 0 0 0.12506,-0.01189 0.0881945,0.0881945 0 0 0 -0.0119,-0.125057 l -0.0429,-0.03566 0.25063,-0.290421 c 0.0383,-0.04436 0.0326,-0.11029 -0.0124,-0.147795 L 769.21228,46.5584 c -0.0225,-0.01876 -0.0503,-0.02704 -0.0775,-0.02481 -0.0272,0.0022 -0.0537,0.01503 -0.0729,0.03721 l -0.25115,0.290422 -0.80873,-0.672827 a 0.14615617,0.1435758 0.06180848 0 0 -0.0517,-0.116789 0.14615617,0.1435758 0.06180848 0 0 -0.0961,-0.03411 z m 0.50126,1.553394 -0.50901,0.09043 0.50901,0.09043 -0.23202,0.243912 0.48782,-0.115755 0.18087,0.254248 0.18087,-0.254248 0.48782,0.115755 -0.23202,-0.243912 0.50901,-0.09043 -0.50901,-0.09043 h -0.21859 a 0.28370562,0.14185281 0 0 1 0.0656,0.09043 0.28370562,0.14185281 0 0 1 -0.2837,0.14211 0.28370562,0.14185281 0 0 1 -0.2837,-0.14211 0.28370562,0.14185281 0 0 1 0.0656,-0.09043 z" /></g></svg>
