<?xml version="1.0" encoding="UTF-8" standalone="no"?>
<!-- Created with Inkscape (http://www.inkscape.org/) -->

<svg
   width="3.527498mm"
   height="3.5274334mm"
   viewBox="0 0 3.5274981 3.5274334"
   version="1.1"
   id="svg1"
   xml:space="preserve"
   xmlns="http://www.w3.org/2000/svg"
   xmlns:svg="http://www.w3.org/2000/svg"><defs
     id="defs1" /><g
     id="layer1"
     transform="translate(-754.29486,-2.3610961)"><path
       d="m 757.39046,3.2618164 -0.47284,0.4728394 v 1.3105143 h -0.38085 V 4.3702759 c 0,-0.030104 7.3e-4,-0.062391 0.002,-0.097669 10e-4,-0.035278 0.003,-0.073236 0.006,-0.1136881 0.002,-0.019168 0.003,-0.037777 0.005,-0.056844 l -0.1385,0.1384928 -0.23926,0.6464722 h -0.24236 l -0.0444,-0.1214396 -0.68833,0.6878133 a 1.5874999,1.5874999 0 0 0 0.14056,0.0863 1.5874999,1.5874999 0 0 0 0.23047,0.095085 1.5874999,1.5874999 0 0 0 0.24185,0.058394 1.5874999,1.5874999 0 0 0 0.24856,0.01912 1.5874999,1.5874999 0 0 0 0.24857,-0.01912 1.5874999,1.5874999 0 0 0 0.24184,-0.058394 1.5874999,1.5874999 0 0 0 0.23048,-0.095085 1.5874999,1.5874999 0 0 0 0.21239,-0.1302246 1.5874999,1.5874999 0 0 0 0.18914,-0.1617472 1.5874999,1.5874999 0 0 0 0.16174,-0.1896525 1.5874999,1.5874999 0 0 0 0.13023,-0.2123901 1.5874999,1.5874999 0 0 0 0.0956,-0.2299602 1.5874999,1.5874999 0 0 0 0.0579,-0.2423624 1.5874999,1.5874999 0 0 0 0.0196,-0.2485637 1.5874999,1.5874999 0 0 0 -0.002,-0.082682 1.5874999,1.5874999 0 0 0 -0.007,-0.083199 1.5874999,1.5874999 0 0 0 -0.0109,-0.082165 1.5874999,1.5874999 0 0 0 -0.015,-0.081649 1.5874999,1.5874999 0 0 0 -0.0196,-0.081132 1.5874999,1.5874999 0 0 0 -0.0233,-0.079582 1.5874999,1.5874999 0 0 0 -0.0279,-0.078548 1.5874999,1.5874999 0 0 0 -0.032,-0.076481 1.5874999,1.5874999 0 0 0 -0.0357,-0.074931 1.5874999,1.5874999 0 0 0 -0.0398,-0.073381 1.5874999,1.5874999 0 0 0 -0.0424,-0.069246 z"
       style="fill:#333333;stroke:none;stroke-width:0.352778"
       id="path741" /><path
       d="m 755.88564,3.8292236 -0.22375,-0.6242513 h -0.46303 v 1.3110311 l 0.36381,-0.3638021 c -0.003,-0.039118 -0.006,-0.078091 -0.01,-0.1167887 -0.004,-0.040922 -0.008,-0.081505 -0.0124,-0.1219564 -0.008,-0.082785 -0.0152,-0.1542499 -0.0227,-0.2144572 h 0.0114 l 0.11162,0.3751709 z"
       style="font-weight:bold;font-size:2.82222px;line-height:1.3;font-family:'Source Sans 3';-inkscape-font-specification:'Source Sans 3 Bold';text-align:center;text-anchor:middle;fill:#ffffff;stroke:none;stroke-width:0.246944"
       id="path739" /><path
       d="m 757.60337,2.6112101 -0.40721,0.4072103 -0.27854,0.2780192 -0.76222,0.7622274 -0.14522,0.1452108 -0.24184,0.2413289 -0.1974,0.197404 -0.37208,0.3720703 -0.24701,0.2464966 -0.40773,0.407727 0.21756,0.2196249 0.43512,-0.4351156 0.68833,-0.6878133 0.0444,0.1214396 h 0.24236 l 0.23926,-0.6464722 0.1385,-0.1384928 c -0.002,0.019067 -0.003,0.037676 -0.005,0.056844 -0.003,0.040452 -0.004,0.078411 -0.006,0.1136881 -10e-4,0.035278 -0.002,0.067565 -0.002,0.097669 v 0.6748942 h 0.38085 V 3.7346558 l 0.47284,-0.4728394 0.43202,-0.4314982 z"
       style="fill:#ffffff;stroke:none"
       id="path740" /><path
       d="m 757.35377,2.3610962 -0.43201,0.432015 c -0.0229,-0.014894 -0.0461,-0.029197 -0.0698,-0.042891 -0.0239,-0.013896 -0.0482,-0.027165 -0.0729,-0.039791 -0.0248,-0.012544 -0.05,-0.024435 -0.0755,-0.035657 -0.0252,-0.011343 -0.0507,-0.022028 -0.0765,-0.032039 -0.0259,-0.00981 -0.0521,-0.018947 -0.0786,-0.027388 -0.0263,-0.00862 -0.0528,-0.016543 -0.0796,-0.023771 -0.0267,-0.00725 -0.0536,-0.013795 -0.0806,-0.019637 -0.0271,-0.00571 -0.0543,-0.010703 -0.0816,-0.014986 -0.0275,-0.00434 -0.055,-0.00796 -0.0827,-0.010852 -0.0275,-0.00279 -0.0551,-0.00485 -0.0827,-0.0062 -0.0277,-0.00159 -0.0554,-0.00245 -0.0832,-0.00258 -0.0832,1.88e-5 -0.16635,0.00659 -0.24856,0.019637 -0.082,0.013107 -0.16289,0.032634 -0.24185,0.058394 -0.0792,0.025603 -0.15626,0.057398 -0.23047,0.095085 -0.0741,0.037776 -0.14512,0.081321 -0.21239,0.1302246 -0.0672,0.048881 -0.13043,0.1029675 -0.18914,0.1617472 -0.0588,0.058878 -0.11289,0.122296 -0.16175,0.1896525 -0.0489,0.067273 -0.0924,0.1382942 -0.13022,0.2123902 -0.0378,0.074029 -0.0698,0.1509245 -0.0956,0.2299601 -0.0256,0.079143 -0.045,0.1601864 -0.0579,0.2423625 -0.013,0.082038 -0.0196,0.1649813 -0.0196,0.2480468 2e-5,0.083238 0.007,0.1663552 0.0196,0.2485637 0.0129,0.082176 0.0323,0.1632192 0.0579,0.2423624 0.0258,0.079036 0.0578,0.1559313 0.0956,0.2299602 0.0262,0.047952 0.0548,0.094526 0.0858,0.1395263 l -0.4346,0.4345988 0.24805,0.250114 0.001,-0.00103 0.40773,-0.407727 0.24701,-0.2464966 0.37208,-0.3720703 0.1974,-0.197404 0.24184,-0.2413289 0.14522,-0.1452108 0.76222,-0.7622274 0.27854,-0.2780192 0.40721,-0.4072103 -0.031,-0.031006 z m -2.15491,0.8438761 h 0.46303 l 0.22375,0.6242513 -0.24494,0.2449463 -0.11162,-0.3751709 h -0.0114 c 0.008,0.060207 0.0152,0.131673 0.0227,0.2144572 0.005,0.040451 0.009,0.081035 0.0124,0.1219564 0.004,0.038697 0.007,0.077671 0.01,0.1167887 l -0.36381,0.3638021 z"
       style="fill:#333333;stroke:none"
       id="path738" /></g></svg>
