<?xml version="1.0" encoding="UTF-8" standalone="no"?>
<!-- Created with Inkscape (http://www.inkscape.org/) -->

<svg
   width="9.9990234pt"
   height="9.9990234pt"
   viewBox="0 0 3.5274333 3.5274333"
   version="1.1"
   id="svg1"
   xml:space="preserve"
   xmlns="http://www.w3.org/2000/svg"
   xmlns:svg="http://www.w3.org/2000/svg"><defs
     id="defs1" /><g
     id="layer1"
     transform="translate(-758.52734,-2.3610962)"><g
       id="rect185"><path
         style="color:#000000;fill:#ffffff;-inkscape-stroke:none"
         d="m 758.70416,2.5374997 h 3.175 v 3.1749999 h -3.175 z"
         id="path187" /><path
         id="path188"
         style="color:#000000;fill:#333333;-inkscape-stroke:none"
         d="m 758.52735,2.3610962 v 0.1762166 3.3512167 h 3.52743 V 2.3610962 Z m 0.35347,0.3539836 h 2.82205 v 2.8199829 h -2.82205 z m 1.46244,0.4557861 c -0.11665,0 -0.22795,0.021838 -0.33331,0.065112 -0.10348,0.043274 -0.19557,0.1063508 -0.27647,0.1891358 -0.0809,0.082785 -0.14466,0.1844763 -0.19172,0.3048909 -0.0451,0.1185332 -0.0677,0.2537771 -0.0677,0.4061768 0,0.2050811 0.0393,0.3782373 0.11834,0.5193481 0.079,0.1411109 0.18334,0.2473474 0.31316,0.3188436 0.1317,0.069615 0.27655,0.1043864 0.4346,0.1043864 0.11477,0 0.22031,-0.021322 0.31626,-0.064596 0.096,-0.045155 0.18349,-0.1120751 0.26252,-0.2005046 l -0.20878,-0.245463 c -0.0432,0.041393 -0.0934,0.076867 -0.14986,0.1069702 -0.0564,0.030104 -0.12022,0.045475 -0.19172,0.045475 -0.0922,0 -0.17397,-0.023759 -0.24546,-0.070797 -0.0696,-0.047037 -0.12428,-0.1146589 -0.16382,-0.2030884 -0.0395,-0.090311 -0.0594,-0.198469 -0.0594,-0.324528 0,-0.1204146 0.0206,-0.2247297 0.062,-0.3131591 0.0414,-0.088429 0.0961,-0.1565679 0.16381,-0.2036052 0.0696,-0.048919 0.14492,-0.073381 0.22583,-0.073381 0.0659,0 0.1251,0.011528 0.17776,0.034106 0.0527,0.020697 0.10163,0.052844 0.14677,0.096118 l 0.22014,-0.2511475 c -0.0621,-0.065851 -0.14002,-0.1224614 -0.2341,-0.1694987 -0.0941,-0.047037 -0.20031,-0.070797 -0.31884,-0.070797 z" /></g></g></svg>
