<?xml version="1.0" encoding="UTF-8" standalone="no"?>
<!-- Created with Inkscape (http://www.inkscape.org/) -->

<svg
   width="6.006958pt"
   height="6.0010448pt"
   viewBox="0 0 2.1191213 2.1170352"
   version="1.1"
   id="svg1"
   xml:space="preserve"
   inkscape:version="1.3 (0e150ed6c4, 2023-07-21)"
   sodipodi:docname="custom.svg"
   xmlns:inkscape="http://www.inkscape.org/namespaces/inkscape"
   xmlns:sodipodi="http://sodipodi.sourceforge.net/DTD/sodipodi-0.dtd"
   xmlns="http://www.w3.org/2000/svg"
   xmlns:svg="http://www.w3.org/2000/svg"><sodipodi:namedview
     id="namedview1"
     pagecolor="#ffffff"
     bordercolor="#eeeeee"
     borderopacity="1"
     inkscape:showpageshadow="0"
     inkscape:pageopacity="0"
     inkscape:pagecheckerboard="0"
     inkscape:deskcolor="#d1d1d1"
     inkscape:document-units="pt"
     inkscape:zoom="64"
     inkscape:cx="2878.1641"
     inkscape:cy="49.359375"
     inkscape:window-width="2400"
     inkscape:window-height="1511"
     inkscape:window-x="-9"
     inkscape:window-y="-9"
     inkscape:window-maximized="1"
     inkscape:current-layer="layer1"
     showgrid="true"
     showguides="false"
     inkscape:lockguides="true"><inkscape:grid
       id="grid1"
       units="in"
       originx="-2870.8621"
       originy="-43.589843"
       spacingx="1"
       spacingy="1"
       empcolor="#0099e5"
       empopacity="0.30196078"
       color="#0099e5"
       opacity="0.14901961"
       empspacing="5"
       dotted="true"
       gridanglex="30"
       gridanglez="30"
       visible="true"
       enabled="false" /><sodipodi:guide
       position="73.5,84.977927"
       orientation="1,0"
       id="guide23"
       inkscape:locked="true" /><sodipodi:guide
       position="81.167449,88.900003"
       orientation="0,-1"
       id="guide24"
       inkscape:locked="true" /><sodipodi:guide
       position="76.5,85.900003"
       orientation="0,1"
       id="guide25"
       inkscape:locked="true"
       inkscape:label=""
       inkscape:color="rgb(0,134,229)" /><sodipodi:guide
       position="137,88.900003"
       orientation="336,0"
       id="guide26"
       inkscape:locked="true" /><sodipodi:guide
       position="137,3.0000021"
       orientation="0,1"
       id="guide27"
       inkscape:locked="true"
       inkscape:label=""
       inkscape:color="rgb(0,134,229)" /><sodipodi:guide
       position="76.5,2.0000001e-06"
       orientation="-1,0"
       id="guide28"
       inkscape:locked="true"
       inkscape:label=""
       inkscape:color="rgb(0,134,229)" /><sodipodi:guide
       position="137,2.0426322e-06"
       orientation="0,1"
       id="guide29"
       inkscape:label=""
       inkscape:locked="true"
       inkscape:color="rgb(0,134,229)" /><sodipodi:guide
       position="134,88.900003"
       orientation="-1,0"
       id="guide30"
       inkscape:label=""
       inkscape:locked="true"
       inkscape:color="rgb(0,134,229)" /><sodipodi:guide
       position="69.5,78.900003"
       orientation="0,1"
       id="guide35"
       inkscape:label=""
       inkscape:locked="true"
       inkscape:color="rgb(0,134,229)" /><inkscape:grid
       id="grid143"
       units="pt"
       originx="-2870.6864"
       originy="-43.413454"
       spacingx="0.35277778"
       spacingy="0.35277778"
       empcolor="#0099e5"
       empopacity="0.30196078"
       color="#0099e5"
       opacity="0.14901961"
       empspacing="5"
       dotted="true"
       gridanglex="30"
       gridanglez="30"
       visible="true"
       enabled="true" /><inkscape:page
       x="-4.8556544e-06"
       y="6.2885999e-07"
       width="2.1191213"
       height="2.1170352"
       id="page4"
       margin="0"
       bleed="0" /></sodipodi:namedview><defs
     id="defs1" /><g
     inkscape:label="Layer 1"
     inkscape:groupmode="layer"
     id="layer1"
     transform="translate(-759.58225,-11.533146)"><path
       d="m 760.55668,11.533146 v 0.473873 c 0.009,-8.03e-4 0.0183,-0.002 0.0274,-0.0026 0.004,-2.45e-4 0.008,-3.08e-4 0.0114,-5.16e-4 0.006,-4.34e-4 0.011,-7.52e-4 0.0165,-10e-4 0.0101,-5.1e-4 0.0203,-10e-4 0.0305,-10e-4 0.002,0 0.004,-2.1e-5 0.006,0 0.002,2e-5 0.004,-3.7e-5 0.006,0 0.002,-9e-6 0.004,-4e-6 0.006,0 10e-4,6e-5 0.002,4.49e-4 0.003,5.17e-4 0.002,9e-6 0.003,-1.7e-5 0.005,0 0.002,1.02e-4 0.003,4.39e-4 0.005,5.17e-4 0.0101,5.11e-4 0.02,0.0011 0.03,0.0021 0.01,9.74e-4 0.019,0.0022 0.0284,0.0036 3.4e-4,5.2e-5 7e-4,-5.1e-5 10e-4,0 0.01,0.0015 0.0198,0.0032 0.0295,0.0052 0.0192,0.0039 0.0378,0.0092 0.0563,0.01499 0.0185,0.0058 0.0366,0.01217 0.0543,0.01964 0.0177,0.0075 0.0349,0.01572 0.0517,0.0248 0.0168,0.0091 0.0334,0.01885 0.0491,0.02946 0.0157,0.01061 0.0308,0.02208 0.0455,0.03411 0.009,0.0072 0.0165,0.01556 0.0248,0.02325 h 5.1e-4 l 5.2e-4,5.17e-4 c 0.005,0.0049 0.0109,0.0094 0.016,0.01447 0.0134,0.01335 0.0262,0.02729 0.0382,0.04186 0.0121,0.01457 0.0235,0.02978 0.0341,0.04548 0.0106,0.01569 0.0208,0.03186 0.03,0.04858 0.009,0.01671 0.0173,0.03404 0.0248,0.05168 7.2e-4,0.0017 10e-4,0.0035 0.002,0.0052 0.007,0.01602 0.0129,0.03241 0.0181,0.04909 0.006,0.01846 0.0105,0.03715 0.0145,0.05633 0.002,0.0096 0.004,0.01919 0.005,0.02894 10e-4,0.0098 0.003,0.01955 0.004,0.02946 10e-4,0.0099 0.002,0.01993 0.003,0.02997 5.2e-4,0.01004 5.2e-4,0.02032 5.2e-4,0.03049 0,0.01017 0,0.01993 -5.2e-4,0.02997 -5.1e-4,0.01004 -0.002,0.02007 -0.003,0.02997 -10e-4,0.0099 -0.002,0.0197 -0.004,0.02946 -10e-4,0.0098 -0.003,0.01935 -0.005,0.02894 -0.004,0.01918 -0.009,0.03839 -0.0145,0.05684 -0.004,0.01142 -0.008,0.02248 -0.0124,0.03359 -0.003,0.0069 -0.005,0.01394 -0.008,0.02067 -0.007,0.01764 -0.0157,0.03445 -0.0248,0.05116 -0.009,0.01671 -0.0193,0.03288 -0.03,0.04858 -0.0107,0.01569 -0.022,0.03091 -0.0341,0.04547 -0.0112,0.01354 -0.0233,0.02627 -0.0357,0.03876 l -5.1e-4,5.17e-4 c -7.8e-4,7.81e-4 -0.001,0.0018 -0.002,0.0026 -0.0134,0.01335 -0.0272,0.02621 -0.0419,0.03824 -0.0146,0.01203 -0.0297,0.0235 -0.0455,0.03411 -0.0158,0.01061 -0.0323,0.02037 -0.0491,0.02946 -0.0168,0.0091 -0.034,0.01733 -0.0517,0.02481 -0.0177,0.0075 -0.0358,0.0144 -0.0543,0.02015 -0.0185,0.0058 -0.0371,0.01053 -0.0563,0.01447 -0.01,0.002 -0.0197,0.0037 -0.0295,0.0052 h -5.1e-4 v 0.0021 c 0.0138,-0.0012 0.0276,-0.0024 0.0413,-0.0041 0.0234,-0.0029 0.047,-0.0066 0.0703,-0.01085 0.0233,-0.0043 0.0466,-0.0093 0.0698,-0.01499 0.0232,-0.0057 0.0462,-0.01205 0.0693,-0.01912 0.0231,-0.0071 0.0463,-0.01481 0.0692,-0.02325 0.0229,-0.0084 0.0455,-0.01758 0.0682,-0.02739 0.0227,-0.0098 0.0452,-0.02036 0.0677,-0.03152 0.0225,-0.01117 0.0449,-0.02314 0.0672,-0.03566 0.0223,-0.01251 0.0447,-0.02542 0.0667,-0.03927 0.022,-0.01385 0.0439,-0.02823 0.0656,-0.04341 0.0217,-0.01518 0.0432,-0.03104 0.0646,-0.04754 0.0214,-0.0165 0.0425,-0.03387 0.0636,-0.05168 0.021,-0.01781 0.0419,-0.03618 0.0625,-0.05529 0.0207,-0.01911 0.0412,-0.03902 0.0615,-0.05943 0.0202,-0.02041 0.0401,-0.04136 0.0599,-0.06304 l 0.002,-0.115239 c -0.0189,-0.02209 -0.0385,-0.04333 -0.0579,-0.06408 -0.0194,-0.02075 -0.039,-0.04107 -0.0589,-0.06046 -0.0199,-0.0194 -0.0401,-0.03829 -0.0605,-0.05633 -0.0203,-0.01804 -0.0407,-0.035 -0.0615,-0.05168 -0.0208,-0.01667 -0.0414,-0.03275 -0.0625,-0.04806 -0.0211,-0.01531 -0.0426,-0.02999 -0.0641,-0.04393 -0.0215,-0.01393 -0.0433,-0.02724 -0.0651,-0.03979 -0.0218,-0.01255 -0.044,-0.02449 -0.0661,-0.03566 -0.0221,-0.01117 -0.0443,-0.02175 -0.0667,-0.03152 -0.0224,-0.0098 -0.0451,-0.01849 -0.0677,-0.02687 -0.0226,-0.0084 -0.0454,-0.01628 -0.0682,-0.02325 -0.0228,-0.007 -0.0457,-0.01303 -0.0687,-0.0186 -0.023,-0.0056 -0.0461,-0.01031 -0.0692,-0.01447 -0.0232,-0.0042 -0.0465,-0.0081 -0.0698,-0.01085 -0.021,-0.0025 -0.0419,-0.0039 -0.063,-0.0052 v -0.471289 z m 0.17519,1.643828 c -0.01,8.47e-4 -0.0193,0.002 -0.0289,0.0026 -0.006,3.8e-4 -0.0121,2.31e-4 -0.0181,5.17e-4 -0.004,2.82e-4 -0.008,8.31e-4 -0.0119,0.001 -0.0101,5.1e-4 -0.0203,5.16e-4 -0.0305,5.16e-4 -0.002,0 -0.004,2.2e-5 -0.006,0 -10e-4,-1.2e-5 -0.002,2e-5 -0.004,0 -0.004,-7.3e-5 -0.009,-3.44e-4 -0.0134,-5.16e-4 -0.002,-9.3e-5 -0.005,1.21e-4 -0.007,0 -5.2e-4,-2.7e-5 -10e-4,2.7e-5 -0.002,0 -0.002,-2.6e-5 -0.003,2.8e-5 -0.005,0 -0.008,-5.75e-4 -0.0159,-0.0018 -0.0238,-0.0026 -0.009,-8.85e-4 -0.0172,-0.0018 -0.0258,-0.0031 -10e-4,-1.76e-4 -0.002,-3.33e-4 -0.004,-5.16e-4 -0.01,-0.0015 -0.0193,-0.0032 -0.0289,-0.0052 -0.0193,-0.0039 -0.0383,-0.0087 -0.0568,-0.01447 -0.0186,-0.0058 -0.037,-0.01268 -0.0548,-0.02015 -0.0177,-0.0075 -0.0349,-0.01572 -0.0517,-0.02481 -0.0168,-0.0091 -0.0333,-0.01885 -0.0491,-0.02946 -0.0158,-0.01061 -0.0308,-0.02208 -0.0455,-0.03411 -0.0101,-0.0082 -0.0194,-0.01748 -0.0289,-0.02636 h -5.2e-4 c -0.004,-0.004 -0.009,-0.0078 -0.0129,-0.01189 -0.0135,-0.01335 -0.0261,-0.02729 -0.0382,-0.04186 -0.0121,-0.01457 -0.0239,-0.02978 -0.0346,-0.04547 -0.0107,-0.01569 -0.0203,-0.03186 -0.0295,-0.04858 -0.009,-0.01671 -0.0178,-0.03352 -0.0253,-0.05116 -0.002,-0.0035 -0.003,-0.0073 -0.004,-0.01085 -0.006,-0.01424 -0.0114,-0.02865 -0.016,-0.04341 -0.006,-0.01846 -0.0105,-0.03766 -0.0145,-0.05684 -0.002,-0.0096 -0.004,-0.01919 -0.005,-0.02894 -0.002,-0.0098 -0.003,-0.01955 -0.004,-0.02946 -10e-4,-0.0099 -0.002,-0.01993 -0.002,-0.02997 -5.2e-4,-0.01004 -10e-4,-0.01981 -10e-4,-0.02997 0,-0.01016 5.2e-4,-0.02045 10e-4,-0.03049 5.1e-4,-0.01004 10e-4,-0.02007 0.002,-0.02997 10e-4,-0.0099 0.003,-0.0197 0.004,-0.02946 0.002,-0.0098 0.003,-0.01935 0.005,-0.02894 0.004,-0.01918 0.009,-0.03787 0.0145,-0.05633 0.003,-0.0099 0.007,-0.01931 0.0109,-0.02894 0.003,-0.0084 0.006,-0.0171 0.009,-0.02532 0.008,-0.01764 0.0161,-0.03496 0.0253,-0.05168 0.009,-0.01671 0.0188,-0.03288 0.0295,-0.04858 0.0107,-0.01569 0.0225,-0.03091 0.0346,-0.04548 0.0105,-0.0126 0.0216,-0.02448 0.0331,-0.03617 0.002,-0.0018 0.003,-0.0039 0.005,-0.0057 0.0135,-0.01335 0.0277,-0.02621 0.0424,-0.03824 0.0147,-0.01203 0.0297,-0.0235 0.0455,-0.03411 0.0158,-0.01061 0.0323,-0.02037 0.0491,-0.02946 0.0168,-0.0091 0.0339,-0.01733 0.0517,-0.0248 0.0177,-0.0075 0.0362,-0.01388 0.0548,-0.01964 0.0186,-0.0058 0.0376,-0.01105 0.0568,-0.01499 0.01,-0.002 0.0192,-0.0037 0.0289,-0.0052 0.001,-2.09e-4 0.003,-3.16e-4 0.004,-5.16e-4 v -10e-4 c -0.0143,0.0013 -0.0286,0.0024 -0.0429,0.0041 -0.0234,0.0029 -0.047,0.0066 -0.0703,0.01085 -0.0233,0.0043 -0.0465,0.0093 -0.0698,0.01499 -0.0232,0.0057 -0.0462,0.01207 -0.0693,0.01912 -0.0231,0.0071 -0.0463,0.01484 -0.0692,0.02325 -0.0229,0.0084 -0.0455,0.0171 -0.0682,0.02687 -0.0228,0.0098 -0.0457,0.02041 -0.0682,0.03152 -0.0225,0.01112 -0.0449,0.02269 -0.0672,0.03514 -0.0223,0.01245 -0.0446,0.02601 -0.0667,0.03979 -0.022,0.01378 -0.0439,0.02779 -0.0656,0.04289 -0.0218,0.0151 -0.0431,0.03113 -0.0646,0.04754 -0.0214,0.01642 -0.043,0.03344 -0.0641,0.05116 -0.0211,0.01772 -0.0418,0.03628 -0.0625,0.05529 -0.0207,0.01902 -0.0417,0.0386 -0.062,0.05891 -0.0203,0.02031 -0.0405,0.04094 -0.0605,0.06253 l -0.002,0.119373 c 0.019,0.02197 0.0379,0.04345 0.0574,0.06408 0.0195,0.02063 0.0395,0.04066 0.0594,0.05994 0.02,0.01929 0.0401,0.03787 0.0605,0.05581 0.0204,0.01794 0.0412,0.03509 0.062,0.05168 0.0208,0.01659 0.0418,0.03231 0.063,0.04754 0.0212,0.01523 0.0425,0.03006 0.0641,0.04393 0.0216,0.01387 0.0432,0.02678 0.0651,0.03927 0.0219,0.0125 0.044,0.02453 0.0661,0.03566 0.0222,0.01112 0.0442,0.02126 0.0667,0.03101 0.0224,0.0097 0.045,0.01903 0.0677,0.02739 0.0227,0.0084 0.0453,0.01577 0.0682,0.02274 0.0229,0.007 0.0457,0.01355 0.0687,0.01912 0.023,0.0056 0.0466,0.01029 0.0698,0.01447 0.0232,0.0042 0.0465,0.0076 0.0698,0.01033 0.0212,0.0025 0.0423,0.0043 0.0636,0.0057 v 0.471289 h 0.1757 z m -0.0832,-0.998906 c -0.0155,2.03e-4 -0.031,8.29e-4 -0.0465,0.0021 -0.006,4.68e-4 -0.0117,0.0015 -0.0176,0.0021 -0.009,0.0012 -0.0177,0.0024 -0.0264,0.0041 -7e-4,1.43e-4 -10e-4,3.71e-4 -0.002,5.17e-4 -7.1e-4,1.46e-4 -10e-4,3.67e-4 -0.002,5.17e-4 -0.0121,0.0026 -0.024,0.0052 -0.0357,0.0088 h -5.1e-4 c -0.0129,0.004 -0.0254,0.0088 -0.0377,0.01395 -0.0125,0.0052 -0.0249,0.01121 -0.0367,0.01757 -0.0118,0.0064 -0.023,0.01325 -0.0341,0.02067 -0.0111,0.0074 -0.0218,0.01535 -0.032,0.02377 -0.0103,0.0084 -0.0201,0.017 -0.0295,0.02636 -0.009,0.0094 -0.0184,0.01924 -0.0269,0.02946 -0.008,0.01022 -0.0163,0.02103 -0.0238,0.03204 -0.007,0.01101 -0.0143,0.02237 -0.0207,0.03411 -0.006,0.01174 -0.0123,0.02378 -0.0176,0.03617 -0.005,0.01239 -0.01,0.02526 -0.014,0.03824 -0.004,0.01298 -0.008,0.02629 -0.0103,0.03979 -0.003,0.01351 -0.005,0.02687 -0.006,0.04082 -10e-4,0.01396 -0.002,0.02855 -0.002,0.04289 0,0.01434 6.6e-4,0.02842 0.002,0.04237 10e-4,0.01396 0.003,0.02784 0.006,0.04134 0.003,0.0135 0.006,0.02629 0.0103,0.03927 0.004,0.01298 0.009,0.02585 0.014,0.03824 0.005,0.01239 0.0112,0.02444 0.0176,0.03617 0.006,0.01174 0.0132,0.0231 0.0207,0.03411 0.007,0.01101 0.0153,0.02182 0.0238,0.03204 0.008,0.01022 0.0175,0.0201 0.0269,0.02946 0.009,0.0094 0.0192,0.01793 0.0295,0.02636 0.0102,0.0084 0.021,0.01635 0.032,0.02377 0.0111,0.0074 0.0223,0.01431 0.0341,0.02067 0.0118,0.0064 0.0242,0.01235 0.0367,0.01757 0.0123,0.0052 0.0248,0.01 0.0377,0.01395 h 5.1e-4 c 0.0124,0.0038 0.0249,0.0071 0.0377,0.0098 7e-4,1.45e-4 0.001,3.74e-4 0.002,5.16e-4 0.0136,0.0027 0.0273,0.0048 0.0413,0.0062 0.0124,0.0012 0.0251,0.0019 0.0377,0.0021 0.002,2e-5 0.003,0 0.005,0 0.0137,0 0.0274,-7.9e-4 0.0408,-0.0021 6.8e-4,-6.5e-5 0.001,6.7e-5 0.002,0 0.003,-2.64e-4 0.005,-7.23e-4 0.008,-10e-4 0.0114,-0.0014 0.0225,-0.0029 0.0336,-0.0052 0.002,-4.22e-4 0.004,-0.0011 0.006,-0.0015 0.0114,-0.0025 0.0231,-0.0054 0.0341,-0.0088 h 5.1e-4 c 0.0129,-0.004 0.0254,-0.0088 0.0377,-0.01395 h 5.1e-4 c 0.0123,-0.0052 0.024,-0.01129 0.0357,-0.01757 h 5.2e-4 c 0.0117,-0.0063 0.0232,-0.01333 0.0341,-0.02067 h 5.2e-4 c 0.0109,-0.0074 0.0209,-0.01544 0.031,-0.02377 h 5.1e-4 c 0.0101,-0.0084 0.0202,-0.01709 0.0295,-0.02636 0.009,-0.0094 0.0179,-0.01924 0.0263,-0.02946 0.008,-0.01022 0.0168,-0.02103 0.0243,-0.03204 0.007,-0.01101 0.0143,-0.02237 0.0207,-0.03411 0.006,-0.01174 0.0118,-0.02378 0.0171,-0.03617 0.005,-0.01239 0.01,-0.02526 0.014,-0.03824 0.004,-0.01298 0.008,-0.02577 0.0103,-0.03927 0.003,-0.01351 0.005,-0.02738 0.006,-0.04134 0.001,-0.01396 0.002,-0.02803 0.002,-0.04237 0,-0.01434 -6.6e-4,-0.02893 -0.002,-0.04289 -10e-4,-0.01396 -0.003,-0.02732 -0.006,-0.04082 -0.003,-0.01351 -0.006,-0.02681 -0.0103,-0.03979 -0.004,-0.01298 -0.009,-0.02585 -0.014,-0.03824 -0.005,-0.01239 -0.0107,-0.02444 -0.0171,-0.03617 -0.006,-0.01174 -0.0132,-0.0231 -0.0207,-0.03411 -0.007,-0.01101 -0.0158,-0.02182 -0.0243,-0.03204 -0.008,-0.01022 -0.017,-0.0201 -0.0263,-0.02946 -0.009,-0.0093 -0.0193,-0.018 -0.0295,-0.02636 h -5.1e-4 c -0.0101,-0.0083 -0.0201,-0.01641 -0.031,-0.02377 h -5.2e-4 c -0.0109,-0.0073 -0.0224,-0.01437 -0.0341,-0.02067 h -5.2e-4 c -0.0117,-0.0063 -0.0233,-0.01239 -0.0357,-0.01757 h -5.1e-4 c -0.0123,-0.0052 -0.0248,-0.01 -0.0377,-0.01395 h -5.1e-4 c -0.008,-0.0026 -0.0172,-0.0041 -0.0258,-0.0062 -0.003,-6.6e-4 -0.005,-0.0015 -0.008,-0.0021 -0.002,-4.55e-4 -0.004,-0.0011 -0.006,-0.0016 -0.0136,-0.0027 -0.0273,-0.0053 -0.0413,-0.0067 -0.012,-0.0012 -0.0244,-0.0014 -0.0367,-0.0015 z m -0.007,0.148828 h 5.2e-4 5.1e-4 c 0.009,1.08e-4 0.0169,5.86e-4 0.0253,0.0016 0.008,7.96e-4 0.0169,0.002 0.0253,0.0036 0.009,0.0016 0.017,0.0037 0.0253,0.0062 0.005,0.0014 0.009,0.003 0.0134,0.0047 0.004,0.0013 0.007,0.0027 0.0109,0.0041 0.008,0.0034 0.016,0.0072 0.0238,0.01137 0.008,0.0041 0.015,0.0086 0.0222,0.01344 0.007,0.0048 0.014,0.01 0.0207,0.0155 0.007,0.0054 0.013,0.01106 0.0191,0.01705 0.006,0.0062 0.012,0.0128 0.0176,0.01964 0.005,0.0066 0.0107,0.01353 0.0155,0.02067 0.005,0.0072 0.009,0.0146 0.0134,0.02222 0.004,0.0076 0.008,0.01533 0.0109,0.02326 0.003,0.0081 0.006,0.0164 0.009,0.0248 0.003,0.0082 0.005,0.01643 0.007,0.0248 0.002,0.0085 0.003,0.01717 0.004,0.02584 7.6e-4,0.0086 10e-4,0.01721 10e-4,0.02584 5e-5,0.01159 -5.6e-4,0.02314 -0.002,0.03462 -0.002,0.01148 -0.004,0.02289 -0.007,0.03411 -0.003,0.01112 -0.006,0.02194 -0.0109,0.03256 -0.004,0.01062 -0.01,0.02103 -0.0155,0.03101 -0.006,0.01002 -0.012,0.01979 -0.0191,0.02894 -0.007,0.0091 -0.015,0.01767 -0.0233,0.02584 -0.008,0.0082 -0.0167,0.01618 -0.0258,0.02325 -0.009,0.0071 -0.0189,0.01329 -0.0289,0.01912 -0.007,0.0035 -0.0137,0.0069 -0.0207,0.0098 -0.007,0.0029 -0.0139,0.0054 -0.0212,0.0078 -0.007,0.0032 -0.0143,0.0062 -0.0217,0.0088 -0.0112,0.003 -0.0226,0.0052 -0.0341,0.0067 -0.0115,0.0015 -0.023,0.0021 -0.0346,0.0021 -0.0115,2.6e-5 -0.0227,-5.98e-4 -0.0341,-0.0021 -0.0114,-0.0015 -0.023,-0.0038 -0.0341,-0.0067 -0.006,-0.0022 -0.0114,-0.0046 -0.0171,-0.0072 -0.008,-0.0024 -0.0159,-0.0051 -0.0238,-0.0083 -0.008,-0.0032 -0.0158,-0.0069 -0.0233,-0.01085 -0.01,-0.0058 -0.0198,-0.01204 -0.0289,-0.01912 -0.009,-0.0071 -0.0177,-0.01502 -0.0258,-0.02325 -0.008,-0.0082 -0.0158,-0.01669 -0.0227,-0.02584 -0.007,-0.0091 -0.0133,-0.01893 -0.0191,-0.02894 -0.006,-0.01 -0.0106,-0.02039 -0.015,-0.03101 -0.004,-0.01062 -0.008,-0.02144 -0.0114,-0.03256 -0.003,-0.0112 -0.005,-0.02263 -0.007,-0.03411 -10e-4,-0.01148 -0.002,-0.02301 -0.002,-0.03462 5e-5,-0.01153 5.8e-4,-0.02271 0.002,-0.03411 10e-4,-0.01139 0.004,-0.02299 0.007,-0.03411 0.004,-0.01222 0.009,-0.02414 0.0145,-0.03566 4.1e-4,0.0047 10e-4,0.0098 0.002,0.01447 10e-4,0.0047 0.003,0.0089 0.004,0.01344 0.003,0.0074 0.007,0.01452 0.0114,0.02119 0.005,0.0067 0.01,0.01291 0.0155,0.0186 0.006,0.0057 0.0119,0.011 0.0186,0.0155 0.007,0.0045 0.0137,0.0082 0.0212,0.01137 0.008,0.0031 0.0153,0.0057 0.0232,0.0072 0.008,0.0016 0.0161,0.0021 0.0243,0.0021 0.006,-3.19e-4 0.0121,-8.6e-4 0.0181,-0.0021 0.006,-0.0012 0.0118,-0.0031 0.0176,-0.0052 0.004,-5.11e-4 0.008,-0.0012 0.0114,-0.0021 0.008,-0.0031 0.0149,-0.0069 0.0217,-0.01137 0.007,-0.0045 0.0129,-0.0097 0.0186,-0.0155 0.006,-0.0057 0.0106,-0.01194 0.015,-0.0186 0.004,-0.0067 0.008,-0.01376 0.0114,-0.02119 0.003,-0.0075 0.005,-0.01529 0.007,-0.02325 0.002,-0.008 0.003,-0.01612 0.003,-0.02429 -9e-5,-0.0059 -6.7e-4,-0.01176 -0.002,-0.01757 -8e-4,-0.0058 -0.002,-0.01146 -0.004,-0.01705 -0.002,-0.0057 -0.004,-0.01118 -0.006,-0.01654 -0.002,-0.0054 -0.005,-0.01054 -0.008,-0.0155 -0.003,-0.0049 -0.007,-0.0096 -0.0109,-0.01395 -0.004,-0.0044 -0.008,-0.0086 -0.0124,-0.0124 -0.004,-0.0039 -0.009,-0.0076 -0.014,-0.01085 -0.005,-0.0031 -0.0101,-0.0059 -0.0155,-0.0083 -0.005,-0.0022 -0.0102,-0.0041 -0.0155,-0.0057 -3.4e-4,-1.74e-4 -7.2e-4,-3.46e-4 -10e-4,-5.17e-4 -0.003,-8.22e-4 -0.007,-0.0015 -0.0103,-0.0021 0.004,-0.0015 0.007,-0.0028 0.0114,-0.0041 0.006,-0.0026 0.0113,-0.005 0.017,-0.0072 0.0111,-0.003 0.0222,-0.0052 0.0336,-0.0067 0.0111,-0.0015 0.0224,-0.0025 0.0336,-0.0026 z"
       style="fill:#333333;stroke-linejoin:bevel"
       id="path377" /></g></svg>
