<?xml version="1.0" encoding="UTF-8" standalone="no"?>
<!-- Created with Inkscape (http://www.inkscape.org/) -->

<svg
   width="23.397699mm"
   height="12.848086mm"
   viewBox="0 0 23.397699 12.848086"
   version="1.1"
   id="svg1"
   xml:space="preserve"
   inkscape:version="1.3 (0e150ed6c4, 2023-07-21)"
   sodipodi:docname="wunderpus.svg"
   xmlns:inkscape="http://www.inkscape.org/namespaces/inkscape"
   xmlns:sodipodi="http://sodipodi.sourceforge.net/DTD/sodipodi-0.dtd"
   xmlns="http://www.w3.org/2000/svg"
   xmlns:svg="http://www.w3.org/2000/svg"><sodipodi:namedview
     id="namedview1"
     pagecolor="#ffffff"
     bordercolor="#eeeeee"
     borderopacity="1"
     inkscape:showpageshadow="0"
     inkscape:pageopacity="0"
     inkscape:pagecheckerboard="0"
     inkscape:deskcolor="#d1d1d1"
     inkscape:document-units="mm"
     inkscape:zoom="1.4142136"
     inkscape:cx="1260.4178"
     inkscape:cy="1132.7851"
     inkscape:window-width="2400"
     inkscape:window-height="1511"
     inkscape:window-x="-9"
     inkscape:window-y="-9"
     inkscape:window-maximized="1"
     inkscape:current-layer="layer1"
     showguides="true"><sodipodi:guide
       position="-97.702676,366.31795"
       orientation="-0.50386627,0.86378168"
       id="guide134"
       inkscape:locked="false" /></sodipodi:namedview><defs
     id="defs1" /><g
     inkscape:label="Layer 1"
     inkscape:groupmode="layer"
     id="layer1"
     transform="translate(-136.82752,-353.5125)"><path
       d="m 139.27583,353.5125 c -0.10017,0 -0.19706,0.003 -0.29127,0.0114 -0.0943,0.008 -0.18539,0.0184 -0.27363,0.033 -0.0882,0.0144 -0.17378,0.0324 -0.25599,0.0539 -0.0822,0.0214 -0.16125,0.0462 -0.2374,0.0744 -0.0762,0.0281 -0.14923,0.0598 -0.21929,0.0944 -0.07,0.0346 -0.13727,0.0726 -0.20116,0.11346 -0.064,0.0409 -0.12439,0.0846 -0.18211,0.13158 -0.0577,0.047 -0.11251,0.097 -0.16399,0.14968 -0.0515,0.0527 -0.0997,0.10814 -0.1449,0.16637 -0.0453,0.0583 -0.0875,0.11942 -0.12633,0.18306 -0.0389,0.0636 -0.0743,0.12954 -0.10684,0.1983 -0.0325,0.0688 -0.0621,0.14038 -0.0881,0.21404 -0.026,0.0737 -0.049,0.14953 -0.0687,0.22787 -0.0196,0.0783 -0.036,0.1589 -0.0491,0.24168 -0.0131,0.0828 -0.023,0.16804 -0.0295,0.25503 -0.007,0.0869 -0.01,0.17596 -0.01,0.26697 0,0.0594 0.003,0.11909 0.009,0.17923 0.005,0.0601 0.0144,0.12079 0.0257,0.18117 0.0113,0.0604 0.025,0.12068 0.0416,0.18065 0.0164,0.0599 0.035,0.1193 0.0563,0.1783 0.0212,0.059 0.0449,0.11754 0.0705,0.17494 0.0256,0.0574 0.0531,0.11355 0.0829,0.16876 0.0298,0.0552 0.0618,0.10924 0.0953,0.1616 0.0337,0.0524 0.0688,0.10355 0.10585,0.15254 0.0372,0.049 0.0761,0.0961 0.11632,0.14111 0.0402,0.0451 0.0818,0.0878 0.1249,0.12823 0.043,0.0405 0.0875,0.0783 0.133,0.11345 0.0456,0.0351 0.092,0.0675 0.13967,0.0968 0.0477,0.0293 0.0963,0.0552 0.14588,0.0782 0.0495,0.0229 0.10006,0.0428 0.15111,0.0587 0.0511,0.0159 0.10279,0.0279 0.15493,0.0363 0.0523,0.009 0.10475,0.0124 0.15779,0.0124 0.0937,0 0.18075,-0.007 0.26171,-0.0186 0.0809,-0.0121 0.15545,-0.0302 0.22453,-0.053 0.0691,-0.0228 0.1327,-0.0502 0.19067,-0.082 0.0581,-0.0318 0.1106,-0.0681 0.15827,-0.10727 0.0477,-0.0393 0.0904,-0.0813 0.12871,-0.12631 0.0383,-0.0451 0.0716,-0.0927 0.10103,-0.14207 0.0295,-0.0493 0.0547,-0.1006 0.0763,-0.15255 0.0215,-0.0519 0.0395,-0.10475 0.0539,-0.15778 0.0144,-0.053 0.0256,-0.10617 0.0339,-0.15875 0.009,-0.0525 0.0136,-0.10453 0.0162,-0.15492 0.003,-0.0505 0.003,-0.0992 9.3e-4,-0.14587 -0.002,-0.0468 -0.007,-0.091 -0.0124,-0.13253 -0.005,-0.0415 -0.0138,-0.0803 -0.0229,-0.11488 -0.009,-0.0347 -0.0191,-0.0654 -0.0305,-0.0915 -0.0114,-0.0261 -0.0237,-0.0478 -0.0367,-0.064 -0.0128,-0.0161 -0.0265,-0.0269 -0.0401,-0.0314 0.003,0.0445 0.014,0.13066 0.0114,0.23549 -9.2e-4,0.0524 -0.005,0.10924 -0.0162,0.16828 -0.01,0.0591 -0.0259,0.12017 -0.0501,0.18019 -0.012,0.03 -0.0265,0.0599 -0.043,0.0891 -0.0164,0.0291 -0.0353,0.0576 -0.0567,0.0853 -0.0214,0.0277 -0.0454,0.0541 -0.0724,0.0796 -0.0271,0.0255 -0.0573,0.05 -0.0905,0.0724 -0.0332,0.0225 -0.07,0.0431 -0.11011,0.062 -0.0401,0.0189 -0.084,0.036 -0.13158,0.0506 -0.0477,0.0145 -0.0992,0.0267 -0.15492,0.0363 -0.0558,0.01 -0.11529,0.0163 -0.17972,0.02 -0.0301,0.002 -0.0606,8.1e-4 -0.091,-0.003 -0.0305,-0.003 -0.0617,-0.009 -0.0925,-0.0166 -0.0616,-0.0156 -0.12268,-0.0407 -0.18306,-0.0734 -0.0604,-0.0328 -0.11972,-0.073 -0.17638,-0.12062 -0.0566,-0.0476 -0.11069,-0.10191 -0.16111,-0.16207 -0.0504,-0.0601 -0.0971,-0.12624 -0.13873,-0.19688 -0.0417,-0.0706 -0.0784,-0.14608 -0.10869,-0.22501 -0.0303,-0.079 -0.0541,-0.16143 -0.0705,-0.24646 -0.0164,-0.0851 -0.0253,-0.17228 -0.0253,-0.26122 0,-0.0918 0.008,-0.18495 0.0224,-0.27745 0.0152,-0.0925 0.0387,-0.18447 0.0697,-0.2741 0.031,-0.0897 0.07,-0.17697 0.11727,-0.26028 0.0236,-0.0418 0.0489,-0.0827 0.0768,-0.12204 0.0278,-0.0395 0.0581,-0.0776 0.0901,-0.1144 0.0322,-0.0367 0.0662,-0.0722 0.10246,-0.10585 0.0363,-0.0337 0.0751,-0.0657 0.11584,-0.0958 0.0408,-0.0302 0.0834,-0.0582 0.1287,-0.0844 0.0453,-0.0261 0.0928,-0.0506 0.14254,-0.0725 0.0498,-0.0219 0.10158,-0.0412 0.15588,-0.0582 0.0542,-0.017 0.1108,-0.0316 0.16971,-0.0434 0.0589,-0.0118 0.11989,-0.021 0.18353,-0.0272 0.0636,-0.007 0.12991,-0.009 0.1983,-0.009 0.10268,0 0.20209,0.008 0.29794,0.0204 0.0959,0.0134 0.18793,0.0336 0.27697,0.0596 0.089,0.026 0.17511,0.0582 0.25742,0.0958 0.0822,0.0376 0.16129,0.0808 0.23692,0.12918 0.0757,0.0484 0.1479,0.10191 0.21691,0.16016 0.069,0.0582 0.13444,0.1212 0.19688,0.18831 0.0624,0.067 0.12188,0.13848 0.17781,0.21356 0.0559,0.0751 0.10836,0.15382 0.15779,0.23597 0.0494,0.0821 0.0961,0.16769 0.1392,0.25599 0.0431,0.0882 0.0828,0.17914 0.11963,0.27267 0.0369,0.0936 0.0701,0.1896 0.1006,0.28746 0.0305,0.0979 0.0582,0.19762 0.0824,0.29889 0.0243,0.10126 0.0454,0.2042 0.0634,0.30795 0.018,0.10377 0.0333,0.20835 0.0453,0.31366 0.012,0.1053 0.0212,0.21151 0.0272,0.31749 0.005,0.10596 0.009,0.21177 0.009,0.31748 0,0.22946 -0.003,0.44967 -0.008,0.66167 -0.005,0.21201 -0.0127,0.41588 -0.0214,0.61305 -0.0174,0.39433 -0.0406,0.76156 -0.0639,1.11214 -0.0232,0.35059 -0.0465,0.68436 -0.0639,1.01205 -0.009,0.16385 -0.0159,0.32612 -0.0209,0.48815 -0.005,0.16201 -0.009,0.32389 -0.009,0.48671 0,0.15711 0.005,0.3107 0.0176,0.46001 0.0117,0.14932 0.029,0.29447 0.0519,0.43572 0.0229,0.14124 0.0513,0.27849 0.0848,0.41139 0.0336,0.1329 0.0722,0.26137 0.11584,0.38565 0.0437,0.12431 0.0925,0.2445 0.14587,0.35991 0.0535,0.11541 0.11148,0.226 0.17401,0.33227 0.0626,0.10629 0.12951,0.20822 0.20069,0.3051 0.0712,0.0969 0.14664,0.18884 0.22595,0.276 0.0793,0.0871 0.16237,0.16925 0.24933,0.24646 0.0869,0.0772 0.17762,0.14942 0.2717,0.21641 0.0941,0.067 0.19152,0.12894 0.29224,0.18544 0.10071,0.0565 0.20494,0.10771 0.31176,0.15351 0.10683,0.0458 0.21647,0.0858 0.32892,0.1206 0.11244,0.0347 0.22758,0.0639 0.34513,0.0873 0.11755,0.0234 0.23729,0.0411 0.35944,0.0529 0.12215,0.0118 0.24654,0.0176 0.37278,0.0176 0.1399,0 0.27372,-0.005 0.40186,-0.0166 0.12816,-0.011 0.25088,-0.0274 0.36801,-0.0482 0.11715,-0.0207 0.22873,-0.0456 0.33561,-0.0744 0.10684,-0.0288 0.20915,-0.0614 0.30652,-0.0968 0.0974,-0.0354 0.18979,-0.0738 0.2784,-0.1144 0.0886,-0.0407 0.17302,-0.083 0.2536,-0.12728 0.0806,-0.0443 0.15742,-0.0898 0.23072,-0.13633 0.0734,-0.0466 0.14298,-0.0939 0.20974,-0.14111 0.13355,-0.0944 0.25518,-0.18893 0.36707,-0.27743 0.11189,-0.0885 0.21414,-0.17089 0.31034,-0.24171 0.0481,-0.0354 0.0948,-0.068 0.14015,-0.0968 0.0453,-0.0288 0.0892,-0.0537 0.13253,-0.0744 0.0433,-0.0207 0.0853,-0.0372 0.12727,-0.0482 0.0419,-0.011 0.0835,-0.0166 0.1249,-0.0166 0.0413,0 0.0829,0.005 0.1249,0.0166 0.0419,0.0111 0.084,0.0274 0.12728,0.0482 0.0433,0.0207 0.0877,0.0456 0.13299,0.0744 0.0454,0.0288 0.0916,0.0613 0.13968,0.0968 0.0962,0.0709 0.19892,0.15319 0.31081,0.24171 0.11188,0.0886 0.23304,0.18301 0.36659,0.27743 0.0668,0.0472 0.13644,0.0946 0.20974,0.14111 0.0734,0.0466 0.15015,0.0921 0.23072,0.13633 0.0806,0.0443 0.16502,0.0867 0.25361,0.12728 0.0886,0.0407 0.18151,0.0791 0.27887,0.1144 0.0974,0.0354 0.19917,0.068 0.30605,0.0968 0.10683,0.0288 0.21893,0.0537 0.33608,0.0744 0.11714,0.0207 0.23938,0.0371 0.36755,0.0482 0.12813,0.0111 0.26195,0.0166 0.40185,0.0166 0.12624,0 0.25063,-0.005 0.37278,-0.0176 0.12214,-0.0118 0.24189,-0.0295 0.35944,-0.0529 0.11755,-0.0234 0.23268,-0.0525 0.34513,-0.0873 0.11245,-0.0348 0.22257,-0.0749 0.3294,-0.1206 0.10684,-0.0458 0.21057,-0.097 0.31129,-0.15351 0.10071,-0.0564 0.19813,-0.11844 0.29221,-0.18544 0.0942,-0.0669 0.18478,-0.1392 0.27172,-0.21641 0.0869,-0.0772 0.17048,-0.15929 0.2498,-0.24646 0.0793,-0.0872 0.15431,-0.17916 0.22547,-0.276 0.0712,-0.0969 0.13818,-0.19883 0.20071,-0.3051 0.0625,-0.10628 0.12063,-0.21686 0.17398,-0.33227 0.0535,-0.11541 0.10214,-0.2356 0.14589,-0.35991 0.0437,-0.12428 0.0822,-0.25275 0.11583,-0.38565 0.0336,-0.1329 0.062,-0.27015 0.0848,-0.41139 0.0229,-0.14125 0.0403,-0.2864 0.0519,-0.43572 0.0117,-0.14931 0.0176,-0.3029 0.0176,-0.46001 0,-0.16282 -0.003,-0.3247 -0.009,-0.48671 -0.005,-0.16203 -0.0122,-0.3243 -0.0209,-0.48815 -0.0174,-0.32769 -0.0407,-0.66146 -0.0639,-1.01205 -0.0232,-0.35058 -0.0466,-0.71781 -0.064,-1.11214 -0.009,-0.19717 -0.0159,-0.40104 -0.0209,-0.61305 -0.005,-0.212 -0.009,-0.43221 -0.009,-0.66167 0,-0.10574 0.003,-0.21149 0.009,-0.31748 0.005,-0.10596 0.0147,-0.21215 0.0266,-0.31749 0.012,-0.1053 0.0272,-0.2099 0.0454,-0.31366 0.018,-0.10378 0.0396,-0.20668 0.0639,-0.30795 0.0243,-0.10126 0.0515,-0.20104 0.082,-0.29889 0.0305,-0.0979 0.0639,-0.19391 0.1006,-0.28746 0.0367,-0.0935 0.077,-0.18437 0.12013,-0.27267 0.0431,-0.0882 0.0892,-0.17384 0.13872,-0.25599 0.0494,-0.0822 0.10235,-0.16087 0.15827,-0.23597 0.0559,-0.0751 0.11489,-0.14645 0.17733,-0.21356 0.0624,-0.067 0.12835,-0.13008 0.19736,-0.18831 0.069,-0.0582 0.14127,-0.11175 0.21689,-0.16016 0.0757,-0.0484 0.15461,-0.0915 0.23693,-0.12918 0.0822,-0.0377 0.16789,-0.0699 0.25694,-0.0958 0.089,-0.026 0.1816,-0.0462 0.27744,-0.0596 0.0959,-0.0134 0.19476,-0.0204 0.29746,-0.0204 0.0684,0 0.13469,0.003 0.19831,0.009 0.0636,0.007 0.12462,0.0154 0.18353,0.0272 0.0589,0.0118 0.11591,0.0263 0.17019,0.0434 0.0542,0.0171 0.10618,0.0363 0.15588,0.0582 0.0497,0.0219 0.0969,0.0462 0.14205,0.0725 0.0453,0.0261 0.0885,0.0542 0.1292,0.0844 0.0408,0.0302 0.0789,0.0621 0.11535,0.0958 0.0364,0.0337 0.071,0.0691 0.103,0.10585 0.032,0.0369 0.0618,0.075 0.0896,0.1144 0.0279,0.0395 0.0536,0.0804 0.0772,0.12204 0.0473,0.0833 0.0863,0.17065 0.11728,0.26028 0.0309,0.0897 0.0539,0.18161 0.0691,0.2741 0.0152,0.0925 0.0229,0.18553 0.0229,0.27745 0,0.0889 -0.009,0.17621 -0.0253,0.26122 -0.0164,0.0851 -0.0408,0.16754 -0.0711,0.24646 -0.0303,0.0789 -0.0666,0.15437 -0.10825,0.22501 -0.0417,0.0706 -0.0883,0.13669 -0.13872,0.19688 -0.0504,0.0601 -0.10498,0.11454 -0.16161,0.16207 -0.0566,0.0476 -0.11553,0.0879 -0.1759,0.12062 -0.0604,0.0327 -0.122,0.0577 -0.18353,0.0734 -0.0307,0.009 -0.0615,0.0134 -0.092,0.0166 -0.0305,0.003 -0.061,0.003 -0.091,0.003 -0.0644,-0.003 -0.12446,-0.0109 -0.1802,-0.02 -0.0558,-0.01 -0.10727,-0.0217 -0.15492,-0.0363 -0.0477,-0.0144 -0.0914,-0.0316 -0.13158,-0.0506 -0.0401,-0.0188 -0.0769,-0.0395 -0.11011,-0.062 -0.0333,-0.0225 -0.0634,-0.0466 -0.0905,-0.072 -0.027,-0.0255 -0.0511,-0.0524 -0.0724,-0.08 -0.0214,-0.0277 -0.0403,-0.0562 -0.0567,-0.0853 -0.0164,-0.0292 -0.0303,-0.0592 -0.0424,-0.0891 -0.0242,-0.06 -0.0403,-0.12068 -0.0505,-0.17971 -0.01,-0.059 -0.0149,-0.11635 -0.0162,-0.16876 -0.003,-0.10486 0.009,-0.19104 0.0114,-0.23549 -0.0136,0.004 -0.0272,0.0153 -0.0401,0.0314 -0.0128,0.0161 -0.0249,0.0377 -0.0363,0.064 -0.0114,0.0261 -0.0219,0.057 -0.0309,0.0915 -0.009,0.0347 -0.0169,0.0735 -0.0229,0.11488 -0.005,0.0416 -0.01,0.0857 -0.0119,0.13253 -0.002,0.0468 -0.002,0.0955 4.7e-4,0.14587 0.003,0.0505 0.009,0.10235 0.0162,0.15492 0.009,0.0525 0.0193,0.10574 0.0338,0.15875 0.0144,0.053 0.0324,0.10585 0.0539,0.15778 0.0215,0.0519 0.0468,0.10323 0.0763,0.15255 0.0295,0.0493 0.0634,0.097 0.10159,0.14207 0.0382,0.0451 0.0805,0.087 0.12823,0.12631 0.0477,0.0392 0.10082,0.0754 0.15874,0.10727 0.058,0.0318 0.12112,0.0593 0.1902,0.082 0.0691,0.0227 0.14404,0.0408 0.225,0.053 0.081,0.0121 0.16806,0.0186 0.26173,0.0186 0.053,0 0.10563,-0.004 0.15779,-0.0124 0.0523,-0.009 0.10388,-0.0203 0.15491,-0.0363 0.0511,-0.0159 0.10115,-0.0356 0.15064,-0.0587 0.0495,-0.0229 0.0982,-0.0489 0.14588,-0.0782 0.0477,-0.0293 0.0941,-0.0617 0.13967,-0.0968 0.0456,-0.0351 0.0899,-0.073 0.133,-0.11345 0.0431,-0.0403 0.0846,-0.0832 0.1249,-0.12823 0.0402,-0.0451 0.0793,-0.0922 0.11631,-0.14111 0.0372,-0.049 0.0723,-0.10016 0.10585,-0.15254 0.0337,-0.0524 0.0656,-0.1064 0.0953,-0.1616 0.0297,-0.0552 0.0577,-0.11137 0.0833,-0.16876 0.0256,-0.0574 0.0489,-0.11596 0.0701,-0.17494 0.0212,-0.0589 0.0404,-0.11831 0.0567,-0.1783 0.0164,-0.0599 0.0302,-0.12031 0.0416,-0.18065 0.0113,-0.0604 0.0195,-0.12101 0.0253,-0.18117 0.005,-0.0601 0.009,-0.11991 0.009,-0.17923 0,-0.091 -0.003,-0.17994 -0.01,-0.26697 -0.007,-0.0869 -0.0164,-0.17223 -0.0295,-0.25503 -0.0131,-0.0828 -0.0295,-0.16335 -0.0491,-0.24168 -0.0196,-0.0783 -0.0425,-0.1542 -0.0687,-0.22787 -0.026,-0.0736 -0.0552,-0.14528 -0.0877,-0.21404 -0.0325,-0.0687 -0.0684,-0.13467 -0.10727,-0.1983 -0.0388,-0.0636 -0.0811,-0.12479 -0.12632,-0.18306 -0.0453,-0.0583 -0.0935,-0.11367 -0.14493,-0.16637 -0.0515,-0.0527 -0.10574,-0.10279 -0.16351,-0.14968 -0.0577,-0.0469 -0.11868,-0.0906 -0.18258,-0.13158 -0.064,-0.0409 -0.13111,-0.0787 -0.20117,-0.11346 -0.07,-0.0347 -0.14311,-0.0663 -0.21928,-0.0944 -0.0762,-0.0281 -0.15518,-0.053 -0.23741,-0.0744 -0.0822,-0.0214 -0.16726,-0.0393 -0.2555,-0.0539 -0.0882,-0.0144 -0.17989,-0.0255 -0.2741,-0.033 -0.0943,-0.008 -0.19113,-0.0114 -0.29126,-0.0114 -0.067,0 -0.1335,0.003 -0.19927,0.008 -0.0657,0.004 -0.13098,0.0114 -0.19544,0.0205 -0.0645,0.009 -0.12805,0.02 -0.19117,0.0333 -0.0631,0.0132 -0.12563,0.0288 -0.18734,0.0462 -0.12345,0.0349 -0.24426,0.0784 -0.36182,0.12919 -0.11755,0.0507 -0.23196,0.10902 -0.34323,0.17446 -0.11126,0.0654 -0.21912,0.13793 -0.32368,0.21692 -0.10453,0.079 -0.2057,0.16458 -0.30319,0.25598 -0.0974,0.0914 -0.19125,0.18857 -0.28125,0.29127 -0.09,0.10268 -0.17627,0.2108 -0.25837,0.32368 -0.0821,0.11289 -0.16024,0.23035 -0.23407,0.35229 -0.0738,0.12193 -0.14319,0.24816 -0.20832,0.37802 -0.0652,0.12987 -0.12605,0.26329 -0.18209,0.39995 -0.0561,0.13667 -0.10738,0.27668 -0.15398,0.41902 -0.0466,0.14234 -0.0881,0.28739 -0.12489,0.43429 -0.0367,0.14688 -0.0685,0.29539 -0.0948,0.44572 -0.0264,0.15032 -0.0472,0.30213 -0.0629,0.45476 -0.0156,0.15263 -0.0259,0.30622 -0.0306,0.46003 -0.008,0.23942 -0.008,0.50903 -0.008,0.79752 2e-4,0.28851 9.1e-4,0.59618 -0.003,0.91099 -0.002,0.15739 -0.005,0.31653 -0.0109,0.47622 -0.005,0.15969 -0.013,0.31994 -0.0233,0.4791 -0.01,0.15914 -0.0237,0.31713 -0.0406,0.47287 -0.0167,0.15577 -0.037,0.30908 -0.0616,0.45859 -0.0245,0.14952 -0.0535,0.2953 -0.0873,0.43571 -0.0338,0.14042 -0.0726,0.27529 -0.11727,0.40377 -0.0447,0.12848 -0.0951,0.25052 -0.15207,0.3642 -0.0284,0.0569 -0.0583,0.11185 -0.0901,0.16446 -0.0318,0.0526 -0.0657,0.10312 -0.10104,0.15112 -0.0354,0.0481 -0.0724,0.0933 -0.11154,0.13634 -0.0392,0.0431 -0.0799,0.0838 -0.12299,0.12156 -0.043,0.0377 -0.0882,0.0727 -0.13538,0.10486 -0.0471,0.032 -0.0963,0.0617 -0.14778,0.0877 -0.0514,0.026 -0.10476,0.0489 -0.16065,0.0687 -0.0559,0.0197 -0.11395,0.0365 -0.17447,0.0497 -0.0606,0.013 -0.12341,0.0225 -0.18879,0.0285 -0.0654,0.005 -0.13314,0.009 -0.20353,0.007 -0.0642,-9.2e-4 -0.13168,-0.003 -0.20071,-0.007 -0.069,-0.003 -0.13968,-0.01 -0.21118,-0.02 -0.0715,-0.01 -0.1434,-0.0251 -0.21499,-0.0463 -0.0716,-0.021 -0.14283,-0.0486 -0.21214,-0.0844 -0.0347,-0.0178 -0.0688,-0.0376 -0.10246,-0.06 -0.0337,-0.0224 -0.0669,-0.0476 -0.0992,-0.0748 -0.0324,-0.0273 -0.0636,-0.0572 -0.0944,-0.0901 -0.0307,-0.0328 -0.0604,-0.0684 -0.0891,-0.10727 -0.0288,-0.0389 -0.0569,-0.0809 -0.0833,-0.12633 -0.0266,-0.0454 -0.0518,-0.0944 -0.0758,-0.14684 -0.0241,-0.0525 -0.0469,-0.10869 -0.0682,-0.16874 -0.0213,-0.06 -0.0414,-0.12355 -0.0596,-0.19163 0.11594,-0.12954 0.21316,-0.25001 0.29365,-0.36183 0.0402,-0.0559 0.0764,-0.1097 0.1087,-0.1616 0.0321,-0.0518 0.0606,-0.10159 0.0853,-0.14969 0.0247,-0.0482 0.046,-0.0946 0.0639,-0.13919 0.0178,-0.0447 0.0324,-0.0877 0.0438,-0.12919 0.0115,-0.0414 0.02,-0.0816 0.0257,-0.12013 0.005,-0.0386 0.009,-0.0751 0.01,-0.11107 5.5e-4,-0.0359 -0.002,-0.0704 -0.005,-0.10388 -0.003,-0.0336 -0.0109,-0.0658 -0.0186,-0.0972 -0.0164,-0.0628 -0.0402,-0.12147 -0.0697,-0.17734 -0.0293,-0.0559 -0.0641,-0.10891 -0.10202,-0.16016 -0.0378,-0.0513 -0.0787,-0.10049 -0.12061,-0.14922 0.0354,-0.0703 0.0674,-0.14009 0.0968,-0.20975 0.0294,-0.0697 0.056,-0.13936 0.0796,-0.2083 0.0236,-0.069 0.0447,-0.13731 0.0629,-0.20547 0.0182,-0.0681 0.0333,-0.13582 0.0463,-0.20308 0.0128,-0.0673 0.0232,-0.13397 0.0309,-0.20022 0.008,-0.0663 0.0128,-0.13222 0.0157,-0.19735 0.003,-0.0652 0.003,-0.12963 0.002,-0.19354 -0.002,-0.064 -0.005,-0.12714 -0.0119,-0.18973 -0.0125,-0.12516 -0.0337,-0.24735 -0.0624,-0.36658 -0.0289,-0.11923 -0.0655,-0.23554 -0.10913,-0.348 -0.0436,-0.11245 -0.0939,-0.22121 -0.15064,-0.32607 -0.0566,-0.10486 -0.11941,-0.20582 -0.18733,-0.30223 -0.068,-0.0963 -0.14131,-0.18841 -0.21882,-0.27554 -0.0775,-0.087 -0.1592,-0.16945 -0.24454,-0.24644 -0.0853,-0.077 -0.17406,-0.1485 -0.26553,-0.21453 -0.0915,-0.066 -0.18587,-0.12645 -0.28172,-0.18066 -0.0959,-0.0542 -0.19323,-0.10235 -0.29175,-0.14396 -0.0985,-0.0417 -0.19797,-0.0763 -0.29747,-0.10442 -0.0995,-0.0281 -0.19923,-0.0492 -0.29794,-0.0629 -0.0987,-0.0138 -0.19648,-0.0205 -0.29269,-0.019 -0.0962,-0.002 -0.19399,0.005 -0.29269,0.019 -0.0987,0.0137 -0.19846,0.0349 -0.29794,0.0629 -0.0995,0.0281 -0.19893,0.0629 -0.29747,0.10442 -0.0985,0.0416 -0.19588,0.0898 -0.29174,0.14396 -0.0959,0.0542 -0.19027,0.11464 -0.28174,0.18066 -0.0914,0.066 -0.18017,0.13754 -0.26552,0.21453 -0.0853,0.077 -0.16705,0.15934 -0.24454,0.24644 -0.0775,0.087 -0.15088,0.17915 -0.21882,0.27554 -0.0679,0.0964 -0.1307,0.19738 -0.18733,0.30223 -0.0566,0.10487 -0.10706,0.21362 -0.15065,0.32607 -0.0436,0.11246 -0.0803,0.22877 -0.10913,0.348 -0.0289,0.11923 -0.05,0.24142 -0.0624,0.36658 -0.007,0.0625 -0.01,0.12583 -0.0119,0.18973 -0.002,0.064 -0.002,0.12842 0.002,0.19354 0.003,0.0652 0.009,0.13111 0.0162,0.19735 0.008,0.0663 0.0177,0.13296 0.0305,0.20022 0.0128,0.0673 0.0285,0.13491 0.0468,0.20308 0.0181,0.0681 0.0388,0.1365 0.0624,0.20547 0.0236,0.0689 0.0502,0.13865 0.0796,0.2083 0.0294,0.0697 0.0615,0.13951 0.0968,0.20975 -0.0419,0.0488 -0.0828,0.098 -0.12061,0.14922 -0.0378,0.0512 -0.0727,0.10432 -0.10203,0.16016 -0.0293,0.0559 -0.0532,0.11464 -0.0695,0.17734 -0.009,0.0314 -0.0144,0.0638 -0.0186,0.0972 -0.003,0.0335 -0.005,0.0681 -0.005,0.10388 5.5e-4,0.0359 0.003,0.0726 0.009,0.11107 0.005,0.0386 0.0142,0.0787 0.0257,0.12013 0.0115,0.0414 0.0265,0.0845 0.0444,0.12919 0.0178,0.0447 0.0387,0.091 0.0634,0.13919 0.0247,0.0482 0.0531,0.0978 0.0853,0.14969 0.0321,0.0518 0.0685,0.10574 0.10869,0.1616 0.0805,0.11182 0.17771,0.23229 0.29364,0.36183 -0.0181,0.0681 -0.0378,0.13163 -0.0592,0.19163 -0.0213,0.0599 -0.0442,0.1163 -0.0682,0.16874 -0.0241,0.0525 -0.0498,0.10148 -0.0763,0.14684 -0.0266,0.0454 -0.0541,0.0875 -0.0829,0.12633 -0.0288,0.0388 -0.0589,0.0743 -0.0896,0.10727 -0.0307,0.0328 -0.0621,0.0628 -0.0944,0.0901 -0.0324,0.0273 -0.0655,0.0525 -0.0992,0.0748 -0.0337,0.0224 -0.0678,0.0422 -0.10246,0.06 -0.0693,0.0359 -0.14009,0.0634 -0.21167,0.0844 -0.0716,0.021 -0.14397,0.0359 -0.21545,0.0463 -0.0715,0.01 -0.14217,0.0162 -0.2112,0.02 -0.069,0.003 -0.1365,0.005 -0.20069,0.007 -0.0704,0.002 -0.13819,-7.4e-4 -0.20355,-0.007 -0.0654,-0.005 -0.12825,-0.0155 -0.18879,-0.0285 -0.0606,-0.013 -0.11858,-0.0299 -0.17445,-0.0497 -0.0559,-0.0197 -0.10924,-0.0425 -0.16065,-0.0687 -0.0514,-0.026 -0.10071,-0.0555 -0.14779,-0.0877 -0.0471,-0.0321 -0.0924,-0.067 -0.13538,-0.10486 -0.043,-0.0378 -0.0839,-0.0785 -0.12299,-0.12156 -0.0391,-0.0431 -0.0762,-0.0887 -0.11155,-0.13682 -0.0353,-0.0481 -0.0687,-0.098 -0.1006,-0.15064 -0.0318,-0.0526 -0.0621,-0.10759 -0.0905,-0.16446 -0.057,-0.11368 -0.10738,-0.23572 -0.15206,-0.3642 -0.0447,-0.12848 -0.0833,-0.26335 -0.11728,-0.40377 -0.0338,-0.14041 -0.0628,-0.28619 -0.0873,-0.43571 -0.0245,-0.14951 -0.0448,-0.30282 -0.0616,-0.45859 -0.0167,-0.15574 -0.0296,-0.31373 -0.0401,-0.47287 -0.01,-0.15916 -0.0184,-0.31941 -0.0237,-0.4791 -0.005,-0.15969 -0.009,-0.31883 -0.0109,-0.47622 -0.004,-0.31481 -0.003,-0.62248 -0.003,-0.91099 2e-4,-0.28849 5e-5,-0.5581 -0.008,-0.79752 -0.004,-0.15381 -0.0153,-0.3074 -0.0309,-0.46003 -0.0156,-0.15263 -0.0365,-0.30444 -0.0629,-0.45476 -0.0263,-0.15033 -0.0583,-0.29884 -0.0949,-0.44572 -0.0366,-0.1469 -0.0783,-0.29195 -0.1249,-0.43429 -0.0466,-0.14234 -0.098,-0.28235 -0.15397,-0.41902 -0.0561,-0.13666 -0.11698,-0.27008 -0.18211,-0.39995 -0.0652,-0.12986 -0.13451,-0.25609 -0.20832,-0.37802 -0.0738,-0.12194 -0.15196,-0.2394 -0.23406,-0.35229 -0.0821,-0.11288 -0.16838,-0.22097 -0.25838,-0.32368 -0.0899,-0.10268 -0.18378,-0.19987 -0.28125,-0.29127 -0.0974,-0.0914 -0.19861,-0.177 -0.30318,-0.25598 -0.10454,-0.079 -0.21243,-0.15146 -0.32368,-0.21692 -0.11126,-0.0654 -0.22568,-0.12369 -0.34322,-0.17446 -0.11756,-0.0507 -0.23839,-0.0943 -0.36182,-0.12919 -0.0618,-0.0175 -0.12423,-0.0329 -0.18735,-0.0462 -0.0631,-0.0132 -0.12669,-0.0243 -0.19116,-0.0333 -0.0645,-0.009 -0.12969,-0.016 -0.19545,-0.0205 -0.0657,-0.004 -0.13226,-0.008 -0.19926,-0.008 z m 7.13863,8.04389 c 0.0251,0.003 0.0519,0.009 0.0792,0.019 0.0272,0.01 0.0551,0.0232 0.0834,0.0396 0.0283,0.0163 0.0571,0.0359 0.0857,0.0582 0.0286,0.0223 0.0575,0.0476 0.0857,0.0752 0.0282,0.0278 0.0561,0.0583 0.0829,0.091 0.0268,0.0328 0.0526,0.0681 0.0772,0.10541 0.0354,0.0535 0.0679,0.11859 0.0944,0.1883 0.0265,0.0698 0.0468,0.14372 0.0582,0.21403 0.005,0.0351 0.009,0.0697 0.01,0.10202 7.6e-4,0.0324 -9.2e-4,0.0629 -0.007,0.0905 -0.004,0.0277 -0.0129,0.0524 -0.0243,0.0734 -0.0115,0.0209 -0.0261,0.0378 -0.0448,0.0501 -0.0186,0.0123 -0.0406,0.019 -0.0648,0.0204 -0.0243,0.002 -0.051,-0.003 -0.0792,-0.01 -0.0282,-0.008 -0.0582,-0.019 -0.0887,-0.0339 -0.0304,-0.0148 -0.0611,-0.0324 -0.092,-0.0524 -0.0617,-0.0401 -0.12267,-0.0892 -0.17543,-0.1392 -0.0528,-0.05 -0.0974,-0.10126 -0.12728,-0.14635 -0.0246,-0.0373 -0.0466,-0.075 -0.0663,-0.1125 -0.0197,-0.0376 -0.0369,-0.0747 -0.0515,-0.11156 -0.0145,-0.0369 -0.0265,-0.073 -0.0358,-0.10825 -0.01,-0.0351 -0.0161,-0.0694 -0.02,-0.10202 -0.003,-0.0325 -0.005,-0.0631 -0.003,-0.092 0.002,-0.029 0.005,-0.0562 0.0129,-0.0805 0.008,-0.0243 0.0173,-0.046 0.0301,-0.0649 0.0128,-0.0188 0.0284,-0.0349 0.0472,-0.0472 0.0186,-0.0124 0.0393,-0.0203 0.0616,-0.0248 0.0223,-0.004 0.0464,-0.004 0.0715,-0.002 z m 4.22644,0 c 0.0251,-0.003 0.0492,-0.003 0.0715,0.002 0.0223,0.004 0.043,0.0125 0.0616,0.0248 0.0186,0.0124 0.0344,0.0283 0.0472,0.0472 0.0128,0.0188 0.023,0.0405 0.0301,0.0648 0.008,0.0243 0.0114,0.0517 0.0129,0.0805 0.002,0.0289 1.3e-4,0.0595 -0.003,0.092 -0.003,0.0325 -0.0109,0.0669 -0.02,0.10202 -0.009,0.0352 -0.0212,0.0714 -0.0358,0.10825 -0.0146,0.0367 -0.0313,0.0739 -0.0511,0.11156 -0.0196,0.0376 -0.0421,0.0752 -0.0668,0.1125 -0.0297,0.0451 -0.0746,0.0963 -0.12729,0.14634 -0.0528,0.05 -0.11329,0.0991 -0.17495,0.13921 -0.0307,0.02 -0.0621,0.0376 -0.0925,0.0524 -0.0304,0.0148 -0.0605,0.0262 -0.0886,0.0338 -0.0282,0.008 -0.0548,0.0114 -0.0792,0.01 -0.0243,-0.002 -0.0462,-0.009 -0.0648,-0.0204 -0.0186,-0.0124 -0.0333,-0.029 -0.0448,-0.0501 -0.0114,-0.0209 -0.0194,-0.0458 -0.0243,-0.0734 -0.004,-0.0277 -0.008,-0.0582 -0.007,-0.0905 7.7e-4,-0.0324 0.004,-0.0669 0.01,-0.10202 0.0114,-0.0703 0.0317,-0.14434 0.0583,-0.21404 0.0265,-0.0698 0.059,-0.13482 0.0944,-0.18829 0.0246,-0.0373 0.0508,-0.0726 0.0776,-0.10541 0.0268,-0.0327 0.0547,-0.0633 0.0829,-0.0911 0.0282,-0.0278 0.0566,-0.053 0.0853,-0.0752 0.0286,-0.0223 0.0574,-0.0419 0.0857,-0.0582 0.0283,-0.0163 0.0568,-0.0296 0.084,-0.0396 0.0272,-0.01 0.0535,-0.0161 0.0786,-0.019 z"
       style="vector-effect:non-scaling-stroke;fill:#764cd0;fill-opacity:1;stroke-width:0.264583;stroke-linecap:round;-inkscape-stroke:hairline"
       id="path147-8"
       inkscape:export-filename="..\..\..\code\wunderpus-site\assets\logo_color_square-white.png"
       inkscape:export-xdpi="300"
       inkscape:export-ydpi="300" /></g></svg>
