<?xml version="1.0" encoding="UTF-8" standalone="no"?>
<!-- Created with Inkscape (http://www.inkscape.org/) -->

<svg
   width="84.726677mm"
   height="16.450159mm"
   viewBox="0 0 84.726677 16.450159"
   version="1.1"
   id="svg1"
   xml:space="preserve"
   inkscape:version="1.3 (0e150ed6c4, 2023-07-21)"
   sodipodi:docname="design.svg"
   xmlns:inkscape="http://www.inkscape.org/namespaces/inkscape"
   xmlns:sodipodi="http://sodipodi.sourceforge.net/DTD/sodipodi-0.dtd"
   xmlns="http://www.w3.org/2000/svg"
   xmlns:svg="http://www.w3.org/2000/svg"><sodipodi:namedview
     id="namedview1"
     pagecolor="#ffffff"
     bordercolor="#eeeeee"
     borderopacity="1"
     inkscape:showpageshadow="0"
     inkscape:pageopacity="0"
     inkscape:pagecheckerboard="0"
     inkscape:deskcolor="#d1d1d1"
     inkscape:document-units="mm"
     inkscape:zoom="1.4142136"
     inkscape:cx="638.16387"
     inkscape:cy="1132.7851"
     inkscape:window-width="2400"
     inkscape:window-height="1511"
     inkscape:window-x="-9"
     inkscape:window-y="-9"
     inkscape:window-maximized="1"
     inkscape:current-layer="layer1"
     showguides="true"><sodipodi:guide
       position="-278.55791,336.49144"
       orientation="-0.50386627,0.86378168"
       id="guide134"
       inkscape:locked="false" /></sodipodi:namedview><defs
     id="defs1" /><g
     inkscape:label="Layer 1"
     inkscape:groupmode="layer"
     id="layer1"
     transform="translate(-317.68275,-323.686)"><path
       style="font-weight:bold;font-size:14.1111px;line-height:0px;font-family:Quicksand;-inkscape-font-specification:'Quicksand Bold';word-spacing:0.264583px;fill:#764cd0;stroke-width:0.352778;stroke-linecap:round;stroke-linejoin:round"
       d="m 345.47111,329.7645 q 0.36689,0 0.60678,0.254 0.23989,0.23988 0.23989,0.60677 v 3.58422 q 0,1.49578 -0.83256,2.37067 -0.83255,0.87489 -2.39889,0.87489 -1.56633,0 -2.39888,-0.87489 -0.81845,-0.87489 -0.81845,-2.37067 v -3.58422 q 0,-0.36689 0.23989,-0.60677 0.23989,-0.254 0.60678,-0.254 0.36689,0 0.60678,0.254 0.23989,0.23988 0.23989,0.60677 v 3.58422 q 0,0.86078 0.381,1.28411 0.381,0.40922 1.14299,0.40922 0.77612,0 1.15711,-0.40922 0.381,-0.42333 0.381,-1.28411 v -3.58422 q 0,-0.36689 0.23989,-0.60677 0.23989,-0.254 0.60678,-0.254 z m 6.71688,-0.14112 q 1.04422,0 1.58045,0.43745 0.55033,0.43744 0.74788,1.17122 0.21167,0.71967 0.21167,1.60867 v 3.61244 q 0,0.36689 -0.23989,0.62089 -0.23989,0.23988 -0.60678,0.23988 -0.36688,0 -0.60677,-0.23988 -0.23989,-0.254 -0.23989,-0.62089 v -3.61244 q 0,-0.46567 -0.127,-0.83256 -0.11289,-0.381 -0.42333,-0.60678 -0.31045,-0.22577 -0.889,-0.22577 -0.56445,0 -0.95956,0.22577 -0.381,0.22578 -0.59266,0.60678 -0.19756,0.36689 -0.19756,0.83256 v 3.61244 q 0,0.36689 -0.23989,0.62089 -0.23989,0.23988 -0.60678,0.23988 -0.36688,0 -0.60677,-0.23988 -0.23989,-0.254 -0.23989,-0.62089 v -5.82789 q 0,-0.36689 0.23989,-0.60677 0.23989,-0.254 0.60677,-0.254 0.36689,0 0.60678,0.254 0.23989,0.23988 0.23989,0.60677 v 0.60678 l -0.21167,-0.0423 q 0.127,-0.23989 0.36689,-0.508 0.23989,-0.28222 0.56445,-0.52211 0.32455,-0.23989 0.73377,-0.381 0.40923,-0.15523 0.889,-0.15523 z m 10.55512,-2.75166 q 0.36688,0 0.60677,0.23989 0.23989,0.23989 0.23989,0.62089 v 8.72066 q 0,0.36689 -0.23989,0.62089 -0.23989,0.23988 -0.60677,0.23988 -0.36689,0 -0.60678,-0.23988 -0.23989,-0.254 -0.23989,-0.62089 v -0.69145 l 0.31044,0.127 q 0,0.18345 -0.19755,0.45156 -0.19756,0.254 -0.53622,0.508 -0.33867,0.254 -0.80434,0.43744 -0.45155,0.16934 -0.98777,0.16934 -0.97367,0 -1.76389,-0.49389 -0.79022,-0.508 -1.25589,-1.38289 -0.45155,-0.889 -0.45155,-2.032 0,-1.15711 0.45155,-2.032 0.46567,-0.889 1.24178,-1.38289 0.77611,-0.508 1.72155,-0.508 0.60678,0 1.11478,0.18345 0.508,0.18344 0.87489,0.46567 0.381,0.28222 0.57855,0.57855 0.21167,0.28222 0.21167,0.47978 l -0.508,0.18344 v -3.78177 q 0,-0.36689 0.23989,-0.60678 0.23989,-0.254 0.60678,-0.254 z m -2.85045,9.0311 q 0.62089,0 1.08656,-0.31044 0.46566,-0.31044 0.71966,-0.84667 0.26811,-0.53622 0.26811,-1.19944 0,-0.67733 -0.26811,-1.21355 -0.254,-0.53623 -0.71966,-0.84667 -0.46567,-0.31044 -1.08656,-0.31044 -0.60677,0 -1.07244,0.31044 -0.46567,0.31044 -0.73378,0.84667 -0.254,0.53622 -0.254,1.21355 0,0.66322 0.254,1.19944 0.26811,0.53623 0.73378,0.84667 0.46567,0.31044 1.07244,0.31044 z m 9.08755,1.55223 q -1.19944,0 -2.08844,-0.49389 -0.87489,-0.508 -1.35466,-1.36878 -0.46567,-0.86078 -0.46567,-1.94733 0,-1.27 0.508,-2.159 0.52211,-0.90311 1.35467,-1.38289 0.83255,-0.47978 1.76388,-0.47978 0.71967,0 1.35467,0.29634 0.64911,0.29633 1.143,0.81844 0.49389,0.508 0.77611,1.18533 0.29633,0.67734 0.29633,1.43934 -0.0141,0.33866 -0.26811,0.55033 -0.254,0.21167 -0.59267,0.21167 h -5.39044 l -0.42333,-1.41111 h 5.17877 l -0.31044,0.28222 v -0.381 q -0.0282,-0.40922 -0.29633,-0.73378 -0.254,-0.32455 -0.64911,-0.508 -0.381,-0.19755 -0.81845,-0.19755 -0.42333,0 -0.79022,0.11288 -0.36689,0.11289 -0.635,0.381 -0.26811,0.26812 -0.42333,0.71967 -0.15522,0.45156 -0.15522,1.143 0,0.762 0.31044,1.29822 0.32456,0.52211 0.81844,0.80433 0.508,0.26811 1.07245,0.26811 0.52211,0 0.83255,-0.0847 0.31045,-0.0847 0.49389,-0.19756 0.19756,-0.127 0.35278,-0.21166 0.254,-0.127 0.47978,-0.127 0.31044,0 0.508,0.21166 0.21166,0.21167 0.21166,0.49389 0,0.381 -0.39511,0.69144 -0.36689,0.31045 -1.03011,0.55034 -0.66322,0.22578 -1.36878,0.22578 z m 5.61622,-0.14112 q -0.36688,0 -0.60677,-0.23988 -0.23989,-0.254 -0.23989,-0.62089 v -5.82789 q 0,-0.36689 0.23989,-0.60677 0.23989,-0.254 0.60677,-0.254 0.36689,0 0.60678,0.254 0.23989,0.23988 0.23989,0.60677 v 1.32645 l -0.0988,-0.94545 q 0.15522,-0.33866 0.39511,-0.59266 0.254,-0.26811 0.56445,-0.43745 0.31044,-0.18344 0.66322,-0.26811 0.35278,-0.0847 0.70555,-0.0847 0.42334,0 0.70556,0.23989 0.29633,0.23989 0.29633,0.56445 0,0.46566 -0.23989,0.67733 -0.23989,0.19756 -0.52211,0.19756 -0.26811,0 -0.49389,-0.0988 -0.21166,-0.0988 -0.49388,-0.0988 -0.254,0 -0.52212,0.127 -0.254,0.11289 -0.47977,0.36689 -0.21167,0.254 -0.35278,0.635 -0.127,0.36689 -0.127,0.87489 v 3.34433 q 0,0.36689 -0.23989,0.62089 -0.23989,0.23988 -0.60678,0.23988 z m 9.18633,-7.69055 q 0.98778,0 1.76389,0.508 0.79022,0.49389 1.24177,1.36878 0.46567,0.87489 0.46567,2.032 0,1.15711 -0.46567,2.04611 -0.45155,0.87489 -1.22766,1.38289 -0.762,0.49389 -1.72156,0.49389 -0.56444,0 -1.05833,-0.18345 -0.49389,-0.18344 -0.87489,-0.46567 -0.36688,-0.28222 -0.57855,-0.56444 -0.19756,-0.29633 -0.19756,-0.49389 l 0.43745,-0.18344 v 3.71122 q 0,0.36689 -0.23989,0.60677 -0.23989,0.254 -0.60678,0.254 -0.36689,0 -0.60678,-0.23988 -0.23988,-0.23989 -0.23988,-0.62089 v -8.65011 q 0,-0.36689 0.23988,-0.60677 0.23989,-0.254 0.60678,-0.254 0.36689,0 0.60678,0.254 0.23989,0.23988 0.23989,0.60677 v 0.69145 l -0.23989,-0.127 q 0,-0.18345 0.19755,-0.43745 0.19756,-0.26811 0.53623,-0.52211 0.33866,-0.26811 0.77611,-0.43744 0.45155,-0.16934 0.94544,-0.16934 z m -0.21167,1.55223 q -0.62088,0 -1.08655,0.31044 -0.46567,0.31044 -0.73378,0.84667 -0.254,0.52211 -0.254,1.19944 0,0.66322 0.254,1.21355 0.26811,0.53623 0.73378,0.84667 0.46567,0.31044 1.08655,0.31044 0.62089,0 1.07245,-0.31044 0.46566,-0.31044 0.71966,-0.84667 0.26811,-0.55033 0.26811,-1.21355 0,-0.67733 -0.26811,-1.19944 -0.254,-0.53623 -0.71966,-0.84667 -0.45156,-0.31044 -1.07245,-0.31044 z m 10.76678,-1.41111 q 0.36689,0 0.60677,0.254 0.23989,0.23988 0.23989,0.60677 v 3.58422 q 0,1.49578 -0.83255,2.37067 -0.83256,0.87489 -2.39889,0.87489 -1.56633,0 -2.39889,-0.87489 -0.81844,-0.87489 -0.81844,-2.37067 v -3.58422 q 0,-0.36689 0.23989,-0.60677 0.23989,-0.254 0.60678,-0.254 0.36688,0 0.60677,0.254 0.23989,0.23988 0.23989,0.60677 v 3.58422 q 0,0.86078 0.381,1.28411 0.381,0.40922 1.143,0.40922 0.77611,0 1.15711,-0.40922 0.381,-0.42333 0.381,-1.28411 v -3.58422 q 0,-0.36689 0.23989,-0.60677 0.23989,-0.254 0.60678,-0.254 z m 2.24366,6.37821 q -0.14111,-0.19755 -0.127,-0.508 0.0141,-0.31044 0.36689,-0.53622 0.22578,-0.14111 0.47978,-0.11289 0.254,0.0141 0.49389,0.254 0.40922,0.40922 0.86077,0.635 0.45156,0.22578 1.12889,0.22578 0.21167,-0.0141 0.46567,-0.0564 0.254,-0.0565 0.43744,-0.22578 0.19756,-0.18345 0.19756,-0.55034 0,-0.31044 -0.21167,-0.49388 -0.21167,-0.18345 -0.56444,-0.31045 -0.33867,-0.127 -0.762,-0.23989 -0.43745,-0.127 -0.90311,-0.28222 -0.45156,-0.15522 -0.83256,-0.39511 -0.381,-0.254 -0.62089,-0.66322 -0.23989,-0.40922 -0.23989,-1.03011 0,-0.70556 0.39511,-1.19944 0.39512,-0.49389 1.016,-0.762 0.635,-0.26812 1.32645,-0.26812 0.43744,0 0.91722,0.11289 0.47978,0.0988 0.91722,0.33867 0.43744,0.22578 0.73378,0.60678 0.15522,0.21166 0.18344,0.508 0.0282,0.29633 -0.26811,0.53622 -0.21167,0.16933 -0.49389,0.15522 -0.28222,-0.0282 -0.46566,-0.19755 -0.23989,-0.31045 -0.64911,-0.49389 -0.39512,-0.18345 -0.91723,-0.18345 -0.21166,0 -0.46566,0.0565 -0.23989,0.0423 -0.42334,0.21166 -0.18344,0.15523 -0.18344,0.508 0,0.32456 0.21167,0.52211 0.21166,0.18345 0.56444,0.31045 0.36689,0.11289 0.77611,0.22578 0.42333,0.11288 0.86078,0.26811 0.43744,0.15522 0.80433,0.40922 0.36689,0.254 0.59267,0.66322 0.22578,0.39511 0.22578,1.016 0,0.71967 -0.42334,1.22767 -0.42333,0.50799 -1.05833,0.77611 -0.635,0.254 -1.29822,0.254 -0.83256,0 -1.66511,-0.28223 -0.83256,-0.29633 -1.38289,-1.03011 z"
       id="text5"
       aria-label="underpus" /><path
       d="m 320.33671,323.68599 c -0.10855,0 -0.21361,0.004 -0.31574,0.0124 -0.10213,0.008 -0.20097,0.0199 -0.29662,0.0357 -0.0957,0.0157 -0.18838,0.0351 -0.27751,0.0584 -0.0891,0.0233 -0.17479,0.0501 -0.25734,0.0806 -0.0826,0.0305 -0.16177,0.0648 -0.23772,0.10232 -0.0759,0.0375 -0.1488,0.0787 -0.21807,0.12299 -0.0693,0.0443 -0.13484,0.0918 -0.1974,0.14263 -0.0626,0.0509 -0.12197,0.10513 -0.17777,0.16226 -0.0558,0.0571 -0.10811,0.11717 -0.1571,0.18035 -0.049,0.0632 -0.0948,0.12946 -0.13694,0.19844 -0.0421,0.069 -0.0805,0.14044 -0.11576,0.21497 -0.0352,0.0745 -0.0673,0.15218 -0.0956,0.23203 -0.0283,0.0799 -0.0531,0.1621 -0.0744,0.24702 -0.0213,0.0849 -0.039,0.17225 -0.0532,0.26199 -0.0142,0.0897 -0.0249,0.18215 -0.032,0.27647 -0.007,0.0943 -0.0108,0.19073 -0.0108,0.28939 0,0.0643 0.004,0.1291 0.01,0.1943 0.006,0.0652 0.0157,0.13094 0.0279,0.19638 0.0122,0.0654 0.0272,0.13083 0.045,0.19585 0.0178,0.065 0.038,0.12932 0.061,0.19327 0.023,0.064 0.0487,0.12743 0.0765,0.18965 0.0278,0.0622 0.0576,0.1231 0.0899,0.18294 0.0323,0.0598 0.0669,0.11838 0.10335,0.17518 0.0364,0.0568 0.0745,0.11225 0.11472,0.16536 0.0402,0.0531 0.0825,0.1042 0.12609,0.15297 0.0436,0.0488 0.0887,0.0952 0.1354,0.13901 0.0466,0.0438 0.0948,0.0849 0.14417,0.12299 0.0494,0.0381 0.0997,0.0731 0.15142,0.1049 0.0517,0.0318 0.10446,0.0599 0.15813,0.0848 0.0537,0.0248 0.10852,0.0463 0.16381,0.0636 0.0553,0.0172 0.1114,0.0303 0.16795,0.0393 0.0566,0.009 0.11359,0.0134 0.17105,0.0134 0.10153,0 0.19593,-0.007 0.2837,-0.0202 0.0878,-0.0132 0.16852,-0.0327 0.2434,-0.0574 0.0749,-0.0247 0.14385,-0.0544 0.2067,-0.0889 0.0629,-0.0345 0.11988,-0.0738 0.17157,-0.11627 0.0517,-0.0425 0.0981,-0.0881 0.13952,-0.13694 0.0414,-0.0488 0.0776,-0.10056 0.10956,-0.154 0.032,-0.0534 0.0593,-0.10904 0.0827,-0.16536 0.0234,-0.0563 0.0427,-0.11356 0.0584,-0.17105 0.0157,-0.0575 0.0278,-0.11515 0.0367,-0.17208 0.009,-0.0569 0.0147,-0.11329 0.0176,-0.16795 0.003,-0.0547 0.003,-0.10746 0.001,-0.15813 -0.002,-0.0507 -0.007,-0.0987 -0.0134,-0.14366 -0.006,-0.045 -0.015,-0.087 -0.0248,-0.12454 -0.01,-0.0375 -0.0208,-0.0709 -0.0331,-0.0992 -0.0123,-0.0284 -0.0258,-0.0518 -0.0398,-0.0693 -0.0139,-0.0175 -0.0287,-0.0292 -0.0434,-0.0341 0.004,0.0482 0.0152,0.14165 0.0124,0.25529 -10e-4,0.0568 -0.006,0.11842 -0.0176,0.18241 -0.0111,0.064 -0.0281,0.13028 -0.0543,0.19534 -0.0131,0.0325 -0.0287,0.065 -0.0465,0.0966 -0.0178,0.0316 -0.0382,0.0625 -0.0615,0.0925 -0.0233,0.03 -0.0492,0.0587 -0.0785,0.0863 -0.0294,0.0276 -0.0621,0.0541 -0.0982,0.0785 -0.0361,0.0244 -0.0758,0.0467 -0.11937,0.0672 -0.0435,0.0205 -0.091,0.039 -0.14263,0.0548 -0.0516,0.0158 -0.10753,0.029 -0.16795,0.0393 -0.0604,0.0103 -0.12497,0.0177 -0.19482,0.0217 -0.0326,0.002 -0.0656,8.8e-4 -0.0987,-0.003 -0.0331,-0.003 -0.0669,-0.01 -0.10025,-0.0181 -0.0667,-0.017 -0.133,-0.0441 -0.19844,-0.0796 -0.0654,-0.0355 -0.12978,-0.0792 -0.1912,-0.13074 -0.0614,-0.0515 -0.12001,-0.11047 -0.17467,-0.1757 -0.0546,-0.0652 -0.10525,-0.13685 -0.15038,-0.21343 -0.0451,-0.0766 -0.085,-0.15836 -0.11782,-0.24391 -0.0328,-0.0856 -0.0587,-0.175 -0.0765,-0.26717 -0.0178,-0.0922 -0.0274,-0.18676 -0.0274,-0.28318 0,-0.0996 0.008,-0.20049 0.0243,-0.30076 0.0165,-0.10027 0.0419,-0.19998 0.0755,-0.29714 0.0336,-0.0972 0.0759,-0.19184 0.12712,-0.28215 0.0256,-0.0452 0.053,-0.0896 0.0832,-0.1323 0.0302,-0.0427 0.0629,-0.0842 0.0977,-0.12402 0.0348,-0.0399 0.0717,-0.0782 0.1111,-0.11472 0.0394,-0.0365 0.0814,-0.0712 0.12558,-0.10387 0.0442,-0.0327 0.0905,-0.063 0.13952,-0.0915 0.049,-0.0284 0.10064,-0.0549 0.15452,-0.0786 0.0539,-0.0237 0.11014,-0.0446 0.16898,-0.063 0.0588,-0.0184 0.1201,-0.0343 0.18397,-0.047 0.0639,-0.0128 0.12997,-0.0228 0.19895,-0.0295 0.069,-0.007 0.14082,-0.01 0.21497,-0.01 0.11135,0 0.21907,0.008 0.32298,0.0222 0.10391,0.0146 0.20371,0.0364 0.30024,0.0646 0.0965,0.0282 0.18983,0.063 0.27905,0.10386 0.0892,0.0408 0.17485,0.0876 0.25684,0.14005 0.082,0.0525 0.16032,0.11053 0.23512,0.17363 0.0748,0.0631 0.14574,0.13137 0.21343,0.20412 0.0677,0.0727 0.13212,0.15011 0.19275,0.23151 0.0606,0.0814 0.11741,0.16674 0.17105,0.2558 0.0536,0.0891 0.10418,0.18178 0.1509,0.2775 0.0467,0.0957 0.0898,0.19419 0.1297,0.29559 0.0399,0.10141 0.076,0.20553 0.10904,0.31161 0.0331,0.10609 0.0631,0.21424 0.0894,0.32401 0.0263,0.10978 0.0491,0.22136 0.0687,0.33383 0.0196,0.11248 0.0361,0.22585 0.0491,0.34003 0.013,0.11418 0.023,0.22928 0.0295,0.34417 0.006,0.11489 0.009,0.22955 0.009,0.34416 0,0.24874 -0.003,0.48745 -0.008,0.71727 -0.006,0.22983 -0.0138,0.45083 -0.0233,0.66456 -0.0189,0.42746 -0.044,0.82557 -0.0692,1.20561 -0.0252,0.38005 -0.0503,0.74187 -0.0692,1.09709 -0.009,0.17762 -0.0172,0.35353 -0.0227,0.52917 -0.006,0.17564 -0.009,0.35112 -0.009,0.52762 0,0.17032 0.006,0.33681 0.0191,0.49867 0.0127,0.16187 0.0315,0.31921 0.0563,0.47233 0.0248,0.15311 0.0556,0.30189 0.092,0.44596 0.0364,0.14408 0.0782,0.28333 0.12558,0.41807 0.0474,0.13474 0.10027,0.26504 0.15813,0.39015 0.0579,0.12512 0.12084,0.24499 0.18862,0.36019 0.0678,0.1152 0.1404,0.22573 0.21755,0.33073 0.0772,0.10499 0.15897,0.20471 0.24495,0.2992 0.086,0.0945 0.17601,0.18347 0.27027,0.26717 0.0943,0.0837 0.19256,0.16199 0.29455,0.23461 0.102,0.0726 0.20761,0.13978 0.31678,0.20102 0.10918,0.0613 0.22216,0.11682 0.33796,0.1664 0.11581,0.0496 0.23468,0.0931 0.35657,0.13074 0.12189,0.0376 0.24671,0.0692 0.37414,0.0946 0.12743,0.0254 0.25722,0.0445 0.38964,0.0574 0.13241,0.0128 0.26726,0.0191 0.40411,0.0191 0.15165,0 0.29672,-0.006 0.43563,-0.0181 0.13892,-0.012 0.27196,-0.0298 0.39894,-0.0522 0.12699,-0.0224 0.24794,-0.0494 0.36381,-0.0806 0.11586,-0.0312 0.22672,-0.0665 0.33228,-0.10491 0.10555,-0.0384 0.20574,-0.08 0.30179,-0.12402 0.096,-0.044 0.18756,-0.09 0.27491,-0.13798 0.0874,-0.048 0.17066,-0.0974 0.25012,-0.14779 0.0795,-0.0504 0.15499,-0.10179 0.22737,-0.15296 0.14477,-0.10235 0.27662,-0.20481 0.39791,-0.30076 0.12129,-0.0959 0.23213,-0.18524 0.33642,-0.262 0.0521,-0.0384 0.10282,-0.0737 0.15193,-0.1049 0.0491,-0.0312 0.0968,-0.0582 0.14366,-0.0806 0.0469,-0.0224 0.0925,-0.0402 0.13797,-0.0522 0.0455,-0.012 0.0906,-0.0181 0.13539,-0.0181 0.0448,0 0.0899,0.006 0.1354,0.0181 0.0454,0.012 0.0911,0.0298 0.13797,0.0522 0.0469,0.0224 0.0951,0.0494 0.14418,0.0806 0.0491,0.0312 0.0993,0.0665 0.15141,0.1049 0.10429,0.0768 0.21564,0.16605 0.33693,0.262 0.12129,0.096 0.25263,0.19841 0.39739,0.30076 0.0724,0.0512 0.14792,0.10259 0.22738,0.15296 0.0795,0.0504 0.16276,0.0998 0.25011,0.14779 0.0874,0.048 0.17888,0.094 0.27492,0.13798 0.0961,0.044 0.19676,0.0857 0.30231,0.12402 0.10555,0.0384 0.2159,0.0737 0.33176,0.10491 0.11587,0.0312 0.23733,0.0582 0.36432,0.0806 0.12699,0.0224 0.25951,0.0402 0.39843,0.0522 0.13891,0.012 0.28397,0.0181 0.43563,0.0181 0.13685,0 0.27169,-0.006 0.40411,-0.0191 0.13241,-0.0128 0.26221,-0.032 0.38964,-0.0574 0.12743,-0.0254 0.25224,-0.0569 0.37414,-0.0946 0.12189,-0.0376 0.24127,-0.0812 0.35708,-0.13074 0.11581,-0.0496 0.22827,-0.10515 0.33745,-0.1664 0.10917,-0.0612 0.21478,-0.1284 0.31677,-0.20102 0.102,-0.0726 0.2003,-0.1509 0.29456,-0.23461 0.0943,-0.0837 0.1848,-0.17267 0.27078,-0.26717 0.086,-0.0945 0.16728,-0.19421 0.24443,-0.2992 0.0772,-0.105 0.14978,-0.21553 0.21756,-0.33073 0.0678,-0.1152 0.13077,-0.23507 0.18862,-0.36019 0.0579,-0.12511 0.11075,-0.25541 0.15813,-0.39015 0.0474,-0.13474 0.0892,-0.27399 0.12557,-0.41807 0.0364,-0.14407 0.0672,-0.29285 0.092,-0.44596 0.0248,-0.15312 0.0437,-0.31046 0.0563,-0.47233 0.0127,-0.16186 0.0191,-0.32835 0.0191,-0.49867 0,-0.1765 -0.003,-0.35198 -0.009,-0.52762 -0.006,-0.17564 -0.0133,-0.35155 -0.0227,-0.52917 -0.0189,-0.35522 -0.044,-0.71704 -0.0692,-1.09709 -0.0252,-0.38004 -0.0504,-0.77815 -0.0693,-1.20561 -0.009,-0.21373 -0.0172,-0.43473 -0.0227,-0.66456 -0.006,-0.22982 -0.009,-0.46853 -0.009,-0.71727 0,-0.11461 0.003,-0.22927 0.01,-0.34416 0.006,-0.11489 0.0159,-0.22999 0.0289,-0.34417 0.013,-0.11418 0.0295,-0.22755 0.0491,-0.34003 0.0196,-0.11247 0.0429,-0.22405 0.0692,-0.33383 0.0263,-0.10977 0.0558,-0.21792 0.0889,-0.32401 0.0331,-0.10608 0.0692,-0.2102 0.10903,-0.31161 0.0399,-0.1014 0.0835,-0.19986 0.13023,-0.29559 0.0467,-0.0957 0.0967,-0.18844 0.15038,-0.2775 0.0536,-0.0891 0.11093,-0.1744 0.17156,-0.2558 0.0606,-0.0814 0.12455,-0.15876 0.19224,-0.23151 0.0677,-0.0727 0.13914,-0.14101 0.21394,-0.20412 0.0748,-0.0631 0.15314,-0.12116 0.23513,-0.17363 0.082,-0.0525 0.1676,-0.0992 0.25683,-0.14005 0.0892,-0.0408 0.182,-0.0757 0.27854,-0.10386 0.0965,-0.0282 0.19685,-0.05 0.30075,-0.0646 0.10391,-0.0146 0.21112,-0.0222 0.32246,-0.0222 0.0742,0 0.146,0.003 0.21498,0.01 0.069,0.007 0.13508,0.0167 0.19895,0.0295 0.0639,0.0128 0.12565,0.0286 0.18449,0.047 0.0588,0.0185 0.1151,0.0394 0.16898,0.063 0.0539,0.0237 0.10501,0.0501 0.15399,0.0786 0.049,0.0284 0.0959,0.0588 0.14005,0.0915 0.0442,0.0327 0.0856,0.0673 0.12505,0.10387 0.0394,0.0365 0.0769,0.0749 0.11163,0.11472 0.0348,0.0399 0.067,0.0813 0.0971,0.12402 0.0302,0.0428 0.0581,0.0871 0.0837,0.1323 0.0513,0.0903 0.0935,0.18499 0.12713,0.28215 0.0336,0.0972 0.0584,0.19687 0.0749,0.29714 0.0165,0.10027 0.0248,0.20112 0.0248,0.30076 0,0.0964 -0.01,0.19101 -0.0274,0.28318 -0.0178,0.0922 -0.0442,0.18161 -0.077,0.26717 -0.0329,0.0856 -0.0722,0.16734 -0.11731,0.24391 -0.0451,0.0766 -0.0957,0.14819 -0.15038,0.21343 -0.0546,0.0652 -0.11376,0.12417 -0.17518,0.1757 -0.0614,0.0515 -0.12525,0.0953 -0.19069,0.13074 -0.0654,0.0355 -0.13226,0.0626 -0.19895,0.0796 -0.0333,0.009 -0.0666,0.0146 -0.0997,0.0181 -0.0331,0.003 -0.0661,0.004 -0.0987,0.003 -0.0698,-0.004 -0.13492,-0.0114 -0.19534,-0.0217 -0.0604,-0.0103 -0.1163,-0.0235 -0.16794,-0.0393 -0.0516,-0.0157 -0.0991,-0.0343 -0.14263,-0.0548 -0.0435,-0.0204 -0.0833,-0.0428 -0.11937,-0.0672 -0.0361,-0.0244 -0.0688,-0.0504 -0.0982,-0.078 -0.0293,-0.0276 -0.0553,-0.0568 -0.0785,-0.0868 -0.0233,-0.03 -0.0437,-0.0609 -0.0615,-0.0925 -0.0178,-0.0317 -0.0329,-0.0641 -0.046,-0.0966 -0.0262,-0.0651 -0.0437,-0.13082 -0.0548,-0.19482 -0.0111,-0.064 -0.0161,-0.12611 -0.0176,-0.18293 -0.003,-0.11365 0.009,-0.2071 0.0124,-0.25529 -0.0147,0.005 -0.0295,0.0166 -0.0434,0.0341 -0.0139,0.0175 -0.027,0.0409 -0.0393,0.0693 -0.0123,0.0284 -0.0238,0.0617 -0.0336,0.0992 -0.01,0.0375 -0.0184,0.0796 -0.0248,0.12454 -0.006,0.045 -0.0107,0.093 -0.0129,0.14366 -0.002,0.0507 -0.002,0.10346 5.1e-4,0.15813 0.003,0.0547 0.009,0.11101 0.0176,0.16795 0.009,0.0569 0.021,0.11459 0.0367,0.17208 0.0157,0.0575 0.035,0.11472 0.0584,0.17105 0.0234,0.0563 0.0507,0.11192 0.0827,0.16536 0.032,0.0534 0.0687,0.10517 0.11007,0.154 0.0414,0.0488 0.0873,0.0944 0.13901,0.13694 0.0517,0.0425 0.10923,0.0818 0.17208,0.11627 0.0628,0.0345 0.13131,0.0642 0.20619,0.0889 0.0749,0.0247 0.15614,0.0442 0.24391,0.0574 0.0878,0.0132 0.18217,0.0202 0.28371,0.0202 0.0575,0 0.1145,-0.005 0.17105,-0.0134 0.0566,-0.009 0.11266,-0.0221 0.16794,-0.0393 0.0553,-0.0172 0.10964,-0.0387 0.1633,-0.0636 0.0537,-0.0248 0.10644,-0.053 0.15813,-0.0848 0.0517,-0.0318 0.10206,-0.0668 0.15141,-0.1049 0.0494,-0.0381 0.0975,-0.0792 0.14418,-0.12299 0.0467,-0.0438 0.0918,-0.0902 0.13539,-0.13901 0.0436,-0.0488 0.0859,-0.0999 0.12609,-0.15297 0.0402,-0.0531 0.0783,-0.10856 0.11473,-0.16536 0.0364,-0.0568 0.0711,-0.11534 0.10335,-0.17518 0.0323,-0.0598 0.0626,-0.12072 0.0904,-0.18294 0.0278,-0.0622 0.053,-0.1257 0.076,-0.18965 0.023,-0.0639 0.0437,-0.12825 0.0615,-0.19327 0.0178,-0.065 0.0328,-0.13042 0.045,-0.19585 0.0122,-0.0654 0.0211,-0.13117 0.0274,-0.19638 0.006,-0.0652 0.01,-0.12999 0.01,-0.1943 0,-0.0987 -0.004,-0.19506 -0.0109,-0.28939 -0.007,-0.0943 -0.0178,-0.18672 -0.032,-0.27647 -0.0142,-0.0897 -0.032,-0.17708 -0.0532,-0.26199 -0.0213,-0.0849 -0.0461,-0.16717 -0.0744,-0.24702 -0.0283,-0.0798 -0.0599,-0.15749 -0.0951,-0.23203 -0.0352,-0.0745 -0.0741,-0.14599 -0.11627,-0.21497 -0.0421,-0.069 -0.088,-0.13526 -0.13694,-0.19844 -0.049,-0.0632 -0.1013,-0.12321 -0.1571,-0.18035 -0.0558,-0.0571 -0.11469,-0.11141 -0.17725,-0.16226 -0.0626,-0.0508 -0.12865,-0.0983 -0.19792,-0.14263 -0.0693,-0.0443 -0.14213,-0.0854 -0.21808,-0.12299 -0.0759,-0.0375 -0.15515,-0.0718 -0.23771,-0.10232 -0.0826,-0.0305 -0.16822,-0.0574 -0.25735,-0.0806 -0.0891,-0.0233 -0.18133,-0.0426 -0.27698,-0.0584 -0.0957,-0.0157 -0.19501,-0.0277 -0.29714,-0.0357 -0.10213,-0.008 -0.20719,-0.0124 -0.31574,-0.0124 -0.0726,0 -0.14472,0.003 -0.21601,0.008 -0.0713,0.005 -0.14199,0.0124 -0.21187,0.0222 -0.0699,0.01 -0.13881,0.0217 -0.20723,0.0362 -0.0684,0.0144 -0.13618,0.0312 -0.20309,0.0501 -0.13381,0.0379 -0.26479,0.085 -0.39222,0.14004 -0.12743,0.055 -0.25146,0.1182 -0.37207,0.18913 -0.12061,0.0709 -0.23753,0.14951 -0.35088,0.23513 -0.11336,0.0856 -0.22299,0.17842 -0.32867,0.2775 -0.10567,0.0991 -0.20733,0.20441 -0.30489,0.31575 -0.0976,0.11134 -0.19108,0.22851 -0.28008,0.35088 -0.089,0.12237 -0.17371,0.24971 -0.25373,0.38189 -0.08,0.13218 -0.15523,0.26902 -0.22583,0.40979 -0.0706,0.14078 -0.13665,0.28542 -0.1974,0.43357 -0.0608,0.14814 -0.11644,0.29993 -0.16692,0.45423 -0.0505,0.15431 -0.0956,0.31154 -0.13539,0.47078 -0.0398,0.15923 -0.0742,0.32022 -0.10284,0.48317 -0.0286,0.16296 -0.0512,0.32754 -0.0682,0.49299 -0.017,0.16546 -0.0281,0.33195 -0.0331,0.49868 -0.008,0.25955 -0.008,0.5518 -0.008,0.86455 2.2e-4,0.31275 10e-4,0.64629 -0.004,0.98754 -0.002,0.17062 -0.006,0.34313 -0.0119,0.51624 -0.006,0.17312 -0.0141,0.34683 -0.0253,0.51935 -0.0112,0.17253 -0.0258,0.34379 -0.0439,0.51263 -0.0181,0.16885 -0.0401,0.33505 -0.0667,0.49713 -0.0266,0.16207 -0.0579,0.3201 -0.0946,0.47232 -0.0367,0.15222 -0.0787,0.29842 -0.12712,0.4377 -0.0484,0.13928 -0.10311,0.27156 -0.16485,0.39481 -0.0309,0.0616 -0.0632,0.12124 -0.0977,0.17828 -0.0345,0.057 -0.0712,0.11175 -0.10956,0.16382 -0.0383,0.0521 -0.0785,0.10108 -0.12092,0.14779 -0.0424,0.0467 -0.0867,0.0908 -0.13332,0.13178 -0.0466,0.041 -0.0957,0.0788 -0.14676,0.11368 -0.0511,0.0348 -0.10449,0.0668 -0.1602,0.0951 -0.0557,0.0283 -0.11359,0.053 -0.17415,0.0744 -0.0606,0.0214 -0.12353,0.0396 -0.18914,0.0538 -0.0656,0.0141 -0.13378,0.0245 -0.20464,0.031 -0.0709,0.006 -0.14434,0.009 -0.22065,0.007 -0.0696,-10e-4 -0.14274,-0.003 -0.21756,-0.007 -0.0748,-0.004 -0.15143,-0.0105 -0.22893,-0.0217 -0.0775,-0.0112 -0.15546,-0.0273 -0.23306,-0.0501 -0.0776,-0.0228 -0.15484,-0.0526 -0.22996,-0.0915 -0.0376,-0.0194 -0.0746,-0.0408 -0.1111,-0.0651 -0.0365,-0.0243 -0.0725,-0.0515 -0.10749,-0.0811 -0.035,-0.0297 -0.069,-0.062 -0.10232,-0.0977 -0.0333,-0.0356 -0.0654,-0.0741 -0.0966,-0.11627 -0.0312,-0.0421 -0.0616,-0.0877 -0.0904,-0.13694 -0.0288,-0.0492 -0.0561,-0.1023 -0.0822,-0.15917 -0.0261,-0.0569 -0.0508,-0.11788 -0.0739,-0.18293 -0.0231,-0.0651 -0.0449,-0.13394 -0.0646,-0.20774 0.12568,-0.14042 0.23108,-0.27101 0.31833,-0.39222 0.0436,-0.0606 0.0829,-0.11894 0.11782,-0.17519 0.0349,-0.0562 0.0657,-0.11008 0.0925,-0.16226 0.0268,-0.0522 0.0499,-0.10248 0.0692,-0.1509 0.0194,-0.0484 0.035,-0.0951 0.0475,-0.14004 0.0125,-0.0449 0.0217,-0.0885 0.0279,-0.13022 0.006,-0.0418 0.01,-0.0815 0.0103,-0.12041 6e-4,-0.0389 -0.002,-0.0764 -0.006,-0.11265 -0.004,-0.0363 -0.0113,-0.0714 -0.0202,-0.10542 -0.0178,-0.068 -0.0436,-0.13168 -0.0755,-0.19224 -0.0318,-0.0606 -0.0695,-0.11813 -0.11059,-0.17363 -0.041,-0.0555 -0.0854,-0.10894 -0.13074,-0.16175 0.0383,-0.0762 0.073,-0.15187 0.1049,-0.22738 0.0319,-0.0755 0.0607,-0.15107 0.0863,-0.22582 0.0256,-0.0748 0.0485,-0.14884 0.0682,-0.22273 0.0197,-0.0739 0.0362,-0.14723 0.0501,-0.22014 0.0139,-0.0729 0.0252,-0.14523 0.0336,-0.21704 0.008,-0.0718 0.0139,-0.14334 0.0171,-0.21394 0.003,-0.0706 0.003,-0.14053 0.002,-0.20981 -0.002,-0.0693 -0.006,-0.13783 -0.0129,-0.20567 -0.0135,-0.13568 -0.0364,-0.26814 -0.0677,-0.39739 -0.0313,-0.12925 -0.071,-0.25533 -0.11834,-0.37724 -0.0473,-0.12191 -0.10189,-0.2398 -0.1633,-0.35347 -0.0614,-0.11366 -0.12944,-0.22312 -0.20308,-0.32763 -0.0737,-0.1045 -0.15318,-0.20425 -0.2372,-0.29869 -0.084,-0.0944 -0.17258,-0.1837 -0.2651,-0.26716 -0.0925,-0.0835 -0.18868,-0.16098 -0.28784,-0.23255 -0.0992,-0.0716 -0.20149,-0.13708 -0.3054,-0.19585 -0.10392,-0.0588 -0.20945,-0.11099 -0.31626,-0.15606 -0.10682,-0.0451 -0.21462,-0.0827 -0.32247,-0.11317 -0.10784,-0.0305 -0.21597,-0.0533 -0.32297,-0.0682 -0.10701,-0.0149 -0.213,-0.0222 -0.3173,-0.0207 -0.10429,-0.002 -0.21029,0.006 -0.31729,0.0207 -0.107,0.0149 -0.21513,0.0378 -0.32298,0.0682 -0.10784,0.0305 -0.21564,0.0681 -0.32246,0.11317 -0.10681,0.0451 -0.21234,0.0973 -0.31626,0.15606 -0.10392,0.0588 -0.20625,0.12428 -0.30541,0.19585 -0.0991,0.0716 -0.19531,0.14909 -0.28783,0.23255 -0.0925,0.0835 -0.18109,0.17273 -0.2651,0.26716 -0.084,0.0944 -0.16356,0.19419 -0.2372,0.29869 -0.0736,0.10451 -0.14169,0.21397 -0.20309,0.32763 -0.0614,0.11366 -0.116,0.23156 -0.16329,0.35347 -0.0473,0.12191 -0.087,0.24799 -0.11834,0.37724 -0.0313,0.12925 -0.0542,0.26171 -0.0677,0.39739 -0.007,0.0678 -0.011,0.1364 -0.0129,0.20567 -0.002,0.0693 -0.002,0.13921 0.002,0.20981 0.003,0.0706 0.009,0.14213 0.0176,0.21394 0.008,0.0718 0.0192,0.14413 0.0331,0.21704 0.0139,0.0729 0.031,0.14625 0.0507,0.22014 0.0197,0.0739 0.0421,0.14797 0.0677,0.22273 0.0256,0.0747 0.0544,0.15031 0.0863,0.22582 0.0319,0.0755 0.0666,0.15123 0.10491,0.22738 -0.0454,0.0528 -0.0897,0.10624 -0.13074,0.16175 -0.041,0.0555 -0.0788,0.11307 -0.11059,0.17363 -0.0318,0.0606 -0.0577,0.12427 -0.0754,0.19224 -0.009,0.034 -0.0157,0.0691 -0.0202,0.10542 -0.004,0.0363 -0.006,0.0738 -0.006,0.11265 6e-4,0.0389 0.004,0.0787 0.01,0.12041 0.006,0.0418 0.0154,0.0853 0.0279,0.13022 0.0125,0.0449 0.0287,0.0916 0.0481,0.14004 0.0194,0.0484 0.0419,0.0987 0.0687,0.1509 0.0268,0.0522 0.0576,0.10602 0.0925,0.16226 0.0349,0.0562 0.0742,0.11458 0.11782,0.17519 0.0872,0.12121 0.19265,0.2518 0.31832,0.39222 -0.0197,0.0738 -0.041,0.14269 -0.0641,0.20774 -0.0231,0.065 -0.0478,0.12607 -0.0739,0.18293 -0.0261,0.0569 -0.0539,0.10994 -0.0827,0.15917 -0.0288,0.0492 -0.0587,0.0948 -0.0899,0.13694 -0.0312,0.0421 -0.0639,0.0806 -0.0971,0.11627 -0.0333,0.0356 -0.0673,0.068 -0.10232,0.0977 -0.035,0.0297 -0.071,0.0569 -0.10749,0.0811 -0.0365,0.0243 -0.0735,0.0457 -0.1111,0.0651 -0.0751,0.0388 -0.15185,0.0687 -0.22945,0.0915 -0.0776,0.0228 -0.15608,0.0389 -0.23357,0.0501 -0.0775,0.0112 -0.15411,0.0176 -0.22893,0.0217 -0.0748,0.004 -0.14798,0.006 -0.21756,0.007 -0.0763,0.002 -0.1498,-7.8e-4 -0.22066,-0.007 -0.0709,-0.006 -0.13903,-0.0169 -0.20464,-0.031 -0.0656,-0.0141 -0.12857,-0.0323 -0.18913,-0.0538 -0.0606,-0.0214 -0.11844,-0.0461 -0.17415,-0.0744 -0.0557,-0.0283 -0.10913,-0.0602 -0.1602,-0.0951 -0.0511,-0.0348 -0.10013,-0.0727 -0.14676,-0.11368 -0.0466,-0.041 -0.0909,-0.0851 -0.13332,-0.13178 -0.0424,-0.0467 -0.0826,-0.0962 -0.12093,-0.14831 -0.0383,-0.0521 -0.0745,-0.10626 -0.10903,-0.1633 -0.0345,-0.057 -0.0673,-0.11666 -0.0982,-0.17828 -0.0617,-0.12325 -0.11644,-0.25553 -0.16485,-0.39481 -0.0484,-0.13928 -0.0904,-0.28548 -0.12712,-0.4377 -0.0367,-0.15222 -0.068,-0.31025 -0.0946,-0.47232 -0.0266,-0.16208 -0.0486,-0.32828 -0.0667,-0.49713 -0.0181,-0.16884 -0.0322,-0.3401 -0.0434,-0.51263 -0.0112,-0.17252 -0.0199,-0.34623 -0.0258,-0.51935 -0.006,-0.17311 -0.01,-0.34562 -0.0119,-0.51624 -0.005,-0.34125 -0.004,-0.67479 -0.004,-0.98754 2.2e-4,-0.31275 6e-5,-0.605 -0.008,-0.86455 -0.005,-0.16673 -0.0166,-0.33322 -0.0336,-0.49868 -0.017,-0.16545 -0.0396,-0.33003 -0.0682,-0.49299 -0.0286,-0.16295 -0.0631,-0.32394 -0.10283,-0.48317 -0.0398,-0.15924 -0.0849,-0.31647 -0.13539,-0.47078 -0.0505,-0.1543 -0.10616,-0.30609 -0.16692,-0.45423 -0.0608,-0.14815 -0.1268,-0.29279 -0.1974,-0.43357 -0.0706,-0.14077 -0.14581,-0.27761 -0.22583,-0.40979 -0.08,-0.13218 -0.16473,-0.25952 -0.25373,-0.38189 -0.089,-0.12237 -0.18253,-0.23954 -0.28009,-0.35088 -0.0975,-0.11134 -0.19922,-0.21666 -0.30489,-0.31575 -0.10567,-0.0991 -0.2153,-0.19188 -0.32866,-0.2775 -0.11335,-0.0856 -0.23028,-0.16419 -0.35088,-0.23513 -0.12061,-0.0709 -0.24465,-0.1341 -0.37207,-0.18913 -0.12743,-0.055 -0.25842,-0.10214 -0.39223,-0.14004 -0.0669,-0.019 -0.13466,-0.0357 -0.20308,-0.0501 -0.0684,-0.0144 -0.13734,-0.0264 -0.20723,-0.0362 -0.0699,-0.01 -0.14058,-0.0173 -0.21187,-0.0222 -0.0713,-0.005 -0.14337,-0.008 -0.21601,-0.008 z m 7.73855,8.71988 c 0.0273,0.003 0.0563,0.01 0.0858,0.0207 0.0295,0.0107 0.0597,0.0252 0.0904,0.0429 0.0308,0.0177 0.0619,0.0389 0.093,0.063 0.0311,0.0242 0.0624,0.0515 0.093,0.0816 0.0306,0.0301 0.0608,0.0632 0.0899,0.0987 0.0291,0.0355 0.057,0.0738 0.0837,0.11421 0.0384,0.058 0.0736,0.12856 0.10232,0.20412 0.0287,0.0756 0.0507,0.15581 0.063,0.23203 0.006,0.0381 0.01,0.0755 0.0109,0.11058 8.3e-4,0.0351 -0.001,0.0682 -0.007,0.0982 -0.005,0.03 -0.014,0.0568 -0.0263,0.0796 -0.0124,0.0227 -0.0284,0.0409 -0.0486,0.0543 -0.0202,0.0134 -0.0439,0.0207 -0.0703,0.0222 -0.0264,0.002 -0.0552,-0.003 -0.0858,-0.0109 -0.0306,-0.008 -0.0631,-0.0207 -0.0961,-0.0367 -0.033,-0.016 -0.0663,-0.0351 -0.0997,-0.0568 -0.0668,-0.0435 -0.13298,-0.0967 -0.19017,-0.1509 -0.0572,-0.0542 -0.10567,-0.10983 -0.13797,-0.15865 -0.0267,-0.0404 -0.0505,-0.0813 -0.0718,-0.12195 -0.0213,-0.0407 -0.04,-0.081 -0.0558,-0.12093 -0.0158,-0.0399 -0.0287,-0.0792 -0.0388,-0.1173 -0.0101,-0.0381 -0.0174,-0.0753 -0.0217,-0.11059 -0.004,-0.0352 -0.006,-0.0684 -0.004,-0.0997 0.002,-0.0314 0.006,-0.0609 0.014,-0.0873 0.008,-0.0264 0.0187,-0.0499 0.0326,-0.0703 0.0139,-0.0204 0.0309,-0.0378 0.0512,-0.0512 0.0202,-0.0134 0.0425,-0.0221 0.0667,-0.0269 0.0242,-0.005 0.0502,-0.005 0.0775,-0.002 z m 4.58163,0 c 0.0273,-0.003 0.0533,-0.003 0.0775,0.002 0.0242,0.005 0.0465,0.0135 0.0667,0.0269 0.0202,0.0134 0.0373,0.0307 0.0512,0.0512 0.0139,0.0204 0.0249,0.0439 0.0326,0.0703 0.008,0.0264 0.0123,0.056 0.014,0.0873 0.002,0.0313 1.5e-4,0.0645 -0.004,0.0997 -0.004,0.0353 -0.0116,0.0725 -0.0217,0.11059 -0.0101,0.0381 -0.023,0.0774 -0.0388,0.1173 -0.0158,0.0399 -0.034,0.0802 -0.0553,0.12093 -0.0213,0.0407 -0.0456,0.0815 -0.0724,0.12195 -0.0323,0.0488 -0.0808,0.10441 -0.13798,0.15865 -0.0572,0.0542 -0.12281,0.10744 -0.18965,0.1509 -0.0334,0.0217 -0.0673,0.0408 -0.10025,0.0568 -0.033,0.016 -0.0655,0.0285 -0.0961,0.0367 -0.0306,0.008 -0.0594,0.0124 -0.0858,0.0109 -0.0264,-0.002 -0.0501,-0.009 -0.0703,-0.0222 -0.0202,-0.0134 -0.0362,-0.0315 -0.0486,-0.0543 -0.0123,-0.0227 -0.021,-0.0496 -0.0264,-0.0796 -0.005,-0.03 -0.008,-0.0631 -0.007,-0.0982 8.3e-4,-0.0351 0.005,-0.0725 0.0108,-0.11058 0.0123,-0.0762 0.0344,-0.15647 0.0631,-0.23203 0.0287,-0.0756 0.064,-0.14615 0.10232,-0.20412 0.0267,-0.0404 0.0551,-0.0787 0.0842,-0.11421 0.0291,-0.0355 0.0593,-0.0686 0.0899,-0.0987 0.0306,-0.0301 0.0614,-0.0575 0.0925,-0.0816 0.0311,-0.0242 0.0622,-0.0453 0.093,-0.063 0.0308,-0.0177 0.0615,-0.0322 0.091,-0.0429 0.0295,-0.0108 0.058,-0.0174 0.0853,-0.0207 z"
       style="vector-effect:non-scaling-stroke;fill:#764cd0;fill-opacity:1;stroke-width:0.264583;stroke-linecap:round;-inkscape-stroke:hairline"
       id="path137"
       inkscape:export-filename="..\..\..\code\wunderpus-site\logo-color.png"
       inkscape:export-xdpi="96"
       inkscape:export-ydpi="96" /></g></svg>
