<svg xmlns="http://www.w3.org/2000/svg" viewBox="-1.75 -1.75 15.15 15.15" width="24" height="24">
  <g transform="translate(-146.39804,-201.78327)">
    <path fill="#9554d7" d="m 157.16224,213.42907 c 0.0163,1.1e-4 0.0328,-2.6e-4 0.0491,-0.001 0.0164,-0.001 0.0328,-0.003 0.0491,-0.005 0.0164,-0.002 0.0328,-0.004 0.0491,-0.007 0.0163,-0.003 0.0325,-0.006 0.0486,-0.01 0.0161,-0.004 0.0322,-0.007 0.0481,-0.0119 0.0158,-0.005 0.0315,-0.01 0.047,-0.015 0.0157,-0.006 0.0312,-0.0116 0.0465,-0.0181 0.0152,-0.006 0.0302,-0.0129 0.045,-0.0202 0.0147,-0.007 0.0292,-0.0148 0.0434,-0.0227 0.0145,-0.008 0.0288,-0.0161 0.0429,-0.0248 0.014,-0.009 0.0278,-0.0179 0.0413,-0.0274 0.0135,-0.01 0.0268,-0.0196 0.0398,-0.03 0.0129,-0.0103 0.0254,-0.021 0.0377,-0.032 0.0125,-0.0108 0.0248,-0.022 0.0367,-0.0336 0.0327,-0.0327 0.0628,-0.068 0.0899,-0.10542 0.027,-0.0373 0.051,-0.0767 0.0718,-0.11782 0.0209,-0.0411 0.0385,-0.0838 0.0527,-0.12764 0.0144,-0.044 0.0253,-0.0891 0.0326,-0.13488 0.007,-0.0455 0.0108,-0.0914 0.0109,-0.13746 3e-5,-0.0464 -0.004,-0.0927 -0.0109,-0.13849 -0.007,-0.0456 -0.0182,-0.0905 -0.0326,-0.13436 -0.0142,-0.044 -0.0318,-0.0869 -0.0527,-0.12816 -0.021,-0.0411 -0.0453,-0.0805 -0.0724,-0.11782 -0.0272,-0.0373 -0.0572,-0.0723 -0.0899,-0.1049 l -0.25012,0.24959 -1.90117,-1.90117 0.74827,-0.74879 c 0.0281,-0.0279 0.0528,-0.0584 0.0739,-0.092 0.0209,-0.0337 0.0382,-0.0696 0.0512,-0.10697 0.0131,-0.0374 0.0225,-0.0759 0.0269,-0.11524 0.004,-0.0393 0.004,-0.0791 0,-0.11834 -0.004,-0.0394 -0.0138,-0.0784 -0.0269,-0.11575 -0.0131,-0.0375 -0.0301,-0.0733 -0.0512,-0.10697 -0.0209,-0.0337 -0.0459,-0.065 -0.0739,-0.093 -0.004,-0.004 -0.007,-0.007 -0.0109,-0.0103 l -0.36329,-0.36381 -0.3638,0.36381 c 0,0 0,0 0,0 -0.004,0.003 -0.007,0.006 -0.0103,0.01 l 0.37413,0.37466 -2.24482,2.24482 -0.37466,-0.37413 c -0.005,0.005 -0.0101,0.0106 -0.015,0.016 -0.002,0.002 -0.003,0.004 -0.005,0.006 l -0.35295,0.35295 0.36329,0.3638 c 0.003,0.004 0.007,0.007 0.0109,0.0103 0.0103,0.0105 0.0212,0.0203 0.0326,0.0294 0.011,0.01 0.0223,0.0183 0.0346,0.0264 0.0116,0.009 0.0238,0.0171 0.0367,0.0243 0.0128,0.007 0.0253,0.014 0.0382,0.0207 0.0133,0.006 0.0266,0.0123 0.0403,0.0176 0.0136,0.005 0.0273,0.0102 0.0413,0.0145 0.0139,0.004 0.0277,0.008 0.0419,0.0103 0.0143,0.003 0.0293,0.005 0.0439,0.007 0.0146,0.002 0.0288,0.003 0.0434,0.004 0.0147,5.7e-4 0.0293,6.4e-4 0.0439,0 0.0147,-5.6e-4 0.029,-0.002 0.0434,-0.004 0.0145,-0.002 0.029,-0.004 0.0434,-0.007 0.0142,-0.003 0.028,-0.006 0.0419,-0.0103 0.014,-0.004 0.0277,-0.009 0.0413,-0.0145 0.0137,-0.005 0.0271,-0.0113 0.0403,-0.0176 0.0133,-0.006 0.0257,-0.013 0.0382,-0.0207 0.0129,-0.007 0.0244,-0.0162 0.0367,-0.0243 0.0116,-0.009 0.0235,-0.0175 0.0351,-0.0264 0.011,-0.01 0.0212,-0.0191 0.0315,-0.0294 l 0.74776,-0.74776 1.90066,1.90066 -0.25012,0.25011 c 0.0119,0.0115 0.0241,0.0227 0.0367,0.0336 0.0121,0.011 0.0245,0.0217 0.0372,0.032 0.013,0.0102 0.0268,0.0201 0.0403,0.0295 0.0135,0.01 0.0272,0.0187 0.0413,0.0274 0.0139,0.009 0.028,0.0169 0.0424,0.0248 0.0146,0.008 0.0294,0.0159 0.0445,0.0233 0.0148,0.007 0.0298,0.014 0.045,0.0202 0.0153,0.006 0.0308,0.0122 0.0465,0.0176 0.0155,0.006 0.0312,0.0108 0.047,0.0155 0.0157,0.004 0.0315,0.008 0.0475,0.0119 0.0163,0.004 0.0326,0.007 0.0491,0.01 0.0161,0.003 0.0323,0.005 0.0486,0.007 0.0163,0.002 0.0327,0.003 0.0491,0.004 0.0163,8e-4 0.0328,0.001 0.0491,0.001 z m -3.48041,-2.95072 0.45579,-0.45579 -1.88826,-1.88877 -0.16743,-0.16743 -1.98851,-1.98851 -0.0894,-0.0894 -0.49868,-0.49868 -1.65674,-1.65727 -0.58808,-0.58807 0.49868,-0.49868 0.58807,0.58808 1.65675,1.65674 0.4992,0.4992 0.0894,0.0894 1.98799,1.98799 0.16743,0.16743 1.88877,1.88878 0.45631,-0.45631 -6.93136,-6.93084 -1.76372,-0.35295 0.35295,1.76423 z"/>
    <path fill="#9554d7" d="m 156.14499,206.73984 a 0.23399176,0.40112865 60.337069 0 0 -0.19017,0.0718 0.23399176,0.40112865 60.337069 0 0 -0.15864,0.1266 0.23399176,0.40112865 60.337069 0 0 -0.0853,0.14728 0.23399176,0.40112865 60.337069 0 0 0.0114,0.12816 0.23399176,0.40112865 60.337069 0 0 0.10438,0.0749 0.23399176,0.40112865 60.337069 0 0 0.17002,0.002 0.23399176,0.40112865 60.337069 0 0 0.19017,-0.0718 0.23399176,0.40112865 60.337069 0 0 0.0584,-0.0377 0.23399176,0.40112865 60.337069 0 0 0.0538,-0.0429 0.23399176,0.40112865 60.337069 0 0 0.0465,-0.046 0.23399176,0.40112865 60.337069 0 0 0.0382,-0.0486 0.23399176,0.40112865 60.337069 0 0 0.0284,-0.0496 0.23399176,0.40112865 60.337069 0 0 0.0186,-0.0491 0.23399176,0.40112865 60.337069 0 0 0.007,-0.0465 0.23399176,0.40112865 60.337069 0 0 -0.004,-0.0434 0.23399176,0.40112865 60.337069 0 0 -0.015,-0.0382 0.23399176,0.40112865 60.337069 0 0 -0.10438,-0.0754 0.23399176,0.40112865 60.337069 0 0 -0.17002,-0.002 z"/>
    <path fill="#9554d7" d="m 157.25138,206.00551 a 0.20182417,0.34598425 51.190679 0 0 -0.14469,0.0217 0.20182417,0.34598425 51.190679 0 0 -0.15193,0.0873 0.20182417,0.34598425 51.190679 0 0 -0.11782,0.12919 0.20182417,0.34598425 51.190679 0 0 -0.0522,0.13694 0.20182417,0.34598425 51.190679 0 0 0.0269,0.10801 0.20182417,0.34598425 51.190679 0 0 0.03,0.0264 0.20182417,0.34598425 51.190679 0 0 0.0393,0.0171 0.20182417,0.34598425 51.190679 0 0 0.0465,0.007 0.20182417,0.34598425 51.190679 0 0 0.0527,-0.003 0.20182417,0.34598425 51.190679 0 0 0.0569,-0.0134 0.20182417,0.34598425 51.190679 0 0 0.0579,-0.0227 0.20182417,0.34598425 51.190679 0 0 0.0579,-0.032 0.20182417,0.34598425 51.190679 0 0 0.0553,-0.0393 0.20182417,0.34598425 51.190679 0 0 0.11782,-0.12919 0.20182417,0.34598425 51.190679 0 0 0.0522,-0.13694 0.20182417,0.34598425 51.190679 0 0 -0.0269,-0.10749 v -5.1e-4 a 0.20182417,0.34598425 51.190679 0 0 -0.0997,-0.0491 z"/>
    <path fill="#9554d7" d="m 157.81672,205.29651 a 0.15310381,0.26246366 33.492679 0 0 -0.0997,0.0491 0.15310381,0.26246366 33.492679 0 0 -0.0894,0.0982 0.15310381,0.26246366 33.492679 0 0 -0.0553,0.12041 0.15310381,0.26246366 33.492679 0 0 -0.006,0.1111 0.15310381,0.26246366 33.492679 0 0 0.0444,0.0718 0.15310381,0.26246366 33.492679 0 0 0.0832,0.0129 0.15310381,0.26246366 33.492679 0 0 0.0997,-0.0491 0.15310381,0.26246366 33.492679 0 0 0.0894,-0.0982 0.15310381,0.26246366 33.492679 0 0 0.0289,-0.0512 0.15310381,0.26246366 33.492679 0 0 0.0212,-0.0522 0.15310381,0.26246366 33.492679 0 0 0.0124,-0.0517 0.15310381,0.26246366 33.492679 0 0 0.003,-0.0481 0.15310381,0.26246366 33.492679 0 0 -0.007,-0.0419 0.15310381,0.26246366 33.492679 0 0 -0.0165,-0.0341 0.15310381,0.26246366 33.492679 0 0 -0.0248,-0.0243 0.15310381,0.26246366 33.492679 0 0 -0.0832,-0.0129 z"/>
    <path fill="#9554d7" d="m 156.41784,201.78872 5.2e-4,5.1e-4 c -0.0359,1.3e-4 -0.0728,0.002 -0.10955,0.006 -0.037,0.004 -0.0734,0.009 -0.11059,0.016 -0.0373,0.007 -0.0749,0.0156 -0.11214,0.0258 -0.0373,0.0101 -0.0747,0.0224 -0.11162,0.0357 -0.0369,0.0134 -0.0731,0.0286 -0.10904,0.0455 -0.0362,0.0161 -0.0716,0.0336 -0.10645,0.0532 -0.0347,0.0198 -0.069,0.0404 -0.10232,0.0625 -0.0333,0.0225 -0.0659,0.0454 -0.0971,0.0703 -0.0314,0.0248 -0.0621,0.0517 -0.091,0.0791 -0.029,0.0274 -0.0565,0.0559 -0.0827,0.0858 -0.0262,0.0298 -0.0509,0.0609 -0.0739,0.093 -0.023,0.0322 -0.0446,0.0649 -0.0641,0.0992 -0.0194,0.0344 -0.0367,0.07 -0.0522,0.10645 -0.0155,0.0365 -0.0287,0.0737 -0.0398,0.11214 -0.0111,0.0384 -0.02,0.078 -0.0264,0.11834 -0.006,0.0403 -0.0103,0.0815 -0.0114,0.1235 -8.8e-4,0.0339 3.1e-4,0.0666 0.005,0.0987 0.004,0.0321 0.011,0.0629 0.0196,0.093 0.009,0.0301 0.0191,0.0593 0.0315,0.0873 0.0124,0.028 0.0268,0.0549 0.0424,0.0806 0.0156,0.0257 0.0325,0.0506 0.0506,0.0739 0.0181,0.0232 0.0373,0.0449 0.0574,0.0656 0.0201,0.0207 0.0412,0.0403 0.0625,0.0584 0.0214,0.018 0.043,0.0345 0.0651,0.0496 0.0441,0.0301 0.0892,0.0542 0.13229,0.0718 0.0215,0.009 0.0427,0.0161 0.063,0.0217 0.0203,0.006 0.0398,0.009 0.0584,0.0114 0.0188,0.002 0.0361,0.002 0.0522,0 0.0161,-0.002 0.0308,-0.005 0.0439,-0.0103 0.0131,-0.005 0.0244,-0.0127 0.0336,-0.0227 0.009,-0.009 0.0167,-0.0211 0.0217,-0.0346 0.003,-0.009 0.006,-0.0181 0.006,-0.0264 2.8e-4,-0.008 -6.1e-4,-0.0159 -0.004,-0.0233 -0.005,-0.0148 -0.016,-0.0283 -0.0305,-0.0413 -0.029,-0.0261 -0.0729,-0.0505 -0.11834,-0.0822 -0.0227,-0.0159 -0.0458,-0.0334 -0.0677,-0.0537 -0.0219,-0.0204 -0.0421,-0.0438 -0.0599,-0.0708 -0.009,-0.0135 -0.0171,-0.0279 -0.0243,-0.0434 -0.007,-0.0155 -0.0135,-0.0323 -0.0186,-0.0501 -0.005,-0.0179 -0.01,-0.0369 -0.0124,-0.0574 -0.003,-0.0204 -0.004,-0.0419 -0.004,-0.0651 2.1e-4,-0.0315 0.002,-0.0621 0.005,-0.091 0.003,-0.0289 0.008,-0.0563 0.015,-0.0827 0.006,-0.0264 0.0134,-0.052 0.0222,-0.076 0.009,-0.024 0.0192,-0.0466 0.0305,-0.0682 0.0112,-0.0217 0.0233,-0.0421 0.0367,-0.0615 0.0134,-0.0194 0.0276,-0.0381 0.0429,-0.0553 0.0306,-0.0344 0.0651,-0.0642 0.1018,-0.0904 0.0367,-0.0262 0.0758,-0.0485 0.11679,-0.0672 0.0409,-0.019 0.0836,-0.0332 0.12661,-0.0455 0.0434,-0.0114 0.0872,-0.0203 0.13074,-0.0258 0.0436,-0.006 0.0867,-0.008 0.12868,-0.008 0.028,2e-5 0.0563,0.002 0.0848,0.006 0.0284,0.004 0.0577,0.009 0.0863,0.0165 0.0286,0.007 0.0568,0.0163 0.0853,0.0269 0.0284,0.0106 0.0562,0.023 0.0842,0.0367 0.056,0.0272 0.11171,0.0603 0.16434,0.0982 0.0526,0.0379 0.1024,0.0801 0.14934,0.1266 0.047,0.0465 0.0912,0.0972 0.13022,0.15038 0.0194,0.0265 0.0378,0.0538 0.0548,0.0816 0.017,0.028 0.0326,0.0563 0.047,0.0853 0.0144,0.029 0.0273,0.0581 0.0387,0.0879 0.0114,0.0297 0.0213,0.0597 0.0295,0.0899 0.008,0.0301 0.0145,0.0607 0.0191,0.091 0.005,0.0305 0.008,0.0613 0.008,0.092 0.001,0.0508 -3.4e-4,0.10097 -0.004,0.15038 -0.004,0.0494 -0.009,0.0983 -0.0176,0.14624 -0.008,0.048 -0.0189,0.095 -0.0315,0.14159 -0.0126,0.0466 -0.0274,0.0927 -0.0444,0.13798 -0.017,0.0453 -0.0358,0.0899 -0.0568,0.13384 -0.0211,0.044 -0.0443,0.0875 -0.0692,0.13023 -0.0251,0.0427 -0.0522,0.0846 -0.0811,0.12609 -0.0289,0.0415 -0.0594,0.0827 -0.092,0.12299 -0.0325,0.0403 -0.0668,0.0796 -0.10284,0.11885 -0.0361,0.0391 -0.0743,0.0778 -0.11369,0.11576 -0.0394,0.038 -0.0804,0.0753 -0.12299,0.11214 -0.0426,0.0369 -0.0867,0.0732 -0.13229,0.10903 -0.0912,0.0716 -0.18812,0.14131 -0.29042,0.20878 -0.10231,0.0675 -0.20932,0.13272 -0.32143,0.19637 -0.11213,0.0637 -0.22869,0.12544 -0.34933,0.18552 -0.12066,0.0601 -0.24521,0.11841 -0.3731,0.17518 -0.12785,0.0569 -0.25938,0.11174 -0.39326,0.16536 -0.13381,0.0538 -0.27038,0.10531 -0.40876,0.15658 -0.13874,0.0504 -0.27932,0.10028 -0.42117,0.14883 -0.1419,0.0483 -0.28538,0.0952 -0.42943,0.14108 -0.0226,0.007 -0.0454,0.0136 -0.0677,0.0212 l 0.95549,0.95549 c 0.059,-0.026 0.11678,-0.0507 0.17622,-0.078 0.15306,-0.0698 0.30742,-0.14261 0.46199,-0.21911 0.15458,-0.0765 0.3095,-0.15668 0.4625,-0.24029 0.15299,-0.0836 0.30433,-0.17096 0.45269,-0.262 0.0742,-0.0455 0.14765,-0.0922 0.22014,-0.13953 0.0725,-0.0474 0.14407,-0.0954 0.21446,-0.14469 0.0704,-0.0493 0.13933,-0.0996 0.20722,-0.1509 0.0679,-0.0513 0.13443,-0.10338 0.19947,-0.15658 0.065,-0.0532 0.1289,-0.10751 0.19069,-0.16278 0.0618,-0.0553 0.12165,-0.11116 0.17983,-0.16846 0.0582,-0.0573 0.11427,-0.11583 0.16847,-0.17519 0.0542,-0.0594 0.10624,-0.11991 0.15606,-0.18138 0.0498,-0.0615 0.0976,-0.12397 0.14263,-0.18759 0.0451,-0.0636 0.0877,-0.12797 0.12764,-0.19378 0.0399,-0.0658 0.0772,-0.13303 0.11162,-0.20102 0.0344,-0.068 0.066,-0.13701 0.0946,-0.20723 0.0285,-0.0702 0.0542,-0.14144 0.0765,-0.21394 0.0223,-0.0725 0.0412,-0.14637 0.0568,-0.22117 0.0157,-0.0748 0.0281,-0.15079 0.0367,-0.2279 0.009,-0.0771 0.0138,-0.15513 0.015,-0.23461 9e-4,-0.0574 -0.002,-0.11425 -0.007,-0.17053 -0.006,-0.0563 -0.0143,-0.11206 -0.0258,-0.16691 -0.0116,-0.0549 -0.0258,-0.10918 -0.0429,-0.16227 -0.0171,-0.0531 -0.0372,-0.10506 -0.0594,-0.15606 -0.0223,-0.051 -0.0469,-0.10081 -0.0739,-0.14934 -0.027,-0.0486 -0.0561,-0.0958 -0.0873,-0.1416 -0.0312,-0.0458 -0.0647,-0.0901 -0.0997,-0.13281 -0.0351,-0.0427 -0.0721,-0.0837 -0.11059,-0.12299 -0.0385,-0.0393 -0.0784,-0.0767 -0.11989,-0.11213 -0.0415,-0.0355 -0.0841,-0.0689 -0.12816,-0.10026 -0.044,-0.0314 -0.0892,-0.0607 -0.13539,-0.0879 -0.0462,-0.027 -0.0933,-0.0517 -0.14107,-0.0739 -0.0478,-0.0222 -0.0967,-0.0418 -0.14573,-0.0589 -0.0491,-0.0171 -0.0984,-0.0317 -0.14831,-0.0434 -0.0499,-0.0117 -0.10009,-0.0204 -0.15038,-0.0264 -0.0503,-0.006 -0.10065,-0.009 -0.1509,-0.009 z m 1.39888,3.50779 a 0.15310381,0.26246366 33.492679 0 1 0.0832,0.0129 0.15310381,0.26246366 33.492679 0 1 0.0248,0.0243 0.15310381,0.26246366 33.492679 0 1 0.0165,0.0341 0.15310381,0.26246366 33.492679 0 1 0.007,0.0419 0.15310381,0.26246366 33.492679 0 1 -0.003,0.0481 0.15310381,0.26246366 33.492679 0 1 -0.0124,0.0517 0.15310381,0.26246366 33.492679 0 1 -0.0212,0.0522 0.15310381,0.26246366 33.492679 0 1 -0.0289,0.0512 0.15310381,0.26246366 33.492679 0 1 -0.0894,0.0982 0.15310381,0.26246366 33.492679 0 1 -0.0997,0.0491 0.15310381,0.26246366 33.492679 0 1 -0.0832,-0.0129 0.15310381,0.26246366 33.492679 0 1 -0.0444,-0.0718 0.15310381,0.26246366 33.492679 0 1 0.006,-0.1111 0.15310381,0.26246366 33.492679 0 1 0.0553,-0.12041 0.15310381,0.26246366 33.492679 0 1 0.0894,-0.0982 0.15310381,0.26246366 33.492679 0 1 0.0997,-0.0491 z m -0.56534,0.709 a 0.20182417,0.34598425 51.190679 0 1 0.0997,0.0491 v 5.1e-4 a 0.20182417,0.34598425 51.190679 0 1 0.0269,0.10749 0.20182417,0.34598425 51.190679 0 1 -0.0522,0.13694 0.20182417,0.34598425 51.190679 0 1 -0.11782,0.12919 0.20182417,0.34598425 51.190679 0 1 -0.0553,0.0393 0.20182417,0.34598425 51.190679 0 1 -0.0579,0.032 0.20182417,0.34598425 51.190679 0 1 -0.0579,0.0227 0.20182417,0.34598425 51.190679 0 1 -0.0569,0.0134 0.20182417,0.34598425 51.190679 0 1 -0.0527,0.003 0.20182417,0.34598425 51.190679 0 1 -0.0465,-0.007 0.20182417,0.34598425 51.190679 0 1 -0.0393,-0.0171 0.20182417,0.34598425 51.190679 0 1 -0.03,-0.0264 0.20182417,0.34598425 51.190679 0 1 -0.0269,-0.10801 0.20182417,0.34598425 51.190679 0 1 0.0522,-0.13694 0.20182417,0.34598425 51.190679 0 1 0.11782,-0.12919 0.20182417,0.34598425 51.190679 0 1 0.15193,-0.0873 0.20182417,0.34598425 51.190679 0 1 0.14469,-0.0217 z m -2.67787,1.54513 0.39067,0.39067 a 0.26987666,0.46264562 68.890543 0 0 0.17312,-0.10025 0.26987666,0.46264562 68.890543 0 0 0.12247,-0.15296 0.26987666,0.46264562 68.890543 0 0 0.009,-0.14831 0.26987666,0.46264562 68.890543 0 0 -0.10646,-0.10336 0.26987666,0.46264562 68.890543 0 0 -0.19378,-0.0315 0.26987666,0.46264562 68.890543 0 0 -0.22841,0.0496 0.26987666,0.46264562 68.890543 0 0 -0.16692,0.0961 z m 1.57148,-0.8108 a 0.23399176,0.40112865 60.337069 0 1 0.17002,0.002 0.23399176,0.40112865 60.337069 0 1 0.10438,0.0754 0.23399176,0.40112865 60.337069 0 1 0.015,0.0382 0.23399176,0.40112865 60.337069 0 1 0.004,0.0434 0.23399176,0.40112865 60.337069 0 1 -0.007,0.0465 0.23399176,0.40112865 60.337069 0 1 -0.0186,0.0491 0.23399176,0.40112865 60.337069 0 1 -0.0284,0.0496 0.23399176,0.40112865 60.337069 0 1 -0.0382,0.0486 0.23399176,0.40112865 60.337069 0 1 -0.0465,0.046 0.23399176,0.40112865 60.337069 0 1 -0.0538,0.0429 0.23399176,0.40112865 60.337069 0 1 -0.0584,0.0377 0.23399176,0.40112865 60.337069 0 1 -0.19017,0.0718 0.23399176,0.40112865 60.337069 0 1 -0.17002,-0.002 0.23399176,0.40112865 60.337069 0 1 -0.10438,-0.0749 0.23399176,0.40112865 60.337069 0 1 -0.0114,-0.12816 0.23399176,0.40112865 60.337069 0 1 0.0853,-0.14728 0.23399176,0.40112865 60.337069 0 1 0.15864,-0.1266 0.23399176,0.40112865 60.337069 0 1 0.19017,-0.0718 z m -4.16512,3.03495 -0.29972,-0.29972 c 9.5e-4,0.002 0.002,0.002 0.003,0.005 0.003,0.0113 0.005,0.029 0.003,0.0558 -0.002,0.0268 -0.0109,0.0601 -0.0258,0.0951 -0.007,0.0175 -0.0167,0.0353 -0.0274,0.0532 -0.0107,0.018 -0.0232,0.0359 -0.0372,0.0532 -0.014,0.0174 -0.0291,0.0329 -0.0444,0.047 -0.0153,0.0141 -0.031,0.0269 -0.0465,0.0377 -0.031,0.0216 -0.0614,0.0365 -0.0868,0.0444 -0.0254,0.008 -0.0422,0.0102 -0.0537,0.009 -0.0115,-9.1e-4 -0.0173,-0.005 -0.0202,-0.007 -0.002,-0.002 -0.008,-0.007 -0.0109,-0.0186 -0.003,-0.0113 -0.005,-0.0285 -0.002,-0.0553 0.002,-0.0268 0.011,-0.0599 0.0264,-0.0946 0.008,-0.0173 0.0171,-0.0349 0.0279,-0.0527 0.0109,-0.0179 0.0237,-0.0359 0.0377,-0.0532 0.014,-0.0173 0.0288,-0.0333 0.0439,-0.0475 0.0152,-0.0142 0.0307,-0.0267 0.046,-0.0377 0.0306,-0.022 0.0604,-0.0375 0.0858,-0.0455 0.0254,-0.008 0.0427,-0.01 0.0543,-0.009 0.006,4.9e-4 0.007,0.003 0.0109,0.004 l -0.2837,-0.28422 c -0.0239,0.013 -0.0476,0.0263 -0.0703,0.0424 -0.0288,0.0205 -0.0566,0.0435 -0.0832,0.0687 -0.0265,0.0252 -0.052,0.0526 -0.076,0.0822 -0.024,0.0296 -0.0454,0.0602 -0.0646,0.0915 -0.0192,0.0313 -0.0359,0.0635 -0.0501,0.0961 -0.0142,0.0326 -0.0262,0.0657 -0.0351,0.0992 -0.009,0.0335 -0.0152,0.0673 -0.0186,0.10128 -0.003,0.034 -0.004,0.0689 -5.1e-4,0.10387 0.003,0.0349 0.0106,0.0703 0.0217,0.10387 0.0111,0.0336 0.0263,0.0656 0.046,0.0956 0.01,0.015 0.0209,0.0297 0.0331,0.0434 0.0122,0.0137 0.0252,0.0266 0.0398,0.0388 0.0146,0.0121 0.0298,0.0232 0.0455,0.0326 0.0157,0.009 0.0321,0.0174 0.0486,0.0243 0.033,0.0137 0.0671,0.0224 0.1018,0.0269 0.0347,0.004 0.0699,0.005 0.10439,10e-4 0.0345,-0.004 0.0685,-0.0111 0.10076,-0.0212 0.0323,-0.01 0.0639,-0.0228 0.0946,-0.0382 0.0307,-0.0155 0.0606,-0.0332 0.0894,-0.0537 0.0288,-0.0205 0.0567,-0.0435 0.0832,-0.0687 0.0265,-0.0252 0.0515,-0.0526 0.0754,-0.0822 0.024,-0.0296 0.0459,-0.0602 0.0651,-0.0915 0.0191,-0.0311 0.0354,-0.0632 0.0496,-0.0956 z m -0.8723,-0.87178 -0.84956,-0.84956 0.003,-0.003 -0.22738,-0.22738 c -0.0414,0.0308 -0.0838,0.0606 -0.12454,0.092 -0.0952,0.0734 -0.18858,0.14838 -0.28009,0.2248 -0.0915,0.0764 -0.18089,0.15451 -0.26871,0.23357 -0.0878,0.079 -0.1743,0.15895 -0.25839,0.2403 -0.0841,0.0813 -0.16614,0.16381 -0.24649,0.24701 -0.0803,0.0832 -0.15858,0.16735 -0.23513,0.25218 -0.0766,0.0848 -0.15153,0.17034 -0.22428,0.25632 -0.0728,0.086 -0.14348,0.17261 -0.21239,0.25941 -0.0689,0.0868 -0.13597,0.17372 -0.20102,0.26097 -0.0651,0.0873 -0.12796,0.17466 -0.18913,0.262 -0.0612,0.0873 -0.12052,0.17495 -0.17777,0.262 -0.0573,0.0871 -0.11257,0.17353 -0.16588,0.25993 -0.0533,0.0864 -0.10467,0.17248 -0.154,0.25787 -0.0493,0.0854 -0.0968,0.1702 -0.14211,0.25425 -0.0453,0.0841 -0.0884,0.16733 -0.12971,0.24959 -0.0826,0.16451 -0.15738,0.32529 -0.22375,0.48059 -0.0332,0.0776 -0.0644,0.15371 -0.0935,0.22841 -0.0291,0.0747 -0.0562,0.14805 -0.0811,0.21963 -0.025,0.0716 -0.048,0.14127 -0.0687,0.20929 -0.0207,0.068 -0.0392,0.13439 -0.0558,0.19844 -0.0166,0.064 -0.031,0.1263 -0.0434,0.18603 -0.0124,0.0597 -0.0228,0.11704 -0.031,0.17208 -0.008,0.055 -0.0142,0.10764 -0.0181,0.15762 -0.004,0.05 -0.006,0.0975 -0.005,0.14211 h 2.68924 c -5.8e-4,-0.0468 0.002,-0.10531 0.008,-0.17364 0.006,-0.0683 0.0157,-0.14644 0.0289,-0.23357 0.0133,-0.0871 0.0303,-0.18309 0.0512,-0.28629 0.0209,-0.10325 0.0455,-0.2137 0.0744,-0.33021 0.0289,-0.11653 0.0623,-0.23929 0.0997,-0.36639 0.0374,-0.1271 0.0787,-0.25884 0.12505,-0.39377 0.0463,-0.13494 0.0977,-0.27287 0.15348,-0.4129 0.0557,-0.14002 0.1163,-0.28188 0.1819,-0.42426 0.0656,-0.14238 0.13598,-0.28537 0.21188,-0.42737 0.0759,-0.14198 0.15726,-0.28281 0.24391,-0.42168 0.0433,-0.0694 0.0877,-0.13858 0.13384,-0.2067 0.0461,-0.0681 0.0937,-0.13556 0.14263,-0.20206 0.0489,-0.0665 0.0996,-0.13192 0.15141,-0.19637 0.0518,-0.0645 0.10491,-0.12797 0.15968,-0.19017 0.0548,-0.0622 0.11121,-0.12342 0.16898,-0.18293 0.0261,-0.0268 0.0534,-0.0523 0.0801,-0.0786 z m -0.35553,1.4919 c -0.0288,-9e-5 -0.0571,0.003 -0.0853,0.008 -0.0374,0.007 -0.0743,0.0188 -0.10903,0.0341 -0.0348,0.0153 -0.0674,0.0339 -0.0977,0.0553 -0.0304,0.0213 -0.0593,0.0454 -0.0863,0.0718 -0.0271,0.0264 -0.0521,0.0552 -0.0755,0.0863 -0.0234,0.0311 -0.0451,0.0649 -0.0646,0.10025 -0.0195,0.0354 -0.0369,0.0728 -0.0522,0.11214 -0.0153,0.0392 -0.0277,0.0788 -0.0377,0.11834 -0.01,0.0395 -0.0167,0.0786 -0.0207,0.11782 -0.004,0.0392 -0.005,0.0781 -0.003,0.11627 0.002,0.0381 0.006,0.0755 0.0145,0.11214 0.008,0.0366 0.0189,0.0735 0.0341,0.10852 0.0151,0.035 0.0342,0.0683 0.0568,0.0992 0.0227,0.0309 0.0489,0.0589 0.0791,0.0832 0.0151,0.0122 0.0311,0.0236 0.0481,0.0336 0.0169,0.0101 0.0348,0.0183 0.0537,0.0264 0.0188,0.008 0.0378,0.0141 0.0568,0.0181 0.0191,0.005 0.0383,0.007 0.0574,0.009 0.0382,0.003 0.0766,8e-4 0.11369,-0.006 0.0371,-0.007 0.0735,-0.0189 0.108,-0.0341 0.0345,-0.0152 0.0674,-0.034 0.0977,-0.0553 0.0304,-0.0213 0.0587,-0.0447 0.0858,-0.0713 0.0271,-0.0266 0.0525,-0.0554 0.076,-0.0868 0.0235,-0.0314 0.0455,-0.0652 0.0651,-0.10077 0.0196,-0.0356 0.0369,-0.0734 0.0522,-0.11265 0.0153,-0.0393 0.0272,-0.0784 0.0372,-0.11782 0.01,-0.0393 0.0167,-0.0789 0.0207,-0.11783 0.004,-0.0389 0.005,-0.0772 0.003,-0.11523 -0.002,-0.038 -0.006,-0.0755 -0.0145,-0.11214 -0.008,-0.0366 -0.0192,-0.0729 -0.0341,-0.10801 -0.0149,-0.0351 -0.0335,-0.0692 -0.0558,-0.10025 -0.0223,-0.031 -0.0481,-0.0593 -0.078,-0.0837 -0.015,-0.0122 -0.0312,-0.0236 -0.0481,-0.0336 -0.0169,-0.0101 -0.0348,-0.0189 -0.0537,-0.0269 -0.0188,-0.008 -0.0377,-0.0136 -0.0568,-0.0176 -0.0192,-0.005 -0.0387,-0.008 -0.0579,-0.009 v -5.2e-4 c -0.01,-7.5e-4 -0.0194,-0.001 -0.0289,-0.001 z m -0.0103,0.35398 c 0.0111,-5.6e-4 0.0193,0.001 0.0253,0.004 l 0.001,5.2e-4 c 0.008,0.004 0.0174,0.0101 0.0274,0.0243 0.01,0.0142 0.0188,0.036 0.0258,0.0687 0.004,0.0164 0.006,0.0344 0.007,0.0543 0,0.0199 -0.001,0.0412 -0.003,0.0636 -0.002,0.0224 -0.006,0.0463 -0.0119,0.0703 -0.006,0.024 -0.0127,0.0483 -0.0227,0.0729 -0.01,0.0246 -0.0206,0.0478 -0.0326,0.0693 -0.012,0.0215 -0.0253,0.0414 -0.0388,0.0594 -0.0134,0.018 -0.0273,0.0341 -0.0413,0.048 -0.0139,0.0139 -0.0278,0.0251 -0.0413,0.0351 -0.027,0.0191 -0.0485,0.0286 -0.0651,0.0326 -0.0166,0.003 -0.0287,9.3e-4 -0.0367,-0.002 -0.009,-0.004 -0.0195,-0.0104 -0.0295,-0.0248 -0.0101,-0.0144 -0.0194,-0.0366 -0.0264,-0.0692 -0.003,-0.0164 -0.005,-0.0344 -0.006,-0.0543 -0.001,-0.0199 6e-5,-0.0412 0.002,-0.0636 0.002,-0.0225 0.006,-0.0458 0.0119,-0.0698 0.006,-0.024 0.0127,-0.0488 0.0227,-0.0734 0.01,-0.0247 0.0205,-0.0478 0.0325,-0.0693 0.012,-0.0215 0.0248,-0.0414 0.0382,-0.0594 0.0134,-0.018 0.0273,-0.0341 0.0413,-0.0481 0.014,-0.0139 0.0284,-0.0251 0.0419,-0.0351 0.027,-0.0191 0.0486,-0.028 0.0656,-0.032 h 5.2e-4 c 0.004,-7.5e-4 0.008,-0.001 0.0119,-0.002 z m 0.0393,-0.35243 c -0.0385,-0.003 -0.0768,-4.4e-4 -0.11421,0.007 -0.0375,0.007 -0.0743,0.0188 -0.10903,0.0341 -0.0348,0.0153 -0.0673,0.034 -0.0977,0.0553 -0.0303,0.0213 -0.0593,0.0454 -0.0863,0.0718 -0.027,0.0264 -0.0521,0.0552 -0.0755,0.0863 -0.0234,0.0311 -0.0451,0.0648 -0.0646,0.10025 -0.0195,0.0354 -0.0369,0.0729 -0.0522,0.11214 -0.0153,0.0393 -0.028,0.0788 -0.0377,0.11834 -0.01,0.0395 -0.0167,0.0787 -0.0207,0.11782 -0.004,0.0392 -0.005,0.0781 -0.003,0.11627 0.002,0.0382 0.007,0.0755 0.0145,0.11214 0.008,0.0366 0.0189,0.0735 0.0341,0.10852 0.0152,0.035 0.0342,0.0683 0.0568,0.0992 0.0226,0.0309 0.0489,0.0594 0.0791,0.0837 0.0151,0.0121 0.0311,0.0231 0.0481,0.0331 0.017,0.01 0.0349,0.0188 0.0537,0.0264 0.0189,0.008 0.0378,0.0137 0.0568,0.0181 0.0191,0.004 0.0382,0.007 0.0574,0.009 0.0382,0.003 0.0765,8.2e-4 0.11369,-0.006 0.0371,-0.007 0.0735,-0.0189 0.108,-0.0341 0.0345,-0.0152 0.0673,-0.034 0.0977,-0.0553 0.0303,-0.0213 0.0587,-0.0452 0.0858,-0.0718 0.0271,-0.0266 0.0525,-0.0555 0.076,-0.0868 0.0235,-0.0314 0.0455,-0.0652 0.0651,-0.10077 0.0196,-0.0356 0.0369,-0.0734 0.0522,-0.11266 0.0153,-0.0393 0.0276,-0.0785 0.0372,-0.11782 0.01,-0.0394 0.0168,-0.0789 0.0207,-0.11782 0.004,-0.0389 0.005,-0.0772 0.003,-0.11524 -0.002,-0.038 -0.007,-0.0755 -0.0145,-0.11214 -0.008,-0.0366 -0.0192,-0.0729 -0.0341,-0.108 -0.0149,-0.0351 -0.0335,-0.0692 -0.0558,-0.10025 -0.0223,-0.0311 -0.0481,-0.0593 -0.078,-0.0837 -0.015,-0.0122 -0.0311,-0.0236 -0.0481,-0.0336 -0.0169,-0.01 -0.0349,-0.0188 -0.0537,-0.0264 -0.0189,-0.008 -0.0377,-0.0132 -0.0568,-0.0176 -0.0192,-0.004 -0.0386,-0.007 -0.0579,-0.009 z m -0.0517,0.35398 c 0.0171,-0.004 0.0293,-0.002 0.0377,0.002 l 5.2e-4,5.2e-4 c 0.009,0.004 0.0183,0.0101 0.0279,0.0243 0.01,0.0142 0.0189,0.036 0.0258,0.0687 0.003,0.0163 0.006,0.0344 0.007,0.0543 8e-4,0.0199 -3.1e-4,0.0411 -0.003,0.0636 -0.002,0.0224 -0.006,0.0463 -0.0119,0.0703 -0.006,0.024 -0.0131,0.0482 -0.0227,0.0729 -0.01,0.0246 -0.0206,0.0477 -0.0326,0.0692 -0.012,0.0215 -0.0253,0.0415 -0.0388,0.0594 -0.0134,0.0179 -0.0274,0.0341 -0.0413,0.0481 -0.014,0.014 -0.0278,0.0256 -0.0413,0.0351 -0.0271,0.0191 -0.0485,0.0288 -0.0651,0.0326 -0.0166,0.004 -0.0282,0.002 -0.0367,-0.002 -0.009,-0.004 -0.0194,-0.0104 -0.0295,-0.0248 -0.01,-0.0144 -0.0195,-0.0366 -0.0264,-0.0692 -0.003,-0.0163 -0.005,-0.0344 -0.006,-0.0543 -8e-4,-0.0199 -2.1e-4,-0.0411 0.002,-0.0636 0.002,-0.0224 0.006,-0.0458 0.0119,-0.0698 0.006,-0.024 0.0131,-0.0488 0.0227,-0.0734 0.01,-0.0246 0.0206,-0.0477 0.0325,-0.0693 0.012,-0.0215 0.0248,-0.0415 0.0382,-0.0594 0.0135,-0.0179 0.0274,-0.0341 0.0413,-0.0481 0.014,-0.0139 0.0283,-0.0256 0.0419,-0.0351 0.0271,-0.0191 0.0486,-0.0284 0.0656,-0.032 z m -0.57462,1.27796 c -0.0204,0 -0.0406,0.001 -0.0605,0.003 -0.0398,0.005 -0.0783,0.0148 -0.11524,0.0295 -0.0369,0.0147 -0.0722,0.0338 -0.1049,0.0563 -0.0327,0.0225 -0.0627,0.0484 -0.0899,0.0765 -0.0273,0.0281 -0.0525,0.0586 -0.0755,0.0915 -0.0229,0.0329 -0.0437,0.0683 -0.062,0.10542 -0.0182,0.0371 -0.0342,0.0761 -0.0475,0.11679 -0.0133,0.0407 -0.024,0.0829 -0.032,0.12661 -0.008,0.0437 -0.0135,0.0871 -0.0155,0.12971 -0.002,0.0426 -9e-4,0.0846 0.003,0.12557 0.004,0.041 0.0102,0.0812 0.0202,0.11989 0.01,0.0387 0.0218,0.0761 0.0372,0.11214 0.0154,0.036 0.0344,0.0712 0.0568,0.10387 0.0224,0.0327 0.0483,0.063 0.0775,0.0899 0.0291,0.0269 0.0616,0.0501 0.0971,0.0687 0.0177,0.009 0.0365,0.0173 0.0558,0.0243 0.0192,0.007 0.0391,0.012 0.0599,0.016 0.0208,0.004 0.0411,0.007 0.0615,0.007 0.0204,0 0.0406,-10e-4 0.0605,-0.003 0.0398,-0.005 0.0789,-0.0148 0.11575,-0.0295 0.0369,-0.0147 0.0717,-0.0338 0.10439,-0.0563 0.0326,-0.0226 0.0631,-0.0484 0.0904,-0.0765 0.0272,-0.0281 0.052,-0.0588 0.0749,-0.0915 0.0229,-0.0327 0.0438,-0.0675 0.062,-0.10438 0.0182,-0.0369 0.0337,-0.0758 0.047,-0.11627 0.0133,-0.0405 0.0246,-0.0829 0.0326,-0.12661 0.008,-0.0437 0.0135,-0.0874 0.0155,-0.13023 0.002,-0.0428 9e-4,-0.0849 -0.003,-0.12609 -0.004,-0.0412 -0.01,-0.0815 -0.0196,-0.1204 -0.009,-0.0389 -0.0223,-0.0761 -0.0377,-0.11214 -0.0154,-0.036 -0.0344,-0.0712 -0.0568,-0.10387 -0.0224,-0.0327 -0.0483,-0.063 -0.0775,-0.0899 -0.0291,-0.027 -0.0616,-0.0506 -0.0971,-0.0692 -0.0178,-0.009 -0.036,-0.0168 -0.0553,-0.0238 -0.0193,-0.007 -0.0392,-0.012 -0.06,-0.016 -0.0208,-0.004 -0.0416,-0.007 -0.062,-0.007 z m -0.0134,0.35295 c 0.004,6e-5 0.007,5.4e-4 0.0103,0.001 h 5.2e-4 c 0.0128,0.003 0.0273,0.009 0.0424,0.0233 0.008,0.007 0.0147,0.0163 0.0227,0.0279 0.008,0.0116 0.0157,0.026 0.0227,0.0429 0.007,0.017 0.0131,0.0362 0.0181,0.0574 0.005,0.0212 0.008,0.0442 0.0103,0.0687 0.002,0.0245 0.003,0.0502 0.002,0.077 -0.002,0.0268 -0.005,0.0546 -0.01,0.0827 -0.005,0.0281 -0.0132,0.0548 -0.0212,0.0801 -0.008,0.0253 -0.0173,0.0489 -0.0279,0.0708 -0.0106,0.0219 -0.0224,0.0422 -0.0346,0.06 -0.0121,0.0178 -0.0249,0.0333 -0.0377,0.0465 -0.0129,0.0132 -0.0249,0.024 -0.0362,0.032 -0.0112,0.009 -0.0215,0.0136 -0.0315,0.0176 -0.0193,0.008 -0.0354,0.009 -0.0481,0.007 -0.0128,-0.003 -0.0277,-0.009 -0.0429,-0.0238 -0.008,-0.007 -0.0153,-0.0163 -0.0233,-0.0279 -0.008,-0.0116 -0.0152,-0.0255 -0.0222,-0.0424 -0.007,-0.0169 -0.0136,-0.0358 -0.0186,-0.0568 -0.005,-0.021 -0.008,-0.044 -0.01,-0.0682 -0.003,-0.0243 -0.003,-0.0499 -0.002,-0.0765 10e-4,-0.0266 0.005,-0.0541 0.01,-0.0822 0.005,-0.0281 0.0127,-0.0551 0.0207,-0.0806 0.008,-0.0254 0.0182,-0.0497 0.0289,-0.0718 0.0107,-0.0221 0.0219,-0.0419 0.0341,-0.0599 0.0122,-0.018 0.0254,-0.0333 0.0382,-0.0465 0.0129,-0.0132 0.0249,-0.024 0.0362,-0.032 0.0113,-0.009 0.021,-0.0136 0.031,-0.0176 0.0145,-0.006 0.0269,-0.008 0.0377,-0.008 z m 0.0134,-0.35295 c -0.0204,-6.4e-4 -0.0406,2.8e-4 -0.0605,0.003 -0.0398,0.005 -0.0784,0.0147 -0.11524,0.0294 -0.0369,0.0147 -0.0722,0.0338 -0.1049,0.0563 -0.0327,0.0225 -0.0627,0.0484 -0.0899,0.0765 -0.0273,0.028 -0.0525,0.0586 -0.0755,0.0915 -0.0229,0.0329 -0.0437,0.0683 -0.062,0.10542 -0.0183,0.0371 -0.0342,0.0761 -0.0475,0.11679 -0.0133,0.0407 -0.0239,0.0829 -0.032,0.1266 -0.008,0.0437 -0.0134,0.0871 -0.0155,0.12971 -0.002,0.0426 -0.001,0.0846 0.003,0.12557 0.004,0.041 0.0105,0.0811 0.0202,0.11989 0.01,0.0387 0.0218,0.0762 0.0372,0.11214 0.0154,0.036 0.0344,0.0711 0.0568,0.10387 0.0224,0.0327 0.0484,0.063 0.0775,0.0899 0.0291,0.0269 0.0616,0.0501 0.0971,0.0687 0.0178,0.009 0.0365,0.0175 0.0558,0.0243 0.0193,0.007 0.0392,0.0122 0.0599,0.016 0.0207,0.004 0.0411,0.006 0.0615,0.007 0.0204,6.4e-4 0.0406,-2.7e-4 0.0605,-0.003 0.0398,-0.005 0.0789,-0.0148 0.11576,-0.0295 0.0369,-0.0147 0.0717,-0.0338 0.10438,-0.0563 0.0327,-0.0225 0.0632,-0.0484 0.0904,-0.0765 0.0273,-0.028 0.052,-0.0588 0.0749,-0.0915 0.0229,-0.0327 0.0438,-0.0675 0.062,-0.10439 0.0182,-0.0369 0.0337,-0.0757 0.047,-0.11627 0.0133,-0.0405 0.0244,-0.0829 0.0325,-0.12661 0.008,-0.0437 0.0133,-0.0874 0.0155,-0.13022 0.002,-0.0428 0.001,-0.0849 -0.003,-0.12609 -0.004,-0.0412 -0.0101,-0.0815 -0.0196,-0.12041 -0.01,-0.0389 -0.0223,-0.0762 -0.0377,-0.11214 -0.0154,-0.036 -0.0344,-0.0711 -0.0568,-0.10387 -0.0225,-0.0327 -0.0484,-0.063 -0.0775,-0.0899 -0.0291,-0.0269 -0.0616,-0.0506 -0.0971,-0.0693 -0.0178,-0.009 -0.036,-0.017 -0.0553,-0.0238 -0.0193,-0.007 -0.0392,-0.0122 -0.06,-0.016 -0.0208,-0.004 -0.0416,-0.006 -0.062,-0.007 z m -0.003,0.35399 h 5.2e-4 c 0.0127,0.003 0.0272,0.009 0.0424,0.0233 0.008,0.007 0.0151,0.0163 0.0227,0.0279 0.008,0.0116 0.0155,0.026 0.0227,0.0429 0.007,0.0169 0.0132,0.0362 0.0181,0.0574 0.005,0.0212 0.008,0.0442 0.0103,0.0687 0.002,0.0245 0.003,0.0502 0.002,0.077 -0.001,0.0268 -0.005,0.0546 -0.01,0.0827 -0.005,0.0281 -0.0123,0.0548 -0.0207,0.0801 -0.008,0.0253 -0.0178,0.0489 -0.0284,0.0708 -0.0107,0.0219 -0.0225,0.0421 -0.0346,0.06 -0.0121,0.0178 -0.0249,0.0333 -0.0377,0.0465 -0.0129,0.0132 -0.0249,0.0239 -0.0362,0.032 -0.0113,0.008 -0.0219,0.0136 -0.0315,0.0176 -0.0193,0.008 -0.0353,0.009 -0.0481,0.007 -0.0127,-0.003 -0.0272,-0.009 -0.0424,-0.0238 -0.008,-0.007 -0.0157,-0.0163 -0.0233,-0.0279 -0.008,-0.0116 -0.015,-0.0255 -0.0222,-0.0424 -0.007,-0.0169 -0.0137,-0.0358 -0.0186,-0.0568 -0.005,-0.021 -0.008,-0.044 -0.0103,-0.0682 -0.002,-0.0242 -0.003,-0.0499 -0.002,-0.0765 0.001,-0.0266 0.005,-0.0541 0.01,-0.0822 0.005,-0.0281 0.0123,-0.0551 0.0207,-0.0806 0.008,-0.0255 0.0182,-0.0497 0.0289,-0.0718 0.0107,-0.0221 0.0219,-0.0419 0.0341,-0.0599 0.0122,-0.018 0.0254,-0.0338 0.0382,-0.047 0.0129,-0.0132 0.0249,-0.0239 0.0362,-0.032 0.0113,-0.008 0.0214,-0.0136 0.031,-0.0176 0.0193,-0.008 0.0353,-0.009 0.0481,-0.007 z"/>
  </g>
</svg>
